<?xml version="1.0" encoding="UTF-8" standalone="no"?>
<!DOCTYPE svg PUBLIC "-//W3C//DTD SVG 1.1//EN"
 "http://www.w3.org/Graphics/SVG/1.1/DTD/svg11.dtd">
<!-- Generated by graphviz version 7.1.0 (20230121.1956)
 -->
<!-- Pages: 1 -->
<svg width="413pt" height="322pt"
 viewBox="0.00 0.00 413.00 322.35" xmlns="http://www.w3.org/2000/svg" xmlns:xlink="http://www.w3.org/1999/xlink">
<g id="graph0" class="graph" transform="scale(1 1) rotate(0) translate(4 318.35)">
<polygon fill="white" stroke="none" points="-4,4 -4,-318.35 409,-318.35 409,4 -4,4"/>
<!-- &#45;148 -->
<g id="node1" class="node">
<title>&#45;148</title>
<polygon fill="lightgray" stroke="black" points="33,-156.28 0,-156.28 0,-138.28 33,-138.28 33,-156.28"/>
<text text-anchor="middle" x="16.5" y="-145.08" font-family="Times,serif" font-size="9.00">&#45;148</text>
</g>
<!-- &#45;149 -->
<g id="node2" class="node">
<title>&#45;149</title>
<polygon fill="lightgray" stroke="black" points="150,-77.85 117,-77.85 117,-59.85 150,-59.85 150,-77.85"/>
<text text-anchor="middle" x="133.5" y="-66.65" font-family="Times,serif" font-size="9.00">&#45;149</text>
</g>
<!-- &#45;150 -->
<g id="node3" class="node">
<title>&#45;150</title>
<polygon fill="lightgray" stroke="black" points="343,-18 310,-18 310,0 343,0 343,-18"/>
<text text-anchor="middle" x="326.5" y="-6.8" font-family="Times,serif" font-size="9.00">&#45;150</text>
</g>
<!-- &#45;151 -->
<g id="node4" class="node">
<title>&#45;151</title>
<polygon fill="lightgray" stroke="black" points="405,-156.28 372,-156.28 372,-138.28 405,-138.28 405,-156.28"/>
<text text-anchor="middle" x="388.5" y="-145.08" font-family="Times,serif" font-size="9.00">&#45;151</text>
</g>
<!-- &#45;52 -->
<g id="node5" class="node">
<title>&#45;52</title>
<polygon fill="lightgray" stroke="black" points="60,-314.35 31,-314.35 31,-296.35 60,-296.35 60,-314.35"/>
<text text-anchor="middle" x="45.5" y="-303.15" font-family="Times,serif" font-size="9.00">&#45;52</text>
</g>
<!-- 0 -->
<g id="node6" class="node">
<title>0</title>
<ellipse fill="lightblue" stroke="black" cx="16.5" cy="-235.6" rx="14.7" ry="14.7"/>
<text text-anchor="middle" x="16.5" y="-233.4" font-family="Times,serif" font-size="9.00">0</text>
</g>
<!-- &#45;52&#45;&gt;0 -->
<g id="edge1" class="edge">
<title>&#45;52&#45;&gt;0</title>
<path fill="none" stroke="green" stroke-width="2.01" d="M41.94,-296.04C38.26,-287.44 32.33,-273.58 27.12,-261.41"/>
<polygon fill="green" stroke="green" stroke-width="2.01" points="30.42,-260.24 23.27,-252.42 23.99,-262.99 30.42,-260.24"/>
</g>
<!-- 7983 -->
<g id="node14" class="node">
<title>7983</title>
<ellipse fill="white" stroke="black" cx="74.5" cy="-235.6" rx="25" ry="25"/>
<text text-anchor="middle" x="74.5" y="-233.4" font-family="Times,serif" font-size="9.00">7983</text>
</g>
<!-- &#45;52&#45;&gt;7983 -->
<g id="edge6" class="edge">
<title>&#45;52&#45;&gt;7983</title>
<path fill="none" stroke="green" stroke-width="0.51" d="M49.06,-296.04C52.01,-289.15 56.4,-278.89 60.71,-268.82"/>
<polygon fill="green" stroke="green" stroke-width="0.51" points="63.91,-270.23 64.63,-259.66 57.48,-267.47 63.91,-270.23"/>
</g>
<!-- 0&#45;&gt;&#45;148 -->
<g id="edge12" class="edge">
<title>0&#45;&gt;&#45;148</title>
<path fill="none" stroke="green" d="M16.5,-220.73C16.5,-206.44 16.5,-184.04 16.5,-167.93"/>
<polygon fill="green" stroke="green" points="20,-168.14 16.5,-158.14 13,-168.14 20,-168.14"/>
</g>
<!-- &#45;120 -->
<g id="node7" class="node">
<title>&#45;120</title>
<polygon fill="lightgray" stroke="black" points="405,-314.35 372,-314.35 372,-296.35 405,-296.35 405,-314.35"/>
<text text-anchor="middle" x="388.5" y="-303.15" font-family="Times,serif" font-size="9.00">&#45;120</text>
</g>
<!-- 3 -->
<g id="node8" class="node">
<title>3</title>
<ellipse fill="lightblue" stroke="black" cx="388.5" cy="-235.6" rx="14.7" ry="14.7"/>
<text text-anchor="middle" x="388.5" y="-233.4" font-family="Times,serif" font-size="9.00">3</text>
</g>
<!-- &#45;120&#45;&gt;3 -->
<g id="edge2" class="edge">
<title>&#45;120&#45;&gt;3</title>
<path fill="none" stroke="red" stroke-width="0.61" d="M388.5,-296.04C388.5,-287.47 388.5,-273.69 388.5,-261.55"/>
<polygon fill="red" stroke="red" stroke-width="0.61" points="392,-261.57 388.5,-251.57 385,-261.57 392,-261.57"/>
</g>
<!-- 3&#45;&gt;&#45;151 -->
<g id="edge15" class="edge">
<title>3&#45;&gt;&#45;151</title>
<path fill="none" stroke="green" d="M388.5,-220.73C388.5,-206.44 388.5,-184.04 388.5,-167.93"/>
<polygon fill="green" stroke="green" points="392,-168.14 388.5,-158.14 385,-168.14 392,-168.14"/>
</g>
<!-- &#45;118 -->
<g id="node9" class="node">
<title>&#45;118</title>
<polygon fill="lightgray" stroke="black" points="335,-314.35 302,-314.35 302,-296.35 335,-296.35 335,-314.35"/>
<text text-anchor="middle" x="318.5" y="-303.15" font-family="Times,serif" font-size="9.00">&#45;118</text>
</g>
<!-- 5095 -->
<g id="node10" class="node">
<title>5095</title>
<ellipse fill="white" stroke="black" cx="259.5" cy="-235.6" rx="25" ry="25"/>
<text text-anchor="middle" x="259.5" y="-233.4" font-family="Times,serif" font-size="9.00">5095</text>
</g>
<!-- &#45;118&#45;&gt;5095 -->
<g id="edge3" class="edge">
<title>&#45;118&#45;&gt;5095</title>
<path fill="none" stroke="red" stroke-width="0.27" d="M311.27,-296.04C304.05,-287.75 292.57,-274.58 282.26,-262.74"/>
<polygon fill="red" stroke="red" stroke-width="0.27" points="285.19,-260.77 275.98,-255.53 279.91,-265.37 285.19,-260.77"/>
</g>
<!-- 7696 -->
<g id="node13" class="node">
<title>7696</title>
<ellipse fill="white" stroke="black" cx="326.5" cy="-235.6" rx="25" ry="25"/>
<text text-anchor="middle" x="326.5" y="-233.4" font-family="Times,serif" font-size="9.00">7696</text>
</g>
<!-- &#45;118&#45;&gt;7696 -->
<g id="edge5" class="edge">
<title>&#45;118&#45;&gt;7696</title>
<path fill="none" stroke="green" stroke-width="0.48" d="M319.48,-296.04C320.23,-289.68 321.32,-280.43 322.42,-271.12"/>
<polygon fill="green" stroke="green" stroke-width="0.48" points="325.87,-271.79 323.57,-261.45 318.92,-270.97 325.87,-271.79"/>
</g>
<!-- &#45;113 -->
<g id="node11" class="node">
<title>&#45;113</title>
<polygon fill="lightgray" stroke="black" points="150,-244.6 117,-244.6 117,-226.6 150,-226.6 150,-244.6"/>
<text text-anchor="middle" x="133.5" y="-233.4" font-family="Times,serif" font-size="9.00">&#45;113</text>
</g>
<!-- 1 -->
<g id="node12" class="node">
<title>1</title>
<ellipse fill="lightblue" stroke="black" cx="133.5" cy="-147.28" rx="14.7" ry="14.7"/>
<text text-anchor="middle" x="133.5" y="-145.08" font-family="Times,serif" font-size="9.00">1</text>
</g>
<!-- &#45;113&#45;&gt;1 -->
<g id="edge4" class="edge">
<title>&#45;113&#45;&gt;1</title>
<path fill="none" stroke="red" stroke-width="0.63" d="M133.5,-226.32C133.5,-214.21 133.5,-191.14 133.5,-173.21"/>
<polygon fill="red" stroke="red" stroke-width="0.63" points="137,-173.29 133.5,-163.29 130,-173.29 137,-173.29"/>
</g>
<!-- 1&#45;&gt;&#45;149 -->
<g id="edge13" class="edge">
<title>1&#45;&gt;&#45;149</title>
<path fill="none" stroke="green" d="M133.5,-132.26C133.5,-120.24 133.5,-102.8 133.5,-89.41"/>
<polygon fill="green" stroke="green" points="137,-89.63 133.5,-79.63 130,-89.63 137,-89.63"/>
</g>
<!-- 11043 -->
<g id="node16" class="node">
<title>11043</title>
<ellipse fill="white" stroke="black" cx="326.5" cy="-147.28" rx="27.65" ry="27.65"/>
<text text-anchor="middle" x="326.5" y="-145.08" font-family="Times,serif" font-size="9.00">11043</text>
</g>
<!-- 7696&#45;&gt;11043 -->
<g id="edge9" class="edge">
<title>7696&#45;&gt;11043</title>
<path fill="none" stroke="green" stroke-width="0.44" d="M326.5,-210.55C326.5,-202.84 326.5,-194.1 326.5,-185.66"/>
<polygon fill="green" stroke="green" stroke-width="0.44" points="330,-185.89 326.5,-175.89 323,-185.89 330,-185.89"/>
</g>
<!-- 7983&#45;&gt;1 -->
<g id="edge7" class="edge">
<title>7983&#45;&gt;1</title>
<path fill="none" stroke="red" stroke-width="0.49" d="M88.18,-214.58C97.59,-200.82 110.04,-182.61 119.51,-168.75"/>
<polygon fill="red" stroke="red" stroke-width="0.49" points="122.34,-170.81 125.09,-160.58 116.56,-166.86 122.34,-170.81"/>
</g>
<!-- 8374 -->
<g id="node15" class="node">
<title>8374</title>
<ellipse fill="white" stroke="black" cx="192.5" cy="-235.6" rx="25" ry="25"/>
<text text-anchor="middle" x="192.5" y="-233.4" font-family="Times,serif" font-size="9.00">8374</text>
</g>
<!-- 8374&#45;&gt;1 -->
<g id="edge8" class="edge">
<title>8374&#45;&gt;1</title>
<path fill="none" stroke="green" stroke-width="0.24" d="M178.82,-214.58C169.32,-200.69 156.72,-182.26 147.22,-168.35"/>
<polygon fill="green" stroke="green" stroke-width="0.24" points="150.22,-166.54 141.69,-160.26 144.44,-170.49 150.22,-166.54"/>
</g>
<!-- 2 -->
<g id="node17" class="node">
<title>2</title>
<ellipse fill="lightblue" stroke="black" cx="326.5" cy="-68.85" rx="14.7" ry="14.7"/>
<text text-anchor="middle" x="326.5" y="-66.65" font-family="Times,serif" font-size="9.00">2</text>
</g>
<!-- 11043&#45;&gt;2 -->
<g id="edge10" class="edge">
<title>11043&#45;&gt;2</title>
<path fill="none" stroke="red" stroke-width="0.29" d="M326.5,-119.55C326.5,-111.26 326.5,-102.18 326.5,-94.07"/>
<polygon fill="red" stroke="red" stroke-width="0.29" points="330,-94.23 326.5,-84.23 323,-94.23 330,-94.23"/>
</g>
<!-- 2&#45;&gt;&#45;150 -->
<g id="edge14" class="edge">
<title>2&#45;&gt;&#45;150</title>
<path fill="none" stroke="green" d="M326.5,-53.85C326.5,-46.56 326.5,-37.54 326.5,-29.57"/>
<polygon fill="green" stroke="green" points="330,-29.84 326.5,-19.84 323,-29.84 330,-29.84"/>
</g>
<!-- &#45;105 -->
<g id="node18" class="node">
<title>&#45;105</title>
<polygon fill="lightgray" stroke="black" points="276,-314.35 243,-314.35 243,-296.35 276,-296.35 276,-314.35"/>
<text text-anchor="middle" x="259.5" y="-303.15" font-family="Times,serif" font-size="9.00">&#45;105</text>
</g>
<!-- &#45;105&#45;&gt;5095 -->
<g id="edge11" class="edge">
<title>&#45;105&#45;&gt;5095</title>
<path fill="none" stroke="green" stroke-width="0.12" d="M259.5,-296.04C259.5,-289.66 259.5,-280.38 259.5,-271.04"/>
<polygon fill="green" stroke="green" stroke-width="0.12" points="263,-271.21 259.5,-261.21 256,-271.21 263,-271.21"/>
</g>
</g>
</svg>
