<?xml version="1.0" encoding="utf-8" standalone="no"?>
<!DOCTYPE svg PUBLIC "-//W3C//DTD SVG 1.1//EN"
  "http://www.w3.org/Graphics/SVG/1.1/DTD/svg11.dtd">
<svg xmlns:xlink="http://www.w3.org/1999/xlink" width="1008pt" height="576pt" viewBox="0 0 1008 576" xmlns="http://www.w3.org/2000/svg" version="1.1">
 <metadata>
  <rdf:RDF xmlns:dc="http://purl.org/dc/elements/1.1/" xmlns:cc="http://creativecommons.org/ns#" xmlns:rdf="http://www.w3.org/1999/02/22-rdf-syntax-ns#">
   <cc:Work>
    <dc:type rdf:resource="http://purl.org/dc/dcmitype/StillImage"/>
    <dc:date>2023-05-17T17:27:02.454529</dc:date>
    <dc:format>image/svg+xml</dc:format>
    <dc:creator>
     <cc:Agent>
      <dc:title>Matplotlib v3.6.3, https://matplotlib.org/</dc:title>
     </cc:Agent>
    </dc:creator>
   </cc:Work>
  </rdf:RDF>
 </metadata>
 <defs>
  <style type="text/css">*{stroke-linejoin: round; stroke-linecap: butt}</style>
 </defs>
 <g id="figure_1">
  <g id="patch_1">
   <path d="M 0 576 
L 1008 576 
L 1008 0 
L 0 0 
z
" style="fill: #ffffff"/>
  </g>
  <g id="axes_1">
   <g id="patch_2">
    <path d="M 126 512.64 
L 907.2 512.64 
L 907.2 69.12 
L 126 69.12 
z
" style="fill: #ffffff"/>
   </g>
   <g id="matplotlib.axis_1">
    <g id="xtick_1">
     <g id="line2d_1">
      <defs>
       <path id="mb593886b27" d="M 0 0 
L 0 3.5 
" style="stroke: #000000; stroke-width: 0.8"/>
      </defs>
      <g>
       <use xlink:href="#mb593886b27" x="161.509091" y="512.64" style="stroke: #000000; stroke-width: 0.8"/>
      </g>
     </g>
     <g id="text_1">
      <!-- 0 -->
      <g transform="translate(158.327841 527.238438) scale(0.1 -0.1)">
       <defs>
        <path id="DejaVuSans-30" d="M 2034 4250 
Q 1547 4250 1301 3770 
Q 1056 3291 1056 2328 
Q 1056 1369 1301 889 
Q 1547 409 2034 409 
Q 2525 409 2770 889 
Q 3016 1369 3016 2328 
Q 3016 3291 2770 3770 
Q 2525 4250 2034 4250 
z
M 2034 4750 
Q 2819 4750 3233 4129 
Q 3647 3509 3647 2328 
Q 3647 1150 3233 529 
Q 2819 -91 2034 -91 
Q 1250 -91 836 529 
Q 422 1150 422 2328 
Q 422 3509 836 4129 
Q 1250 4750 2034 4750 
z
" transform="scale(0.015625)"/>
       </defs>
       <use xlink:href="#DejaVuSans-30"/>
      </g>
     </g>
    </g>
    <g id="xtick_2">
     <g id="line2d_2">
      <g>
       <use xlink:href="#mb593886b27" x="252.093506" y="512.64" style="stroke: #000000; stroke-width: 0.8"/>
      </g>
     </g>
     <g id="text_2">
      <!-- 200 -->
      <g transform="translate(242.549756 527.238438) scale(0.1 -0.1)">
       <defs>
        <path id="DejaVuSans-32" d="M 1228 531 
L 3431 531 
L 3431 0 
L 469 0 
L 469 531 
Q 828 903 1448 1529 
Q 2069 2156 2228 2338 
Q 2531 2678 2651 2914 
Q 2772 3150 2772 3378 
Q 2772 3750 2511 3984 
Q 2250 4219 1831 4219 
Q 1534 4219 1204 4116 
Q 875 4013 500 3803 
L 500 4441 
Q 881 4594 1212 4672 
Q 1544 4750 1819 4750 
Q 2544 4750 2975 4387 
Q 3406 4025 3406 3419 
Q 3406 3131 3298 2873 
Q 3191 2616 2906 2266 
Q 2828 2175 2409 1742 
Q 1991 1309 1228 531 
z
" transform="scale(0.015625)"/>
       </defs>
       <use xlink:href="#DejaVuSans-32"/>
       <use xlink:href="#DejaVuSans-30" x="63.623047"/>
       <use xlink:href="#DejaVuSans-30" x="127.246094"/>
      </g>
     </g>
    </g>
    <g id="xtick_3">
     <g id="line2d_3">
      <g>
       <use xlink:href="#mb593886b27" x="342.677922" y="512.64" style="stroke: #000000; stroke-width: 0.8"/>
      </g>
     </g>
     <g id="text_3">
      <!-- 400 -->
      <g transform="translate(333.134172 527.238438) scale(0.1 -0.1)">
       <defs>
        <path id="DejaVuSans-34" d="M 2419 4116 
L 825 1625 
L 2419 1625 
L 2419 4116 
z
M 2253 4666 
L 3047 4666 
L 3047 1625 
L 3713 1625 
L 3713 1100 
L 3047 1100 
L 3047 0 
L 2419 0 
L 2419 1100 
L 313 1100 
L 313 1709 
L 2253 4666 
z
" transform="scale(0.015625)"/>
       </defs>
       <use xlink:href="#DejaVuSans-34"/>
       <use xlink:href="#DejaVuSans-30" x="63.623047"/>
       <use xlink:href="#DejaVuSans-30" x="127.246094"/>
      </g>
     </g>
    </g>
    <g id="xtick_4">
     <g id="line2d_4">
      <g>
       <use xlink:href="#mb593886b27" x="433.262338" y="512.64" style="stroke: #000000; stroke-width: 0.8"/>
      </g>
     </g>
     <g id="text_4">
      <!-- 600 -->
      <g transform="translate(423.718588 527.238438) scale(0.1 -0.1)">
       <defs>
        <path id="DejaVuSans-36" d="M 2113 2584 
Q 1688 2584 1439 2293 
Q 1191 2003 1191 1497 
Q 1191 994 1439 701 
Q 1688 409 2113 409 
Q 2538 409 2786 701 
Q 3034 994 3034 1497 
Q 3034 2003 2786 2293 
Q 2538 2584 2113 2584 
z
M 3366 4563 
L 3366 3988 
Q 3128 4100 2886 4159 
Q 2644 4219 2406 4219 
Q 1781 4219 1451 3797 
Q 1122 3375 1075 2522 
Q 1259 2794 1537 2939 
Q 1816 3084 2150 3084 
Q 2853 3084 3261 2657 
Q 3669 2231 3669 1497 
Q 3669 778 3244 343 
Q 2819 -91 2113 -91 
Q 1303 -91 875 529 
Q 447 1150 447 2328 
Q 447 3434 972 4092 
Q 1497 4750 2381 4750 
Q 2619 4750 2861 4703 
Q 3103 4656 3366 4563 
z
" transform="scale(0.015625)"/>
       </defs>
       <use xlink:href="#DejaVuSans-36"/>
       <use xlink:href="#DejaVuSans-30" x="63.623047"/>
       <use xlink:href="#DejaVuSans-30" x="127.246094"/>
      </g>
     </g>
    </g>
    <g id="xtick_5">
     <g id="line2d_5">
      <g>
       <use xlink:href="#mb593886b27" x="523.846753" y="512.64" style="stroke: #000000; stroke-width: 0.8"/>
      </g>
     </g>
     <g id="text_5">
      <!-- 800 -->
      <g transform="translate(514.303003 527.238438) scale(0.1 -0.1)">
       <defs>
        <path id="DejaVuSans-38" d="M 2034 2216 
Q 1584 2216 1326 1975 
Q 1069 1734 1069 1313 
Q 1069 891 1326 650 
Q 1584 409 2034 409 
Q 2484 409 2743 651 
Q 3003 894 3003 1313 
Q 3003 1734 2745 1975 
Q 2488 2216 2034 2216 
z
M 1403 2484 
Q 997 2584 770 2862 
Q 544 3141 544 3541 
Q 544 4100 942 4425 
Q 1341 4750 2034 4750 
Q 2731 4750 3128 4425 
Q 3525 4100 3525 3541 
Q 3525 3141 3298 2862 
Q 3072 2584 2669 2484 
Q 3125 2378 3379 2068 
Q 3634 1759 3634 1313 
Q 3634 634 3220 271 
Q 2806 -91 2034 -91 
Q 1263 -91 848 271 
Q 434 634 434 1313 
Q 434 1759 690 2068 
Q 947 2378 1403 2484 
z
M 1172 3481 
Q 1172 3119 1398 2916 
Q 1625 2713 2034 2713 
Q 2441 2713 2670 2916 
Q 2900 3119 2900 3481 
Q 2900 3844 2670 4047 
Q 2441 4250 2034 4250 
Q 1625 4250 1398 4047 
Q 1172 3844 1172 3481 
z
" transform="scale(0.015625)"/>
       </defs>
       <use xlink:href="#DejaVuSans-38"/>
       <use xlink:href="#DejaVuSans-30" x="63.623047"/>
       <use xlink:href="#DejaVuSans-30" x="127.246094"/>
      </g>
     </g>
    </g>
    <g id="xtick_6">
     <g id="line2d_6">
      <g>
       <use xlink:href="#mb593886b27" x="614.431169" y="512.64" style="stroke: #000000; stroke-width: 0.8"/>
      </g>
     </g>
     <g id="text_6">
      <!-- 1000 -->
      <g transform="translate(601.706169 527.238438) scale(0.1 -0.1)">
       <defs>
        <path id="DejaVuSans-31" d="M 794 531 
L 1825 531 
L 1825 4091 
L 703 3866 
L 703 4441 
L 1819 4666 
L 2450 4666 
L 2450 531 
L 3481 531 
L 3481 0 
L 794 0 
L 794 531 
z
" transform="scale(0.015625)"/>
       </defs>
       <use xlink:href="#DejaVuSans-31"/>
       <use xlink:href="#DejaVuSans-30" x="63.623047"/>
       <use xlink:href="#DejaVuSans-30" x="127.246094"/>
       <use xlink:href="#DejaVuSans-30" x="190.869141"/>
      </g>
     </g>
    </g>
    <g id="xtick_7">
     <g id="line2d_7">
      <g>
       <use xlink:href="#mb593886b27" x="705.015584" y="512.64" style="stroke: #000000; stroke-width: 0.8"/>
      </g>
     </g>
     <g id="text_7">
      <!-- 1200 -->
      <g transform="translate(692.290584 527.238438) scale(0.1 -0.1)">
       <use xlink:href="#DejaVuSans-31"/>
       <use xlink:href="#DejaVuSans-32" x="63.623047"/>
       <use xlink:href="#DejaVuSans-30" x="127.246094"/>
       <use xlink:href="#DejaVuSans-30" x="190.869141"/>
      </g>
     </g>
    </g>
    <g id="xtick_8">
     <g id="line2d_8">
      <g>
       <use xlink:href="#mb593886b27" x="795.6" y="512.64" style="stroke: #000000; stroke-width: 0.8"/>
      </g>
     </g>
     <g id="text_8">
      <!-- 1400 -->
      <g transform="translate(782.875 527.238438) scale(0.1 -0.1)">
       <use xlink:href="#DejaVuSans-31"/>
       <use xlink:href="#DejaVuSans-34" x="63.623047"/>
       <use xlink:href="#DejaVuSans-30" x="127.246094"/>
       <use xlink:href="#DejaVuSans-30" x="190.869141"/>
      </g>
     </g>
    </g>
    <g id="xtick_9">
     <g id="line2d_9">
      <g>
       <use xlink:href="#mb593886b27" x="886.184416" y="512.64" style="stroke: #000000; stroke-width: 0.8"/>
      </g>
     </g>
     <g id="text_9">
      <!-- 1600 -->
      <g transform="translate(873.459416 527.238438) scale(0.1 -0.1)">
       <use xlink:href="#DejaVuSans-31"/>
       <use xlink:href="#DejaVuSans-36" x="63.623047"/>
       <use xlink:href="#DejaVuSans-30" x="127.246094"/>
       <use xlink:href="#DejaVuSans-30" x="190.869141"/>
      </g>
     </g>
    </g>
    <g id="text_10">
     <!-- Generation -->
     <g transform="translate(466.392656 546.995312) scale(0.18 -0.18)">
      <defs>
       <path id="DejaVuSans-47" d="M 3809 666 
L 3809 1919 
L 2778 1919 
L 2778 2438 
L 4434 2438 
L 4434 434 
Q 4069 175 3628 42 
Q 3188 -91 2688 -91 
Q 1594 -91 976 548 
Q 359 1188 359 2328 
Q 359 3472 976 4111 
Q 1594 4750 2688 4750 
Q 3144 4750 3555 4637 
Q 3966 4525 4313 4306 
L 4313 3634 
Q 3963 3931 3569 4081 
Q 3175 4231 2741 4231 
Q 1884 4231 1454 3753 
Q 1025 3275 1025 2328 
Q 1025 1384 1454 906 
Q 1884 428 2741 428 
Q 3075 428 3337 486 
Q 3600 544 3809 666 
z
" transform="scale(0.015625)"/>
       <path id="DejaVuSans-65" d="M 3597 1894 
L 3597 1613 
L 953 1613 
Q 991 1019 1311 708 
Q 1631 397 2203 397 
Q 2534 397 2845 478 
Q 3156 559 3463 722 
L 3463 178 
Q 3153 47 2828 -22 
Q 2503 -91 2169 -91 
Q 1331 -91 842 396 
Q 353 884 353 1716 
Q 353 2575 817 3079 
Q 1281 3584 2069 3584 
Q 2775 3584 3186 3129 
Q 3597 2675 3597 1894 
z
M 3022 2063 
Q 3016 2534 2758 2815 
Q 2500 3097 2075 3097 
Q 1594 3097 1305 2825 
Q 1016 2553 972 2059 
L 3022 2063 
z
" transform="scale(0.015625)"/>
       <path id="DejaVuSans-6e" d="M 3513 2113 
L 3513 0 
L 2938 0 
L 2938 2094 
Q 2938 2591 2744 2837 
Q 2550 3084 2163 3084 
Q 1697 3084 1428 2787 
Q 1159 2491 1159 1978 
L 1159 0 
L 581 0 
L 581 3500 
L 1159 3500 
L 1159 2956 
Q 1366 3272 1645 3428 
Q 1925 3584 2291 3584 
Q 2894 3584 3203 3211 
Q 3513 2838 3513 2113 
z
" transform="scale(0.015625)"/>
       <path id="DejaVuSans-72" d="M 2631 2963 
Q 2534 3019 2420 3045 
Q 2306 3072 2169 3072 
Q 1681 3072 1420 2755 
Q 1159 2438 1159 1844 
L 1159 0 
L 581 0 
L 581 3500 
L 1159 3500 
L 1159 2956 
Q 1341 3275 1631 3429 
Q 1922 3584 2338 3584 
Q 2397 3584 2469 3576 
Q 2541 3569 2628 3553 
L 2631 2963 
z
" transform="scale(0.015625)"/>
       <path id="DejaVuSans-61" d="M 2194 1759 
Q 1497 1759 1228 1600 
Q 959 1441 959 1056 
Q 959 750 1161 570 
Q 1363 391 1709 391 
Q 2188 391 2477 730 
Q 2766 1069 2766 1631 
L 2766 1759 
L 2194 1759 
z
M 3341 1997 
L 3341 0 
L 2766 0 
L 2766 531 
Q 2569 213 2275 61 
Q 1981 -91 1556 -91 
Q 1019 -91 701 211 
Q 384 513 384 1019 
Q 384 1609 779 1909 
Q 1175 2209 1959 2209 
L 2766 2209 
L 2766 2266 
Q 2766 2663 2505 2880 
Q 2244 3097 1772 3097 
Q 1472 3097 1187 3025 
Q 903 2953 641 2809 
L 641 3341 
Q 956 3463 1253 3523 
Q 1550 3584 1831 3584 
Q 2591 3584 2966 3190 
Q 3341 2797 3341 1997 
z
" transform="scale(0.015625)"/>
       <path id="DejaVuSans-74" d="M 1172 4494 
L 1172 3500 
L 2356 3500 
L 2356 3053 
L 1172 3053 
L 1172 1153 
Q 1172 725 1289 603 
Q 1406 481 1766 481 
L 2356 481 
L 2356 0 
L 1766 0 
Q 1100 0 847 248 
Q 594 497 594 1153 
L 594 3053 
L 172 3053 
L 172 3500 
L 594 3500 
L 594 4494 
L 1172 4494 
z
" transform="scale(0.015625)"/>
       <path id="DejaVuSans-69" d="M 603 3500 
L 1178 3500 
L 1178 0 
L 603 0 
L 603 3500 
z
M 603 4863 
L 1178 4863 
L 1178 4134 
L 603 4134 
L 603 4863 
z
" transform="scale(0.015625)"/>
       <path id="DejaVuSans-6f" d="M 1959 3097 
Q 1497 3097 1228 2736 
Q 959 2375 959 1747 
Q 959 1119 1226 758 
Q 1494 397 1959 397 
Q 2419 397 2687 759 
Q 2956 1122 2956 1747 
Q 2956 2369 2687 2733 
Q 2419 3097 1959 3097 
z
M 1959 3584 
Q 2709 3584 3137 3096 
Q 3566 2609 3566 1747 
Q 3566 888 3137 398 
Q 2709 -91 1959 -91 
Q 1206 -91 779 398 
Q 353 888 353 1747 
Q 353 2609 779 3096 
Q 1206 3584 1959 3584 
z
" transform="scale(0.015625)"/>
      </defs>
      <use xlink:href="#DejaVuSans-47"/>
      <use xlink:href="#DejaVuSans-65" x="77.490234"/>
      <use xlink:href="#DejaVuSans-6e" x="139.013672"/>
      <use xlink:href="#DejaVuSans-65" x="202.392578"/>
      <use xlink:href="#DejaVuSans-72" x="263.916016"/>
      <use xlink:href="#DejaVuSans-61" x="305.029297"/>
      <use xlink:href="#DejaVuSans-74" x="366.308594"/>
      <use xlink:href="#DejaVuSans-69" x="405.517578"/>
      <use xlink:href="#DejaVuSans-6f" x="433.300781"/>
      <use xlink:href="#DejaVuSans-6e" x="494.482422"/>
     </g>
    </g>
   </g>
   <g id="matplotlib.axis_2">
    <g id="ytick_1">
     <g id="line2d_10">
      <defs>
       <path id="m6733d9ddbf" d="M 0 0 
L -3.5 0 
" style="stroke: #000000; stroke-width: 0.8"/>
      </defs>
      <g>
       <use xlink:href="#m6733d9ddbf" x="126" y="434.88" style="stroke: #000000; stroke-width: 0.8"/>
      </g>
     </g>
     <g id="text_11">
      <!-- 50 -->
      <g transform="translate(106.275 438.679219) scale(0.1 -0.1)">
       <defs>
        <path id="DejaVuSans-35" d="M 691 4666 
L 3169 4666 
L 3169 4134 
L 1269 4134 
L 1269 2991 
Q 1406 3038 1543 3061 
Q 1681 3084 1819 3084 
Q 2600 3084 3056 2656 
Q 3513 2228 3513 1497 
Q 3513 744 3044 326 
Q 2575 -91 1722 -91 
Q 1428 -91 1123 -41 
Q 819 9 494 109 
L 494 744 
Q 775 591 1075 516 
Q 1375 441 1709 441 
Q 2250 441 2565 725 
Q 2881 1009 2881 1497 
Q 2881 1984 2565 2268 
Q 2250 2553 1709 2553 
Q 1456 2553 1204 2497 
Q 953 2441 691 2322 
L 691 4666 
z
" transform="scale(0.015625)"/>
       </defs>
       <use xlink:href="#DejaVuSans-35"/>
       <use xlink:href="#DejaVuSans-30" x="63.623047"/>
      </g>
     </g>
    </g>
    <g id="ytick_2">
     <g id="line2d_11">
      <g>
       <use xlink:href="#m6733d9ddbf" x="126" y="338.88" style="stroke: #000000; stroke-width: 0.8"/>
      </g>
     </g>
     <g id="text_12">
      <!-- 100 -->
      <g transform="translate(99.9125 342.679219) scale(0.1 -0.1)">
       <use xlink:href="#DejaVuSans-31"/>
       <use xlink:href="#DejaVuSans-30" x="63.623047"/>
       <use xlink:href="#DejaVuSans-30" x="127.246094"/>
      </g>
     </g>
    </g>
    <g id="ytick_3">
     <g id="line2d_12">
      <g>
       <use xlink:href="#m6733d9ddbf" x="126" y="242.88" style="stroke: #000000; stroke-width: 0.8"/>
      </g>
     </g>
     <g id="text_13">
      <!-- 150 -->
      <g transform="translate(99.9125 246.679219) scale(0.1 -0.1)">
       <use xlink:href="#DejaVuSans-31"/>
       <use xlink:href="#DejaVuSans-35" x="63.623047"/>
       <use xlink:href="#DejaVuSans-30" x="127.246094"/>
      </g>
     </g>
    </g>
    <g id="ytick_4">
     <g id="line2d_13">
      <g>
       <use xlink:href="#m6733d9ddbf" x="126" y="146.88" style="stroke: #000000; stroke-width: 0.8"/>
      </g>
     </g>
     <g id="text_14">
      <!-- 200 -->
      <g transform="translate(99.9125 150.679219) scale(0.1 -0.1)">
       <use xlink:href="#DejaVuSans-32"/>
       <use xlink:href="#DejaVuSans-30" x="63.623047"/>
       <use xlink:href="#DejaVuSans-30" x="127.246094"/>
      </g>
     </g>
    </g>
    <g id="text_15">
     <!-- Fitness -->
     <g transform="translate(92.585 318.5875) rotate(-90) scale(0.16 -0.16)">
      <defs>
       <path id="DejaVuSans-46" d="M 628 4666 
L 3309 4666 
L 3309 4134 
L 1259 4134 
L 1259 2759 
L 3109 2759 
L 3109 2228 
L 1259 2228 
L 1259 0 
L 628 0 
L 628 4666 
z
" transform="scale(0.015625)"/>
       <path id="DejaVuSans-73" d="M 2834 3397 
L 2834 2853 
Q 2591 2978 2328 3040 
Q 2066 3103 1784 3103 
Q 1356 3103 1142 2972 
Q 928 2841 928 2578 
Q 928 2378 1081 2264 
Q 1234 2150 1697 2047 
L 1894 2003 
Q 2506 1872 2764 1633 
Q 3022 1394 3022 966 
Q 3022 478 2636 193 
Q 2250 -91 1575 -91 
Q 1294 -91 989 -36 
Q 684 19 347 128 
L 347 722 
Q 666 556 975 473 
Q 1284 391 1588 391 
Q 1994 391 2212 530 
Q 2431 669 2431 922 
Q 2431 1156 2273 1281 
Q 2116 1406 1581 1522 
L 1381 1569 
Q 847 1681 609 1914 
Q 372 2147 372 2553 
Q 372 3047 722 3315 
Q 1072 3584 1716 3584 
Q 2034 3584 2315 3537 
Q 2597 3491 2834 3397 
z
" transform="scale(0.015625)"/>
      </defs>
      <use xlink:href="#DejaVuSans-46"/>
      <use xlink:href="#DejaVuSans-69" x="50.269531"/>
      <use xlink:href="#DejaVuSans-74" x="78.052734"/>
      <use xlink:href="#DejaVuSans-6e" x="117.261719"/>
      <use xlink:href="#DejaVuSans-65" x="180.640625"/>
      <use xlink:href="#DejaVuSans-73" x="242.164062"/>
      <use xlink:href="#DejaVuSans-73" x="294.263672"/>
     </g>
    </g>
   </g>
   <g id="line2d_14">
    <path d="M 161.509091 473.28 
L 161.962013 471.36 
L 162.414935 471.36 
L 162.867857 471.36 
L 163.320779 471.36 
L 163.773701 471.36 
L 164.226623 471.36 
L 164.679545 471.36 
L 165.132468 471.36 
L 165.58539 471.36 
L 166.038312 471.36 
L 166.491234 434.88 
L 166.944156 434.88 
L 167.397078 434.88 
L 167.85 434.88 
L 168.302922 434.88 
L 168.755844 434.88 
L 169.208766 434.88 
L 169.661688 434.88 
L 170.11461 421.44 
L 170.567532 421.44 
L 171.020455 421.44 
L 171.473377 421.44 
L 171.926299 419.52 
L 172.379221 419.52 
L 172.832143 419.52 
L 173.285065 162.24 
L 173.737987 162.24 
L 174.190909 162.24 
L 174.643831 162.24 
L 175.096753 162.24 
L 175.549675 162.24 
L 176.002597 162.24 
L 176.455519 162.24 
L 176.908442 162.24 
L 177.361364 162.24 
L 177.814286 162.24 
L 178.267208 162.24 
L 178.72013 162.24 
L 179.173052 146.88 
L 179.625974 146.88 
L 180.078896 146.88 
L 180.531818 146.88 
L 180.98474 146.88 
L 181.437662 146.88 
L 181.890584 144.96 
L 182.343506 144.96 
L 182.796429 144.96 
L 183.249351 144.96 
L 183.702273 110.4 
L 184.155195 110.4 
L 184.608117 110.4 
L 185.061039 110.4 
L 185.513961 110.4 
L 185.966883 110.4 
L 186.419805 110.4 
L 186.872727 110.4 
L 187.325649 110.4 
L 187.778571 110.4 
L 188.231494 110.4 
L 188.684416 110.4 
L 189.137338 110.4 
L 189.59026 110.4 
L 190.043182 110.4 
L 190.496104 110.4 
L 190.949026 110.4 
L 191.401948 110.4 
L 191.85487 110.4 
L 192.307792 110.4 
L 192.760714 110.4 
L 193.213636 110.4 
L 193.666558 110.4 
L 194.119481 110.4 
L 194.572403 110.4 
L 195.025325 110.4 
L 195.478247 110.4 
L 195.931169 110.4 
L 196.384091 110.4 
L 196.837013 110.4 
L 197.289935 110.4 
L 197.742857 110.4 
L 198.195779 110.4 
L 198.648701 110.4 
L 199.101623 110.4 
L 199.554545 110.4 
L 200.007468 110.4 
L 200.46039 110.4 
L 200.913312 110.4 
L 201.366234 110.4 
L 201.819156 110.4 
L 202.272078 110.4 
L 202.725 110.4 
L 203.177922 110.4 
L 203.630844 110.4 
L 204.083766 110.4 
L 204.536688 110.4 
L 204.98961 110.4 
L 205.442532 110.4 
L 205.895455 110.4 
L 206.348377 110.4 
L 206.801299 110.4 
L 207.254221 110.4 
L 207.707143 106.56 
L 208.160065 106.56 
L 208.612987 106.56 
L 209.065909 106.56 
L 209.518831 106.56 
L 209.971753 106.56 
L 210.424675 106.56 
L 210.877597 106.56 
L 211.330519 106.56 
L 211.783442 106.56 
L 212.236364 106.56 
L 212.689286 106.56 
L 213.142208 106.56 
L 213.59513 106.56 
L 214.048052 106.56 
L 214.500974 106.56 
L 214.953896 106.56 
L 215.406818 106.56 
L 215.85974 106.56 
L 216.312662 89.28 
" clip-path="url(#pafee7a4e29)" style="fill: none; stroke: #7f2704; stroke-width: 1.5; stroke-linecap: square"/>
   </g>
   <g id="line2d_15">
    <path d="M 161.509091 473.28 
L 182.796429 473.28 
L 183.249351 438.72 
L 187.778571 438.72 
L 188.231494 350.4 
L 188.684416 350.4 
L 189.137338 312 
L 190.496104 312 
L 190.949026 308.16 
L 192.307792 308.16 
L 192.760714 300.48 
L 193.213636 300.48 
L 193.666558 298.56 
L 194.119481 277.44 
L 194.572403 269.76 
L 200.007468 269.76 
L 200.46039 265.92 
L 201.819156 265.92 
L 202.272078 219.84 
L 202.725 219.84 
L 203.177922 162.24 
L 211.330519 162.24 
L 211.783442 148.8 
L 216.312662 148.8 
L 216.765584 146.88 
L 230.353247 146.88 
L 230.806169 144.96 
L 379.817532 144.96 
L 380.270455 127.68 
L 380.723377 127.68 
L 381.176299 108.48 
L 384.799675 108.48 
L 385.252597 106.56 
L 386.611364 106.56 
L 387.064286 89.28 
L 387.064286 89.28 
" clip-path="url(#pafee7a4e29)" style="fill: none; stroke: #963003; stroke-width: 1.5; stroke-linecap: square"/>
   </g>
   <g id="line2d_16">
    <path d="M 161.509091 473.28 
L 161.962013 473.28 
L 162.414935 473.28 
L 162.867857 473.28 
L 163.320779 473.28 
L 163.773701 473.28 
L 164.226623 473.28 
L 164.679545 473.28 
L 165.132468 473.28 
L 165.58539 417.6 
L 166.038312 417.6 
L 166.491234 417.6 
L 166.944156 417.6 
L 167.397078 417.6 
L 167.85 417.6 
L 168.302922 417.6 
L 168.755844 417.6 
L 169.208766 417.6 
L 169.661688 417.6 
L 170.11461 417.6 
L 170.567532 417.6 
L 171.020455 417.6 
L 171.473377 417.6 
L 171.926299 417.6 
L 172.379221 417.6 
L 172.832143 417.6 
L 173.285065 417.6 
L 173.737987 417.6 
L 174.190909 417.6 
L 174.643831 417.6 
L 175.096753 417.6 
L 175.549675 417.6 
L 176.002597 417.6 
L 176.455519 417.6 
L 176.908442 417.6 
L 177.361364 417.6 
L 177.814286 417.6 
L 178.267208 417.6 
L 178.72013 417.6 
L 179.173052 417.6 
L 179.625974 417.6 
L 180.078896 402.24 
L 180.531818 402.24 
L 180.98474 402.24 
L 181.437662 402.24 
L 181.890584 402.24 
L 182.343506 402.24 
L 182.796429 402.24 
L 183.249351 402.24 
L 183.702273 402.24 
L 184.155195 402.24 
L 184.608117 402.24 
L 185.061039 402.24 
L 185.513961 402.24 
L 185.966883 321.6 
L 186.419805 321.6 
L 186.872727 321.6 
L 187.325649 321.6 
L 187.778571 321.6 
L 188.231494 321.6 
L 188.684416 321.6 
L 189.137338 319.68 
L 189.59026 319.68 
L 190.043182 319.68 
L 190.496104 319.68 
L 190.949026 319.68 
L 191.401948 313.92 
L 191.85487 313.92 
L 192.307792 313.92 
L 192.760714 313.92 
L 193.213636 313.92 
L 193.666558 281.28 
L 194.119481 281.28 
L 194.572403 281.28 
L 195.025325 281.28 
L 195.478247 281.28 
L 195.931169 281.28 
L 196.384091 281.28 
L 196.837013 281.28 
L 197.289935 281.28 
L 197.742857 281.28 
L 198.195779 281.28 
L 198.648701 281.28 
L 199.101623 187.2 
L 199.554545 187.2 
L 200.007468 187.2 
L 200.46039 187.2 
L 200.913312 187.2 
L 201.366234 187.2 
L 201.819156 187.2 
L 202.272078 187.2 
L 202.725 166.08 
L 203.177922 166.08 
L 203.630844 166.08 
L 204.083766 166.08 
L 204.536688 166.08 
L 204.98961 166.08 
L 205.442532 166.08 
L 205.895455 166.08 
L 206.348377 166.08 
L 206.801299 166.08 
L 207.254221 166.08 
L 207.707143 166.08 
L 208.160065 166.08 
L 208.612987 127.68 
L 209.065909 127.68 
L 209.518831 127.68 
L 209.971753 127.68 
L 210.424675 127.68 
L 210.877597 127.68 
L 211.330519 127.68 
L 211.783442 127.68 
L 212.236364 127.68 
L 212.689286 127.68 
L 213.142208 127.68 
L 213.59513 127.68 
L 214.048052 127.68 
L 214.500974 127.68 
L 214.953896 127.68 
L 215.406818 89.28 
" clip-path="url(#pafee7a4e29)" style="fill: none; stroke: #b13a03; stroke-width: 1.5; stroke-linecap: square"/>
   </g>
   <g id="line2d_17">
    <path d="M 161.509091 473.28 
L 161.962013 473.28 
L 162.414935 473.28 
L 162.867857 473.28 
L 163.320779 473.28 
L 163.773701 473.28 
L 164.226623 473.28 
L 164.679545 434.88 
L 165.132468 434.88 
L 165.58539 434.88 
L 166.038312 434.88 
L 166.491234 434.88 
L 166.944156 434.88 
L 167.397078 417.6 
L 167.85 417.6 
L 168.302922 417.6 
L 168.755844 417.6 
L 169.208766 417.6 
L 169.661688 417.6 
L 170.11461 417.6 
L 170.567532 417.6 
L 171.020455 417.6 
L 171.473377 417.6 
L 171.926299 417.6 
L 172.379221 417.6 
L 172.832143 417.6 
L 173.285065 417.6 
L 173.737987 417.6 
L 174.190909 417.6 
L 174.643831 417.6 
L 175.096753 417.6 
L 175.549675 417.6 
L 176.002597 417.6 
L 176.455519 417.6 
L 176.908442 417.6 
L 177.361364 323.52 
L 177.814286 108.48 
L 178.267208 108.48 
L 178.72013 108.48 
L 179.173052 108.48 
L 179.625974 108.48 
L 180.078896 108.48 
L 180.531818 108.48 
L 180.98474 108.48 
L 181.437662 108.48 
L 181.890584 108.48 
L 182.343506 108.48 
L 182.796429 108.48 
L 183.249351 108.48 
L 183.702273 108.48 
L 184.155195 108.48 
L 184.608117 108.48 
L 185.061039 108.48 
L 185.513961 108.48 
L 185.966883 108.48 
L 186.419805 89.28 
" clip-path="url(#pafee7a4e29)" style="fill: none; stroke: #d14501; stroke-width: 1.5; stroke-linecap: square"/>
   </g>
   <g id="line2d_18">
    <path d="M 161.509091 492.48 
L 162.414935 492.48 
L 162.867857 490.56 
L 163.320779 490.56 
L 163.773701 477.12 
L 164.226623 473.28 
L 164.679545 471.36 
L 170.567532 471.36 
L 171.020455 350.4 
L 179.173052 350.4 
L 179.625974 344.64 
L 180.98474 344.64 
L 181.437662 319.68 
L 183.702273 319.68 
L 184.155195 308.16 
L 185.061039 308.16 
L 185.513961 304.32 
L 186.419805 304.32 
L 186.872727 196.8 
L 187.778571 196.8 
L 188.231494 181.44 
L 193.213636 181.44 
L 193.666558 144.96 
L 219.936039 144.96 
L 220.388961 143.04 
L 285.156818 143.04 
L 285.60974 141.12 
L 298.291558 141.12 
L 298.744481 125.76 
L 372.570779 125.76 
L 373.023701 108.48 
L 409.257468 108.48 
L 409.71039 106.56 
L 483.083766 106.56 
L 483.536688 89.28 
L 483.536688 89.28 
" clip-path="url(#pafee7a4e29)" style="fill: none; stroke: #e4580a; stroke-width: 1.5; stroke-linecap: square"/>
   </g>
   <g id="line2d_19">
    <path d="M 161.509091 473.28 
L 161.962013 473.28 
L 162.414935 473.28 
L 162.867857 473.28 
L 163.320779 456 
L 163.773701 456 
L 164.226623 456 
L 164.679545 456 
L 165.132468 456 
L 165.58539 436.8 
L 166.038312 436.8 
L 166.491234 436.8 
L 166.944156 436.8 
L 167.397078 436.8 
L 167.85 434.88 
L 168.302922 434.88 
L 168.755844 217.92 
L 169.208766 217.92 
L 169.661688 217.92 
L 170.11461 217.92 
L 170.567532 217.92 
L 171.020455 217.92 
L 171.473377 217.92 
L 171.926299 217.92 
L 172.379221 200.64 
L 172.832143 200.64 
L 173.285065 200.64 
L 173.737987 200.64 
L 174.190909 200.64 
L 174.643831 200.64 
L 175.096753 200.64 
L 175.549675 200.64 
L 176.002597 200.64 
L 176.455519 200.64 
L 176.908442 200.64 
L 177.361364 200.64 
L 177.814286 200.64 
L 178.267208 200.64 
L 178.72013 200.64 
L 179.173052 200.64 
L 179.625974 200.64 
L 180.078896 200.64 
L 180.531818 150.72 
L 180.98474 144.96 
L 181.437662 144.96 
L 181.890584 144.96 
L 182.343506 144.96 
L 182.796429 144.96 
L 183.249351 144.96 
L 183.702273 144.96 
L 184.155195 144.96 
L 184.608117 144.96 
L 185.061039 144.96 
L 185.513961 144.96 
L 185.966883 144.96 
L 186.419805 144.96 
L 186.872727 144.96 
L 187.325649 144.96 
L 187.778571 144.96 
L 188.231494 144.96 
L 188.684416 144.96 
L 189.137338 110.4 
L 189.59026 110.4 
L 190.043182 110.4 
L 190.496104 110.4 
L 190.949026 110.4 
L 191.401948 110.4 
L 191.85487 110.4 
L 192.307792 110.4 
L 192.760714 110.4 
L 193.213636 110.4 
L 193.666558 110.4 
L 194.119481 110.4 
L 194.572403 110.4 
L 195.025325 110.4 
L 195.478247 110.4 
L 195.931169 110.4 
L 196.384091 110.4 
L 196.837013 110.4 
L 197.289935 110.4 
L 197.742857 110.4 
L 198.195779 110.4 
L 198.648701 110.4 
L 199.101623 110.4 
L 199.554545 108.48 
L 200.007468 108.48 
L 200.46039 108.48 
L 200.913312 108.48 
L 201.366234 108.48 
L 201.819156 108.48 
L 202.272078 108.48 
L 202.725 108.48 
L 203.177922 89.28 
" clip-path="url(#pafee7a4e29)" style="fill: none; stroke: #f26d17; stroke-width: 1.5; stroke-linecap: square"/>
   </g>
   <g id="line2d_20">
    <path d="M 161.509091 473.28 
L 180.98474 473.28 
L 181.437662 454.08 
L 227.182792 454.08 
L 227.635714 440.64 
L 247.111364 440.64 
L 247.564286 434.88 
L 251.640584 434.88 
L 252.093506 431.04 
L 255.263961 431.04 
L 255.716883 425.28 
L 272.475 425.28 
L 272.927922 423.36 
L 283.34513 423.36 
L 283.798052 219.84 
L 287.421429 219.84 
L 287.874351 183.36 
L 288.780195 183.36 
L 289.233117 181.44 
L 290.138961 181.44 
L 290.591883 143.04 
L 301.009091 143.04 
L 301.462013 127.68 
L 390.23474 127.68 
L 390.687662 125.76 
L 871.237987 125.76 
L 871.690909 89.28 
L 871.690909 89.28 
" clip-path="url(#pafee7a4e29)" style="fill: none; stroke: #fa8331; stroke-width: 1.5; stroke-linecap: square"/>
   </g>
   <g id="line2d_21">
    <path d="M 161.509091 473.28 
L 161.962013 473.28 
L 162.414935 438.72 
L 162.867857 438.72 
L 163.320779 438.72 
L 163.773701 438.72 
L 164.226623 438.72 
L 164.679545 438.72 
L 165.132468 438.72 
L 165.58539 438.72 
L 166.038312 438.72 
L 166.491234 438.72 
L 166.944156 438.72 
L 167.397078 438.72 
L 167.85 438.72 
L 168.302922 434.88 
L 168.755844 434.88 
L 169.208766 434.88 
L 169.661688 434.88 
L 170.11461 434.88 
L 170.567532 434.88 
L 171.020455 434.88 
L 171.473377 434.88 
L 171.926299 434.88 
L 172.379221 434.88 
L 172.832143 434.88 
L 173.285065 434.88 
L 173.737987 417.6 
L 174.190909 417.6 
L 174.643831 417.6 
L 175.096753 417.6 
L 175.549675 181.44 
L 176.002597 177.6 
L 176.455519 177.6 
L 176.908442 177.6 
L 177.361364 158.4 
L 177.814286 158.4 
L 178.267208 158.4 
L 178.72013 158.4 
L 179.173052 158.4 
L 179.625974 158.4 
L 180.078896 144.96 
L 180.531818 144.96 
L 180.98474 144.96 
L 181.437662 144.96 
L 181.890584 123.84 
L 182.343506 106.56 
L 182.796429 106.56 
L 183.249351 106.56 
L 183.702273 106.56 
L 184.155195 106.56 
L 184.608117 106.56 
L 185.061039 106.56 
L 185.513961 106.56 
L 185.966883 106.56 
L 186.419805 106.56 
L 186.872727 106.56 
L 187.325649 106.56 
L 187.778571 106.56 
L 188.231494 106.56 
L 188.684416 106.56 
L 189.137338 106.56 
L 189.59026 106.56 
L 190.043182 106.56 
L 190.496104 106.56 
L 190.949026 106.56 
L 191.401948 106.56 
L 191.85487 106.56 
L 192.307792 106.56 
L 192.760714 106.56 
L 193.213636 106.56 
L 193.666558 106.56 
L 194.119481 106.56 
L 194.572403 106.56 
L 195.025325 106.56 
L 195.478247 106.56 
L 195.931169 106.56 
L 196.384091 106.56 
L 196.837013 106.56 
L 197.289935 106.56 
L 197.742857 106.56 
L 198.195779 106.56 
L 198.648701 106.56 
L 199.101623 106.56 
L 199.554545 106.56 
L 200.007468 106.56 
L 200.46039 106.56 
L 200.913312 106.56 
L 201.366234 106.56 
L 201.819156 106.56 
L 202.272078 106.56 
L 202.725 106.56 
L 203.177922 106.56 
L 203.630844 106.56 
L 204.083766 106.56 
L 204.536688 106.56 
L 204.98961 106.56 
L 205.442532 106.56 
L 205.895455 106.56 
L 206.348377 106.56 
L 206.801299 106.56 
L 207.254221 106.56 
L 207.707143 106.56 
L 208.160065 106.56 
L 208.612987 106.56 
L 209.065909 106.56 
L 209.518831 106.56 
L 209.971753 89.28 
" clip-path="url(#pafee7a4e29)" style="fill: none; stroke: #fd994d; stroke-width: 1.5; stroke-linecap: square"/>
   </g>
   <g id="line2d_22">
    <path d="M 161.509091 473.28 
L 170.567532 473.28 
L 171.020455 336.96 
L 183.249351 336.96 
L 183.702273 198.72 
L 193.213636 198.72 
L 193.666558 146.88 
L 194.119481 146.88 
L 194.572403 129.6 
L 206.348377 129.6 
L 206.801299 127.68 
L 296.47987 127.68 
L 296.932792 89.28 
L 296.932792 89.28 
" clip-path="url(#pafee7a4e29)" style="fill: none; stroke: #fdae6a; stroke-width: 1.5; stroke-linecap: square"/>
   </g>
   <g id="line2d_23">
    <path d="M 161.509091 454.08 
L 161.962013 454.08 
L 162.414935 454.08 
L 162.867857 454.08 
L 163.320779 265.92 
L 163.773701 265.92 
L 164.226623 265.92 
L 164.679545 265.92 
L 165.132468 265.92 
L 165.58539 265.92 
L 166.038312 265.92 
L 166.491234 265.92 
L 166.944156 265.92 
L 167.397078 265.92 
L 167.85 265.92 
L 168.302922 265.92 
L 168.755844 265.92 
L 169.208766 265.92 
L 169.661688 265.92 
L 170.11461 265.92 
L 170.567532 265.92 
L 171.020455 265.92 
L 171.473377 265.92 
L 171.926299 265.92 
L 172.379221 265.92 
L 172.832143 265.92 
L 173.285065 265.92 
L 173.737987 196.8 
L 174.190909 196.8 
L 174.643831 196.8 
L 175.096753 196.8 
L 175.549675 196.8 
L 176.002597 196.8 
L 176.455519 196.8 
L 176.908442 196.8 
L 177.361364 196.8 
L 177.814286 196.8 
L 178.267208 196.8 
L 178.72013 196.8 
L 179.173052 196.8 
L 179.625974 196.8 
L 180.078896 196.8 
L 180.531818 196.8 
L 180.98474 196.8 
L 181.437662 196.8 
L 181.890584 196.8 
L 182.343506 196.8 
L 182.796429 162.24 
L 183.249351 162.24 
L 183.702273 162.24 
L 184.155195 162.24 
L 184.608117 162.24 
L 185.061039 162.24 
L 185.513961 129.6 
L 185.966883 129.6 
L 186.419805 127.68 
L 186.872727 127.68 
L 187.325649 127.68 
L 187.778571 127.68 
L 188.231494 127.68 
L 188.684416 127.68 
L 189.137338 127.68 
L 189.59026 127.68 
L 190.043182 127.68 
L 190.496104 108.48 
L 190.949026 108.48 
L 191.401948 108.48 
L 191.85487 108.48 
L 192.307792 108.48 
L 192.760714 108.48 
L 193.213636 108.48 
L 193.666558 108.48 
L 194.119481 108.48 
L 194.572403 108.48 
L 195.025325 108.48 
L 195.478247 108.48 
L 195.931169 106.56 
L 196.384091 91.2 
L 196.837013 91.2 
L 197.289935 91.2 
L 197.742857 91.2 
L 198.195779 91.2 
L 198.648701 91.2 
L 199.101623 91.2 
L 199.554545 91.2 
L 200.007468 91.2 
L 200.46039 91.2 
L 200.913312 91.2 
L 201.366234 91.2 
L 201.819156 91.2 
L 202.272078 91.2 
L 202.725 91.2 
L 203.177922 91.2 
L 203.630844 91.2 
L 204.083766 91.2 
L 204.536688 91.2 
L 204.98961 91.2 
L 205.442532 91.2 
L 205.895455 91.2 
L 206.348377 91.2 
L 206.801299 91.2 
L 207.254221 91.2 
L 207.707143 91.2 
L 208.160065 91.2 
L 208.612987 91.2 
L 209.065909 91.2 
L 209.518831 91.2 
L 209.971753 91.2 
L 210.424675 91.2 
L 210.877597 91.2 
L 211.330519 91.2 
L 211.783442 89.28 
" clip-path="url(#pafee7a4e29)" style="fill: none; stroke: #fdc38d; stroke-width: 1.5; stroke-linecap: square"/>
   </g>
   <g id="line2d_24">
    <path d="M 544.228247 473.28 
L 544.681169 473.28 
L 545.134091 473.28 
L 545.587013 473.28 
L 546.039935 473.28 
L 546.492857 454.08 
L 546.945779 454.08 
L 547.398701 454.08 
L 547.851623 454.08 
L 548.304545 452.16 
L 548.757468 452.16 
L 549.21039 452.16 
L 549.663312 452.16 
L 550.116234 452.16 
L 550.569156 452.16 
L 551.022078 452.16 
L 551.475 452.16 
L 551.927922 452.16 
L 552.380844 164.16 
L 552.833766 164.16 
L 553.286688 164.16 
L 553.73961 164.16 
L 554.192532 164.16 
L 554.645455 127.68 
L 555.098377 127.68 
L 555.551299 127.68 
L 556.004221 127.68 
L 556.457143 127.68 
L 556.910065 125.76 
L 557.362987 125.76 
L 557.815909 125.76 
L 558.268831 125.76 
L 558.721753 125.76 
L 559.174675 121.92 
L 559.627597 121.92 
L 560.080519 106.56 
L 560.533442 89.28 
" clip-path="url(#pafee7a4e29)" style="fill: none; stroke: #08306b; stroke-width: 1.5; stroke-linecap: square"/>
   </g>
   <g id="line2d_25">
    <path d="M 463.155195 89.28 
" clip-path="url(#pafee7a4e29)" style="fill: none; stroke: #084488; stroke-width: 1.5; stroke-linecap: square"/>
   </g>
   <g id="line2d_26">
    <path d="M 345.848377 89.28 
" clip-path="url(#pafee7a4e29)" style="fill: none; stroke: #0e58a2; stroke-width: 1.5; stroke-linecap: square"/>
   </g>
   <g id="line2d_27">
    <path d="M 349.924675 89.28 
" clip-path="url(#pafee7a4e29)" style="fill: none; stroke: #1d6cb1; stroke-width: 1.5; stroke-linecap: square"/>
   </g>
   <g id="line2d_28"/>
   <g id="line2d_29">
    <path d="M 538.793182 89.28 
" clip-path="url(#pafee7a4e29)" style="fill: none; stroke: #4695c8; stroke-width: 1.5; stroke-linecap: square"/>
   </g>
   <g id="line2d_30">
    <path d="M 575.932792 492.48 
L 578.197403 492.48 
L 578.650325 490.56 
L 579.103247 486.72 
L 579.556169 486.72 
L 580.009091 479.04 
L 580.462013 473.28 
L 582.273701 473.28 
L 582.726623 456 
L 594.502597 456 
L 594.955519 396.48 
L 614.884091 396.48 
L 615.337013 312 
L 615.789935 312 
L 616.242857 302.4 
L 623.036688 302.4 
L 623.48961 292.8 
L 624.848377 292.8 
L 625.301299 148.8 
L 625.754221 148.8 
L 626.207143 129.6 
L 710.903571 129.6 
L 711.356494 108.48 
L 777.483117 108.48 
L 777.936039 89.28 
L 777.936039 89.28 
" clip-path="url(#pafee7a4e29)" style="fill: none; stroke: #60a7d2; stroke-width: 1.5; stroke-linecap: square"/>
   </g>
   <g id="line2d_31">
    <path d="M 493.953896 89.28 
" clip-path="url(#pafee7a4e29)" style="fill: none; stroke: #7db8da; stroke-width: 1.5; stroke-linecap: square"/>
   </g>
   <g id="line2d_32"/>
   <g id="line2d_33">
    <path d="M 387.517208 475.2 
L 387.97013 475.2 
L 388.423052 146.88 
L 388.875974 146.88 
L 389.328896 146.88 
L 389.781818 146.88 
L 390.23474 110.4 
L 390.687662 110.4 
L 391.140584 110.4 
L 391.593506 110.4 
L 392.046429 110.4 
L 392.499351 110.4 
L 392.952273 110.4 
L 393.405195 89.28 
" clip-path="url(#pafee7a4e29)" style="fill: none; stroke: #b7d4ea; stroke-width: 1.5; stroke-linecap: square"/>
   </g>
   <g id="line2d_34">
    <path d="M 126 89.28 
L 907.2 89.28 
" clip-path="url(#pafee7a4e29)" style="fill: none; stroke-dasharray: 5.55,2.4; stroke-dashoffset: 0; stroke: #800080; stroke-width: 1.5"/>
   </g>
   <g id="patch_3">
    <path d="M 126 512.64 
L 126 69.12 
" style="fill: none; stroke: #000000; stroke-width: 0.8; stroke-linejoin: miter; stroke-linecap: square"/>
   </g>
   <g id="patch_4">
    <path d="M 907.2 512.64 
L 907.2 69.12 
" style="fill: none; stroke: #000000; stroke-width: 0.8; stroke-linejoin: miter; stroke-linecap: square"/>
   </g>
   <g id="patch_5">
    <path d="M 126 512.64 
L 907.2 512.64 
" style="fill: none; stroke: #000000; stroke-width: 0.8; stroke-linejoin: miter; stroke-linecap: square"/>
   </g>
   <g id="patch_6">
    <path d="M 126 69.12 
L 907.2 69.12 
" style="fill: none; stroke: #000000; stroke-width: 0.8; stroke-linejoin: miter; stroke-linecap: square"/>
   </g>
   <g id="text_16">
    <!-- 50% Environment -->
    <g transform="translate(445.19875 63.12) scale(0.16 -0.16)">
     <defs>
      <path id="DejaVuSans-25" d="M 4653 2053 
Q 4381 2053 4226 1822 
Q 4072 1591 4072 1178 
Q 4072 772 4226 539 
Q 4381 306 4653 306 
Q 4919 306 5073 539 
Q 5228 772 5228 1178 
Q 5228 1588 5073 1820 
Q 4919 2053 4653 2053 
z
M 4653 2450 
Q 5147 2450 5437 2106 
Q 5728 1763 5728 1178 
Q 5728 594 5436 251 
Q 5144 -91 4653 -91 
Q 4153 -91 3862 251 
Q 3572 594 3572 1178 
Q 3572 1766 3864 2108 
Q 4156 2450 4653 2450 
z
M 1428 4353 
Q 1159 4353 1004 4120 
Q 850 3888 850 3481 
Q 850 3069 1003 2837 
Q 1156 2606 1428 2606 
Q 1700 2606 1854 2837 
Q 2009 3069 2009 3481 
Q 2009 3884 1853 4118 
Q 1697 4353 1428 4353 
z
M 4250 4750 
L 4750 4750 
L 1831 -91 
L 1331 -91 
L 4250 4750 
z
M 1428 4750 
Q 1922 4750 2215 4408 
Q 2509 4066 2509 3481 
Q 2509 2891 2217 2550 
Q 1925 2209 1428 2209 
Q 931 2209 642 2551 
Q 353 2894 353 3481 
Q 353 4063 643 4406 
Q 934 4750 1428 4750 
z
" transform="scale(0.015625)"/>
      <path id="DejaVuSans-20" transform="scale(0.015625)"/>
      <path id="DejaVuSans-45" d="M 628 4666 
L 3578 4666 
L 3578 4134 
L 1259 4134 
L 1259 2753 
L 3481 2753 
L 3481 2222 
L 1259 2222 
L 1259 531 
L 3634 531 
L 3634 0 
L 628 0 
L 628 4666 
z
" transform="scale(0.015625)"/>
      <path id="DejaVuSans-76" d="M 191 3500 
L 800 3500 
L 1894 563 
L 2988 3500 
L 3597 3500 
L 2284 0 
L 1503 0 
L 191 3500 
z
" transform="scale(0.015625)"/>
      <path id="DejaVuSans-6d" d="M 3328 2828 
Q 3544 3216 3844 3400 
Q 4144 3584 4550 3584 
Q 5097 3584 5394 3201 
Q 5691 2819 5691 2113 
L 5691 0 
L 5113 0 
L 5113 2094 
Q 5113 2597 4934 2840 
Q 4756 3084 4391 3084 
Q 3944 3084 3684 2787 
Q 3425 2491 3425 1978 
L 3425 0 
L 2847 0 
L 2847 2094 
Q 2847 2600 2669 2842 
Q 2491 3084 2119 3084 
Q 1678 3084 1418 2786 
Q 1159 2488 1159 1978 
L 1159 0 
L 581 0 
L 581 3500 
L 1159 3500 
L 1159 2956 
Q 1356 3278 1631 3431 
Q 1906 3584 2284 3584 
Q 2666 3584 2933 3390 
Q 3200 3197 3328 2828 
z
" transform="scale(0.015625)"/>
     </defs>
     <use xlink:href="#DejaVuSans-35"/>
     <use xlink:href="#DejaVuSans-30" x="63.623047"/>
     <use xlink:href="#DejaVuSans-25" x="127.246094"/>
     <use xlink:href="#DejaVuSans-20" x="222.265625"/>
     <use xlink:href="#DejaVuSans-45" x="254.052734"/>
     <use xlink:href="#DejaVuSans-6e" x="317.236328"/>
     <use xlink:href="#DejaVuSans-76" x="380.615234"/>
     <use xlink:href="#DejaVuSans-69" x="439.794922"/>
     <use xlink:href="#DejaVuSans-72" x="467.578125"/>
     <use xlink:href="#DejaVuSans-6f" x="506.441406"/>
     <use xlink:href="#DejaVuSans-6e" x="567.623047"/>
     <use xlink:href="#DejaVuSans-6d" x="631.001953"/>
     <use xlink:href="#DejaVuSans-65" x="728.414062"/>
     <use xlink:href="#DejaVuSans-6e" x="789.9375"/>
     <use xlink:href="#DejaVuSans-74" x="853.316406"/>
    </g>
   </g>
   <g id="legend_1">
    <g id="patch_7">
     <path d="M 792.414062 507.64 
L 900.2 507.64 
Q 902.2 507.64 902.2 505.64 
L 902.2 198.399375 
Q 902.2 196.399375 900.2 196.399375 
L 792.414062 196.399375 
Q 790.414062 196.399375 790.414062 198.399375 
L 790.414062 505.64 
Q 790.414062 507.64 792.414062 507.64 
z
" style="fill: #ffffff; opacity: 0.8; stroke: #cccccc; stroke-linejoin: miter"/>
    </g>
    <g id="line2d_35">
     <path d="M 794.414062 204.497813 
L 804.414062 204.497813 
L 814.414062 204.497813 
" style="fill: none; stroke: #7f2704; stroke-width: 1.5; stroke-linecap: square"/>
    </g>
    <g id="text_17">
     <!-- Direct 1 -->
     <g transform="translate(822.414062 207.997813) scale(0.1 -0.1)">
      <defs>
       <path id="DejaVuSans-44" d="M 1259 4147 
L 1259 519 
L 2022 519 
Q 2988 519 3436 956 
Q 3884 1394 3884 2338 
Q 3884 3275 3436 3711 
Q 2988 4147 2022 4147 
L 1259 4147 
z
M 628 4666 
L 1925 4666 
Q 3281 4666 3915 4102 
Q 4550 3538 4550 2338 
Q 4550 1131 3912 565 
Q 3275 0 1925 0 
L 628 0 
L 628 4666 
z
" transform="scale(0.015625)"/>
       <path id="DejaVuSans-63" d="M 3122 3366 
L 3122 2828 
Q 2878 2963 2633 3030 
Q 2388 3097 2138 3097 
Q 1578 3097 1268 2742 
Q 959 2388 959 1747 
Q 959 1106 1268 751 
Q 1578 397 2138 397 
Q 2388 397 2633 464 
Q 2878 531 3122 666 
L 3122 134 
Q 2881 22 2623 -34 
Q 2366 -91 2075 -91 
Q 1284 -91 818 406 
Q 353 903 353 1747 
Q 353 2603 823 3093 
Q 1294 3584 2113 3584 
Q 2378 3584 2631 3529 
Q 2884 3475 3122 3366 
z
" transform="scale(0.015625)"/>
      </defs>
      <use xlink:href="#DejaVuSans-44"/>
      <use xlink:href="#DejaVuSans-69" x="77.001953"/>
      <use xlink:href="#DejaVuSans-72" x="104.785156"/>
      <use xlink:href="#DejaVuSans-65" x="143.648438"/>
      <use xlink:href="#DejaVuSans-63" x="205.171875"/>
      <use xlink:href="#DejaVuSans-74" x="260.152344"/>
      <use xlink:href="#DejaVuSans-20" x="299.361328"/>
      <use xlink:href="#DejaVuSans-31" x="331.148438"/>
     </g>
    </g>
    <g id="line2d_36">
     <path d="M 794.414062 219.175938 
L 804.414062 219.175938 
L 814.414062 219.175938 
" style="fill: none; stroke: #963003; stroke-width: 1.5; stroke-linecap: square"/>
    </g>
    <g id="text_18">
     <!-- Direct 2 -->
     <g transform="translate(822.414062 222.675938) scale(0.1 -0.1)">
      <use xlink:href="#DejaVuSans-44"/>
      <use xlink:href="#DejaVuSans-69" x="77.001953"/>
      <use xlink:href="#DejaVuSans-72" x="104.785156"/>
      <use xlink:href="#DejaVuSans-65" x="143.648438"/>
      <use xlink:href="#DejaVuSans-63" x="205.171875"/>
      <use xlink:href="#DejaVuSans-74" x="260.152344"/>
      <use xlink:href="#DejaVuSans-20" x="299.361328"/>
      <use xlink:href="#DejaVuSans-32" x="331.148438"/>
     </g>
    </g>
    <g id="line2d_37">
     <path d="M 794.414062 233.854062 
L 804.414062 233.854062 
L 814.414062 233.854062 
" style="fill: none; stroke: #b13a03; stroke-width: 1.5; stroke-linecap: square"/>
    </g>
    <g id="text_19">
     <!-- Direct 3 -->
     <g transform="translate(822.414062 237.354062) scale(0.1 -0.1)">
      <defs>
       <path id="DejaVuSans-33" d="M 2597 2516 
Q 3050 2419 3304 2112 
Q 3559 1806 3559 1356 
Q 3559 666 3084 287 
Q 2609 -91 1734 -91 
Q 1441 -91 1130 -33 
Q 819 25 488 141 
L 488 750 
Q 750 597 1062 519 
Q 1375 441 1716 441 
Q 2309 441 2620 675 
Q 2931 909 2931 1356 
Q 2931 1769 2642 2001 
Q 2353 2234 1838 2234 
L 1294 2234 
L 1294 2753 
L 1863 2753 
Q 2328 2753 2575 2939 
Q 2822 3125 2822 3475 
Q 2822 3834 2567 4026 
Q 2313 4219 1838 4219 
Q 1578 4219 1281 4162 
Q 984 4106 628 3988 
L 628 4550 
Q 988 4650 1302 4700 
Q 1616 4750 1894 4750 
Q 2613 4750 3031 4423 
Q 3450 4097 3450 3541 
Q 3450 3153 3228 2886 
Q 3006 2619 2597 2516 
z
" transform="scale(0.015625)"/>
      </defs>
      <use xlink:href="#DejaVuSans-44"/>
      <use xlink:href="#DejaVuSans-69" x="77.001953"/>
      <use xlink:href="#DejaVuSans-72" x="104.785156"/>
      <use xlink:href="#DejaVuSans-65" x="143.648438"/>
      <use xlink:href="#DejaVuSans-63" x="205.171875"/>
      <use xlink:href="#DejaVuSans-74" x="260.152344"/>
      <use xlink:href="#DejaVuSans-20" x="299.361328"/>
      <use xlink:href="#DejaVuSans-33" x="331.148438"/>
     </g>
    </g>
    <g id="line2d_38">
     <path d="M 794.414062 248.532188 
L 804.414062 248.532188 
L 814.414062 248.532188 
" style="fill: none; stroke: #d14501; stroke-width: 1.5; stroke-linecap: square"/>
    </g>
    <g id="text_20">
     <!-- Direct 4 -->
     <g transform="translate(822.414062 252.032188) scale(0.1 -0.1)">
      <use xlink:href="#DejaVuSans-44"/>
      <use xlink:href="#DejaVuSans-69" x="77.001953"/>
      <use xlink:href="#DejaVuSans-72" x="104.785156"/>
      <use xlink:href="#DejaVuSans-65" x="143.648438"/>
      <use xlink:href="#DejaVuSans-63" x="205.171875"/>
      <use xlink:href="#DejaVuSans-74" x="260.152344"/>
      <use xlink:href="#DejaVuSans-20" x="299.361328"/>
      <use xlink:href="#DejaVuSans-34" x="331.148438"/>
     </g>
    </g>
    <g id="line2d_39">
     <path d="M 794.414062 263.210313 
L 804.414062 263.210313 
L 814.414062 263.210313 
" style="fill: none; stroke: #e4580a; stroke-width: 1.5; stroke-linecap: square"/>
    </g>
    <g id="text_21">
     <!-- Direct 5 -->
     <g transform="translate(822.414062 266.710313) scale(0.1 -0.1)">
      <use xlink:href="#DejaVuSans-44"/>
      <use xlink:href="#DejaVuSans-69" x="77.001953"/>
      <use xlink:href="#DejaVuSans-72" x="104.785156"/>
      <use xlink:href="#DejaVuSans-65" x="143.648438"/>
      <use xlink:href="#DejaVuSans-63" x="205.171875"/>
      <use xlink:href="#DejaVuSans-74" x="260.152344"/>
      <use xlink:href="#DejaVuSans-20" x="299.361328"/>
      <use xlink:href="#DejaVuSans-35" x="331.148438"/>
     </g>
    </g>
    <g id="line2d_40">
     <path d="M 794.414062 277.888438 
L 804.414062 277.888438 
L 814.414062 277.888438 
" style="fill: none; stroke: #f26d17; stroke-width: 1.5; stroke-linecap: square"/>
    </g>
    <g id="text_22">
     <!-- Direct 6 -->
     <g transform="translate(822.414062 281.388438) scale(0.1 -0.1)">
      <use xlink:href="#DejaVuSans-44"/>
      <use xlink:href="#DejaVuSans-69" x="77.001953"/>
      <use xlink:href="#DejaVuSans-72" x="104.785156"/>
      <use xlink:href="#DejaVuSans-65" x="143.648438"/>
      <use xlink:href="#DejaVuSans-63" x="205.171875"/>
      <use xlink:href="#DejaVuSans-74" x="260.152344"/>
      <use xlink:href="#DejaVuSans-20" x="299.361328"/>
      <use xlink:href="#DejaVuSans-36" x="331.148438"/>
     </g>
    </g>
    <g id="line2d_41">
     <path d="M 794.414062 292.566563 
L 804.414062 292.566563 
L 814.414062 292.566563 
" style="fill: none; stroke: #fa8331; stroke-width: 1.5; stroke-linecap: square"/>
    </g>
    <g id="text_23">
     <!-- Direct 7 -->
     <g transform="translate(822.414062 296.066563) scale(0.1 -0.1)">
      <defs>
       <path id="DejaVuSans-37" d="M 525 4666 
L 3525 4666 
L 3525 4397 
L 1831 0 
L 1172 0 
L 2766 4134 
L 525 4134 
L 525 4666 
z
" transform="scale(0.015625)"/>
      </defs>
      <use xlink:href="#DejaVuSans-44"/>
      <use xlink:href="#DejaVuSans-69" x="77.001953"/>
      <use xlink:href="#DejaVuSans-72" x="104.785156"/>
      <use xlink:href="#DejaVuSans-65" x="143.648438"/>
      <use xlink:href="#DejaVuSans-63" x="205.171875"/>
      <use xlink:href="#DejaVuSans-74" x="260.152344"/>
      <use xlink:href="#DejaVuSans-20" x="299.361328"/>
      <use xlink:href="#DejaVuSans-37" x="331.148438"/>
     </g>
    </g>
    <g id="line2d_42">
     <path d="M 794.414062 307.244687 
L 804.414062 307.244687 
L 814.414062 307.244687 
" style="fill: none; stroke: #fd994d; stroke-width: 1.5; stroke-linecap: square"/>
    </g>
    <g id="text_24">
     <!-- Direct 8 -->
     <g transform="translate(822.414062 310.744687) scale(0.1 -0.1)">
      <use xlink:href="#DejaVuSans-44"/>
      <use xlink:href="#DejaVuSans-69" x="77.001953"/>
      <use xlink:href="#DejaVuSans-72" x="104.785156"/>
      <use xlink:href="#DejaVuSans-65" x="143.648438"/>
      <use xlink:href="#DejaVuSans-63" x="205.171875"/>
      <use xlink:href="#DejaVuSans-74" x="260.152344"/>
      <use xlink:href="#DejaVuSans-20" x="299.361328"/>
      <use xlink:href="#DejaVuSans-38" x="331.148438"/>
     </g>
    </g>
    <g id="line2d_43">
     <path d="M 794.414062 321.922813 
L 804.414062 321.922813 
L 814.414062 321.922813 
" style="fill: none; stroke: #fdae6a; stroke-width: 1.5; stroke-linecap: square"/>
    </g>
    <g id="text_25">
     <!-- Direct 9 -->
     <g transform="translate(822.414062 325.422813) scale(0.1 -0.1)">
      <defs>
       <path id="DejaVuSans-39" d="M 703 97 
L 703 672 
Q 941 559 1184 500 
Q 1428 441 1663 441 
Q 2288 441 2617 861 
Q 2947 1281 2994 2138 
Q 2813 1869 2534 1725 
Q 2256 1581 1919 1581 
Q 1219 1581 811 2004 
Q 403 2428 403 3163 
Q 403 3881 828 4315 
Q 1253 4750 1959 4750 
Q 2769 4750 3195 4129 
Q 3622 3509 3622 2328 
Q 3622 1225 3098 567 
Q 2575 -91 1691 -91 
Q 1453 -91 1209 -44 
Q 966 3 703 97 
z
M 1959 2075 
Q 2384 2075 2632 2365 
Q 2881 2656 2881 3163 
Q 2881 3666 2632 3958 
Q 2384 4250 1959 4250 
Q 1534 4250 1286 3958 
Q 1038 3666 1038 3163 
Q 1038 2656 1286 2365 
Q 1534 2075 1959 2075 
z
" transform="scale(0.015625)"/>
      </defs>
      <use xlink:href="#DejaVuSans-44"/>
      <use xlink:href="#DejaVuSans-69" x="77.001953"/>
      <use xlink:href="#DejaVuSans-72" x="104.785156"/>
      <use xlink:href="#DejaVuSans-65" x="143.648438"/>
      <use xlink:href="#DejaVuSans-63" x="205.171875"/>
      <use xlink:href="#DejaVuSans-74" x="260.152344"/>
      <use xlink:href="#DejaVuSans-20" x="299.361328"/>
      <use xlink:href="#DejaVuSans-39" x="331.148438"/>
     </g>
    </g>
    <g id="line2d_44">
     <path d="M 794.414062 336.600937 
L 804.414062 336.600937 
L 814.414062 336.600937 
" style="fill: none; stroke: #fdc38d; stroke-width: 1.5; stroke-linecap: square"/>
    </g>
    <g id="text_26">
     <!-- Direct 10 -->
     <g transform="translate(822.414062 340.100937) scale(0.1 -0.1)">
      <use xlink:href="#DejaVuSans-44"/>
      <use xlink:href="#DejaVuSans-69" x="77.001953"/>
      <use xlink:href="#DejaVuSans-72" x="104.785156"/>
      <use xlink:href="#DejaVuSans-65" x="143.648438"/>
      <use xlink:href="#DejaVuSans-63" x="205.171875"/>
      <use xlink:href="#DejaVuSans-74" x="260.152344"/>
      <use xlink:href="#DejaVuSans-20" x="299.361328"/>
      <use xlink:href="#DejaVuSans-31" x="331.148438"/>
      <use xlink:href="#DejaVuSans-30" x="394.771484"/>
     </g>
    </g>
    <g id="line2d_45">
     <path d="M 794.414062 351.279063 
L 804.414062 351.279063 
L 814.414062 351.279063 
" style="fill: none; stroke: #08306b; stroke-width: 1.5; stroke-linecap: square"/>
    </g>
    <g id="text_27">
     <!-- Incremental 1 -->
     <g transform="translate(822.414062 354.779063) scale(0.1 -0.1)">
      <defs>
       <path id="DejaVuSans-49" d="M 628 4666 
L 1259 4666 
L 1259 0 
L 628 0 
L 628 4666 
z
" transform="scale(0.015625)"/>
       <path id="DejaVuSans-6c" d="M 603 4863 
L 1178 4863 
L 1178 0 
L 603 0 
L 603 4863 
z
" transform="scale(0.015625)"/>
      </defs>
      <use xlink:href="#DejaVuSans-49"/>
      <use xlink:href="#DejaVuSans-6e" x="29.492188"/>
      <use xlink:href="#DejaVuSans-63" x="92.871094"/>
      <use xlink:href="#DejaVuSans-72" x="147.851562"/>
      <use xlink:href="#DejaVuSans-65" x="186.714844"/>
      <use xlink:href="#DejaVuSans-6d" x="248.238281"/>
      <use xlink:href="#DejaVuSans-65" x="345.650391"/>
      <use xlink:href="#DejaVuSans-6e" x="407.173828"/>
      <use xlink:href="#DejaVuSans-74" x="470.552734"/>
      <use xlink:href="#DejaVuSans-61" x="509.761719"/>
      <use xlink:href="#DejaVuSans-6c" x="571.041016"/>
      <use xlink:href="#DejaVuSans-20" x="598.824219"/>
      <use xlink:href="#DejaVuSans-31" x="630.611328"/>
     </g>
    </g>
    <g id="line2d_46">
     <path d="M 794.414062 365.957187 
L 804.414062 365.957187 
L 814.414062 365.957187 
" style="fill: none; stroke: #084488; stroke-width: 1.5; stroke-linecap: square"/>
    </g>
    <g id="text_28">
     <!-- Incremental 2 -->
     <g transform="translate(822.414062 369.457187) scale(0.1 -0.1)">
      <use xlink:href="#DejaVuSans-49"/>
      <use xlink:href="#DejaVuSans-6e" x="29.492188"/>
      <use xlink:href="#DejaVuSans-63" x="92.871094"/>
      <use xlink:href="#DejaVuSans-72" x="147.851562"/>
      <use xlink:href="#DejaVuSans-65" x="186.714844"/>
      <use xlink:href="#DejaVuSans-6d" x="248.238281"/>
      <use xlink:href="#DejaVuSans-65" x="345.650391"/>
      <use xlink:href="#DejaVuSans-6e" x="407.173828"/>
      <use xlink:href="#DejaVuSans-74" x="470.552734"/>
      <use xlink:href="#DejaVuSans-61" x="509.761719"/>
      <use xlink:href="#DejaVuSans-6c" x="571.041016"/>
      <use xlink:href="#DejaVuSans-20" x="598.824219"/>
      <use xlink:href="#DejaVuSans-32" x="630.611328"/>
     </g>
    </g>
    <g id="line2d_47">
     <path d="M 794.414062 380.635312 
L 804.414062 380.635312 
L 814.414062 380.635312 
" style="fill: none; stroke: #0e58a2; stroke-width: 1.5; stroke-linecap: square"/>
    </g>
    <g id="text_29">
     <!-- Incremental 3 -->
     <g transform="translate(822.414062 384.135312) scale(0.1 -0.1)">
      <use xlink:href="#DejaVuSans-49"/>
      <use xlink:href="#DejaVuSans-6e" x="29.492188"/>
      <use xlink:href="#DejaVuSans-63" x="92.871094"/>
      <use xlink:href="#DejaVuSans-72" x="147.851562"/>
      <use xlink:href="#DejaVuSans-65" x="186.714844"/>
      <use xlink:href="#DejaVuSans-6d" x="248.238281"/>
      <use xlink:href="#DejaVuSans-65" x="345.650391"/>
      <use xlink:href="#DejaVuSans-6e" x="407.173828"/>
      <use xlink:href="#DejaVuSans-74" x="470.552734"/>
      <use xlink:href="#DejaVuSans-61" x="509.761719"/>
      <use xlink:href="#DejaVuSans-6c" x="571.041016"/>
      <use xlink:href="#DejaVuSans-20" x="598.824219"/>
      <use xlink:href="#DejaVuSans-33" x="630.611328"/>
     </g>
    </g>
    <g id="line2d_48">
     <path d="M 794.414062 395.313437 
L 804.414062 395.313437 
L 814.414062 395.313437 
" style="fill: none; stroke: #1d6cb1; stroke-width: 1.5; stroke-linecap: square"/>
    </g>
    <g id="text_30">
     <!-- Incremental 4 -->
     <g transform="translate(822.414062 398.813437) scale(0.1 -0.1)">
      <use xlink:href="#DejaVuSans-49"/>
      <use xlink:href="#DejaVuSans-6e" x="29.492188"/>
      <use xlink:href="#DejaVuSans-63" x="92.871094"/>
      <use xlink:href="#DejaVuSans-72" x="147.851562"/>
      <use xlink:href="#DejaVuSans-65" x="186.714844"/>
      <use xlink:href="#DejaVuSans-6d" x="248.238281"/>
      <use xlink:href="#DejaVuSans-65" x="345.650391"/>
      <use xlink:href="#DejaVuSans-6e" x="407.173828"/>
      <use xlink:href="#DejaVuSans-74" x="470.552734"/>
      <use xlink:href="#DejaVuSans-61" x="509.761719"/>
      <use xlink:href="#DejaVuSans-6c" x="571.041016"/>
      <use xlink:href="#DejaVuSans-20" x="598.824219"/>
      <use xlink:href="#DejaVuSans-34" x="630.611328"/>
     </g>
    </g>
    <g id="line2d_49">
     <path d="M 794.414062 409.991562 
L 804.414062 409.991562 
L 814.414062 409.991562 
" style="fill: none; stroke: #3181bd; stroke-width: 1.5; stroke-linecap: square"/>
    </g>
    <g id="text_31">
     <!-- Incremental 5 -->
     <g transform="translate(822.414062 413.491562) scale(0.1 -0.1)">
      <use xlink:href="#DejaVuSans-49"/>
      <use xlink:href="#DejaVuSans-6e" x="29.492188"/>
      <use xlink:href="#DejaVuSans-63" x="92.871094"/>
      <use xlink:href="#DejaVuSans-72" x="147.851562"/>
      <use xlink:href="#DejaVuSans-65" x="186.714844"/>
      <use xlink:href="#DejaVuSans-6d" x="248.238281"/>
      <use xlink:href="#DejaVuSans-65" x="345.650391"/>
      <use xlink:href="#DejaVuSans-6e" x="407.173828"/>
      <use xlink:href="#DejaVuSans-74" x="470.552734"/>
      <use xlink:href="#DejaVuSans-61" x="509.761719"/>
      <use xlink:href="#DejaVuSans-6c" x="571.041016"/>
      <use xlink:href="#DejaVuSans-20" x="598.824219"/>
      <use xlink:href="#DejaVuSans-35" x="630.611328"/>
     </g>
    </g>
    <g id="line2d_50">
     <path d="M 794.414062 424.669687 
L 804.414062 424.669687 
L 814.414062 424.669687 
" style="fill: none; stroke: #4695c8; stroke-width: 1.5; stroke-linecap: square"/>
    </g>
    <g id="text_32">
     <!-- Incremental 6 -->
     <g transform="translate(822.414062 428.169687) scale(0.1 -0.1)">
      <use xlink:href="#DejaVuSans-49"/>
      <use xlink:href="#DejaVuSans-6e" x="29.492188"/>
      <use xlink:href="#DejaVuSans-63" x="92.871094"/>
      <use xlink:href="#DejaVuSans-72" x="147.851562"/>
      <use xlink:href="#DejaVuSans-65" x="186.714844"/>
      <use xlink:href="#DejaVuSans-6d" x="248.238281"/>
      <use xlink:href="#DejaVuSans-65" x="345.650391"/>
      <use xlink:href="#DejaVuSans-6e" x="407.173828"/>
      <use xlink:href="#DejaVuSans-74" x="470.552734"/>
      <use xlink:href="#DejaVuSans-61" x="509.761719"/>
      <use xlink:href="#DejaVuSans-6c" x="571.041016"/>
      <use xlink:href="#DejaVuSans-20" x="598.824219"/>
      <use xlink:href="#DejaVuSans-36" x="630.611328"/>
     </g>
    </g>
    <g id="line2d_51">
     <path d="M 794.414062 439.347812 
L 804.414062 439.347812 
L 814.414062 439.347812 
" style="fill: none; stroke: #60a7d2; stroke-width: 1.5; stroke-linecap: square"/>
    </g>
    <g id="text_33">
     <!-- Incremental 7 -->
     <g transform="translate(822.414062 442.847812) scale(0.1 -0.1)">
      <use xlink:href="#DejaVuSans-49"/>
      <use xlink:href="#DejaVuSans-6e" x="29.492188"/>
      <use xlink:href="#DejaVuSans-63" x="92.871094"/>
      <use xlink:href="#DejaVuSans-72" x="147.851562"/>
      <use xlink:href="#DejaVuSans-65" x="186.714844"/>
      <use xlink:href="#DejaVuSans-6d" x="248.238281"/>
      <use xlink:href="#DejaVuSans-65" x="345.650391"/>
      <use xlink:href="#DejaVuSans-6e" x="407.173828"/>
      <use xlink:href="#DejaVuSans-74" x="470.552734"/>
      <use xlink:href="#DejaVuSans-61" x="509.761719"/>
      <use xlink:href="#DejaVuSans-6c" x="571.041016"/>
      <use xlink:href="#DejaVuSans-20" x="598.824219"/>
      <use xlink:href="#DejaVuSans-37" x="630.611328"/>
     </g>
    </g>
    <g id="line2d_52">
     <path d="M 794.414062 454.025937 
L 804.414062 454.025937 
L 814.414062 454.025937 
" style="fill: none; stroke: #7db8da; stroke-width: 1.5; stroke-linecap: square"/>
    </g>
    <g id="text_34">
     <!-- Incremental 8 -->
     <g transform="translate(822.414062 457.525937) scale(0.1 -0.1)">
      <use xlink:href="#DejaVuSans-49"/>
      <use xlink:href="#DejaVuSans-6e" x="29.492188"/>
      <use xlink:href="#DejaVuSans-63" x="92.871094"/>
      <use xlink:href="#DejaVuSans-72" x="147.851562"/>
      <use xlink:href="#DejaVuSans-65" x="186.714844"/>
      <use xlink:href="#DejaVuSans-6d" x="248.238281"/>
      <use xlink:href="#DejaVuSans-65" x="345.650391"/>
      <use xlink:href="#DejaVuSans-6e" x="407.173828"/>
      <use xlink:href="#DejaVuSans-74" x="470.552734"/>
      <use xlink:href="#DejaVuSans-61" x="509.761719"/>
      <use xlink:href="#DejaVuSans-6c" x="571.041016"/>
      <use xlink:href="#DejaVuSans-20" x="598.824219"/>
      <use xlink:href="#DejaVuSans-38" x="630.611328"/>
     </g>
    </g>
    <g id="line2d_53">
     <path d="M 794.414062 468.704062 
L 804.414062 468.704062 
L 814.414062 468.704062 
" style="fill: none; stroke: #9dcae1; stroke-width: 1.5; stroke-linecap: square"/>
    </g>
    <g id="text_35">
     <!-- Incremental 9 -->
     <g transform="translate(822.414062 472.204062) scale(0.1 -0.1)">
      <use xlink:href="#DejaVuSans-49"/>
      <use xlink:href="#DejaVuSans-6e" x="29.492188"/>
      <use xlink:href="#DejaVuSans-63" x="92.871094"/>
      <use xlink:href="#DejaVuSans-72" x="147.851562"/>
      <use xlink:href="#DejaVuSans-65" x="186.714844"/>
      <use xlink:href="#DejaVuSans-6d" x="248.238281"/>
      <use xlink:href="#DejaVuSans-65" x="345.650391"/>
      <use xlink:href="#DejaVuSans-6e" x="407.173828"/>
      <use xlink:href="#DejaVuSans-74" x="470.552734"/>
      <use xlink:href="#DejaVuSans-61" x="509.761719"/>
      <use xlink:href="#DejaVuSans-6c" x="571.041016"/>
      <use xlink:href="#DejaVuSans-20" x="598.824219"/>
      <use xlink:href="#DejaVuSans-39" x="630.611328"/>
     </g>
    </g>
    <g id="line2d_54">
     <path d="M 794.414062 483.382187 
L 804.414062 483.382187 
L 814.414062 483.382187 
" style="fill: none; stroke: #b7d4ea; stroke-width: 1.5; stroke-linecap: square"/>
    </g>
    <g id="text_36">
     <!-- Incremental 10 -->
     <g transform="translate(822.414062 486.882187) scale(0.1 -0.1)">
      <use xlink:href="#DejaVuSans-49"/>
      <use xlink:href="#DejaVuSans-6e" x="29.492188"/>
      <use xlink:href="#DejaVuSans-63" x="92.871094"/>
      <use xlink:href="#DejaVuSans-72" x="147.851562"/>
      <use xlink:href="#DejaVuSans-65" x="186.714844"/>
      <use xlink:href="#DejaVuSans-6d" x="248.238281"/>
      <use xlink:href="#DejaVuSans-65" x="345.650391"/>
      <use xlink:href="#DejaVuSans-6e" x="407.173828"/>
      <use xlink:href="#DejaVuSans-74" x="470.552734"/>
      <use xlink:href="#DejaVuSans-61" x="509.761719"/>
      <use xlink:href="#DejaVuSans-6c" x="571.041016"/>
      <use xlink:href="#DejaVuSans-20" x="598.824219"/>
      <use xlink:href="#DejaVuSans-31" x="630.611328"/>
      <use xlink:href="#DejaVuSans-30" x="694.234375"/>
     </g>
    </g>
    <g id="line2d_55">
     <path d="M 794.414062 498.060313 
L 804.414062 498.060313 
L 814.414062 498.060313 
" style="fill: none; stroke-dasharray: 5.55,2.4; stroke-dashoffset: 0; stroke: #800080; stroke-width: 1.5"/>
    </g>
    <g id="text_37">
     <!-- 100% fitness -->
     <g transform="translate(822.414062 501.560313) scale(0.1 -0.1)">
      <defs>
       <path id="DejaVuSans-66" d="M 2375 4863 
L 2375 4384 
L 1825 4384 
Q 1516 4384 1395 4259 
Q 1275 4134 1275 3809 
L 1275 3500 
L 2222 3500 
L 2222 3053 
L 1275 3053 
L 1275 0 
L 697 0 
L 697 3053 
L 147 3053 
L 147 3500 
L 697 3500 
L 697 3744 
Q 697 4328 969 4595 
Q 1241 4863 1831 4863 
L 2375 4863 
z
" transform="scale(0.015625)"/>
      </defs>
      <use xlink:href="#DejaVuSans-31"/>
      <use xlink:href="#DejaVuSans-30" x="63.623047"/>
      <use xlink:href="#DejaVuSans-30" x="127.246094"/>
      <use xlink:href="#DejaVuSans-25" x="190.869141"/>
      <use xlink:href="#DejaVuSans-20" x="285.888672"/>
      <use xlink:href="#DejaVuSans-66" x="317.675781"/>
      <use xlink:href="#DejaVuSans-69" x="352.880859"/>
      <use xlink:href="#DejaVuSans-74" x="380.664062"/>
      <use xlink:href="#DejaVuSans-6e" x="419.873047"/>
      <use xlink:href="#DejaVuSans-65" x="483.251953"/>
      <use xlink:href="#DejaVuSans-73" x="544.775391"/>
      <use xlink:href="#DejaVuSans-73" x="596.875"/>
     </g>
    </g>
   </g>
  </g>
 </g>
 <defs>
  <clipPath id="pafee7a4e29">
   <rect x="126" y="69.12" width="781.2" height="443.52"/>
  </clipPath>
 </defs>
</svg>
