<?xml version="1.0" encoding="utf-8" standalone="no"?>
<!DOCTYPE svg PUBLIC "-//W3C//DTD SVG 1.1//EN"
  "http://www.w3.org/Graphics/SVG/1.1/DTD/svg11.dtd">
<svg xmlns:xlink="http://www.w3.org/1999/xlink" width="1008pt" height="576pt" viewBox="0 0 1008 576" xmlns="http://www.w3.org/2000/svg" version="1.1">
 <metadata>
  <rdf:RDF xmlns:dc="http://purl.org/dc/elements/1.1/" xmlns:cc="http://creativecommons.org/ns#" xmlns:rdf="http://www.w3.org/1999/02/22-rdf-syntax-ns#">
   <cc:Work>
    <dc:type rdf:resource="http://purl.org/dc/dcmitype/StillImage"/>
    <dc:date>2023-05-19T15:58:13.019812</dc:date>
    <dc:format>image/svg+xml</dc:format>
    <dc:creator>
     <cc:Agent>
      <dc:title>Matplotlib v3.6.3, https://matplotlib.org/</dc:title>
     </cc:Agent>
    </dc:creator>
   </cc:Work>
  </rdf:RDF>
 </metadata>
 <defs>
  <style type="text/css">*{stroke-linejoin: round; stroke-linecap: butt}</style>
 </defs>
 <g id="figure_1">
  <g id="patch_1">
   <path d="M 0 576 
L 1008 576 
L 1008 0 
L 0 0 
z
" style="fill: #ffffff"/>
  </g>
  <g id="axes_1">
   <g id="patch_2">
    <path d="M 126 512.64 
L 907.2 512.64 
L 907.2 69.12 
L 126 69.12 
z
" style="fill: #ffffff"/>
   </g>
   <g id="matplotlib.axis_1">
    <g id="xtick_1">
     <g id="line2d_1">
      <defs>
       <path id="m626856e820" d="M 0 0 
L 0 3.5 
" style="stroke: #000000; stroke-width: 0.8"/>
      </defs>
      <g>
       <use xlink:href="#m626856e820" x="161.509091" y="512.64" style="stroke: #000000; stroke-width: 0.8"/>
      </g>
     </g>
     <g id="text_1">
      <!-- 0 -->
      <g transform="translate(158.327841 527.238438) scale(0.1 -0.1)">
       <defs>
        <path id="DejaVuSans-30" d="M 2034 4250 
Q 1547 4250 1301 3770 
Q 1056 3291 1056 2328 
Q 1056 1369 1301 889 
Q 1547 409 2034 409 
Q 2525 409 2770 889 
Q 3016 1369 3016 2328 
Q 3016 3291 2770 3770 
Q 2525 4250 2034 4250 
z
M 2034 4750 
Q 2819 4750 3233 4129 
Q 3647 3509 3647 2328 
Q 3647 1150 3233 529 
Q 2819 -91 2034 -91 
Q 1250 -91 836 529 
Q 422 1150 422 2328 
Q 422 3509 836 4129 
Q 1250 4750 2034 4750 
z
" transform="scale(0.015625)"/>
       </defs>
       <use xlink:href="#DejaVuSans-30"/>
      </g>
     </g>
    </g>
    <g id="xtick_2">
     <g id="line2d_2">
      <g>
       <use xlink:href="#m626856e820" x="279.951689" y="512.64" style="stroke: #000000; stroke-width: 0.8"/>
      </g>
     </g>
     <g id="text_2">
      <!-- 500 -->
      <g transform="translate(270.407939 527.238438) scale(0.1 -0.1)">
       <defs>
        <path id="DejaVuSans-35" d="M 691 4666 
L 3169 4666 
L 3169 4134 
L 1269 4134 
L 1269 2991 
Q 1406 3038 1543 3061 
Q 1681 3084 1819 3084 
Q 2600 3084 3056 2656 
Q 3513 2228 3513 1497 
Q 3513 744 3044 326 
Q 2575 -91 1722 -91 
Q 1428 -91 1123 -41 
Q 819 9 494 109 
L 494 744 
Q 775 591 1075 516 
Q 1375 441 1709 441 
Q 2250 441 2565 725 
Q 2881 1009 2881 1497 
Q 2881 1984 2565 2268 
Q 2250 2553 1709 2553 
Q 1456 2553 1204 2497 
Q 953 2441 691 2322 
L 691 4666 
z
" transform="scale(0.015625)"/>
       </defs>
       <use xlink:href="#DejaVuSans-35"/>
       <use xlink:href="#DejaVuSans-30" x="63.623047"/>
       <use xlink:href="#DejaVuSans-30" x="127.246094"/>
      </g>
     </g>
    </g>
    <g id="xtick_3">
     <g id="line2d_3">
      <g>
       <use xlink:href="#m626856e820" x="398.394287" y="512.64" style="stroke: #000000; stroke-width: 0.8"/>
      </g>
     </g>
     <g id="text_3">
      <!-- 1000 -->
      <g transform="translate(385.669287 527.238438) scale(0.1 -0.1)">
       <defs>
        <path id="DejaVuSans-31" d="M 794 531 
L 1825 531 
L 1825 4091 
L 703 3866 
L 703 4441 
L 1819 4666 
L 2450 4666 
L 2450 531 
L 3481 531 
L 3481 0 
L 794 0 
L 794 531 
z
" transform="scale(0.015625)"/>
       </defs>
       <use xlink:href="#DejaVuSans-31"/>
       <use xlink:href="#DejaVuSans-30" x="63.623047"/>
       <use xlink:href="#DejaVuSans-30" x="127.246094"/>
       <use xlink:href="#DejaVuSans-30" x="190.869141"/>
      </g>
     </g>
    </g>
    <g id="xtick_4">
     <g id="line2d_4">
      <g>
       <use xlink:href="#m626856e820" x="516.836885" y="512.64" style="stroke: #000000; stroke-width: 0.8"/>
      </g>
     </g>
     <g id="text_4">
      <!-- 1500 -->
      <g transform="translate(504.111885 527.238438) scale(0.1 -0.1)">
       <use xlink:href="#DejaVuSans-31"/>
       <use xlink:href="#DejaVuSans-35" x="63.623047"/>
       <use xlink:href="#DejaVuSans-30" x="127.246094"/>
       <use xlink:href="#DejaVuSans-30" x="190.869141"/>
      </g>
     </g>
    </g>
    <g id="xtick_5">
     <g id="line2d_5">
      <g>
       <use xlink:href="#m626856e820" x="635.279483" y="512.64" style="stroke: #000000; stroke-width: 0.8"/>
      </g>
     </g>
     <g id="text_5">
      <!-- 2000 -->
      <g transform="translate(622.554483 527.238438) scale(0.1 -0.1)">
       <defs>
        <path id="DejaVuSans-32" d="M 1228 531 
L 3431 531 
L 3431 0 
L 469 0 
L 469 531 
Q 828 903 1448 1529 
Q 2069 2156 2228 2338 
Q 2531 2678 2651 2914 
Q 2772 3150 2772 3378 
Q 2772 3750 2511 3984 
Q 2250 4219 1831 4219 
Q 1534 4219 1204 4116 
Q 875 4013 500 3803 
L 500 4441 
Q 881 4594 1212 4672 
Q 1544 4750 1819 4750 
Q 2544 4750 2975 4387 
Q 3406 4025 3406 3419 
Q 3406 3131 3298 2873 
Q 3191 2616 2906 2266 
Q 2828 2175 2409 1742 
Q 1991 1309 1228 531 
z
" transform="scale(0.015625)"/>
       </defs>
       <use xlink:href="#DejaVuSans-32"/>
       <use xlink:href="#DejaVuSans-30" x="63.623047"/>
       <use xlink:href="#DejaVuSans-30" x="127.246094"/>
       <use xlink:href="#DejaVuSans-30" x="190.869141"/>
      </g>
     </g>
    </g>
    <g id="xtick_6">
     <g id="line2d_6">
      <g>
       <use xlink:href="#m626856e820" x="753.722081" y="512.64" style="stroke: #000000; stroke-width: 0.8"/>
      </g>
     </g>
     <g id="text_6">
      <!-- 2500 -->
      <g transform="translate(740.997081 527.238438) scale(0.1 -0.1)">
       <use xlink:href="#DejaVuSans-32"/>
       <use xlink:href="#DejaVuSans-35" x="63.623047"/>
       <use xlink:href="#DejaVuSans-30" x="127.246094"/>
       <use xlink:href="#DejaVuSans-30" x="190.869141"/>
      </g>
     </g>
    </g>
    <g id="xtick_7">
     <g id="line2d_7">
      <g>
       <use xlink:href="#m626856e820" x="872.164679" y="512.64" style="stroke: #000000; stroke-width: 0.8"/>
      </g>
     </g>
     <g id="text_7">
      <!-- 3000 -->
      <g transform="translate(859.439679 527.238438) scale(0.1 -0.1)">
       <defs>
        <path id="DejaVuSans-33" d="M 2597 2516 
Q 3050 2419 3304 2112 
Q 3559 1806 3559 1356 
Q 3559 666 3084 287 
Q 2609 -91 1734 -91 
Q 1441 -91 1130 -33 
Q 819 25 488 141 
L 488 750 
Q 750 597 1062 519 
Q 1375 441 1716 441 
Q 2309 441 2620 675 
Q 2931 909 2931 1356 
Q 2931 1769 2642 2001 
Q 2353 2234 1838 2234 
L 1294 2234 
L 1294 2753 
L 1863 2753 
Q 2328 2753 2575 2939 
Q 2822 3125 2822 3475 
Q 2822 3834 2567 4026 
Q 2313 4219 1838 4219 
Q 1578 4219 1281 4162 
Q 984 4106 628 3988 
L 628 4550 
Q 988 4650 1302 4700 
Q 1616 4750 1894 4750 
Q 2613 4750 3031 4423 
Q 3450 4097 3450 3541 
Q 3450 3153 3228 2886 
Q 3006 2619 2597 2516 
z
" transform="scale(0.015625)"/>
       </defs>
       <use xlink:href="#DejaVuSans-33"/>
       <use xlink:href="#DejaVuSans-30" x="63.623047"/>
       <use xlink:href="#DejaVuSans-30" x="127.246094"/>
       <use xlink:href="#DejaVuSans-30" x="190.869141"/>
      </g>
     </g>
    </g>
    <g id="text_8">
     <!-- Generation -->
     <g transform="translate(466.392656 546.995312) scale(0.18 -0.18)">
      <defs>
       <path id="DejaVuSans-47" d="M 3809 666 
L 3809 1919 
L 2778 1919 
L 2778 2438 
L 4434 2438 
L 4434 434 
Q 4069 175 3628 42 
Q 3188 -91 2688 -91 
Q 1594 -91 976 548 
Q 359 1188 359 2328 
Q 359 3472 976 4111 
Q 1594 4750 2688 4750 
Q 3144 4750 3555 4637 
Q 3966 4525 4313 4306 
L 4313 3634 
Q 3963 3931 3569 4081 
Q 3175 4231 2741 4231 
Q 1884 4231 1454 3753 
Q 1025 3275 1025 2328 
Q 1025 1384 1454 906 
Q 1884 428 2741 428 
Q 3075 428 3337 486 
Q 3600 544 3809 666 
z
" transform="scale(0.015625)"/>
       <path id="DejaVuSans-65" d="M 3597 1894 
L 3597 1613 
L 953 1613 
Q 991 1019 1311 708 
Q 1631 397 2203 397 
Q 2534 397 2845 478 
Q 3156 559 3463 722 
L 3463 178 
Q 3153 47 2828 -22 
Q 2503 -91 2169 -91 
Q 1331 -91 842 396 
Q 353 884 353 1716 
Q 353 2575 817 3079 
Q 1281 3584 2069 3584 
Q 2775 3584 3186 3129 
Q 3597 2675 3597 1894 
z
M 3022 2063 
Q 3016 2534 2758 2815 
Q 2500 3097 2075 3097 
Q 1594 3097 1305 2825 
Q 1016 2553 972 2059 
L 3022 2063 
z
" transform="scale(0.015625)"/>
       <path id="DejaVuSans-6e" d="M 3513 2113 
L 3513 0 
L 2938 0 
L 2938 2094 
Q 2938 2591 2744 2837 
Q 2550 3084 2163 3084 
Q 1697 3084 1428 2787 
Q 1159 2491 1159 1978 
L 1159 0 
L 581 0 
L 581 3500 
L 1159 3500 
L 1159 2956 
Q 1366 3272 1645 3428 
Q 1925 3584 2291 3584 
Q 2894 3584 3203 3211 
Q 3513 2838 3513 2113 
z
" transform="scale(0.015625)"/>
       <path id="DejaVuSans-72" d="M 2631 2963 
Q 2534 3019 2420 3045 
Q 2306 3072 2169 3072 
Q 1681 3072 1420 2755 
Q 1159 2438 1159 1844 
L 1159 0 
L 581 0 
L 581 3500 
L 1159 3500 
L 1159 2956 
Q 1341 3275 1631 3429 
Q 1922 3584 2338 3584 
Q 2397 3584 2469 3576 
Q 2541 3569 2628 3553 
L 2631 2963 
z
" transform="scale(0.015625)"/>
       <path id="DejaVuSans-61" d="M 2194 1759 
Q 1497 1759 1228 1600 
Q 959 1441 959 1056 
Q 959 750 1161 570 
Q 1363 391 1709 391 
Q 2188 391 2477 730 
Q 2766 1069 2766 1631 
L 2766 1759 
L 2194 1759 
z
M 3341 1997 
L 3341 0 
L 2766 0 
L 2766 531 
Q 2569 213 2275 61 
Q 1981 -91 1556 -91 
Q 1019 -91 701 211 
Q 384 513 384 1019 
Q 384 1609 779 1909 
Q 1175 2209 1959 2209 
L 2766 2209 
L 2766 2266 
Q 2766 2663 2505 2880 
Q 2244 3097 1772 3097 
Q 1472 3097 1187 3025 
Q 903 2953 641 2809 
L 641 3341 
Q 956 3463 1253 3523 
Q 1550 3584 1831 3584 
Q 2591 3584 2966 3190 
Q 3341 2797 3341 1997 
z
" transform="scale(0.015625)"/>
       <path id="DejaVuSans-74" d="M 1172 4494 
L 1172 3500 
L 2356 3500 
L 2356 3053 
L 1172 3053 
L 1172 1153 
Q 1172 725 1289 603 
Q 1406 481 1766 481 
L 2356 481 
L 2356 0 
L 1766 0 
Q 1100 0 847 248 
Q 594 497 594 1153 
L 594 3053 
L 172 3053 
L 172 3500 
L 594 3500 
L 594 4494 
L 1172 4494 
z
" transform="scale(0.015625)"/>
       <path id="DejaVuSans-69" d="M 603 3500 
L 1178 3500 
L 1178 0 
L 603 0 
L 603 3500 
z
M 603 4863 
L 1178 4863 
L 1178 4134 
L 603 4134 
L 603 4863 
z
" transform="scale(0.015625)"/>
       <path id="DejaVuSans-6f" d="M 1959 3097 
Q 1497 3097 1228 2736 
Q 959 2375 959 1747 
Q 959 1119 1226 758 
Q 1494 397 1959 397 
Q 2419 397 2687 759 
Q 2956 1122 2956 1747 
Q 2956 2369 2687 2733 
Q 2419 3097 1959 3097 
z
M 1959 3584 
Q 2709 3584 3137 3096 
Q 3566 2609 3566 1747 
Q 3566 888 3137 398 
Q 2709 -91 1959 -91 
Q 1206 -91 779 398 
Q 353 888 353 1747 
Q 353 2609 779 3096 
Q 1206 3584 1959 3584 
z
" transform="scale(0.015625)"/>
      </defs>
      <use xlink:href="#DejaVuSans-47"/>
      <use xlink:href="#DejaVuSans-65" x="77.490234"/>
      <use xlink:href="#DejaVuSans-6e" x="139.013672"/>
      <use xlink:href="#DejaVuSans-65" x="202.392578"/>
      <use xlink:href="#DejaVuSans-72" x="263.916016"/>
      <use xlink:href="#DejaVuSans-61" x="305.029297"/>
      <use xlink:href="#DejaVuSans-74" x="366.308594"/>
      <use xlink:href="#DejaVuSans-69" x="405.517578"/>
      <use xlink:href="#DejaVuSans-6f" x="433.300781"/>
      <use xlink:href="#DejaVuSans-6e" x="494.482422"/>
     </g>
    </g>
   </g>
   <g id="matplotlib.axis_2">
    <g id="ytick_1">
     <g id="line2d_8">
      <defs>
       <path id="m67d97222d0" d="M 0 0 
L -3.5 0 
" style="stroke: #000000; stroke-width: 0.8"/>
      </defs>
      <g>
       <use xlink:href="#m67d97222d0" x="126" y="482.4" style="stroke: #000000; stroke-width: 0.8"/>
      </g>
     </g>
     <g id="text_9">
      <!-- 2.5 -->
      <g transform="translate(103.096875 486.199219) scale(0.1 -0.1)">
       <defs>
        <path id="DejaVuSans-2e" d="M 684 794 
L 1344 794 
L 1344 0 
L 684 0 
L 684 794 
z
" transform="scale(0.015625)"/>
       </defs>
       <use xlink:href="#DejaVuSans-32"/>
       <use xlink:href="#DejaVuSans-2e" x="63.623047"/>
       <use xlink:href="#DejaVuSans-35" x="95.410156"/>
      </g>
     </g>
    </g>
    <g id="ytick_2">
     <g id="line2d_9">
      <g>
       <use xlink:href="#m67d97222d0" x="126" y="432" style="stroke: #000000; stroke-width: 0.8"/>
      </g>
     </g>
     <g id="text_10">
      <!-- 5.0 -->
      <g transform="translate(103.096875 435.799219) scale(0.1 -0.1)">
       <use xlink:href="#DejaVuSans-35"/>
       <use xlink:href="#DejaVuSans-2e" x="63.623047"/>
       <use xlink:href="#DejaVuSans-30" x="95.410156"/>
      </g>
     </g>
    </g>
    <g id="ytick_3">
     <g id="line2d_10">
      <g>
       <use xlink:href="#m67d97222d0" x="126" y="381.6" style="stroke: #000000; stroke-width: 0.8"/>
      </g>
     </g>
     <g id="text_11">
      <!-- 7.5 -->
      <g transform="translate(103.096875 385.399219) scale(0.1 -0.1)">
       <defs>
        <path id="DejaVuSans-37" d="M 525 4666 
L 3525 4666 
L 3525 4397 
L 1831 0 
L 1172 0 
L 2766 4134 
L 525 4134 
L 525 4666 
z
" transform="scale(0.015625)"/>
       </defs>
       <use xlink:href="#DejaVuSans-37"/>
       <use xlink:href="#DejaVuSans-2e" x="63.623047"/>
       <use xlink:href="#DejaVuSans-35" x="95.410156"/>
      </g>
     </g>
    </g>
    <g id="ytick_4">
     <g id="line2d_11">
      <g>
       <use xlink:href="#m67d97222d0" x="126" y="331.2" style="stroke: #000000; stroke-width: 0.8"/>
      </g>
     </g>
     <g id="text_12">
      <!-- 10.0 -->
      <g transform="translate(96.734375 334.999219) scale(0.1 -0.1)">
       <use xlink:href="#DejaVuSans-31"/>
       <use xlink:href="#DejaVuSans-30" x="63.623047"/>
       <use xlink:href="#DejaVuSans-2e" x="127.246094"/>
       <use xlink:href="#DejaVuSans-30" x="159.033203"/>
      </g>
     </g>
    </g>
    <g id="ytick_5">
     <g id="line2d_12">
      <g>
       <use xlink:href="#m67d97222d0" x="126" y="280.8" style="stroke: #000000; stroke-width: 0.8"/>
      </g>
     </g>
     <g id="text_13">
      <!-- 12.5 -->
      <g transform="translate(96.734375 284.599219) scale(0.1 -0.1)">
       <use xlink:href="#DejaVuSans-31"/>
       <use xlink:href="#DejaVuSans-32" x="63.623047"/>
       <use xlink:href="#DejaVuSans-2e" x="127.246094"/>
       <use xlink:href="#DejaVuSans-35" x="159.033203"/>
      </g>
     </g>
    </g>
    <g id="ytick_6">
     <g id="line2d_13">
      <g>
       <use xlink:href="#m67d97222d0" x="126" y="230.4" style="stroke: #000000; stroke-width: 0.8"/>
      </g>
     </g>
     <g id="text_14">
      <!-- 15.0 -->
      <g transform="translate(96.734375 234.199219) scale(0.1 -0.1)">
       <use xlink:href="#DejaVuSans-31"/>
       <use xlink:href="#DejaVuSans-35" x="63.623047"/>
       <use xlink:href="#DejaVuSans-2e" x="127.246094"/>
       <use xlink:href="#DejaVuSans-30" x="159.033203"/>
      </g>
     </g>
    </g>
    <g id="ytick_7">
     <g id="line2d_14">
      <g>
       <use xlink:href="#m67d97222d0" x="126" y="180" style="stroke: #000000; stroke-width: 0.8"/>
      </g>
     </g>
     <g id="text_15">
      <!-- 17.5 -->
      <g transform="translate(96.734375 183.799219) scale(0.1 -0.1)">
       <use xlink:href="#DejaVuSans-31"/>
       <use xlink:href="#DejaVuSans-37" x="63.623047"/>
       <use xlink:href="#DejaVuSans-2e" x="127.246094"/>
       <use xlink:href="#DejaVuSans-35" x="159.033203"/>
      </g>
     </g>
    </g>
    <g id="ytick_8">
     <g id="line2d_15">
      <g>
       <use xlink:href="#m67d97222d0" x="126" y="129.6" style="stroke: #000000; stroke-width: 0.8"/>
      </g>
     </g>
     <g id="text_16">
      <!-- 20.0 -->
      <g transform="translate(96.734375 133.399219) scale(0.1 -0.1)">
       <use xlink:href="#DejaVuSans-32"/>
       <use xlink:href="#DejaVuSans-30" x="63.623047"/>
       <use xlink:href="#DejaVuSans-2e" x="127.246094"/>
       <use xlink:href="#DejaVuSans-30" x="159.033203"/>
      </g>
     </g>
    </g>
    <g id="ytick_9">
     <g id="line2d_16">
      <g>
       <use xlink:href="#m67d97222d0" x="126" y="79.2" style="stroke: #000000; stroke-width: 0.8"/>
      </g>
     </g>
     <g id="text_17">
      <!-- 22.5 -->
      <g transform="translate(96.734375 82.999219) scale(0.1 -0.1)">
       <use xlink:href="#DejaVuSans-32"/>
       <use xlink:href="#DejaVuSans-32" x="63.623047"/>
       <use xlink:href="#DejaVuSans-2e" x="127.246094"/>
       <use xlink:href="#DejaVuSans-35" x="159.033203"/>
      </g>
     </g>
    </g>
    <g id="text_18">
     <!-- Fitness -->
     <g transform="translate(89.406875 318.5875) rotate(-90) scale(0.16 -0.16)">
      <defs>
       <path id="DejaVuSans-46" d="M 628 4666 
L 3309 4666 
L 3309 4134 
L 1259 4134 
L 1259 2759 
L 3109 2759 
L 3109 2228 
L 1259 2228 
L 1259 0 
L 628 0 
L 628 4666 
z
" transform="scale(0.015625)"/>
       <path id="DejaVuSans-73" d="M 2834 3397 
L 2834 2853 
Q 2591 2978 2328 3040 
Q 2066 3103 1784 3103 
Q 1356 3103 1142 2972 
Q 928 2841 928 2578 
Q 928 2378 1081 2264 
Q 1234 2150 1697 2047 
L 1894 2003 
Q 2506 1872 2764 1633 
Q 3022 1394 3022 966 
Q 3022 478 2636 193 
Q 2250 -91 1575 -91 
Q 1294 -91 989 -36 
Q 684 19 347 128 
L 347 722 
Q 666 556 975 473 
Q 1284 391 1588 391 
Q 1994 391 2212 530 
Q 2431 669 2431 922 
Q 2431 1156 2273 1281 
Q 2116 1406 1581 1522 
L 1381 1569 
Q 847 1681 609 1914 
Q 372 2147 372 2553 
Q 372 3047 722 3315 
Q 1072 3584 1716 3584 
Q 2034 3584 2315 3537 
Q 2597 3491 2834 3397 
z
" transform="scale(0.015625)"/>
      </defs>
      <use xlink:href="#DejaVuSans-46"/>
      <use xlink:href="#DejaVuSans-69" x="50.269531"/>
      <use xlink:href="#DejaVuSans-74" x="78.052734"/>
      <use xlink:href="#DejaVuSans-6e" x="117.261719"/>
      <use xlink:href="#DejaVuSans-65" x="180.640625"/>
      <use xlink:href="#DejaVuSans-73" x="242.164062"/>
      <use xlink:href="#DejaVuSans-73" x="294.263672"/>
     </g>
    </g>
   </g>
   <g id="line2d_17">
    <path d="M 161.509091 492.48 
L 162.693517 492.48 
L 162.930402 472.32 
L 164.825484 472.32 
L 165.062369 452.16 
L 168.378762 452.16 
L 168.615647 411.84 
L 169.089417 371.52 
L 177.854169 371.52 
L 178.091055 351.36 
L 180.933677 351.36 
L 181.170562 331.2 
L 193.014822 331.2 
L 193.251707 311.04 
L 200.595148 311.04 
L 200.832033 290.88 
L 203.200885 290.88 
L 203.437771 230.4 
L 205.806623 230.4 
L 206.043508 210.24 
L 216.229571 210.24 
L 216.466456 190.08 
L 225.231209 190.08 
L 225.468094 169.92 
L 230.205798 169.92 
L 230.442683 149.76 
L 308.141027 149.76 
L 308.377913 129.6 
L 317.37955 129.6 
L 317.616435 109.44 
L 749.695033 109.44 
L 749.931918 89.28 
L 749.931918 89.28 
" clip-path="url(#pf91d8e0967)" style="fill: none; stroke: #7f2704; stroke-width: 1.5; stroke-linecap: square"/>
   </g>
   <g id="line2d_18">
    <path d="M 161.509091 492.48 
L 161.745976 432 
L 163.641058 432 
L 163.877943 411.84 
L 166.48368 411.84 
L 166.720565 391.68 
L 180.223021 391.68 
L 180.459907 351.36 
L 180.933677 351.36 
L 181.170562 311.04 
L 182.828759 311.04 
L 183.065644 290.88 
L 204.148426 290.88 
L 204.385311 250.56 
L 340.357414 250.56 
L 340.594299 230.4 
L 361.677082 230.4 
L 361.913967 190.08 
L 469.459846 190.08 
L 469.696731 169.92 
L 700.422912 169.92 
L 700.659797 149.76 
L 798.493383 149.76 
L 798.730269 129.6 
L 871.690909 129.6 
L 871.690909 129.6 
" clip-path="url(#pf91d8e0967)" style="fill: none; stroke: #963003; stroke-width: 1.5; stroke-linecap: square"/>
   </g>
   <g id="line2d_19">
    <path d="M 161.509091 472.32 
L 167.194336 472.32 
L 167.431221 432 
L 195.146789 432 
L 195.383674 411.84 
L 198.700067 411.84 
L 198.936952 371.52 
L 251.999236 371.52 
L 252.236121 351.36 
L 254.604973 351.36 
L 254.841858 331.2 
L 260.053333 331.2 
L 260.290218 270.72 
L 263.60661 270.72 
L 263.843496 250.56 
L 265.264807 250.56 
L 265.501692 230.4 
L 274.740215 230.4 
L 274.9771 210.24 
L 281.136115 210.24 
L 281.373 190.08 
L 297.007423 190.08 
L 297.244308 169.92 
L 307.430372 169.92 
L 307.667257 149.76 
L 332.540203 149.76 
L 332.777088 129.6 
L 362.861508 129.6 
L 363.098393 109.44 
L 871.690909 109.44 
L 871.690909 109.44 
" clip-path="url(#pf91d8e0967)" style="fill: none; stroke: #b13a03; stroke-width: 1.5; stroke-linecap: square"/>
   </g>
   <g id="line2d_20">
    <path d="M 161.509091 492.48 
L 161.745976 472.32 
L 162.219746 472.32 
L 162.456632 452.16 
L 162.693517 452.16 
L 162.930402 432 
L 164.114828 432 
L 164.351713 411.84 
L 181.170562 411.84 
L 181.407447 391.68 
L 193.725478 391.68 
L 193.962363 371.52 
L 227.600061 371.52 
L 227.836946 351.36 
L 233.04842 351.36 
L 233.285305 290.88 
L 237.075468 290.88 
L 237.312354 270.72 
L 552.132779 270.72 
L 552.369665 230.4 
L 839.474522 230.4 
L 839.711408 190.08 
L 848.239275 190.08 
L 848.47616 129.6 
L 871.690909 129.6 
L 871.690909 129.6 
" clip-path="url(#pf91d8e0967)" style="fill: none; stroke: #d14501; stroke-width: 1.5; stroke-linecap: square"/>
   </g>
   <g id="line2d_21">
    <path d="M 161.509091 492.48 
L 161.745976 472.32 
L 162.219746 472.32 
L 162.456632 432 
L 165.773024 432 
L 166.00991 411.84 
L 166.720565 411.84 
L 166.95745 391.68 
L 187.092692 391.68 
L 187.329577 371.52 
L 216.466456 371.52 
L 216.703342 311.04 
L 217.650882 311.04 
L 217.887768 290.88 
L 230.679568 290.88 
L 230.916453 250.56 
L 288.716441 250.56 
L 288.953326 210.24 
L 292.980375 210.24 
L 293.21726 190.08 
L 316.432009 190.08 
L 316.668894 169.92 
L 378.02216 169.92 
L 378.259045 149.76 
L 522.04836 149.76 
L 522.285245 129.6 
L 538.156553 129.6 
L 538.393438 109.44 
L 871.690909 109.44 
L 871.690909 109.44 
" clip-path="url(#pf91d8e0967)" style="fill: none; stroke: #e4580a; stroke-width: 1.5; stroke-linecap: square"/>
   </g>
   <g id="line2d_22">
    <path d="M 161.509091 411.84 
L 173.827121 411.84 
L 174.064006 391.68 
L 176.432858 391.68 
L 176.669743 371.52 
L 210.070556 371.52 
L 210.307441 250.56 
L 327.802499 250.56 
L 328.039384 230.4 
L 674.602426 230.4 
L 674.839311 210.24 
L 775.752405 210.24 
L 775.98929 190.08 
L 794.70322 190.08 
L 794.940106 169.92 
L 871.690909 169.92 
L 871.690909 169.92 
" clip-path="url(#pf91d8e0967)" style="fill: none; stroke: #f26d17; stroke-width: 1.5; stroke-linecap: square"/>
   </g>
   <g id="line2d_23">
    <path d="M 161.509091 492.48 
L 162.456632 492.48 
L 162.693517 411.84 
L 179.986136 411.84 
L 180.223021 391.68 
L 185.434496 391.68 
L 185.671381 371.52 
L 187.803348 371.52 
L 188.040233 331.2 
L 190.1722 331.2 
L 190.409085 270.72 
L 194.673018 270.72 
L 194.909904 210.24 
L 231.863994 210.24 
L 232.337765 169.92 
L 233.285305 169.92 
L 233.522191 109.44 
L 387.497568 109.44 
L 387.734453 89.28 
L 387.734453 89.28 
" clip-path="url(#pf91d8e0967)" style="fill: none; stroke: #fa8331; stroke-width: 1.5; stroke-linecap: square"/>
   </g>
   <g id="line2d_24">
    <path d="M 161.509091 492.48 
L 161.745976 492.48 
L 161.982861 472.32 
L 165.299254 472.32 
L 165.536139 452.16 
L 166.246795 452.16 
L 166.48368 411.84 
L 166.720565 411.84 
L 166.95745 391.68 
L 173.827121 391.68 
L 174.064006 351.36 
L 178.32794 351.36 
L 178.564825 331.2 
L 179.038595 331.2 
L 179.275481 290.88 
L 180.223021 290.88 
L 180.459907 270.72 
L 197.04187 270.72 
L 197.278756 250.56 
L 208.175475 250.56 
L 208.41236 230.4 
L 216.703342 230.4 
L 216.940227 210.24 
L 253.657432 210.24 
L 253.894317 190.08 
L 359.545115 190.08 
L 359.782 169.92 
L 456.904931 169.92 
L 457.141816 149.76 
L 528.207375 149.76 
L 528.44426 129.6 
L 871.690909 129.6 
L 871.690909 129.6 
" clip-path="url(#pf91d8e0967)" style="fill: none; stroke: #fd994d; stroke-width: 1.5; stroke-linecap: square"/>
   </g>
   <g id="line2d_25">
    <path d="M 161.509091 492.48 
L 162.219746 492.48 
L 162.456632 452.16 
L 163.641058 452.16 
L 163.877943 371.52 
L 174.537777 371.52 
L 174.774662 351.36 
L 184.25007 351.36 
L 184.486955 331.2 
L 187.092692 331.2 
L 187.329577 311.04 
L 187.566462 250.56 
L 187.803348 250.56 
L 188.040233 230.4 
L 189.461544 230.4 
L 189.698429 210.24 
L 194.673018 210.24 
L 194.909904 169.92 
L 201.068919 169.92 
L 201.305804 149.76 
L 218.598423 149.76 
L 218.835308 129.6 
L 230.205798 129.6 
L 230.442683 109.44 
L 378.969701 109.44 
L 379.206586 89.28 
L 379.206586 89.28 
" clip-path="url(#pf91d8e0967)" style="fill: none; stroke: #fdae6a; stroke-width: 1.5; stroke-linecap: square"/>
   </g>
   <g id="line2d_26">
    <path d="M 161.509091 472.32 
L 163.167287 472.32 
L 163.404172 452.16 
L 170.273843 452.16 
L 170.510728 432 
L 176.432858 432 
L 176.669743 411.84 
L 178.091055 411.84 
L 178.32794 371.52 
L 189.935314 371.52 
L 190.1722 351.36 
L 206.043508 351.36 
L 206.280393 311.04 
L 234.943502 311.04 
L 235.180387 290.88 
L 619.17129 290.88 
L 619.408175 230.4 
L 644.281121 230.4 
L 644.518006 210.24 
L 659.204888 210.24 
L 659.441773 190.08 
L 667.96964 190.08 
L 668.206526 169.92 
L 771.014701 169.92 
L 771.251586 149.76 
L 841.606489 149.76 
L 841.843374 129.6 
L 871.690909 129.6 
L 871.690909 129.6 
" clip-path="url(#pf91d8e0967)" style="fill: none; stroke: #fdc38d; stroke-width: 1.5; stroke-linecap: square"/>
   </g>
   <g id="line2d_27">
    <path d="M 320.222172 452.16 
L 320.459058 270.72 
L 320.695943 270.72 
L 320.932828 270.72 
L 321.169713 270.72 
L 321.406598 270.72 
L 321.643484 270.72 
L 321.880369 270.72 
L 322.117254 270.72 
L 322.354139 230.4 
L 322.591024 230.4 
L 322.82791 230.4 
L 323.064795 190.08 
L 323.30168 190.08 
L 323.538565 190.08 
L 323.77545 190.08 
L 324.012335 190.08 
L 324.249221 190.08 
L 324.486106 190.08 
L 324.722991 190.08 
L 324.959876 190.08 
L 325.196761 190.08 
L 325.433647 169.92 
L 325.670532 169.92 
L 325.907417 169.92 
L 326.144302 169.92 
L 326.381187 169.92 
L 326.618073 169.92 
L 326.854958 169.92 
L 327.091843 169.92 
L 327.328728 169.92 
L 327.565613 169.92 
L 327.802499 169.92 
L 328.039384 169.92 
L 328.276269 169.92 
L 328.513154 149.76 
L 328.750039 149.76 
L 328.986925 149.76 
L 329.22381 149.76 
L 329.460695 149.76 
L 329.69758 149.76 
L 329.934465 149.76 
L 330.171351 149.76 
L 330.408236 149.76 
L 330.645121 149.76 
L 330.882006 149.76 
L 331.118891 149.76 
L 331.355777 149.76 
L 331.592662 149.76 
L 331.829547 149.76 
L 332.066432 149.76 
L 332.303317 149.76 
L 332.540203 149.76 
L 332.777088 149.76 
L 333.013973 149.76 
L 333.250858 149.76 
L 333.487743 149.76 
L 333.724629 149.76 
L 333.961514 149.76 
L 334.198399 149.76 
L 334.435284 149.76 
L 334.672169 149.76 
L 334.909055 149.76 
L 335.14594 149.76 
L 335.382825 149.76 
L 335.61971 149.76 
L 335.856595 149.76 
L 336.093481 109.44 
L 336.330366 109.44 
L 336.567251 109.44 
L 336.804136 109.44 
L 337.041021 109.44 
L 337.277906 109.44 
L 337.514792 109.44 
L 337.751677 109.44 
L 337.988562 109.44 
L 338.225447 109.44 
L 338.462332 109.44 
L 338.699218 109.44 
L 338.936103 109.44 
L 339.172988 109.44 
L 339.409873 109.44 
L 339.646758 109.44 
L 339.883644 109.44 
L 340.120529 109.44 
L 340.357414 109.44 
L 340.594299 109.44 
L 340.831184 109.44 
L 341.06807 109.44 
L 341.304955 109.44 
L 341.54184 109.44 
L 341.778725 109.44 
L 342.01561 109.44 
L 342.252496 109.44 
L 342.489381 109.44 
L 342.726266 109.44 
L 342.963151 109.44 
L 343.200036 109.44 
L 343.436922 109.44 
L 343.673807 109.44 
L 343.910692 109.44 
L 344.147577 109.44 
L 344.384462 109.44 
L 344.621348 109.44 
L 344.858233 109.44 
L 345.095118 109.44 
L 345.332003 109.44 
L 345.568888 109.44 
L 345.805774 109.44 
L 346.042659 109.44 
L 346.279544 109.44 
L 346.516429 89.28 
" clip-path="url(#pf91d8e0967)" style="fill: none; stroke: #08306b; stroke-width: 1.5; stroke-linecap: square"/>
   </g>
   <g id="line2d_28">
    <path d="M 318.800861 411.84 
L 319.748402 411.84 
L 319.985287 391.68 
L 322.354139 391.68 
L 322.591024 351.36 
L 327.565613 351.36 
L 327.802499 331.2 
L 330.408236 331.2 
L 330.645121 290.88 
L 330.882006 290.88 
L 331.118891 270.72 
L 331.592662 270.72 
L 331.829547 250.56 
L 333.961514 250.56 
L 334.198399 169.92 
L 336.093481 169.92 
L 336.330366 149.76 
L 364.045934 149.76 
L 364.282819 129.6 
L 423.267233 129.6 
L 423.504118 109.44 
L 429.426248 109.44 
L 429.663133 89.28 
L 429.663133 89.28 
" clip-path="url(#pf91d8e0967)" style="fill: none; stroke: #084488; stroke-width: 1.5; stroke-linecap: square"/>
   </g>
   <g id="line2d_29">
    <path d="M 230.679568 331.2 
L 230.916453 331.2 
L 231.153339 230.4 
L 231.390224 230.4 
L 231.627109 230.4 
L 231.863994 230.4 
L 232.100879 230.4 
L 232.337765 230.4 
L 232.57465 190.08 
L 232.811535 190.08 
L 233.04842 190.08 
L 233.285305 190.08 
L 233.522191 149.76 
L 233.759076 149.76 
L 233.995961 149.76 
L 234.232846 149.76 
L 234.469731 149.76 
L 234.706617 149.76 
L 234.943502 149.76 
L 235.180387 149.76 
L 235.417272 149.76 
L 235.654157 149.76 
L 235.891043 129.6 
L 236.127928 129.6 
L 236.364813 129.6 
L 236.601698 129.6 
L 236.838583 129.6 
L 237.075468 129.6 
L 237.312354 129.6 
L 237.549239 129.6 
L 237.786124 129.6 
L 238.023009 129.6 
L 238.259894 129.6 
L 238.49678 109.44 
L 238.733665 109.44 
L 238.97055 109.44 
L 239.207435 109.44 
L 239.44432 109.44 
L 239.681206 109.44 
L 239.918091 109.44 
L 240.154976 109.44 
L 240.391861 109.44 
L 240.628746 109.44 
L 240.865632 109.44 
L 241.102517 109.44 
L 241.339402 109.44 
L 241.576287 109.44 
L 241.813172 109.44 
L 242.050058 109.44 
L 242.286943 109.44 
L 242.523828 109.44 
L 242.760713 109.44 
L 242.997598 109.44 
L 243.234484 109.44 
L 243.471369 109.44 
L 243.708254 109.44 
L 243.945139 109.44 
L 244.182024 89.28 
" clip-path="url(#pf91d8e0967)" style="fill: none; stroke: #0e58a2; stroke-width: 1.5; stroke-linecap: square"/>
   </g>
   <g id="line2d_30">
    <path d="M 279.951689 311.04 
L 280.188574 311.04 
L 280.425459 311.04 
L 280.662345 311.04 
L 280.89923 311.04 
L 281.136115 311.04 
L 281.373 290.88 
L 281.609885 270.72 
L 281.846771 270.72 
L 282.083656 270.72 
L 282.320541 270.72 
L 282.557426 270.72 
L 282.794311 270.72 
L 283.031197 250.56 
L 283.268082 250.56 
L 283.504967 230.4 
L 283.741852 230.4 
L 283.978737 230.4 
L 284.215623 230.4 
L 284.452508 190.08 
L 284.689393 190.08 
L 284.926278 190.08 
L 285.163163 190.08 
L 285.400049 190.08 
L 285.636934 190.08 
L 285.873819 190.08 
L 286.110704 190.08 
L 286.347589 190.08 
L 286.584474 190.08 
L 286.82136 190.08 
L 287.058245 190.08 
L 287.29513 190.08 
L 287.532015 169.92 
L 287.7689 169.92 
L 288.005786 169.92 
L 288.242671 169.92 
L 288.479556 169.92 
L 288.716441 169.92 
L 288.953326 169.92 
L 289.190212 169.92 
L 289.427097 169.92 
L 289.663982 169.92 
L 289.900867 169.92 
L 290.137752 169.92 
L 290.374638 169.92 
L 290.611523 169.92 
L 290.848408 169.92 
L 291.085293 169.92 
L 291.322178 169.92 
L 291.559064 149.76 
L 291.795949 149.76 
L 292.032834 149.76 
L 292.269719 149.76 
L 292.506604 149.76 
L 292.74349 149.76 
L 292.980375 149.76 
L 293.21726 149.76 
L 293.454145 149.76 
L 293.69103 149.76 
L 293.927916 149.76 
L 294.164801 149.76 
L 294.401686 149.76 
L 294.638571 149.76 
L 294.875456 149.76 
L 295.112342 149.76 
L 295.349227 149.76 
L 295.586112 149.76 
L 295.822997 149.76 
L 296.059882 129.6 
L 296.296768 129.6 
L 296.533653 129.6 
L 296.770538 129.6 
L 297.007423 129.6 
L 297.244308 129.6 
L 297.481194 129.6 
L 297.718079 129.6 
L 297.954964 129.6 
L 298.191849 129.6 
L 298.428734 129.6 
L 298.66562 129.6 
L 298.902505 129.6 
L 299.13939 129.6 
L 299.376275 129.6 
L 299.61316 129.6 
L 299.850045 129.6 
L 300.086931 129.6 
L 300.323816 129.6 
L 300.560701 129.6 
L 300.797586 129.6 
L 301.034471 129.6 
L 301.271357 129.6 
L 301.508242 129.6 
L 301.745127 129.6 
L 301.982012 129.6 
L 302.218897 129.6 
L 302.455783 129.6 
L 302.692668 129.6 
L 302.929553 129.6 
L 303.166438 129.6 
L 303.403323 129.6 
L 303.640209 129.6 
L 303.877094 129.6 
L 304.113979 129.6 
L 304.350864 129.6 
L 304.587749 129.6 
L 304.824635 129.6 
L 305.06152 129.6 
L 305.298405 129.6 
L 305.53529 129.6 
L 305.772175 129.6 
L 306.009061 129.6 
L 306.245946 89.28 
" clip-path="url(#pf91d8e0967)" style="fill: none; stroke: #1d6cb1; stroke-width: 1.5; stroke-linecap: square"/>
   </g>
   <g id="line2d_31">
    <path d="M 440.322967 250.56 
L 441.033622 250.56 
L 441.270508 230.4 
L 446.955752 230.4 
L 447.192638 190.08 
L 449.087719 190.08 
L 449.324604 169.92 
L 480.59345 169.92 
L 480.830335 149.76 
L 506.650822 149.76 
L 506.887707 129.6 
L 642.386039 129.6 
L 642.622924 109.44 
L 649.72948 109.44 
L 649.966365 89.28 
L 649.966365 89.28 
" clip-path="url(#pf91d8e0967)" style="fill: none; stroke: #3181bd; stroke-width: 1.5; stroke-linecap: square"/>
   </g>
   <g id="line2d_32">
    <path d="M 437.243459 230.4 
L 437.480344 129.6 
L 437.71723 129.6 
L 437.954115 129.6 
L 438.191 129.6 
L 438.427885 129.6 
L 438.66477 129.6 
L 438.901656 129.6 
L 439.138541 129.6 
L 439.375426 129.6 
L 439.612311 129.6 
L 439.849196 129.6 
L 440.086082 109.44 
L 440.322967 109.44 
L 440.559852 109.44 
L 440.796737 109.44 
L 441.033622 109.44 
L 441.270508 109.44 
L 441.507393 109.44 
L 441.744278 109.44 
L 441.981163 109.44 
L 442.218048 109.44 
L 442.454934 109.44 
L 442.691819 109.44 
L 442.928704 109.44 
L 443.165589 109.44 
L 443.402474 109.44 
L 443.63936 109.44 
L 443.876245 109.44 
L 444.11313 109.44 
L 444.350015 109.44 
L 444.5869 109.44 
L 444.823786 89.28 
" clip-path="url(#pf91d8e0967)" style="fill: none; stroke: #4695c8; stroke-width: 1.5; stroke-linecap: square"/>
   </g>
   <g id="line2d_33">
    <path d="M 309.799224 411.84 
L 310.036109 411.84 
L 310.272994 331.2 
L 310.509879 331.2 
L 310.746765 311.04 
L 310.98365 311.04 
L 311.220535 250.56 
L 311.45742 250.56 
L 311.694305 250.56 
L 311.93119 250.56 
L 312.168076 250.56 
L 312.404961 250.56 
L 312.641846 250.56 
L 312.878731 250.56 
L 313.115616 250.56 
L 313.352502 250.56 
L 313.589387 250.56 
L 313.826272 250.56 
L 314.063157 250.56 
L 314.300042 250.56 
L 314.536928 250.56 
L 314.773813 250.56 
L 315.010698 250.56 
L 315.247583 250.56 
L 315.484468 250.56 
L 315.721354 250.56 
L 315.958239 250.56 
L 316.195124 250.56 
L 316.432009 210.24 
L 316.668894 210.24 
L 316.90578 210.24 
L 317.142665 210.24 
L 317.37955 210.24 
L 317.616435 210.24 
L 317.85332 210.24 
L 318.090206 210.24 
L 318.327091 210.24 
L 318.563976 210.24 
L 318.800861 210.24 
L 319.037746 210.24 
L 319.274632 210.24 
L 319.511517 210.24 
L 319.748402 210.24 
L 319.985287 210.24 
L 320.222172 210.24 
L 320.459058 210.24 
L 320.695943 210.24 
L 320.932828 210.24 
L 321.169713 210.24 
L 321.406598 210.24 
L 321.643484 210.24 
L 321.880369 210.24 
L 322.117254 210.24 
L 322.354139 210.24 
L 322.591024 210.24 
L 322.82791 210.24 
L 323.064795 210.24 
L 323.30168 210.24 
L 323.538565 210.24 
L 323.77545 210.24 
L 324.012335 210.24 
L 324.249221 210.24 
L 324.486106 210.24 
L 324.722991 210.24 
L 324.959876 210.24 
L 325.196761 210.24 
L 325.433647 210.24 
L 325.670532 210.24 
L 325.907417 210.24 
L 326.144302 210.24 
L 326.381187 129.6 
L 326.618073 129.6 
L 326.854958 129.6 
L 327.091843 129.6 
L 327.328728 129.6 
L 327.565613 129.6 
L 327.802499 129.6 
L 328.039384 129.6 
L 328.276269 129.6 
L 328.513154 129.6 
L 328.750039 129.6 
L 328.986925 129.6 
L 329.22381 129.6 
L 329.460695 129.6 
L 329.69758 129.6 
L 329.934465 129.6 
L 330.171351 129.6 
L 330.408236 129.6 
L 330.645121 129.6 
L 330.882006 109.44 
L 331.118891 109.44 
L 331.355777 109.44 
L 331.592662 109.44 
L 331.829547 109.44 
L 332.066432 109.44 
L 332.303317 109.44 
L 332.540203 109.44 
L 332.777088 109.44 
L 333.013973 109.44 
L 333.250858 109.44 
L 333.487743 109.44 
L 333.724629 89.28 
" clip-path="url(#pf91d8e0967)" style="fill: none; stroke: #60a7d2; stroke-width: 1.5; stroke-linecap: square"/>
   </g>
   <g id="line2d_34">
    <path d="M 193.488592 452.16 
L 193.725478 311.04 
L 193.962363 311.04 
L 194.199248 250.56 
L 195.146789 250.56 
L 195.383674 230.4 
L 196.5681 230.4 
L 196.804985 210.24 
L 198.700067 210.24 
L 199.173837 169.92 
L 201.068919 169.92 
L 201.305804 149.76 
L 204.148426 149.76 
L 204.385311 129.6 
L 230.442683 129.6 
L 230.679568 109.44 
L 263.369725 109.44 
L 263.60661 89.28 
L 263.60661 89.28 
" clip-path="url(#pf91d8e0967)" style="fill: none; stroke: #7db8da; stroke-width: 1.5; stroke-linecap: square"/>
   </g>
   <g id="line2d_35">
    <path d="M 456.43116 331.2 
L 456.668045 331.2 
L 456.904931 331.2 
L 457.141816 290.88 
L 457.378701 290.88 
L 457.615586 290.88 
L 457.852471 290.88 
L 458.089357 290.88 
L 458.326242 290.88 
L 458.563127 290.88 
L 458.800012 290.88 
L 459.036897 290.88 
L 459.273783 190.08 
L 459.510668 190.08 
L 459.747553 190.08 
L 459.984438 190.08 
L 460.221323 190.08 
L 460.458209 190.08 
L 460.695094 190.08 
L 460.931979 169.92 
L 461.168864 169.92 
L 461.405749 169.92 
L 461.642634 169.92 
L 461.87952 169.92 
L 462.116405 169.92 
L 462.35329 169.92 
L 462.590175 169.92 
L 462.82706 169.92 
L 463.063946 169.92 
L 463.300831 169.92 
L 463.537716 169.92 
L 463.774601 169.92 
L 464.011486 169.92 
L 464.248372 169.92 
L 464.485257 169.92 
L 464.722142 169.92 
L 464.959027 169.92 
L 465.195912 169.92 
L 465.432798 169.92 
L 465.669683 169.92 
L 465.906568 169.92 
L 466.143453 169.92 
L 466.380338 149.76 
L 466.617224 149.76 
L 466.854109 149.76 
L 467.090994 129.6 
L 467.327879 129.6 
L 467.564764 129.6 
L 467.80165 129.6 
L 468.038535 129.6 
L 468.27542 129.6 
L 468.512305 129.6 
L 468.74919 129.6 
L 468.986076 129.6 
L 469.222961 129.6 
L 469.459846 129.6 
L 469.696731 129.6 
L 469.933616 129.6 
L 470.170502 129.6 
L 470.407387 129.6 
L 470.644272 129.6 
L 470.881157 129.6 
L 471.118042 129.6 
L 471.354928 129.6 
L 471.591813 129.6 
L 471.828698 129.6 
L 472.065583 129.6 
L 472.302468 129.6 
L 472.539354 129.6 
L 472.776239 129.6 
L 473.013124 129.6 
L 473.250009 129.6 
L 473.486894 109.44 
L 473.723779 109.44 
L 473.960665 109.44 
L 474.19755 109.44 
L 474.434435 109.44 
L 474.67132 109.44 
L 474.908205 109.44 
L 475.145091 109.44 
L 475.381976 109.44 
L 475.618861 109.44 
L 475.855746 109.44 
L 476.092631 109.44 
L 476.329517 109.44 
L 476.566402 109.44 
L 476.803287 109.44 
L 477.040172 109.44 
L 477.277057 109.44 
L 477.513943 109.44 
L 477.750828 109.44 
L 477.987713 109.44 
L 478.224598 109.44 
L 478.461483 109.44 
L 478.698369 109.44 
L 478.935254 109.44 
L 479.172139 109.44 
L 479.409024 109.44 
L 479.645909 109.44 
L 479.882795 109.44 
L 480.11968 109.44 
L 480.356565 109.44 
L 480.59345 109.44 
L 480.830335 109.44 
L 481.067221 109.44 
L 481.304106 109.44 
L 481.540991 109.44 
L 481.777876 109.44 
L 482.014761 109.44 
L 482.251647 109.44 
L 482.488532 109.44 
L 482.725417 109.44 
L 482.962302 109.44 
L 483.199187 109.44 
L 483.436073 109.44 
L 483.672958 109.44 
L 483.909843 109.44 
L 484.146728 109.44 
L 484.383613 109.44 
L 484.620499 89.28 
" clip-path="url(#pf91d8e0967)" style="fill: none; stroke: #9dcae1; stroke-width: 1.5; stroke-linecap: square"/>
   </g>
   <g id="line2d_36">
    <path d="M 290.611523 411.84 
L 290.848408 371.52 
L 291.085293 371.52 
L 291.322178 371.52 
L 291.559064 371.52 
L 291.795949 371.52 
L 292.032834 371.52 
L 292.269719 371.52 
L 292.506604 371.52 
L 292.74349 371.52 
L 292.980375 270.72 
L 293.21726 250.56 
L 293.454145 250.56 
L 293.69103 250.56 
L 293.927916 190.08 
L 294.164801 190.08 
L 294.401686 190.08 
L 294.638571 190.08 
L 294.875456 190.08 
L 295.112342 169.92 
L 295.349227 149.76 
L 295.586112 149.76 
L 295.822997 149.76 
L 296.059882 109.44 
L 296.296768 109.44 
L 296.533653 109.44 
L 296.770538 109.44 
L 297.007423 109.44 
L 297.244308 109.44 
L 297.481194 109.44 
L 297.718079 109.44 
L 297.954964 109.44 
L 298.191849 109.44 
L 298.428734 109.44 
L 298.66562 109.44 
L 298.902505 109.44 
L 299.13939 109.44 
L 299.376275 109.44 
L 299.61316 109.44 
L 299.850045 109.44 
L 300.086931 109.44 
L 300.323816 109.44 
L 300.560701 109.44 
L 300.797586 109.44 
L 301.034471 109.44 
L 301.271357 109.44 
L 301.508242 109.44 
L 301.745127 109.44 
L 301.982012 109.44 
L 302.218897 109.44 
L 302.455783 109.44 
L 302.692668 109.44 
L 302.929553 109.44 
L 303.166438 109.44 
L 303.403323 89.28 
" clip-path="url(#pf91d8e0967)" style="fill: none; stroke: #b7d4ea; stroke-width: 1.5; stroke-linecap: square"/>
   </g>
   <g id="line2d_37">
    <path d="M 126 89.28 
L 907.2 89.28 
" clip-path="url(#pf91d8e0967)" style="fill: none; stroke-dasharray: 5.55,2.4; stroke-dashoffset: 0; stroke: #800080; stroke-width: 1.5"/>
   </g>
   <g id="patch_3">
    <path d="M 126 512.64 
L 126 69.12 
" style="fill: none; stroke: #000000; stroke-width: 0.8; stroke-linejoin: miter; stroke-linecap: square"/>
   </g>
   <g id="patch_4">
    <path d="M 907.2 512.64 
L 907.2 69.12 
" style="fill: none; stroke: #000000; stroke-width: 0.8; stroke-linejoin: miter; stroke-linecap: square"/>
   </g>
   <g id="patch_5">
    <path d="M 126 512.64 
L 907.2 512.64 
" style="fill: none; stroke: #000000; stroke-width: 0.8; stroke-linejoin: miter; stroke-linecap: square"/>
   </g>
   <g id="patch_6">
    <path d="M 126 69.12 
L 907.2 69.12 
" style="fill: none; stroke: #000000; stroke-width: 0.8; stroke-linejoin: miter; stroke-linecap: square"/>
   </g>
   <g id="text_19">
    <!-- Corner Clusters all runs -->
    <g transform="translate(422.55625 63.12) scale(0.16 -0.16)">
     <defs>
      <path id="DejaVuSans-43" d="M 4122 4306 
L 4122 3641 
Q 3803 3938 3442 4084 
Q 3081 4231 2675 4231 
Q 1875 4231 1450 3742 
Q 1025 3253 1025 2328 
Q 1025 1406 1450 917 
Q 1875 428 2675 428 
Q 3081 428 3442 575 
Q 3803 722 4122 1019 
L 4122 359 
Q 3791 134 3420 21 
Q 3050 -91 2638 -91 
Q 1578 -91 968 557 
Q 359 1206 359 2328 
Q 359 3453 968 4101 
Q 1578 4750 2638 4750 
Q 3056 4750 3426 4639 
Q 3797 4528 4122 4306 
z
" transform="scale(0.015625)"/>
      <path id="DejaVuSans-20" transform="scale(0.015625)"/>
      <path id="DejaVuSans-6c" d="M 603 4863 
L 1178 4863 
L 1178 0 
L 603 0 
L 603 4863 
z
" transform="scale(0.015625)"/>
      <path id="DejaVuSans-75" d="M 544 1381 
L 544 3500 
L 1119 3500 
L 1119 1403 
Q 1119 906 1312 657 
Q 1506 409 1894 409 
Q 2359 409 2629 706 
Q 2900 1003 2900 1516 
L 2900 3500 
L 3475 3500 
L 3475 0 
L 2900 0 
L 2900 538 
Q 2691 219 2414 64 
Q 2138 -91 1772 -91 
Q 1169 -91 856 284 
Q 544 659 544 1381 
z
M 1991 3584 
L 1991 3584 
z
" transform="scale(0.015625)"/>
     </defs>
     <use xlink:href="#DejaVuSans-43"/>
     <use xlink:href="#DejaVuSans-6f" x="69.824219"/>
     <use xlink:href="#DejaVuSans-72" x="131.005859"/>
     <use xlink:href="#DejaVuSans-6e" x="170.369141"/>
     <use xlink:href="#DejaVuSans-65" x="233.748047"/>
     <use xlink:href="#DejaVuSans-72" x="295.271484"/>
     <use xlink:href="#DejaVuSans-20" x="336.384766"/>
     <use xlink:href="#DejaVuSans-43" x="368.171875"/>
     <use xlink:href="#DejaVuSans-6c" x="437.996094"/>
     <use xlink:href="#DejaVuSans-75" x="465.779297"/>
     <use xlink:href="#DejaVuSans-73" x="529.158203"/>
     <use xlink:href="#DejaVuSans-74" x="581.257812"/>
     <use xlink:href="#DejaVuSans-65" x="620.466797"/>
     <use xlink:href="#DejaVuSans-72" x="681.990234"/>
     <use xlink:href="#DejaVuSans-73" x="723.103516"/>
     <use xlink:href="#DejaVuSans-20" x="775.203125"/>
     <use xlink:href="#DejaVuSans-61" x="806.990234"/>
     <use xlink:href="#DejaVuSans-6c" x="868.269531"/>
     <use xlink:href="#DejaVuSans-6c" x="896.052734"/>
     <use xlink:href="#DejaVuSans-20" x="923.835938"/>
     <use xlink:href="#DejaVuSans-72" x="955.623047"/>
     <use xlink:href="#DejaVuSans-75" x="996.736328"/>
     <use xlink:href="#DejaVuSans-6e" x="1060.115234"/>
     <use xlink:href="#DejaVuSans-73" x="1123.494141"/>
    </g>
   </g>
   <g id="legend_1">
    <g id="patch_7">
     <path d="M 792.414062 507.64 
L 900.2 507.64 
Q 902.2 507.64 902.2 505.64 
L 902.2 198.399375 
Q 902.2 196.399375 900.2 196.399375 
L 792.414062 196.399375 
Q 790.414062 196.399375 790.414062 198.399375 
L 790.414062 505.64 
Q 790.414062 507.64 792.414062 507.64 
z
" style="fill: #ffffff; opacity: 0.8; stroke: #cccccc; stroke-linejoin: miter"/>
    </g>
    <g id="line2d_38">
     <path d="M 794.414062 204.497813 
L 804.414062 204.497813 
L 814.414062 204.497813 
" style="fill: none; stroke: #7f2704; stroke-width: 1.5; stroke-linecap: square"/>
    </g>
    <g id="text_20">
     <!-- Direct 1 -->
     <g transform="translate(822.414062 207.997813) scale(0.1 -0.1)">
      <defs>
       <path id="DejaVuSans-44" d="M 1259 4147 
L 1259 519 
L 2022 519 
Q 2988 519 3436 956 
Q 3884 1394 3884 2338 
Q 3884 3275 3436 3711 
Q 2988 4147 2022 4147 
L 1259 4147 
z
M 628 4666 
L 1925 4666 
Q 3281 4666 3915 4102 
Q 4550 3538 4550 2338 
Q 4550 1131 3912 565 
Q 3275 0 1925 0 
L 628 0 
L 628 4666 
z
" transform="scale(0.015625)"/>
       <path id="DejaVuSans-63" d="M 3122 3366 
L 3122 2828 
Q 2878 2963 2633 3030 
Q 2388 3097 2138 3097 
Q 1578 3097 1268 2742 
Q 959 2388 959 1747 
Q 959 1106 1268 751 
Q 1578 397 2138 397 
Q 2388 397 2633 464 
Q 2878 531 3122 666 
L 3122 134 
Q 2881 22 2623 -34 
Q 2366 -91 2075 -91 
Q 1284 -91 818 406 
Q 353 903 353 1747 
Q 353 2603 823 3093 
Q 1294 3584 2113 3584 
Q 2378 3584 2631 3529 
Q 2884 3475 3122 3366 
z
" transform="scale(0.015625)"/>
      </defs>
      <use xlink:href="#DejaVuSans-44"/>
      <use xlink:href="#DejaVuSans-69" x="77.001953"/>
      <use xlink:href="#DejaVuSans-72" x="104.785156"/>
      <use xlink:href="#DejaVuSans-65" x="143.648438"/>
      <use xlink:href="#DejaVuSans-63" x="205.171875"/>
      <use xlink:href="#DejaVuSans-74" x="260.152344"/>
      <use xlink:href="#DejaVuSans-20" x="299.361328"/>
      <use xlink:href="#DejaVuSans-31" x="331.148438"/>
     </g>
    </g>
    <g id="line2d_39">
     <path d="M 794.414062 219.175938 
L 804.414062 219.175938 
L 814.414062 219.175938 
" style="fill: none; stroke: #963003; stroke-width: 1.5; stroke-linecap: square"/>
    </g>
    <g id="text_21">
     <!-- Direct 2 -->
     <g transform="translate(822.414062 222.675938) scale(0.1 -0.1)">
      <use xlink:href="#DejaVuSans-44"/>
      <use xlink:href="#DejaVuSans-69" x="77.001953"/>
      <use xlink:href="#DejaVuSans-72" x="104.785156"/>
      <use xlink:href="#DejaVuSans-65" x="143.648438"/>
      <use xlink:href="#DejaVuSans-63" x="205.171875"/>
      <use xlink:href="#DejaVuSans-74" x="260.152344"/>
      <use xlink:href="#DejaVuSans-20" x="299.361328"/>
      <use xlink:href="#DejaVuSans-32" x="331.148438"/>
     </g>
    </g>
    <g id="line2d_40">
     <path d="M 794.414062 233.854062 
L 804.414062 233.854062 
L 814.414062 233.854062 
" style="fill: none; stroke: #b13a03; stroke-width: 1.5; stroke-linecap: square"/>
    </g>
    <g id="text_22">
     <!-- Direct 3 -->
     <g transform="translate(822.414062 237.354062) scale(0.1 -0.1)">
      <use xlink:href="#DejaVuSans-44"/>
      <use xlink:href="#DejaVuSans-69" x="77.001953"/>
      <use xlink:href="#DejaVuSans-72" x="104.785156"/>
      <use xlink:href="#DejaVuSans-65" x="143.648438"/>
      <use xlink:href="#DejaVuSans-63" x="205.171875"/>
      <use xlink:href="#DejaVuSans-74" x="260.152344"/>
      <use xlink:href="#DejaVuSans-20" x="299.361328"/>
      <use xlink:href="#DejaVuSans-33" x="331.148438"/>
     </g>
    </g>
    <g id="line2d_41">
     <path d="M 794.414062 248.532188 
L 804.414062 248.532188 
L 814.414062 248.532188 
" style="fill: none; stroke: #d14501; stroke-width: 1.5; stroke-linecap: square"/>
    </g>
    <g id="text_23">
     <!-- Direct 4 -->
     <g transform="translate(822.414062 252.032188) scale(0.1 -0.1)">
      <defs>
       <path id="DejaVuSans-34" d="M 2419 4116 
L 825 1625 
L 2419 1625 
L 2419 4116 
z
M 2253 4666 
L 3047 4666 
L 3047 1625 
L 3713 1625 
L 3713 1100 
L 3047 1100 
L 3047 0 
L 2419 0 
L 2419 1100 
L 313 1100 
L 313 1709 
L 2253 4666 
z
" transform="scale(0.015625)"/>
      </defs>
      <use xlink:href="#DejaVuSans-44"/>
      <use xlink:href="#DejaVuSans-69" x="77.001953"/>
      <use xlink:href="#DejaVuSans-72" x="104.785156"/>
      <use xlink:href="#DejaVuSans-65" x="143.648438"/>
      <use xlink:href="#DejaVuSans-63" x="205.171875"/>
      <use xlink:href="#DejaVuSans-74" x="260.152344"/>
      <use xlink:href="#DejaVuSans-20" x="299.361328"/>
      <use xlink:href="#DejaVuSans-34" x="331.148438"/>
     </g>
    </g>
    <g id="line2d_42">
     <path d="M 794.414062 263.210313 
L 804.414062 263.210313 
L 814.414062 263.210313 
" style="fill: none; stroke: #e4580a; stroke-width: 1.5; stroke-linecap: square"/>
    </g>
    <g id="text_24">
     <!-- Direct 5 -->
     <g transform="translate(822.414062 266.710313) scale(0.1 -0.1)">
      <use xlink:href="#DejaVuSans-44"/>
      <use xlink:href="#DejaVuSans-69" x="77.001953"/>
      <use xlink:href="#DejaVuSans-72" x="104.785156"/>
      <use xlink:href="#DejaVuSans-65" x="143.648438"/>
      <use xlink:href="#DejaVuSans-63" x="205.171875"/>
      <use xlink:href="#DejaVuSans-74" x="260.152344"/>
      <use xlink:href="#DejaVuSans-20" x="299.361328"/>
      <use xlink:href="#DejaVuSans-35" x="331.148438"/>
     </g>
    </g>
    <g id="line2d_43">
     <path d="M 794.414062 277.888438 
L 804.414062 277.888438 
L 814.414062 277.888438 
" style="fill: none; stroke: #f26d17; stroke-width: 1.5; stroke-linecap: square"/>
    </g>
    <g id="text_25">
     <!-- Direct 6 -->
     <g transform="translate(822.414062 281.388438) scale(0.1 -0.1)">
      <defs>
       <path id="DejaVuSans-36" d="M 2113 2584 
Q 1688 2584 1439 2293 
Q 1191 2003 1191 1497 
Q 1191 994 1439 701 
Q 1688 409 2113 409 
Q 2538 409 2786 701 
Q 3034 994 3034 1497 
Q 3034 2003 2786 2293 
Q 2538 2584 2113 2584 
z
M 3366 4563 
L 3366 3988 
Q 3128 4100 2886 4159 
Q 2644 4219 2406 4219 
Q 1781 4219 1451 3797 
Q 1122 3375 1075 2522 
Q 1259 2794 1537 2939 
Q 1816 3084 2150 3084 
Q 2853 3084 3261 2657 
Q 3669 2231 3669 1497 
Q 3669 778 3244 343 
Q 2819 -91 2113 -91 
Q 1303 -91 875 529 
Q 447 1150 447 2328 
Q 447 3434 972 4092 
Q 1497 4750 2381 4750 
Q 2619 4750 2861 4703 
Q 3103 4656 3366 4563 
z
" transform="scale(0.015625)"/>
      </defs>
      <use xlink:href="#DejaVuSans-44"/>
      <use xlink:href="#DejaVuSans-69" x="77.001953"/>
      <use xlink:href="#DejaVuSans-72" x="104.785156"/>
      <use xlink:href="#DejaVuSans-65" x="143.648438"/>
      <use xlink:href="#DejaVuSans-63" x="205.171875"/>
      <use xlink:href="#DejaVuSans-74" x="260.152344"/>
      <use xlink:href="#DejaVuSans-20" x="299.361328"/>
      <use xlink:href="#DejaVuSans-36" x="331.148438"/>
     </g>
    </g>
    <g id="line2d_44">
     <path d="M 794.414062 292.566563 
L 804.414062 292.566563 
L 814.414062 292.566563 
" style="fill: none; stroke: #fa8331; stroke-width: 1.5; stroke-linecap: square"/>
    </g>
    <g id="text_26">
     <!-- Direct 7 -->
     <g transform="translate(822.414062 296.066563) scale(0.1 -0.1)">
      <use xlink:href="#DejaVuSans-44"/>
      <use xlink:href="#DejaVuSans-69" x="77.001953"/>
      <use xlink:href="#DejaVuSans-72" x="104.785156"/>
      <use xlink:href="#DejaVuSans-65" x="143.648438"/>
      <use xlink:href="#DejaVuSans-63" x="205.171875"/>
      <use xlink:href="#DejaVuSans-74" x="260.152344"/>
      <use xlink:href="#DejaVuSans-20" x="299.361328"/>
      <use xlink:href="#DejaVuSans-37" x="331.148438"/>
     </g>
    </g>
    <g id="line2d_45">
     <path d="M 794.414062 307.244687 
L 804.414062 307.244687 
L 814.414062 307.244687 
" style="fill: none; stroke: #fd994d; stroke-width: 1.5; stroke-linecap: square"/>
    </g>
    <g id="text_27">
     <!-- Direct 8 -->
     <g transform="translate(822.414062 310.744687) scale(0.1 -0.1)">
      <defs>
       <path id="DejaVuSans-38" d="M 2034 2216 
Q 1584 2216 1326 1975 
Q 1069 1734 1069 1313 
Q 1069 891 1326 650 
Q 1584 409 2034 409 
Q 2484 409 2743 651 
Q 3003 894 3003 1313 
Q 3003 1734 2745 1975 
Q 2488 2216 2034 2216 
z
M 1403 2484 
Q 997 2584 770 2862 
Q 544 3141 544 3541 
Q 544 4100 942 4425 
Q 1341 4750 2034 4750 
Q 2731 4750 3128 4425 
Q 3525 4100 3525 3541 
Q 3525 3141 3298 2862 
Q 3072 2584 2669 2484 
Q 3125 2378 3379 2068 
Q 3634 1759 3634 1313 
Q 3634 634 3220 271 
Q 2806 -91 2034 -91 
Q 1263 -91 848 271 
Q 434 634 434 1313 
Q 434 1759 690 2068 
Q 947 2378 1403 2484 
z
M 1172 3481 
Q 1172 3119 1398 2916 
Q 1625 2713 2034 2713 
Q 2441 2713 2670 2916 
Q 2900 3119 2900 3481 
Q 2900 3844 2670 4047 
Q 2441 4250 2034 4250 
Q 1625 4250 1398 4047 
Q 1172 3844 1172 3481 
z
" transform="scale(0.015625)"/>
      </defs>
      <use xlink:href="#DejaVuSans-44"/>
      <use xlink:href="#DejaVuSans-69" x="77.001953"/>
      <use xlink:href="#DejaVuSans-72" x="104.785156"/>
      <use xlink:href="#DejaVuSans-65" x="143.648438"/>
      <use xlink:href="#DejaVuSans-63" x="205.171875"/>
      <use xlink:href="#DejaVuSans-74" x="260.152344"/>
      <use xlink:href="#DejaVuSans-20" x="299.361328"/>
      <use xlink:href="#DejaVuSans-38" x="331.148438"/>
     </g>
    </g>
    <g id="line2d_46">
     <path d="M 794.414062 321.922813 
L 804.414062 321.922813 
L 814.414062 321.922813 
" style="fill: none; stroke: #fdae6a; stroke-width: 1.5; stroke-linecap: square"/>
    </g>
    <g id="text_28">
     <!-- Direct 9 -->
     <g transform="translate(822.414062 325.422813) scale(0.1 -0.1)">
      <defs>
       <path id="DejaVuSans-39" d="M 703 97 
L 703 672 
Q 941 559 1184 500 
Q 1428 441 1663 441 
Q 2288 441 2617 861 
Q 2947 1281 2994 2138 
Q 2813 1869 2534 1725 
Q 2256 1581 1919 1581 
Q 1219 1581 811 2004 
Q 403 2428 403 3163 
Q 403 3881 828 4315 
Q 1253 4750 1959 4750 
Q 2769 4750 3195 4129 
Q 3622 3509 3622 2328 
Q 3622 1225 3098 567 
Q 2575 -91 1691 -91 
Q 1453 -91 1209 -44 
Q 966 3 703 97 
z
M 1959 2075 
Q 2384 2075 2632 2365 
Q 2881 2656 2881 3163 
Q 2881 3666 2632 3958 
Q 2384 4250 1959 4250 
Q 1534 4250 1286 3958 
Q 1038 3666 1038 3163 
Q 1038 2656 1286 2365 
Q 1534 2075 1959 2075 
z
" transform="scale(0.015625)"/>
      </defs>
      <use xlink:href="#DejaVuSans-44"/>
      <use xlink:href="#DejaVuSans-69" x="77.001953"/>
      <use xlink:href="#DejaVuSans-72" x="104.785156"/>
      <use xlink:href="#DejaVuSans-65" x="143.648438"/>
      <use xlink:href="#DejaVuSans-63" x="205.171875"/>
      <use xlink:href="#DejaVuSans-74" x="260.152344"/>
      <use xlink:href="#DejaVuSans-20" x="299.361328"/>
      <use xlink:href="#DejaVuSans-39" x="331.148438"/>
     </g>
    </g>
    <g id="line2d_47">
     <path d="M 794.414062 336.600937 
L 804.414062 336.600937 
L 814.414062 336.600937 
" style="fill: none; stroke: #fdc38d; stroke-width: 1.5; stroke-linecap: square"/>
    </g>
    <g id="text_29">
     <!-- Direct 10 -->
     <g transform="translate(822.414062 340.100937) scale(0.1 -0.1)">
      <use xlink:href="#DejaVuSans-44"/>
      <use xlink:href="#DejaVuSans-69" x="77.001953"/>
      <use xlink:href="#DejaVuSans-72" x="104.785156"/>
      <use xlink:href="#DejaVuSans-65" x="143.648438"/>
      <use xlink:href="#DejaVuSans-63" x="205.171875"/>
      <use xlink:href="#DejaVuSans-74" x="260.152344"/>
      <use xlink:href="#DejaVuSans-20" x="299.361328"/>
      <use xlink:href="#DejaVuSans-31" x="331.148438"/>
      <use xlink:href="#DejaVuSans-30" x="394.771484"/>
     </g>
    </g>
    <g id="line2d_48">
     <path d="M 794.414062 351.279063 
L 804.414062 351.279063 
L 814.414062 351.279063 
" style="fill: none; stroke: #08306b; stroke-width: 1.5; stroke-linecap: square"/>
    </g>
    <g id="text_30">
     <!-- Incremental 1 -->
     <g transform="translate(822.414062 354.779063) scale(0.1 -0.1)">
      <defs>
       <path id="DejaVuSans-49" d="M 628 4666 
L 1259 4666 
L 1259 0 
L 628 0 
L 628 4666 
z
" transform="scale(0.015625)"/>
       <path id="DejaVuSans-6d" d="M 3328 2828 
Q 3544 3216 3844 3400 
Q 4144 3584 4550 3584 
Q 5097 3584 5394 3201 
Q 5691 2819 5691 2113 
L 5691 0 
L 5113 0 
L 5113 2094 
Q 5113 2597 4934 2840 
Q 4756 3084 4391 3084 
Q 3944 3084 3684 2787 
Q 3425 2491 3425 1978 
L 3425 0 
L 2847 0 
L 2847 2094 
Q 2847 2600 2669 2842 
Q 2491 3084 2119 3084 
Q 1678 3084 1418 2786 
Q 1159 2488 1159 1978 
L 1159 0 
L 581 0 
L 581 3500 
L 1159 3500 
L 1159 2956 
Q 1356 3278 1631 3431 
Q 1906 3584 2284 3584 
Q 2666 3584 2933 3390 
Q 3200 3197 3328 2828 
z
" transform="scale(0.015625)"/>
      </defs>
      <use xlink:href="#DejaVuSans-49"/>
      <use xlink:href="#DejaVuSans-6e" x="29.492188"/>
      <use xlink:href="#DejaVuSans-63" x="92.871094"/>
      <use xlink:href="#DejaVuSans-72" x="147.851562"/>
      <use xlink:href="#DejaVuSans-65" x="186.714844"/>
      <use xlink:href="#DejaVuSans-6d" x="248.238281"/>
      <use xlink:href="#DejaVuSans-65" x="345.650391"/>
      <use xlink:href="#DejaVuSans-6e" x="407.173828"/>
      <use xlink:href="#DejaVuSans-74" x="470.552734"/>
      <use xlink:href="#DejaVuSans-61" x="509.761719"/>
      <use xlink:href="#DejaVuSans-6c" x="571.041016"/>
      <use xlink:href="#DejaVuSans-20" x="598.824219"/>
      <use xlink:href="#DejaVuSans-31" x="630.611328"/>
     </g>
    </g>
    <g id="line2d_49">
     <path d="M 794.414062 365.957187 
L 804.414062 365.957187 
L 814.414062 365.957187 
" style="fill: none; stroke: #084488; stroke-width: 1.5; stroke-linecap: square"/>
    </g>
    <g id="text_31">
     <!-- Incremental 2 -->
     <g transform="translate(822.414062 369.457187) scale(0.1 -0.1)">
      <use xlink:href="#DejaVuSans-49"/>
      <use xlink:href="#DejaVuSans-6e" x="29.492188"/>
      <use xlink:href="#DejaVuSans-63" x="92.871094"/>
      <use xlink:href="#DejaVuSans-72" x="147.851562"/>
      <use xlink:href="#DejaVuSans-65" x="186.714844"/>
      <use xlink:href="#DejaVuSans-6d" x="248.238281"/>
      <use xlink:href="#DejaVuSans-65" x="345.650391"/>
      <use xlink:href="#DejaVuSans-6e" x="407.173828"/>
      <use xlink:href="#DejaVuSans-74" x="470.552734"/>
      <use xlink:href="#DejaVuSans-61" x="509.761719"/>
      <use xlink:href="#DejaVuSans-6c" x="571.041016"/>
      <use xlink:href="#DejaVuSans-20" x="598.824219"/>
      <use xlink:href="#DejaVuSans-32" x="630.611328"/>
     </g>
    </g>
    <g id="line2d_50">
     <path d="M 794.414062 380.635312 
L 804.414062 380.635312 
L 814.414062 380.635312 
" style="fill: none; stroke: #0e58a2; stroke-width: 1.5; stroke-linecap: square"/>
    </g>
    <g id="text_32">
     <!-- Incremental 3 -->
     <g transform="translate(822.414062 384.135312) scale(0.1 -0.1)">
      <use xlink:href="#DejaVuSans-49"/>
      <use xlink:href="#DejaVuSans-6e" x="29.492188"/>
      <use xlink:href="#DejaVuSans-63" x="92.871094"/>
      <use xlink:href="#DejaVuSans-72" x="147.851562"/>
      <use xlink:href="#DejaVuSans-65" x="186.714844"/>
      <use xlink:href="#DejaVuSans-6d" x="248.238281"/>
      <use xlink:href="#DejaVuSans-65" x="345.650391"/>
      <use xlink:href="#DejaVuSans-6e" x="407.173828"/>
      <use xlink:href="#DejaVuSans-74" x="470.552734"/>
      <use xlink:href="#DejaVuSans-61" x="509.761719"/>
      <use xlink:href="#DejaVuSans-6c" x="571.041016"/>
      <use xlink:href="#DejaVuSans-20" x="598.824219"/>
      <use xlink:href="#DejaVuSans-33" x="630.611328"/>
     </g>
    </g>
    <g id="line2d_51">
     <path d="M 794.414062 395.313437 
L 804.414062 395.313437 
L 814.414062 395.313437 
" style="fill: none; stroke: #1d6cb1; stroke-width: 1.5; stroke-linecap: square"/>
    </g>
    <g id="text_33">
     <!-- Incremental 4 -->
     <g transform="translate(822.414062 398.813437) scale(0.1 -0.1)">
      <use xlink:href="#DejaVuSans-49"/>
      <use xlink:href="#DejaVuSans-6e" x="29.492188"/>
      <use xlink:href="#DejaVuSans-63" x="92.871094"/>
      <use xlink:href="#DejaVuSans-72" x="147.851562"/>
      <use xlink:href="#DejaVuSans-65" x="186.714844"/>
      <use xlink:href="#DejaVuSans-6d" x="248.238281"/>
      <use xlink:href="#DejaVuSans-65" x="345.650391"/>
      <use xlink:href="#DejaVuSans-6e" x="407.173828"/>
      <use xlink:href="#DejaVuSans-74" x="470.552734"/>
      <use xlink:href="#DejaVuSans-61" x="509.761719"/>
      <use xlink:href="#DejaVuSans-6c" x="571.041016"/>
      <use xlink:href="#DejaVuSans-20" x="598.824219"/>
      <use xlink:href="#DejaVuSans-34" x="630.611328"/>
     </g>
    </g>
    <g id="line2d_52">
     <path d="M 794.414062 409.991562 
L 804.414062 409.991562 
L 814.414062 409.991562 
" style="fill: none; stroke: #3181bd; stroke-width: 1.5; stroke-linecap: square"/>
    </g>
    <g id="text_34">
     <!-- Incremental 5 -->
     <g transform="translate(822.414062 413.491562) scale(0.1 -0.1)">
      <use xlink:href="#DejaVuSans-49"/>
      <use xlink:href="#DejaVuSans-6e" x="29.492188"/>
      <use xlink:href="#DejaVuSans-63" x="92.871094"/>
      <use xlink:href="#DejaVuSans-72" x="147.851562"/>
      <use xlink:href="#DejaVuSans-65" x="186.714844"/>
      <use xlink:href="#DejaVuSans-6d" x="248.238281"/>
      <use xlink:href="#DejaVuSans-65" x="345.650391"/>
      <use xlink:href="#DejaVuSans-6e" x="407.173828"/>
      <use xlink:href="#DejaVuSans-74" x="470.552734"/>
      <use xlink:href="#DejaVuSans-61" x="509.761719"/>
      <use xlink:href="#DejaVuSans-6c" x="571.041016"/>
      <use xlink:href="#DejaVuSans-20" x="598.824219"/>
      <use xlink:href="#DejaVuSans-35" x="630.611328"/>
     </g>
    </g>
    <g id="line2d_53">
     <path d="M 794.414062 424.669687 
L 804.414062 424.669687 
L 814.414062 424.669687 
" style="fill: none; stroke: #4695c8; stroke-width: 1.5; stroke-linecap: square"/>
    </g>
    <g id="text_35">
     <!-- Incremental 6 -->
     <g transform="translate(822.414062 428.169687) scale(0.1 -0.1)">
      <use xlink:href="#DejaVuSans-49"/>
      <use xlink:href="#DejaVuSans-6e" x="29.492188"/>
      <use xlink:href="#DejaVuSans-63" x="92.871094"/>
      <use xlink:href="#DejaVuSans-72" x="147.851562"/>
      <use xlink:href="#DejaVuSans-65" x="186.714844"/>
      <use xlink:href="#DejaVuSans-6d" x="248.238281"/>
      <use xlink:href="#DejaVuSans-65" x="345.650391"/>
      <use xlink:href="#DejaVuSans-6e" x="407.173828"/>
      <use xlink:href="#DejaVuSans-74" x="470.552734"/>
      <use xlink:href="#DejaVuSans-61" x="509.761719"/>
      <use xlink:href="#DejaVuSans-6c" x="571.041016"/>
      <use xlink:href="#DejaVuSans-20" x="598.824219"/>
      <use xlink:href="#DejaVuSans-36" x="630.611328"/>
     </g>
    </g>
    <g id="line2d_54">
     <path d="M 794.414062 439.347812 
L 804.414062 439.347812 
L 814.414062 439.347812 
" style="fill: none; stroke: #60a7d2; stroke-width: 1.5; stroke-linecap: square"/>
    </g>
    <g id="text_36">
     <!-- Incremental 7 -->
     <g transform="translate(822.414062 442.847812) scale(0.1 -0.1)">
      <use xlink:href="#DejaVuSans-49"/>
      <use xlink:href="#DejaVuSans-6e" x="29.492188"/>
      <use xlink:href="#DejaVuSans-63" x="92.871094"/>
      <use xlink:href="#DejaVuSans-72" x="147.851562"/>
      <use xlink:href="#DejaVuSans-65" x="186.714844"/>
      <use xlink:href="#DejaVuSans-6d" x="248.238281"/>
      <use xlink:href="#DejaVuSans-65" x="345.650391"/>
      <use xlink:href="#DejaVuSans-6e" x="407.173828"/>
      <use xlink:href="#DejaVuSans-74" x="470.552734"/>
      <use xlink:href="#DejaVuSans-61" x="509.761719"/>
      <use xlink:href="#DejaVuSans-6c" x="571.041016"/>
      <use xlink:href="#DejaVuSans-20" x="598.824219"/>
      <use xlink:href="#DejaVuSans-37" x="630.611328"/>
     </g>
    </g>
    <g id="line2d_55">
     <path d="M 794.414062 454.025937 
L 804.414062 454.025937 
L 814.414062 454.025937 
" style="fill: none; stroke: #7db8da; stroke-width: 1.5; stroke-linecap: square"/>
    </g>
    <g id="text_37">
     <!-- Incremental 8 -->
     <g transform="translate(822.414062 457.525937) scale(0.1 -0.1)">
      <use xlink:href="#DejaVuSans-49"/>
      <use xlink:href="#DejaVuSans-6e" x="29.492188"/>
      <use xlink:href="#DejaVuSans-63" x="92.871094"/>
      <use xlink:href="#DejaVuSans-72" x="147.851562"/>
      <use xlink:href="#DejaVuSans-65" x="186.714844"/>
      <use xlink:href="#DejaVuSans-6d" x="248.238281"/>
      <use xlink:href="#DejaVuSans-65" x="345.650391"/>
      <use xlink:href="#DejaVuSans-6e" x="407.173828"/>
      <use xlink:href="#DejaVuSans-74" x="470.552734"/>
      <use xlink:href="#DejaVuSans-61" x="509.761719"/>
      <use xlink:href="#DejaVuSans-6c" x="571.041016"/>
      <use xlink:href="#DejaVuSans-20" x="598.824219"/>
      <use xlink:href="#DejaVuSans-38" x="630.611328"/>
     </g>
    </g>
    <g id="line2d_56">
     <path d="M 794.414062 468.704062 
L 804.414062 468.704062 
L 814.414062 468.704062 
" style="fill: none; stroke: #9dcae1; stroke-width: 1.5; stroke-linecap: square"/>
    </g>
    <g id="text_38">
     <!-- Incremental 9 -->
     <g transform="translate(822.414062 472.204062) scale(0.1 -0.1)">
      <use xlink:href="#DejaVuSans-49"/>
      <use xlink:href="#DejaVuSans-6e" x="29.492188"/>
      <use xlink:href="#DejaVuSans-63" x="92.871094"/>
      <use xlink:href="#DejaVuSans-72" x="147.851562"/>
      <use xlink:href="#DejaVuSans-65" x="186.714844"/>
      <use xlink:href="#DejaVuSans-6d" x="248.238281"/>
      <use xlink:href="#DejaVuSans-65" x="345.650391"/>
      <use xlink:href="#DejaVuSans-6e" x="407.173828"/>
      <use xlink:href="#DejaVuSans-74" x="470.552734"/>
      <use xlink:href="#DejaVuSans-61" x="509.761719"/>
      <use xlink:href="#DejaVuSans-6c" x="571.041016"/>
      <use xlink:href="#DejaVuSans-20" x="598.824219"/>
      <use xlink:href="#DejaVuSans-39" x="630.611328"/>
     </g>
    </g>
    <g id="line2d_57">
     <path d="M 794.414062 483.382187 
L 804.414062 483.382187 
L 814.414062 483.382187 
" style="fill: none; stroke: #b7d4ea; stroke-width: 1.5; stroke-linecap: square"/>
    </g>
    <g id="text_39">
     <!-- Incremental 10 -->
     <g transform="translate(822.414062 486.882187) scale(0.1 -0.1)">
      <use xlink:href="#DejaVuSans-49"/>
      <use xlink:href="#DejaVuSans-6e" x="29.492188"/>
      <use xlink:href="#DejaVuSans-63" x="92.871094"/>
      <use xlink:href="#DejaVuSans-72" x="147.851562"/>
      <use xlink:href="#DejaVuSans-65" x="186.714844"/>
      <use xlink:href="#DejaVuSans-6d" x="248.238281"/>
      <use xlink:href="#DejaVuSans-65" x="345.650391"/>
      <use xlink:href="#DejaVuSans-6e" x="407.173828"/>
      <use xlink:href="#DejaVuSans-74" x="470.552734"/>
      <use xlink:href="#DejaVuSans-61" x="509.761719"/>
      <use xlink:href="#DejaVuSans-6c" x="571.041016"/>
      <use xlink:href="#DejaVuSans-20" x="598.824219"/>
      <use xlink:href="#DejaVuSans-31" x="630.611328"/>
      <use xlink:href="#DejaVuSans-30" x="694.234375"/>
     </g>
    </g>
    <g id="line2d_58">
     <path d="M 794.414062 498.060313 
L 804.414062 498.060313 
L 814.414062 498.060313 
" style="fill: none; stroke-dasharray: 5.55,2.4; stroke-dashoffset: 0; stroke: #800080; stroke-width: 1.5"/>
    </g>
    <g id="text_40">
     <!-- 100% fitness -->
     <g transform="translate(822.414062 501.560313) scale(0.1 -0.1)">
      <defs>
       <path id="DejaVuSans-25" d="M 4653 2053 
Q 4381 2053 4226 1822 
Q 4072 1591 4072 1178 
Q 4072 772 4226 539 
Q 4381 306 4653 306 
Q 4919 306 5073 539 
Q 5228 772 5228 1178 
Q 5228 1588 5073 1820 
Q 4919 2053 4653 2053 
z
M 4653 2450 
Q 5147 2450 5437 2106 
Q 5728 1763 5728 1178 
Q 5728 594 5436 251 
Q 5144 -91 4653 -91 
Q 4153 -91 3862 251 
Q 3572 594 3572 1178 
Q 3572 1766 3864 2108 
Q 4156 2450 4653 2450 
z
M 1428 4353 
Q 1159 4353 1004 4120 
Q 850 3888 850 3481 
Q 850 3069 1003 2837 
Q 1156 2606 1428 2606 
Q 1700 2606 1854 2837 
Q 2009 3069 2009 3481 
Q 2009 3884 1853 4118 
Q 1697 4353 1428 4353 
z
M 4250 4750 
L 4750 4750 
L 1831 -91 
L 1331 -91 
L 4250 4750 
z
M 1428 4750 
Q 1922 4750 2215 4408 
Q 2509 4066 2509 3481 
Q 2509 2891 2217 2550 
Q 1925 2209 1428 2209 
Q 931 2209 642 2551 
Q 353 2894 353 3481 
Q 353 4063 643 4406 
Q 934 4750 1428 4750 
z
" transform="scale(0.015625)"/>
       <path id="DejaVuSans-66" d="M 2375 4863 
L 2375 4384 
L 1825 4384 
Q 1516 4384 1395 4259 
Q 1275 4134 1275 3809 
L 1275 3500 
L 2222 3500 
L 2222 3053 
L 1275 3053 
L 1275 0 
L 697 0 
L 697 3053 
L 147 3053 
L 147 3500 
L 697 3500 
L 697 3744 
Q 697 4328 969 4595 
Q 1241 4863 1831 4863 
L 2375 4863 
z
" transform="scale(0.015625)"/>
      </defs>
      <use xlink:href="#DejaVuSans-31"/>
      <use xlink:href="#DejaVuSans-30" x="63.623047"/>
      <use xlink:href="#DejaVuSans-30" x="127.246094"/>
      <use xlink:href="#DejaVuSans-25" x="190.869141"/>
      <use xlink:href="#DejaVuSans-20" x="285.888672"/>
      <use xlink:href="#DejaVuSans-66" x="317.675781"/>
      <use xlink:href="#DejaVuSans-69" x="352.880859"/>
      <use xlink:href="#DejaVuSans-74" x="380.664062"/>
      <use xlink:href="#DejaVuSans-6e" x="419.873047"/>
      <use xlink:href="#DejaVuSans-65" x="483.251953"/>
      <use xlink:href="#DejaVuSans-73" x="544.775391"/>
      <use xlink:href="#DejaVuSans-73" x="596.875"/>
     </g>
    </g>
   </g>
  </g>
 </g>
 <defs>
  <clipPath id="pf91d8e0967">
   <rect x="126" y="69.12" width="781.2" height="443.52"/>
  </clipPath>
 </defs>
</svg>
