<?xml version="1.0" encoding="utf-8" standalone="no"?>
<!DOCTYPE svg PUBLIC "-//W3C//DTD SVG 1.1//EN"
  "http://www.w3.org/Graphics/SVG/1.1/DTD/svg11.dtd">
<svg xmlns:xlink="http://www.w3.org/1999/xlink" width="1008pt" height="576pt" viewBox="0 0 1008 576" xmlns="http://www.w3.org/2000/svg" version="1.1">
 <metadata>
  <rdf:RDF xmlns:dc="http://purl.org/dc/elements/1.1/" xmlns:cc="http://creativecommons.org/ns#" xmlns:rdf="http://www.w3.org/1999/02/22-rdf-syntax-ns#">
   <cc:Work>
    <dc:type rdf:resource="http://purl.org/dc/dcmitype/StillImage"/>
    <dc:date>2023-05-19T13:41:08.635623</dc:date>
    <dc:format>image/svg+xml</dc:format>
    <dc:creator>
     <cc:Agent>
      <dc:title>Matplotlib v3.6.3, https://matplotlib.org/</dc:title>
     </cc:Agent>
    </dc:creator>
   </cc:Work>
  </rdf:RDF>
 </metadata>
 <defs>
  <style type="text/css">*{stroke-linejoin: round; stroke-linecap: butt}</style>
 </defs>
 <g id="figure_1">
  <g id="patch_1">
   <path d="M 0 576 
L 1008 576 
L 1008 0 
L 0 0 
z
" style="fill: #ffffff"/>
  </g>
  <g id="axes_1">
   <g id="patch_2">
    <path d="M 126 512.64 
L 907.2 512.64 
L 907.2 69.12 
L 126 69.12 
z
" style="fill: #ffffff"/>
   </g>
   <g id="matplotlib.axis_1">
    <g id="xtick_1">
     <g id="line2d_1">
      <defs>
       <path id="mad2c44a214" d="M 0 0 
L 0 3.5 
" style="stroke: #000000; stroke-width: 0.8"/>
      </defs>
      <g>
       <use xlink:href="#mad2c44a214" x="161.509091" y="512.64" style="stroke: #000000; stroke-width: 0.8"/>
      </g>
     </g>
     <g id="text_1">
      <!-- 0 -->
      <g transform="translate(158.327841 527.238438) scale(0.1 -0.1)">
       <defs>
        <path id="DejaVuSans-30" d="M 2034 4250 
Q 1547 4250 1301 3770 
Q 1056 3291 1056 2328 
Q 1056 1369 1301 889 
Q 1547 409 2034 409 
Q 2525 409 2770 889 
Q 3016 1369 3016 2328 
Q 3016 3291 2770 3770 
Q 2525 4250 2034 4250 
z
M 2034 4750 
Q 2819 4750 3233 4129 
Q 3647 3509 3647 2328 
Q 3647 1150 3233 529 
Q 2819 -91 2034 -91 
Q 1250 -91 836 529 
Q 422 1150 422 2328 
Q 422 3509 836 4129 
Q 1250 4750 2034 4750 
z
" transform="scale(0.015625)"/>
       </defs>
       <use xlink:href="#DejaVuSans-30"/>
      </g>
     </g>
    </g>
    <g id="xtick_2">
     <g id="line2d_2">
      <g>
       <use xlink:href="#mad2c44a214" x="261.478378" y="512.64" style="stroke: #000000; stroke-width: 0.8"/>
      </g>
     </g>
     <g id="text_2">
      <!-- 500 -->
      <g transform="translate(251.934628 527.238438) scale(0.1 -0.1)">
       <defs>
        <path id="DejaVuSans-35" d="M 691 4666 
L 3169 4666 
L 3169 4134 
L 1269 4134 
L 1269 2991 
Q 1406 3038 1543 3061 
Q 1681 3084 1819 3084 
Q 2600 3084 3056 2656 
Q 3513 2228 3513 1497 
Q 3513 744 3044 326 
Q 2575 -91 1722 -91 
Q 1428 -91 1123 -41 
Q 819 9 494 109 
L 494 744 
Q 775 591 1075 516 
Q 1375 441 1709 441 
Q 2250 441 2565 725 
Q 2881 1009 2881 1497 
Q 2881 1984 2565 2268 
Q 2250 2553 1709 2553 
Q 1456 2553 1204 2497 
Q 953 2441 691 2322 
L 691 4666 
z
" transform="scale(0.015625)"/>
       </defs>
       <use xlink:href="#DejaVuSans-35"/>
       <use xlink:href="#DejaVuSans-30" x="63.623047"/>
       <use xlink:href="#DejaVuSans-30" x="127.246094"/>
      </g>
     </g>
    </g>
    <g id="xtick_3">
     <g id="line2d_3">
      <g>
       <use xlink:href="#mad2c44a214" x="361.447666" y="512.64" style="stroke: #000000; stroke-width: 0.8"/>
      </g>
     </g>
     <g id="text_3">
      <!-- 1000 -->
      <g transform="translate(348.722666 527.238438) scale(0.1 -0.1)">
       <defs>
        <path id="DejaVuSans-31" d="M 794 531 
L 1825 531 
L 1825 4091 
L 703 3866 
L 703 4441 
L 1819 4666 
L 2450 4666 
L 2450 531 
L 3481 531 
L 3481 0 
L 794 0 
L 794 531 
z
" transform="scale(0.015625)"/>
       </defs>
       <use xlink:href="#DejaVuSans-31"/>
       <use xlink:href="#DejaVuSans-30" x="63.623047"/>
       <use xlink:href="#DejaVuSans-30" x="127.246094"/>
       <use xlink:href="#DejaVuSans-30" x="190.869141"/>
      </g>
     </g>
    </g>
    <g id="xtick_4">
     <g id="line2d_4">
      <g>
       <use xlink:href="#mad2c44a214" x="461.416953" y="512.64" style="stroke: #000000; stroke-width: 0.8"/>
      </g>
     </g>
     <g id="text_4">
      <!-- 1500 -->
      <g transform="translate(448.691953 527.238438) scale(0.1 -0.1)">
       <use xlink:href="#DejaVuSans-31"/>
       <use xlink:href="#DejaVuSans-35" x="63.623047"/>
       <use xlink:href="#DejaVuSans-30" x="127.246094"/>
       <use xlink:href="#DejaVuSans-30" x="190.869141"/>
      </g>
     </g>
    </g>
    <g id="xtick_5">
     <g id="line2d_5">
      <g>
       <use xlink:href="#mad2c44a214" x="561.386241" y="512.64" style="stroke: #000000; stroke-width: 0.8"/>
      </g>
     </g>
     <g id="text_5">
      <!-- 2000 -->
      <g transform="translate(548.661241 527.238438) scale(0.1 -0.1)">
       <defs>
        <path id="DejaVuSans-32" d="M 1228 531 
L 3431 531 
L 3431 0 
L 469 0 
L 469 531 
Q 828 903 1448 1529 
Q 2069 2156 2228 2338 
Q 2531 2678 2651 2914 
Q 2772 3150 2772 3378 
Q 2772 3750 2511 3984 
Q 2250 4219 1831 4219 
Q 1534 4219 1204 4116 
Q 875 4013 500 3803 
L 500 4441 
Q 881 4594 1212 4672 
Q 1544 4750 1819 4750 
Q 2544 4750 2975 4387 
Q 3406 4025 3406 3419 
Q 3406 3131 3298 2873 
Q 3191 2616 2906 2266 
Q 2828 2175 2409 1742 
Q 1991 1309 1228 531 
z
" transform="scale(0.015625)"/>
       </defs>
       <use xlink:href="#DejaVuSans-32"/>
       <use xlink:href="#DejaVuSans-30" x="63.623047"/>
       <use xlink:href="#DejaVuSans-30" x="127.246094"/>
       <use xlink:href="#DejaVuSans-30" x="190.869141"/>
      </g>
     </g>
    </g>
    <g id="xtick_6">
     <g id="line2d_6">
      <g>
       <use xlink:href="#mad2c44a214" x="661.355528" y="512.64" style="stroke: #000000; stroke-width: 0.8"/>
      </g>
     </g>
     <g id="text_6">
      <!-- 2500 -->
      <g transform="translate(648.630528 527.238438) scale(0.1 -0.1)">
       <use xlink:href="#DejaVuSans-32"/>
       <use xlink:href="#DejaVuSans-35" x="63.623047"/>
       <use xlink:href="#DejaVuSans-30" x="127.246094"/>
       <use xlink:href="#DejaVuSans-30" x="190.869141"/>
      </g>
     </g>
    </g>
    <g id="xtick_7">
     <g id="line2d_7">
      <g>
       <use xlink:href="#mad2c44a214" x="761.324816" y="512.64" style="stroke: #000000; stroke-width: 0.8"/>
      </g>
     </g>
     <g id="text_7">
      <!-- 3000 -->
      <g transform="translate(748.599816 527.238438) scale(0.1 -0.1)">
       <defs>
        <path id="DejaVuSans-33" d="M 2597 2516 
Q 3050 2419 3304 2112 
Q 3559 1806 3559 1356 
Q 3559 666 3084 287 
Q 2609 -91 1734 -91 
Q 1441 -91 1130 -33 
Q 819 25 488 141 
L 488 750 
Q 750 597 1062 519 
Q 1375 441 1716 441 
Q 2309 441 2620 675 
Q 2931 909 2931 1356 
Q 2931 1769 2642 2001 
Q 2353 2234 1838 2234 
L 1294 2234 
L 1294 2753 
L 1863 2753 
Q 2328 2753 2575 2939 
Q 2822 3125 2822 3475 
Q 2822 3834 2567 4026 
Q 2313 4219 1838 4219 
Q 1578 4219 1281 4162 
Q 984 4106 628 3988 
L 628 4550 
Q 988 4650 1302 4700 
Q 1616 4750 1894 4750 
Q 2613 4750 3031 4423 
Q 3450 4097 3450 3541 
Q 3450 3153 3228 2886 
Q 3006 2619 2597 2516 
z
" transform="scale(0.015625)"/>
       </defs>
       <use xlink:href="#DejaVuSans-33"/>
       <use xlink:href="#DejaVuSans-30" x="63.623047"/>
       <use xlink:href="#DejaVuSans-30" x="127.246094"/>
       <use xlink:href="#DejaVuSans-30" x="190.869141"/>
      </g>
     </g>
    </g>
    <g id="xtick_8">
     <g id="line2d_8">
      <g>
       <use xlink:href="#mad2c44a214" x="861.294103" y="512.64" style="stroke: #000000; stroke-width: 0.8"/>
      </g>
     </g>
     <g id="text_8">
      <!-- 3500 -->
      <g transform="translate(848.569103 527.238438) scale(0.1 -0.1)">
       <use xlink:href="#DejaVuSans-33"/>
       <use xlink:href="#DejaVuSans-35" x="63.623047"/>
       <use xlink:href="#DejaVuSans-30" x="127.246094"/>
       <use xlink:href="#DejaVuSans-30" x="190.869141"/>
      </g>
     </g>
    </g>
    <g id="text_9">
     <!-- Generation -->
     <g transform="translate(466.392656 546.995312) scale(0.18 -0.18)">
      <defs>
       <path id="DejaVuSans-47" d="M 3809 666 
L 3809 1919 
L 2778 1919 
L 2778 2438 
L 4434 2438 
L 4434 434 
Q 4069 175 3628 42 
Q 3188 -91 2688 -91 
Q 1594 -91 976 548 
Q 359 1188 359 2328 
Q 359 3472 976 4111 
Q 1594 4750 2688 4750 
Q 3144 4750 3555 4637 
Q 3966 4525 4313 4306 
L 4313 3634 
Q 3963 3931 3569 4081 
Q 3175 4231 2741 4231 
Q 1884 4231 1454 3753 
Q 1025 3275 1025 2328 
Q 1025 1384 1454 906 
Q 1884 428 2741 428 
Q 3075 428 3337 486 
Q 3600 544 3809 666 
z
" transform="scale(0.015625)"/>
       <path id="DejaVuSans-65" d="M 3597 1894 
L 3597 1613 
L 953 1613 
Q 991 1019 1311 708 
Q 1631 397 2203 397 
Q 2534 397 2845 478 
Q 3156 559 3463 722 
L 3463 178 
Q 3153 47 2828 -22 
Q 2503 -91 2169 -91 
Q 1331 -91 842 396 
Q 353 884 353 1716 
Q 353 2575 817 3079 
Q 1281 3584 2069 3584 
Q 2775 3584 3186 3129 
Q 3597 2675 3597 1894 
z
M 3022 2063 
Q 3016 2534 2758 2815 
Q 2500 3097 2075 3097 
Q 1594 3097 1305 2825 
Q 1016 2553 972 2059 
L 3022 2063 
z
" transform="scale(0.015625)"/>
       <path id="DejaVuSans-6e" d="M 3513 2113 
L 3513 0 
L 2938 0 
L 2938 2094 
Q 2938 2591 2744 2837 
Q 2550 3084 2163 3084 
Q 1697 3084 1428 2787 
Q 1159 2491 1159 1978 
L 1159 0 
L 581 0 
L 581 3500 
L 1159 3500 
L 1159 2956 
Q 1366 3272 1645 3428 
Q 1925 3584 2291 3584 
Q 2894 3584 3203 3211 
Q 3513 2838 3513 2113 
z
" transform="scale(0.015625)"/>
       <path id="DejaVuSans-72" d="M 2631 2963 
Q 2534 3019 2420 3045 
Q 2306 3072 2169 3072 
Q 1681 3072 1420 2755 
Q 1159 2438 1159 1844 
L 1159 0 
L 581 0 
L 581 3500 
L 1159 3500 
L 1159 2956 
Q 1341 3275 1631 3429 
Q 1922 3584 2338 3584 
Q 2397 3584 2469 3576 
Q 2541 3569 2628 3553 
L 2631 2963 
z
" transform="scale(0.015625)"/>
       <path id="DejaVuSans-61" d="M 2194 1759 
Q 1497 1759 1228 1600 
Q 959 1441 959 1056 
Q 959 750 1161 570 
Q 1363 391 1709 391 
Q 2188 391 2477 730 
Q 2766 1069 2766 1631 
L 2766 1759 
L 2194 1759 
z
M 3341 1997 
L 3341 0 
L 2766 0 
L 2766 531 
Q 2569 213 2275 61 
Q 1981 -91 1556 -91 
Q 1019 -91 701 211 
Q 384 513 384 1019 
Q 384 1609 779 1909 
Q 1175 2209 1959 2209 
L 2766 2209 
L 2766 2266 
Q 2766 2663 2505 2880 
Q 2244 3097 1772 3097 
Q 1472 3097 1187 3025 
Q 903 2953 641 2809 
L 641 3341 
Q 956 3463 1253 3523 
Q 1550 3584 1831 3584 
Q 2591 3584 2966 3190 
Q 3341 2797 3341 1997 
z
" transform="scale(0.015625)"/>
       <path id="DejaVuSans-74" d="M 1172 4494 
L 1172 3500 
L 2356 3500 
L 2356 3053 
L 1172 3053 
L 1172 1153 
Q 1172 725 1289 603 
Q 1406 481 1766 481 
L 2356 481 
L 2356 0 
L 1766 0 
Q 1100 0 847 248 
Q 594 497 594 1153 
L 594 3053 
L 172 3053 
L 172 3500 
L 594 3500 
L 594 4494 
L 1172 4494 
z
" transform="scale(0.015625)"/>
       <path id="DejaVuSans-69" d="M 603 3500 
L 1178 3500 
L 1178 0 
L 603 0 
L 603 3500 
z
M 603 4863 
L 1178 4863 
L 1178 4134 
L 603 4134 
L 603 4863 
z
" transform="scale(0.015625)"/>
       <path id="DejaVuSans-6f" d="M 1959 3097 
Q 1497 3097 1228 2736 
Q 959 2375 959 1747 
Q 959 1119 1226 758 
Q 1494 397 1959 397 
Q 2419 397 2687 759 
Q 2956 1122 2956 1747 
Q 2956 2369 2687 2733 
Q 2419 3097 1959 3097 
z
M 1959 3584 
Q 2709 3584 3137 3096 
Q 3566 2609 3566 1747 
Q 3566 888 3137 398 
Q 2709 -91 1959 -91 
Q 1206 -91 779 398 
Q 353 888 353 1747 
Q 353 2609 779 3096 
Q 1206 3584 1959 3584 
z
" transform="scale(0.015625)"/>
      </defs>
      <use xlink:href="#DejaVuSans-47"/>
      <use xlink:href="#DejaVuSans-65" x="77.490234"/>
      <use xlink:href="#DejaVuSans-6e" x="139.013672"/>
      <use xlink:href="#DejaVuSans-65" x="202.392578"/>
      <use xlink:href="#DejaVuSans-72" x="263.916016"/>
      <use xlink:href="#DejaVuSans-61" x="305.029297"/>
      <use xlink:href="#DejaVuSans-74" x="366.308594"/>
      <use xlink:href="#DejaVuSans-69" x="405.517578"/>
      <use xlink:href="#DejaVuSans-6f" x="433.300781"/>
      <use xlink:href="#DejaVuSans-6e" x="494.482422"/>
     </g>
    </g>
   </g>
   <g id="matplotlib.axis_2">
    <g id="ytick_1">
     <g id="line2d_9">
      <defs>
       <path id="m357382c924" d="M 0 0 
L -3.5 0 
" style="stroke: #000000; stroke-width: 0.8"/>
      </defs>
      <g>
       <use xlink:href="#m357382c924" x="126" y="492.48" style="stroke: #000000; stroke-width: 0.8"/>
      </g>
     </g>
     <g id="text_10">
      <!-- 10 -->
      <g transform="translate(106.275 496.279219) scale(0.1 -0.1)">
       <use xlink:href="#DejaVuSans-31"/>
       <use xlink:href="#DejaVuSans-30" x="63.623047"/>
      </g>
     </g>
    </g>
    <g id="ytick_2">
     <g id="line2d_10">
      <g>
       <use xlink:href="#m357382c924" x="126" y="425.28" style="stroke: #000000; stroke-width: 0.8"/>
      </g>
     </g>
     <g id="text_11">
      <!-- 15 -->
      <g transform="translate(106.275 429.079219) scale(0.1 -0.1)">
       <use xlink:href="#DejaVuSans-31"/>
       <use xlink:href="#DejaVuSans-35" x="63.623047"/>
      </g>
     </g>
    </g>
    <g id="ytick_3">
     <g id="line2d_11">
      <g>
       <use xlink:href="#m357382c924" x="126" y="358.08" style="stroke: #000000; stroke-width: 0.8"/>
      </g>
     </g>
     <g id="text_12">
      <!-- 20 -->
      <g transform="translate(106.275 361.879219) scale(0.1 -0.1)">
       <use xlink:href="#DejaVuSans-32"/>
       <use xlink:href="#DejaVuSans-30" x="63.623047"/>
      </g>
     </g>
    </g>
    <g id="ytick_4">
     <g id="line2d_12">
      <g>
       <use xlink:href="#m357382c924" x="126" y="290.88" style="stroke: #000000; stroke-width: 0.8"/>
      </g>
     </g>
     <g id="text_13">
      <!-- 25 -->
      <g transform="translate(106.275 294.679219) scale(0.1 -0.1)">
       <use xlink:href="#DejaVuSans-32"/>
       <use xlink:href="#DejaVuSans-35" x="63.623047"/>
      </g>
     </g>
    </g>
    <g id="ytick_5">
     <g id="line2d_13">
      <g>
       <use xlink:href="#m357382c924" x="126" y="223.68" style="stroke: #000000; stroke-width: 0.8"/>
      </g>
     </g>
     <g id="text_14">
      <!-- 30 -->
      <g transform="translate(106.275 227.479219) scale(0.1 -0.1)">
       <use xlink:href="#DejaVuSans-33"/>
       <use xlink:href="#DejaVuSans-30" x="63.623047"/>
      </g>
     </g>
    </g>
    <g id="ytick_6">
     <g id="line2d_14">
      <g>
       <use xlink:href="#m357382c924" x="126" y="156.48" style="stroke: #000000; stroke-width: 0.8"/>
      </g>
     </g>
     <g id="text_15">
      <!-- 35 -->
      <g transform="translate(106.275 160.279219) scale(0.1 -0.1)">
       <use xlink:href="#DejaVuSans-33"/>
       <use xlink:href="#DejaVuSans-35" x="63.623047"/>
      </g>
     </g>
    </g>
    <g id="ytick_7">
     <g id="line2d_15">
      <g>
       <use xlink:href="#m357382c924" x="126" y="89.28" style="stroke: #000000; stroke-width: 0.8"/>
      </g>
     </g>
     <g id="text_16">
      <!-- 40 -->
      <g transform="translate(106.275 93.079219) scale(0.1 -0.1)">
       <defs>
        <path id="DejaVuSans-34" d="M 2419 4116 
L 825 1625 
L 2419 1625 
L 2419 4116 
z
M 2253 4666 
L 3047 4666 
L 3047 1625 
L 3713 1625 
L 3713 1100 
L 3047 1100 
L 3047 0 
L 2419 0 
L 2419 1100 
L 313 1100 
L 313 1709 
L 2253 4666 
z
" transform="scale(0.015625)"/>
       </defs>
       <use xlink:href="#DejaVuSans-34"/>
       <use xlink:href="#DejaVuSans-30" x="63.623047"/>
      </g>
     </g>
    </g>
    <g id="text_17">
     <!-- Fitness -->
     <g transform="translate(98.9475 318.5875) rotate(-90) scale(0.16 -0.16)">
      <defs>
       <path id="DejaVuSans-46" d="M 628 4666 
L 3309 4666 
L 3309 4134 
L 1259 4134 
L 1259 2759 
L 3109 2759 
L 3109 2228 
L 1259 2228 
L 1259 0 
L 628 0 
L 628 4666 
z
" transform="scale(0.015625)"/>
       <path id="DejaVuSans-73" d="M 2834 3397 
L 2834 2853 
Q 2591 2978 2328 3040 
Q 2066 3103 1784 3103 
Q 1356 3103 1142 2972 
Q 928 2841 928 2578 
Q 928 2378 1081 2264 
Q 1234 2150 1697 2047 
L 1894 2003 
Q 2506 1872 2764 1633 
Q 3022 1394 3022 966 
Q 3022 478 2636 193 
Q 2250 -91 1575 -91 
Q 1294 -91 989 -36 
Q 684 19 347 128 
L 347 722 
Q 666 556 975 473 
Q 1284 391 1588 391 
Q 1994 391 2212 530 
Q 2431 669 2431 922 
Q 2431 1156 2273 1281 
Q 2116 1406 1581 1522 
L 1381 1569 
Q 847 1681 609 1914 
Q 372 2147 372 2553 
Q 372 3047 722 3315 
Q 1072 3584 1716 3584 
Q 2034 3584 2315 3537 
Q 2597 3491 2834 3397 
z
" transform="scale(0.015625)"/>
      </defs>
      <use xlink:href="#DejaVuSans-46"/>
      <use xlink:href="#DejaVuSans-69" x="50.269531"/>
      <use xlink:href="#DejaVuSans-74" x="78.052734"/>
      <use xlink:href="#DejaVuSans-6e" x="117.261719"/>
      <use xlink:href="#DejaVuSans-65" x="180.640625"/>
      <use xlink:href="#DejaVuSans-73" x="242.164062"/>
      <use xlink:href="#DejaVuSans-73" x="294.263672"/>
     </g>
    </g>
   </g>
   <g id="line2d_16">
    <path d="M 161.509091 492.48 
L 162.908661 492.48 
L 163.1086 479.04 
L 164.708108 479.04 
L 164.908047 371.52 
L 760.924939 371.52 
L 760.924939 371.52 
" clip-path="url(#p4283db0191)" style="fill: none; stroke: #7f2704; stroke-width: 1.5; stroke-linecap: square"/>
   </g>
   <g id="line2d_17">
    <path d="M 161.509091 479.04 
L 161.709029 479.04 
L 161.908968 465.6 
L 163.308538 465.6 
L 163.508477 452.16 
L 163.708415 452.16 
L 163.908354 398.4 
L 164.308231 398.4 
L 164.708108 358.08 
L 760.924939 358.08 
L 760.924939 358.08 
" clip-path="url(#p4283db0191)" style="fill: none; stroke: #963003; stroke-width: 1.5; stroke-linecap: square"/>
   </g>
   <g id="line2d_18">
    <path d="M 161.509091 358.08 
L 405.634091 358.08 
L 405.834029 344.64 
L 760.924939 344.64 
L 760.924939 344.64 
" clip-path="url(#p4283db0191)" style="fill: none; stroke: #b13a03; stroke-width: 1.5; stroke-linecap: square"/>
   </g>
   <g id="line2d_19">
    <path d="M 161.509091 492.48 
L 161.709029 358.08 
L 760.924939 358.08 
L 760.924939 358.08 
" clip-path="url(#p4283db0191)" style="fill: none; stroke: #d14501; stroke-width: 1.5; stroke-linecap: square"/>
   </g>
   <g id="line2d_20">
    <path d="M 161.509091 492.48 
L 162.108907 492.48 
L 162.308845 371.52 
L 173.305467 371.52 
L 173.505405 358.08 
L 213.49312 358.08 
L 213.693059 331.2 
L 276.67371 331.2 
L 276.873649 317.76 
L 410.432617 317.76 
L 410.632555 304.32 
L 423.828501 304.32 
L 424.02844 250.56 
L 563.985442 250.56 
L 564.185381 237.12 
L 760.924939 237.12 
L 760.924939 237.12 
" clip-path="url(#p4283db0191)" style="fill: none; stroke: #e4580a; stroke-width: 1.5; stroke-linecap: square"/>
   </g>
   <g id="line2d_21">
    <path d="M 161.509091 371.52 
L 760.924939 371.52 
L 760.924939 371.52 
" clip-path="url(#p4283db0191)" style="fill: none; stroke: #f26d17; stroke-width: 1.5; stroke-linecap: square"/>
   </g>
   <g id="line2d_22">
    <path d="M 161.509091 492.48 
L 161.709029 371.52 
L 760.924939 371.52 
L 760.924939 371.52 
" clip-path="url(#p4283db0191)" style="fill: none; stroke: #fa8331; stroke-width: 1.5; stroke-linecap: square"/>
   </g>
   <g id="line2d_23">
    <path d="M 161.509091 479.04 
L 163.908354 479.04 
L 164.108292 465.6 
L 164.708108 465.6 
L 164.908047 452.16 
L 165.707801 452.16 
L 165.90774 438.72 
L 166.107678 438.72 
L 166.307617 384.96 
L 166.707494 384.96 
L 166.907432 371.52 
L 760.924939 371.52 
L 760.924939 371.52 
" clip-path="url(#p4283db0191)" style="fill: none; stroke: #fd994d; stroke-width: 1.5; stroke-linecap: square"/>
   </g>
   <g id="line2d_24">
    <path d="M 161.509091 492.48 
L 161.709029 492.48 
L 161.908968 479.04 
L 162.308845 479.04 
L 162.508784 465.6 
L 162.708722 358.08 
L 760.924939 358.08 
L 760.924939 358.08 
" clip-path="url(#p4283db0191)" style="fill: none; stroke: #fdae6a; stroke-width: 1.5; stroke-linecap: square"/>
   </g>
   <g id="line2d_25">
    <path d="M 161.509091 479.04 
L 162.108907 479.04 
L 162.308845 452.16 
L 162.508784 371.52 
L 164.708108 371.52 
L 164.908047 358.08 
L 760.924939 358.08 
L 760.924939 358.08 
" clip-path="url(#p4283db0191)" style="fill: none; stroke: #fdc38d; stroke-width: 1.5; stroke-linecap: square"/>
   </g>
   <g id="line2d_26">
    <path d="M 203.69613 358.08 
L 204.495885 358.08 
L 204.695823 344.64 
L 205.895455 344.64 
L 206.095393 331.2 
L 206.295332 331.2 
L 206.49527 250.56 
L 206.895147 250.56 
L 207.095086 237.12 
L 211.693673 237.12 
L 211.893612 223.68 
L 394.437531 223.68 
L 394.637469 210.24 
L 422.428931 210.24 
L 422.62887 196.8 
L 443.62242 196.8 
L 443.822359 183.36 
L 590.177396 183.36 
L 590.377334 89.28 
L 590.377334 89.28 
" clip-path="url(#p4283db0191)" style="fill: none; stroke: #08306b; stroke-width: 1.5; stroke-linecap: square"/>
   </g>
   <g id="line2d_27">
    <path d="M 263.077887 479.04 
L 263.277826 465.6 
L 263.477764 371.52 
L 263.877641 371.52 
L 264.07758 358.08 
L 292.268919 358.08 
L 292.468857 344.64 
L 296.667568 344.64 
L 296.867506 317.76 
L 298.267076 317.76 
L 298.467015 237.12 
L 299.666646 237.12 
L 299.866585 223.68 
L 862.493735 223.68 
L 862.493735 223.68 
" clip-path="url(#p4283db0191)" style="fill: none; stroke: #084488; stroke-width: 1.5; stroke-linecap: square"/>
   </g>
   <g id="line2d_28">
    <path d="M 185.701658 384.96 
L 185.901597 384.96 
L 186.101536 358.08 
L 199.097543 358.08 
L 199.297482 344.64 
L 224.289803 344.64 
L 224.489742 331.2 
L 317.261241 331.2 
L 317.461179 317.76 
L 418.230221 317.76 
L 418.43016 304.32 
L 785.117506 304.32 
L 785.117506 304.32 
" clip-path="url(#p4283db0191)" style="fill: none; stroke: #0e58a2; stroke-width: 1.5; stroke-linecap: square"/>
   </g>
   <g id="line2d_29">
    <path d="M 196.898219 398.4 
L 197.897912 398.4 
L 198.297789 358.08 
L 295.068059 358.08 
L 295.267998 331.2 
L 796.314066 331.2 
L 796.314066 331.2 
" clip-path="url(#p4283db0191)" style="fill: none; stroke: #1d6cb1; stroke-width: 1.5; stroke-linecap: square"/>
   </g>
   <g id="line2d_30">
    <path d="M 221.890541 479.04 
L 222.090479 479.04 
L 222.290418 465.6 
L 222.490356 465.6 
L 222.690295 358.08 
L 383.840786 358.08 
L 384.040725 344.64 
L 397.636548 344.64 
L 397.836486 237.12 
L 413.631634 237.12 
L 413.831572 223.68 
L 506.003256 223.68 
L 506.203194 210.24 
L 821.306388 210.24 
L 821.306388 210.24 
" clip-path="url(#p4283db0191)" style="fill: none; stroke: #3181bd; stroke-width: 1.5; stroke-linecap: square"/>
   </g>
   <g id="line2d_31">
    <path d="M 311.662961 479.04 
L 312.062838 479.04 
L 312.262776 358.08 
L 337.05516 358.08 
L 337.255098 344.64 
L 341.453808 344.64 
L 341.653747 237.12 
L 351.850614 237.12 
L 352.050553 223.68 
L 354.849693 223.68 
L 355.049631 196.8 
L 497.805774 196.8 
L 498.005713 102.72 
L 556.187838 102.72 
L 556.387776 89.28 
L 556.387776 89.28 
" clip-path="url(#p4283db0191)" style="fill: none; stroke: #4695c8; stroke-width: 1.5; stroke-linecap: square"/>
   </g>
   <g id="line2d_32">
    <path d="M 272.275061 479.04 
L 272.874877 479.04 
L 273.074816 465.6 
L 273.274754 358.08 
L 273.87457 358.08 
L 274.074509 344.64 
L 275.474079 344.64 
L 275.674017 331.2 
L 276.873649 331.2 
L 277.073587 237.12 
L 295.467936 237.12 
L 295.667875 223.68 
L 563.585565 223.68 
L 563.785504 196.8 
L 871.690909 196.8 
L 871.690909 196.8 
" clip-path="url(#p4283db0191)" style="fill: none; stroke: #60a7d2; stroke-width: 1.5; stroke-linecap: square"/>
   </g>
   <g id="line2d_33">
    <path d="M 168.506941 358.08 
L 173.305467 358.08 
L 173.505405 250.56 
L 176.304545 250.56 
L 176.504484 223.68 
L 193.099386 223.68 
L 193.299324 210.24 
L 220.091093 210.24 
L 220.291032 196.8 
L 252.88102 196.8 
L 253.080958 183.36 
L 302.865663 183.36 
L 303.065602 169.92 
L 360.647912 169.92 
L 360.84785 116.16 
L 437.824201 116.16 
L 438.02414 102.72 
L 440.423403 102.72 
L 440.623342 89.28 
L 440.623342 89.28 
" clip-path="url(#p4283db0191)" style="fill: none; stroke: #7db8da; stroke-width: 1.5; stroke-linecap: square"/>
   </g>
   <g id="line2d_34">
    <path d="M 235.886241 344.64 
L 237.885627 344.64 
L 238.085565 331.2 
L 244.4836 331.2 
L 244.683538 223.68 
L 467.415111 223.68 
L 467.615049 210.24 
L 490.00817 210.24 
L 490.208108 196.8 
L 529.795946 196.8 
L 529.995885 89.28 
L 529.995885 89.28 
" clip-path="url(#p4283db0191)" style="fill: none; stroke: #9dcae1; stroke-width: 1.5; stroke-linecap: square"/>
   </g>
   <g id="line2d_35">
    <path d="M 264.07758 358.08 
L 264.277518 223.68 
L 354.649754 223.68 
L 354.849693 210.24 
L 367.245885 210.24 
L 367.445823 89.28 
L 367.445823 89.28 
" clip-path="url(#p4283db0191)" style="fill: none; stroke: #b7d4ea; stroke-width: 1.5; stroke-linecap: square"/>
   </g>
   <g id="line2d_36">
    <path d="M 126 89.28 
L 907.2 89.28 
" clip-path="url(#p4283db0191)" style="fill: none; stroke-dasharray: 5.55,2.4; stroke-dashoffset: 0; stroke: #800080; stroke-width: 1.5"/>
   </g>
   <g id="patch_3">
    <path d="M 126 512.64 
L 126 69.12 
" style="fill: none; stroke: #000000; stroke-width: 0.8; stroke-linejoin: miter; stroke-linecap: square"/>
   </g>
   <g id="patch_4">
    <path d="M 907.2 512.64 
L 907.2 69.12 
" style="fill: none; stroke: #000000; stroke-width: 0.8; stroke-linejoin: miter; stroke-linecap: square"/>
   </g>
   <g id="patch_5">
    <path d="M 126 512.64 
L 907.2 512.64 
" style="fill: none; stroke: #000000; stroke-width: 0.8; stroke-linejoin: miter; stroke-linecap: square"/>
   </g>
   <g id="patch_6">
    <path d="M 126 69.12 
L 907.2 69.12 
" style="fill: none; stroke: #000000; stroke-width: 0.8; stroke-linejoin: miter; stroke-linecap: square"/>
   </g>
   <g id="text_18">
    <!-- Cross environment all runs -->
    <g transform="translate(409.15875 63.12) scale(0.16 -0.16)">
     <defs>
      <path id="DejaVuSans-43" d="M 4122 4306 
L 4122 3641 
Q 3803 3938 3442 4084 
Q 3081 4231 2675 4231 
Q 1875 4231 1450 3742 
Q 1025 3253 1025 2328 
Q 1025 1406 1450 917 
Q 1875 428 2675 428 
Q 3081 428 3442 575 
Q 3803 722 4122 1019 
L 4122 359 
Q 3791 134 3420 21 
Q 3050 -91 2638 -91 
Q 1578 -91 968 557 
Q 359 1206 359 2328 
Q 359 3453 968 4101 
Q 1578 4750 2638 4750 
Q 3056 4750 3426 4639 
Q 3797 4528 4122 4306 
z
" transform="scale(0.015625)"/>
      <path id="DejaVuSans-20" transform="scale(0.015625)"/>
      <path id="DejaVuSans-76" d="M 191 3500 
L 800 3500 
L 1894 563 
L 2988 3500 
L 3597 3500 
L 2284 0 
L 1503 0 
L 191 3500 
z
" transform="scale(0.015625)"/>
      <path id="DejaVuSans-6d" d="M 3328 2828 
Q 3544 3216 3844 3400 
Q 4144 3584 4550 3584 
Q 5097 3584 5394 3201 
Q 5691 2819 5691 2113 
L 5691 0 
L 5113 0 
L 5113 2094 
Q 5113 2597 4934 2840 
Q 4756 3084 4391 3084 
Q 3944 3084 3684 2787 
Q 3425 2491 3425 1978 
L 3425 0 
L 2847 0 
L 2847 2094 
Q 2847 2600 2669 2842 
Q 2491 3084 2119 3084 
Q 1678 3084 1418 2786 
Q 1159 2488 1159 1978 
L 1159 0 
L 581 0 
L 581 3500 
L 1159 3500 
L 1159 2956 
Q 1356 3278 1631 3431 
Q 1906 3584 2284 3584 
Q 2666 3584 2933 3390 
Q 3200 3197 3328 2828 
z
" transform="scale(0.015625)"/>
      <path id="DejaVuSans-6c" d="M 603 4863 
L 1178 4863 
L 1178 0 
L 603 0 
L 603 4863 
z
" transform="scale(0.015625)"/>
      <path id="DejaVuSans-75" d="M 544 1381 
L 544 3500 
L 1119 3500 
L 1119 1403 
Q 1119 906 1312 657 
Q 1506 409 1894 409 
Q 2359 409 2629 706 
Q 2900 1003 2900 1516 
L 2900 3500 
L 3475 3500 
L 3475 0 
L 2900 0 
L 2900 538 
Q 2691 219 2414 64 
Q 2138 -91 1772 -91 
Q 1169 -91 856 284 
Q 544 659 544 1381 
z
M 1991 3584 
L 1991 3584 
z
" transform="scale(0.015625)"/>
     </defs>
     <use xlink:href="#DejaVuSans-43"/>
     <use xlink:href="#DejaVuSans-72" x="69.824219"/>
     <use xlink:href="#DejaVuSans-6f" x="108.6875"/>
     <use xlink:href="#DejaVuSans-73" x="169.869141"/>
     <use xlink:href="#DejaVuSans-73" x="221.96875"/>
     <use xlink:href="#DejaVuSans-20" x="274.068359"/>
     <use xlink:href="#DejaVuSans-65" x="305.855469"/>
     <use xlink:href="#DejaVuSans-6e" x="367.378906"/>
     <use xlink:href="#DejaVuSans-76" x="430.757812"/>
     <use xlink:href="#DejaVuSans-69" x="489.9375"/>
     <use xlink:href="#DejaVuSans-72" x="517.720703"/>
     <use xlink:href="#DejaVuSans-6f" x="556.583984"/>
     <use xlink:href="#DejaVuSans-6e" x="617.765625"/>
     <use xlink:href="#DejaVuSans-6d" x="681.144531"/>
     <use xlink:href="#DejaVuSans-65" x="778.556641"/>
     <use xlink:href="#DejaVuSans-6e" x="840.080078"/>
     <use xlink:href="#DejaVuSans-74" x="903.458984"/>
     <use xlink:href="#DejaVuSans-20" x="942.667969"/>
     <use xlink:href="#DejaVuSans-61" x="974.455078"/>
     <use xlink:href="#DejaVuSans-6c" x="1035.734375"/>
     <use xlink:href="#DejaVuSans-6c" x="1063.517578"/>
     <use xlink:href="#DejaVuSans-20" x="1091.300781"/>
     <use xlink:href="#DejaVuSans-72" x="1123.087891"/>
     <use xlink:href="#DejaVuSans-75" x="1164.201172"/>
     <use xlink:href="#DejaVuSans-6e" x="1227.580078"/>
     <use xlink:href="#DejaVuSans-73" x="1290.958984"/>
    </g>
   </g>
   <g id="legend_1">
    <g id="patch_7">
     <path d="M 792.414062 507.64 
L 900.2 507.64 
Q 902.2 507.64 902.2 505.64 
L 902.2 198.399375 
Q 902.2 196.399375 900.2 196.399375 
L 792.414062 196.399375 
Q 790.414062 196.399375 790.414062 198.399375 
L 790.414062 505.64 
Q 790.414062 507.64 792.414062 507.64 
z
" style="fill: #ffffff; opacity: 0.8; stroke: #cccccc; stroke-linejoin: miter"/>
    </g>
    <g id="line2d_37">
     <path d="M 794.414062 204.497813 
L 804.414062 204.497813 
L 814.414062 204.497813 
" style="fill: none; stroke: #7f2704; stroke-width: 1.5; stroke-linecap: square"/>
    </g>
    <g id="text_19">
     <!-- Direct 1 -->
     <g transform="translate(822.414062 207.997813) scale(0.1 -0.1)">
      <defs>
       <path id="DejaVuSans-44" d="M 1259 4147 
L 1259 519 
L 2022 519 
Q 2988 519 3436 956 
Q 3884 1394 3884 2338 
Q 3884 3275 3436 3711 
Q 2988 4147 2022 4147 
L 1259 4147 
z
M 628 4666 
L 1925 4666 
Q 3281 4666 3915 4102 
Q 4550 3538 4550 2338 
Q 4550 1131 3912 565 
Q 3275 0 1925 0 
L 628 0 
L 628 4666 
z
" transform="scale(0.015625)"/>
       <path id="DejaVuSans-63" d="M 3122 3366 
L 3122 2828 
Q 2878 2963 2633 3030 
Q 2388 3097 2138 3097 
Q 1578 3097 1268 2742 
Q 959 2388 959 1747 
Q 959 1106 1268 751 
Q 1578 397 2138 397 
Q 2388 397 2633 464 
Q 2878 531 3122 666 
L 3122 134 
Q 2881 22 2623 -34 
Q 2366 -91 2075 -91 
Q 1284 -91 818 406 
Q 353 903 353 1747 
Q 353 2603 823 3093 
Q 1294 3584 2113 3584 
Q 2378 3584 2631 3529 
Q 2884 3475 3122 3366 
z
" transform="scale(0.015625)"/>
      </defs>
      <use xlink:href="#DejaVuSans-44"/>
      <use xlink:href="#DejaVuSans-69" x="77.001953"/>
      <use xlink:href="#DejaVuSans-72" x="104.785156"/>
      <use xlink:href="#DejaVuSans-65" x="143.648438"/>
      <use xlink:href="#DejaVuSans-63" x="205.171875"/>
      <use xlink:href="#DejaVuSans-74" x="260.152344"/>
      <use xlink:href="#DejaVuSans-20" x="299.361328"/>
      <use xlink:href="#DejaVuSans-31" x="331.148438"/>
     </g>
    </g>
    <g id="line2d_38">
     <path d="M 794.414062 219.175938 
L 804.414062 219.175938 
L 814.414062 219.175938 
" style="fill: none; stroke: #963003; stroke-width: 1.5; stroke-linecap: square"/>
    </g>
    <g id="text_20">
     <!-- Direct 2 -->
     <g transform="translate(822.414062 222.675938) scale(0.1 -0.1)">
      <use xlink:href="#DejaVuSans-44"/>
      <use xlink:href="#DejaVuSans-69" x="77.001953"/>
      <use xlink:href="#DejaVuSans-72" x="104.785156"/>
      <use xlink:href="#DejaVuSans-65" x="143.648438"/>
      <use xlink:href="#DejaVuSans-63" x="205.171875"/>
      <use xlink:href="#DejaVuSans-74" x="260.152344"/>
      <use xlink:href="#DejaVuSans-20" x="299.361328"/>
      <use xlink:href="#DejaVuSans-32" x="331.148438"/>
     </g>
    </g>
    <g id="line2d_39">
     <path d="M 794.414062 233.854062 
L 804.414062 233.854062 
L 814.414062 233.854062 
" style="fill: none; stroke: #b13a03; stroke-width: 1.5; stroke-linecap: square"/>
    </g>
    <g id="text_21">
     <!-- Direct 3 -->
     <g transform="translate(822.414062 237.354062) scale(0.1 -0.1)">
      <use xlink:href="#DejaVuSans-44"/>
      <use xlink:href="#DejaVuSans-69" x="77.001953"/>
      <use xlink:href="#DejaVuSans-72" x="104.785156"/>
      <use xlink:href="#DejaVuSans-65" x="143.648438"/>
      <use xlink:href="#DejaVuSans-63" x="205.171875"/>
      <use xlink:href="#DejaVuSans-74" x="260.152344"/>
      <use xlink:href="#DejaVuSans-20" x="299.361328"/>
      <use xlink:href="#DejaVuSans-33" x="331.148438"/>
     </g>
    </g>
    <g id="line2d_40">
     <path d="M 794.414062 248.532188 
L 804.414062 248.532188 
L 814.414062 248.532188 
" style="fill: none; stroke: #d14501; stroke-width: 1.5; stroke-linecap: square"/>
    </g>
    <g id="text_22">
     <!-- Direct 4 -->
     <g transform="translate(822.414062 252.032188) scale(0.1 -0.1)">
      <use xlink:href="#DejaVuSans-44"/>
      <use xlink:href="#DejaVuSans-69" x="77.001953"/>
      <use xlink:href="#DejaVuSans-72" x="104.785156"/>
      <use xlink:href="#DejaVuSans-65" x="143.648438"/>
      <use xlink:href="#DejaVuSans-63" x="205.171875"/>
      <use xlink:href="#DejaVuSans-74" x="260.152344"/>
      <use xlink:href="#DejaVuSans-20" x="299.361328"/>
      <use xlink:href="#DejaVuSans-34" x="331.148438"/>
     </g>
    </g>
    <g id="line2d_41">
     <path d="M 794.414062 263.210313 
L 804.414062 263.210313 
L 814.414062 263.210313 
" style="fill: none; stroke: #e4580a; stroke-width: 1.5; stroke-linecap: square"/>
    </g>
    <g id="text_23">
     <!-- Direct 5 -->
     <g transform="translate(822.414062 266.710313) scale(0.1 -0.1)">
      <use xlink:href="#DejaVuSans-44"/>
      <use xlink:href="#DejaVuSans-69" x="77.001953"/>
      <use xlink:href="#DejaVuSans-72" x="104.785156"/>
      <use xlink:href="#DejaVuSans-65" x="143.648438"/>
      <use xlink:href="#DejaVuSans-63" x="205.171875"/>
      <use xlink:href="#DejaVuSans-74" x="260.152344"/>
      <use xlink:href="#DejaVuSans-20" x="299.361328"/>
      <use xlink:href="#DejaVuSans-35" x="331.148438"/>
     </g>
    </g>
    <g id="line2d_42">
     <path d="M 794.414062 277.888438 
L 804.414062 277.888438 
L 814.414062 277.888438 
" style="fill: none; stroke: #f26d17; stroke-width: 1.5; stroke-linecap: square"/>
    </g>
    <g id="text_24">
     <!-- Direct 6 -->
     <g transform="translate(822.414062 281.388438) scale(0.1 -0.1)">
      <defs>
       <path id="DejaVuSans-36" d="M 2113 2584 
Q 1688 2584 1439 2293 
Q 1191 2003 1191 1497 
Q 1191 994 1439 701 
Q 1688 409 2113 409 
Q 2538 409 2786 701 
Q 3034 994 3034 1497 
Q 3034 2003 2786 2293 
Q 2538 2584 2113 2584 
z
M 3366 4563 
L 3366 3988 
Q 3128 4100 2886 4159 
Q 2644 4219 2406 4219 
Q 1781 4219 1451 3797 
Q 1122 3375 1075 2522 
Q 1259 2794 1537 2939 
Q 1816 3084 2150 3084 
Q 2853 3084 3261 2657 
Q 3669 2231 3669 1497 
Q 3669 778 3244 343 
Q 2819 -91 2113 -91 
Q 1303 -91 875 529 
Q 447 1150 447 2328 
Q 447 3434 972 4092 
Q 1497 4750 2381 4750 
Q 2619 4750 2861 4703 
Q 3103 4656 3366 4563 
z
" transform="scale(0.015625)"/>
      </defs>
      <use xlink:href="#DejaVuSans-44"/>
      <use xlink:href="#DejaVuSans-69" x="77.001953"/>
      <use xlink:href="#DejaVuSans-72" x="104.785156"/>
      <use xlink:href="#DejaVuSans-65" x="143.648438"/>
      <use xlink:href="#DejaVuSans-63" x="205.171875"/>
      <use xlink:href="#DejaVuSans-74" x="260.152344"/>
      <use xlink:href="#DejaVuSans-20" x="299.361328"/>
      <use xlink:href="#DejaVuSans-36" x="331.148438"/>
     </g>
    </g>
    <g id="line2d_43">
     <path d="M 794.414062 292.566563 
L 804.414062 292.566563 
L 814.414062 292.566563 
" style="fill: none; stroke: #fa8331; stroke-width: 1.5; stroke-linecap: square"/>
    </g>
    <g id="text_25">
     <!-- Direct 7 -->
     <g transform="translate(822.414062 296.066563) scale(0.1 -0.1)">
      <defs>
       <path id="DejaVuSans-37" d="M 525 4666 
L 3525 4666 
L 3525 4397 
L 1831 0 
L 1172 0 
L 2766 4134 
L 525 4134 
L 525 4666 
z
" transform="scale(0.015625)"/>
      </defs>
      <use xlink:href="#DejaVuSans-44"/>
      <use xlink:href="#DejaVuSans-69" x="77.001953"/>
      <use xlink:href="#DejaVuSans-72" x="104.785156"/>
      <use xlink:href="#DejaVuSans-65" x="143.648438"/>
      <use xlink:href="#DejaVuSans-63" x="205.171875"/>
      <use xlink:href="#DejaVuSans-74" x="260.152344"/>
      <use xlink:href="#DejaVuSans-20" x="299.361328"/>
      <use xlink:href="#DejaVuSans-37" x="331.148438"/>
     </g>
    </g>
    <g id="line2d_44">
     <path d="M 794.414062 307.244687 
L 804.414062 307.244687 
L 814.414062 307.244687 
" style="fill: none; stroke: #fd994d; stroke-width: 1.5; stroke-linecap: square"/>
    </g>
    <g id="text_26">
     <!-- Direct 8 -->
     <g transform="translate(822.414062 310.744687) scale(0.1 -0.1)">
      <defs>
       <path id="DejaVuSans-38" d="M 2034 2216 
Q 1584 2216 1326 1975 
Q 1069 1734 1069 1313 
Q 1069 891 1326 650 
Q 1584 409 2034 409 
Q 2484 409 2743 651 
Q 3003 894 3003 1313 
Q 3003 1734 2745 1975 
Q 2488 2216 2034 2216 
z
M 1403 2484 
Q 997 2584 770 2862 
Q 544 3141 544 3541 
Q 544 4100 942 4425 
Q 1341 4750 2034 4750 
Q 2731 4750 3128 4425 
Q 3525 4100 3525 3541 
Q 3525 3141 3298 2862 
Q 3072 2584 2669 2484 
Q 3125 2378 3379 2068 
Q 3634 1759 3634 1313 
Q 3634 634 3220 271 
Q 2806 -91 2034 -91 
Q 1263 -91 848 271 
Q 434 634 434 1313 
Q 434 1759 690 2068 
Q 947 2378 1403 2484 
z
M 1172 3481 
Q 1172 3119 1398 2916 
Q 1625 2713 2034 2713 
Q 2441 2713 2670 2916 
Q 2900 3119 2900 3481 
Q 2900 3844 2670 4047 
Q 2441 4250 2034 4250 
Q 1625 4250 1398 4047 
Q 1172 3844 1172 3481 
z
" transform="scale(0.015625)"/>
      </defs>
      <use xlink:href="#DejaVuSans-44"/>
      <use xlink:href="#DejaVuSans-69" x="77.001953"/>
      <use xlink:href="#DejaVuSans-72" x="104.785156"/>
      <use xlink:href="#DejaVuSans-65" x="143.648438"/>
      <use xlink:href="#DejaVuSans-63" x="205.171875"/>
      <use xlink:href="#DejaVuSans-74" x="260.152344"/>
      <use xlink:href="#DejaVuSans-20" x="299.361328"/>
      <use xlink:href="#DejaVuSans-38" x="331.148438"/>
     </g>
    </g>
    <g id="line2d_45">
     <path d="M 794.414062 321.922813 
L 804.414062 321.922813 
L 814.414062 321.922813 
" style="fill: none; stroke: #fdae6a; stroke-width: 1.5; stroke-linecap: square"/>
    </g>
    <g id="text_27">
     <!-- Direct 9 -->
     <g transform="translate(822.414062 325.422813) scale(0.1 -0.1)">
      <defs>
       <path id="DejaVuSans-39" d="M 703 97 
L 703 672 
Q 941 559 1184 500 
Q 1428 441 1663 441 
Q 2288 441 2617 861 
Q 2947 1281 2994 2138 
Q 2813 1869 2534 1725 
Q 2256 1581 1919 1581 
Q 1219 1581 811 2004 
Q 403 2428 403 3163 
Q 403 3881 828 4315 
Q 1253 4750 1959 4750 
Q 2769 4750 3195 4129 
Q 3622 3509 3622 2328 
Q 3622 1225 3098 567 
Q 2575 -91 1691 -91 
Q 1453 -91 1209 -44 
Q 966 3 703 97 
z
M 1959 2075 
Q 2384 2075 2632 2365 
Q 2881 2656 2881 3163 
Q 2881 3666 2632 3958 
Q 2384 4250 1959 4250 
Q 1534 4250 1286 3958 
Q 1038 3666 1038 3163 
Q 1038 2656 1286 2365 
Q 1534 2075 1959 2075 
z
" transform="scale(0.015625)"/>
      </defs>
      <use xlink:href="#DejaVuSans-44"/>
      <use xlink:href="#DejaVuSans-69" x="77.001953"/>
      <use xlink:href="#DejaVuSans-72" x="104.785156"/>
      <use xlink:href="#DejaVuSans-65" x="143.648438"/>
      <use xlink:href="#DejaVuSans-63" x="205.171875"/>
      <use xlink:href="#DejaVuSans-74" x="260.152344"/>
      <use xlink:href="#DejaVuSans-20" x="299.361328"/>
      <use xlink:href="#DejaVuSans-39" x="331.148438"/>
     </g>
    </g>
    <g id="line2d_46">
     <path d="M 794.414062 336.600937 
L 804.414062 336.600937 
L 814.414062 336.600937 
" style="fill: none; stroke: #fdc38d; stroke-width: 1.5; stroke-linecap: square"/>
    </g>
    <g id="text_28">
     <!-- Direct 10 -->
     <g transform="translate(822.414062 340.100937) scale(0.1 -0.1)">
      <use xlink:href="#DejaVuSans-44"/>
      <use xlink:href="#DejaVuSans-69" x="77.001953"/>
      <use xlink:href="#DejaVuSans-72" x="104.785156"/>
      <use xlink:href="#DejaVuSans-65" x="143.648438"/>
      <use xlink:href="#DejaVuSans-63" x="205.171875"/>
      <use xlink:href="#DejaVuSans-74" x="260.152344"/>
      <use xlink:href="#DejaVuSans-20" x="299.361328"/>
      <use xlink:href="#DejaVuSans-31" x="331.148438"/>
      <use xlink:href="#DejaVuSans-30" x="394.771484"/>
     </g>
    </g>
    <g id="line2d_47">
     <path d="M 794.414062 351.279063 
L 804.414062 351.279063 
L 814.414062 351.279063 
" style="fill: none; stroke: #08306b; stroke-width: 1.5; stroke-linecap: square"/>
    </g>
    <g id="text_29">
     <!-- Incremental 1 -->
     <g transform="translate(822.414062 354.779063) scale(0.1 -0.1)">
      <defs>
       <path id="DejaVuSans-49" d="M 628 4666 
L 1259 4666 
L 1259 0 
L 628 0 
L 628 4666 
z
" transform="scale(0.015625)"/>
      </defs>
      <use xlink:href="#DejaVuSans-49"/>
      <use xlink:href="#DejaVuSans-6e" x="29.492188"/>
      <use xlink:href="#DejaVuSans-63" x="92.871094"/>
      <use xlink:href="#DejaVuSans-72" x="147.851562"/>
      <use xlink:href="#DejaVuSans-65" x="186.714844"/>
      <use xlink:href="#DejaVuSans-6d" x="248.238281"/>
      <use xlink:href="#DejaVuSans-65" x="345.650391"/>
      <use xlink:href="#DejaVuSans-6e" x="407.173828"/>
      <use xlink:href="#DejaVuSans-74" x="470.552734"/>
      <use xlink:href="#DejaVuSans-61" x="509.761719"/>
      <use xlink:href="#DejaVuSans-6c" x="571.041016"/>
      <use xlink:href="#DejaVuSans-20" x="598.824219"/>
      <use xlink:href="#DejaVuSans-31" x="630.611328"/>
     </g>
    </g>
    <g id="line2d_48">
     <path d="M 794.414062 365.957187 
L 804.414062 365.957187 
L 814.414062 365.957187 
" style="fill: none; stroke: #084488; stroke-width: 1.5; stroke-linecap: square"/>
    </g>
    <g id="text_30">
     <!-- Incremental 2 -->
     <g transform="translate(822.414062 369.457187) scale(0.1 -0.1)">
      <use xlink:href="#DejaVuSans-49"/>
      <use xlink:href="#DejaVuSans-6e" x="29.492188"/>
      <use xlink:href="#DejaVuSans-63" x="92.871094"/>
      <use xlink:href="#DejaVuSans-72" x="147.851562"/>
      <use xlink:href="#DejaVuSans-65" x="186.714844"/>
      <use xlink:href="#DejaVuSans-6d" x="248.238281"/>
      <use xlink:href="#DejaVuSans-65" x="345.650391"/>
      <use xlink:href="#DejaVuSans-6e" x="407.173828"/>
      <use xlink:href="#DejaVuSans-74" x="470.552734"/>
      <use xlink:href="#DejaVuSans-61" x="509.761719"/>
      <use xlink:href="#DejaVuSans-6c" x="571.041016"/>
      <use xlink:href="#DejaVuSans-20" x="598.824219"/>
      <use xlink:href="#DejaVuSans-32" x="630.611328"/>
     </g>
    </g>
    <g id="line2d_49">
     <path d="M 794.414062 380.635312 
L 804.414062 380.635312 
L 814.414062 380.635312 
" style="fill: none; stroke: #0e58a2; stroke-width: 1.5; stroke-linecap: square"/>
    </g>
    <g id="text_31">
     <!-- Incremental 3 -->
     <g transform="translate(822.414062 384.135312) scale(0.1 -0.1)">
      <use xlink:href="#DejaVuSans-49"/>
      <use xlink:href="#DejaVuSans-6e" x="29.492188"/>
      <use xlink:href="#DejaVuSans-63" x="92.871094"/>
      <use xlink:href="#DejaVuSans-72" x="147.851562"/>
      <use xlink:href="#DejaVuSans-65" x="186.714844"/>
      <use xlink:href="#DejaVuSans-6d" x="248.238281"/>
      <use xlink:href="#DejaVuSans-65" x="345.650391"/>
      <use xlink:href="#DejaVuSans-6e" x="407.173828"/>
      <use xlink:href="#DejaVuSans-74" x="470.552734"/>
      <use xlink:href="#DejaVuSans-61" x="509.761719"/>
      <use xlink:href="#DejaVuSans-6c" x="571.041016"/>
      <use xlink:href="#DejaVuSans-20" x="598.824219"/>
      <use xlink:href="#DejaVuSans-33" x="630.611328"/>
     </g>
    </g>
    <g id="line2d_50">
     <path d="M 794.414062 395.313437 
L 804.414062 395.313437 
L 814.414062 395.313437 
" style="fill: none; stroke: #1d6cb1; stroke-width: 1.5; stroke-linecap: square"/>
    </g>
    <g id="text_32">
     <!-- Incremental 4 -->
     <g transform="translate(822.414062 398.813437) scale(0.1 -0.1)">
      <use xlink:href="#DejaVuSans-49"/>
      <use xlink:href="#DejaVuSans-6e" x="29.492188"/>
      <use xlink:href="#DejaVuSans-63" x="92.871094"/>
      <use xlink:href="#DejaVuSans-72" x="147.851562"/>
      <use xlink:href="#DejaVuSans-65" x="186.714844"/>
      <use xlink:href="#DejaVuSans-6d" x="248.238281"/>
      <use xlink:href="#DejaVuSans-65" x="345.650391"/>
      <use xlink:href="#DejaVuSans-6e" x="407.173828"/>
      <use xlink:href="#DejaVuSans-74" x="470.552734"/>
      <use xlink:href="#DejaVuSans-61" x="509.761719"/>
      <use xlink:href="#DejaVuSans-6c" x="571.041016"/>
      <use xlink:href="#DejaVuSans-20" x="598.824219"/>
      <use xlink:href="#DejaVuSans-34" x="630.611328"/>
     </g>
    </g>
    <g id="line2d_51">
     <path d="M 794.414062 409.991562 
L 804.414062 409.991562 
L 814.414062 409.991562 
" style="fill: none; stroke: #3181bd; stroke-width: 1.5; stroke-linecap: square"/>
    </g>
    <g id="text_33">
     <!-- Incremental 5 -->
     <g transform="translate(822.414062 413.491562) scale(0.1 -0.1)">
      <use xlink:href="#DejaVuSans-49"/>
      <use xlink:href="#DejaVuSans-6e" x="29.492188"/>
      <use xlink:href="#DejaVuSans-63" x="92.871094"/>
      <use xlink:href="#DejaVuSans-72" x="147.851562"/>
      <use xlink:href="#DejaVuSans-65" x="186.714844"/>
      <use xlink:href="#DejaVuSans-6d" x="248.238281"/>
      <use xlink:href="#DejaVuSans-65" x="345.650391"/>
      <use xlink:href="#DejaVuSans-6e" x="407.173828"/>
      <use xlink:href="#DejaVuSans-74" x="470.552734"/>
      <use xlink:href="#DejaVuSans-61" x="509.761719"/>
      <use xlink:href="#DejaVuSans-6c" x="571.041016"/>
      <use xlink:href="#DejaVuSans-20" x="598.824219"/>
      <use xlink:href="#DejaVuSans-35" x="630.611328"/>
     </g>
    </g>
    <g id="line2d_52">
     <path d="M 794.414062 424.669687 
L 804.414062 424.669687 
L 814.414062 424.669687 
" style="fill: none; stroke: #4695c8; stroke-width: 1.5; stroke-linecap: square"/>
    </g>
    <g id="text_34">
     <!-- Incremental 6 -->
     <g transform="translate(822.414062 428.169687) scale(0.1 -0.1)">
      <use xlink:href="#DejaVuSans-49"/>
      <use xlink:href="#DejaVuSans-6e" x="29.492188"/>
      <use xlink:href="#DejaVuSans-63" x="92.871094"/>
      <use xlink:href="#DejaVuSans-72" x="147.851562"/>
      <use xlink:href="#DejaVuSans-65" x="186.714844"/>
      <use xlink:href="#DejaVuSans-6d" x="248.238281"/>
      <use xlink:href="#DejaVuSans-65" x="345.650391"/>
      <use xlink:href="#DejaVuSans-6e" x="407.173828"/>
      <use xlink:href="#DejaVuSans-74" x="470.552734"/>
      <use xlink:href="#DejaVuSans-61" x="509.761719"/>
      <use xlink:href="#DejaVuSans-6c" x="571.041016"/>
      <use xlink:href="#DejaVuSans-20" x="598.824219"/>
      <use xlink:href="#DejaVuSans-36" x="630.611328"/>
     </g>
    </g>
    <g id="line2d_53">
     <path d="M 794.414062 439.347812 
L 804.414062 439.347812 
L 814.414062 439.347812 
" style="fill: none; stroke: #60a7d2; stroke-width: 1.5; stroke-linecap: square"/>
    </g>
    <g id="text_35">
     <!-- Incremental 7 -->
     <g transform="translate(822.414062 442.847812) scale(0.1 -0.1)">
      <use xlink:href="#DejaVuSans-49"/>
      <use xlink:href="#DejaVuSans-6e" x="29.492188"/>
      <use xlink:href="#DejaVuSans-63" x="92.871094"/>
      <use xlink:href="#DejaVuSans-72" x="147.851562"/>
      <use xlink:href="#DejaVuSans-65" x="186.714844"/>
      <use xlink:href="#DejaVuSans-6d" x="248.238281"/>
      <use xlink:href="#DejaVuSans-65" x="345.650391"/>
      <use xlink:href="#DejaVuSans-6e" x="407.173828"/>
      <use xlink:href="#DejaVuSans-74" x="470.552734"/>
      <use xlink:href="#DejaVuSans-61" x="509.761719"/>
      <use xlink:href="#DejaVuSans-6c" x="571.041016"/>
      <use xlink:href="#DejaVuSans-20" x="598.824219"/>
      <use xlink:href="#DejaVuSans-37" x="630.611328"/>
     </g>
    </g>
    <g id="line2d_54">
     <path d="M 794.414062 454.025937 
L 804.414062 454.025937 
L 814.414062 454.025937 
" style="fill: none; stroke: #7db8da; stroke-width: 1.5; stroke-linecap: square"/>
    </g>
    <g id="text_36">
     <!-- Incremental 8 -->
     <g transform="translate(822.414062 457.525937) scale(0.1 -0.1)">
      <use xlink:href="#DejaVuSans-49"/>
      <use xlink:href="#DejaVuSans-6e" x="29.492188"/>
      <use xlink:href="#DejaVuSans-63" x="92.871094"/>
      <use xlink:href="#DejaVuSans-72" x="147.851562"/>
      <use xlink:href="#DejaVuSans-65" x="186.714844"/>
      <use xlink:href="#DejaVuSans-6d" x="248.238281"/>
      <use xlink:href="#DejaVuSans-65" x="345.650391"/>
      <use xlink:href="#DejaVuSans-6e" x="407.173828"/>
      <use xlink:href="#DejaVuSans-74" x="470.552734"/>
      <use xlink:href="#DejaVuSans-61" x="509.761719"/>
      <use xlink:href="#DejaVuSans-6c" x="571.041016"/>
      <use xlink:href="#DejaVuSans-20" x="598.824219"/>
      <use xlink:href="#DejaVuSans-38" x="630.611328"/>
     </g>
    </g>
    <g id="line2d_55">
     <path d="M 794.414062 468.704062 
L 804.414062 468.704062 
L 814.414062 468.704062 
" style="fill: none; stroke: #9dcae1; stroke-width: 1.5; stroke-linecap: square"/>
    </g>
    <g id="text_37">
     <!-- Incremental 9 -->
     <g transform="translate(822.414062 472.204062) scale(0.1 -0.1)">
      <use xlink:href="#DejaVuSans-49"/>
      <use xlink:href="#DejaVuSans-6e" x="29.492188"/>
      <use xlink:href="#DejaVuSans-63" x="92.871094"/>
      <use xlink:href="#DejaVuSans-72" x="147.851562"/>
      <use xlink:href="#DejaVuSans-65" x="186.714844"/>
      <use xlink:href="#DejaVuSans-6d" x="248.238281"/>
      <use xlink:href="#DejaVuSans-65" x="345.650391"/>
      <use xlink:href="#DejaVuSans-6e" x="407.173828"/>
      <use xlink:href="#DejaVuSans-74" x="470.552734"/>
      <use xlink:href="#DejaVuSans-61" x="509.761719"/>
      <use xlink:href="#DejaVuSans-6c" x="571.041016"/>
      <use xlink:href="#DejaVuSans-20" x="598.824219"/>
      <use xlink:href="#DejaVuSans-39" x="630.611328"/>
     </g>
    </g>
    <g id="line2d_56">
     <path d="M 794.414062 483.382187 
L 804.414062 483.382187 
L 814.414062 483.382187 
" style="fill: none; stroke: #b7d4ea; stroke-width: 1.5; stroke-linecap: square"/>
    </g>
    <g id="text_38">
     <!-- Incremental 10 -->
     <g transform="translate(822.414062 486.882187) scale(0.1 -0.1)">
      <use xlink:href="#DejaVuSans-49"/>
      <use xlink:href="#DejaVuSans-6e" x="29.492188"/>
      <use xlink:href="#DejaVuSans-63" x="92.871094"/>
      <use xlink:href="#DejaVuSans-72" x="147.851562"/>
      <use xlink:href="#DejaVuSans-65" x="186.714844"/>
      <use xlink:href="#DejaVuSans-6d" x="248.238281"/>
      <use xlink:href="#DejaVuSans-65" x="345.650391"/>
      <use xlink:href="#DejaVuSans-6e" x="407.173828"/>
      <use xlink:href="#DejaVuSans-74" x="470.552734"/>
      <use xlink:href="#DejaVuSans-61" x="509.761719"/>
      <use xlink:href="#DejaVuSans-6c" x="571.041016"/>
      <use xlink:href="#DejaVuSans-20" x="598.824219"/>
      <use xlink:href="#DejaVuSans-31" x="630.611328"/>
      <use xlink:href="#DejaVuSans-30" x="694.234375"/>
     </g>
    </g>
    <g id="line2d_57">
     <path d="M 794.414062 498.060313 
L 804.414062 498.060313 
L 814.414062 498.060313 
" style="fill: none; stroke-dasharray: 5.55,2.4; stroke-dashoffset: 0; stroke: #800080; stroke-width: 1.5"/>
    </g>
    <g id="text_39">
     <!-- 100% fitness -->
     <g transform="translate(822.414062 501.560313) scale(0.1 -0.1)">
      <defs>
       <path id="DejaVuSans-25" d="M 4653 2053 
Q 4381 2053 4226 1822 
Q 4072 1591 4072 1178 
Q 4072 772 4226 539 
Q 4381 306 4653 306 
Q 4919 306 5073 539 
Q 5228 772 5228 1178 
Q 5228 1588 5073 1820 
Q 4919 2053 4653 2053 
z
M 4653 2450 
Q 5147 2450 5437 2106 
Q 5728 1763 5728 1178 
Q 5728 594 5436 251 
Q 5144 -91 4653 -91 
Q 4153 -91 3862 251 
Q 3572 594 3572 1178 
Q 3572 1766 3864 2108 
Q 4156 2450 4653 2450 
z
M 1428 4353 
Q 1159 4353 1004 4120 
Q 850 3888 850 3481 
Q 850 3069 1003 2837 
Q 1156 2606 1428 2606 
Q 1700 2606 1854 2837 
Q 2009 3069 2009 3481 
Q 2009 3884 1853 4118 
Q 1697 4353 1428 4353 
z
M 4250 4750 
L 4750 4750 
L 1831 -91 
L 1331 -91 
L 4250 4750 
z
M 1428 4750 
Q 1922 4750 2215 4408 
Q 2509 4066 2509 3481 
Q 2509 2891 2217 2550 
Q 1925 2209 1428 2209 
Q 931 2209 642 2551 
Q 353 2894 353 3481 
Q 353 4063 643 4406 
Q 934 4750 1428 4750 
z
" transform="scale(0.015625)"/>
       <path id="DejaVuSans-66" d="M 2375 4863 
L 2375 4384 
L 1825 4384 
Q 1516 4384 1395 4259 
Q 1275 4134 1275 3809 
L 1275 3500 
L 2222 3500 
L 2222 3053 
L 1275 3053 
L 1275 0 
L 697 0 
L 697 3053 
L 147 3053 
L 147 3500 
L 697 3500 
L 697 3744 
Q 697 4328 969 4595 
Q 1241 4863 1831 4863 
L 2375 4863 
z
" transform="scale(0.015625)"/>
      </defs>
      <use xlink:href="#DejaVuSans-31"/>
      <use xlink:href="#DejaVuSans-30" x="63.623047"/>
      <use xlink:href="#DejaVuSans-30" x="127.246094"/>
      <use xlink:href="#DejaVuSans-25" x="190.869141"/>
      <use xlink:href="#DejaVuSans-20" x="285.888672"/>
      <use xlink:href="#DejaVuSans-66" x="317.675781"/>
      <use xlink:href="#DejaVuSans-69" x="352.880859"/>
      <use xlink:href="#DejaVuSans-74" x="380.664062"/>
      <use xlink:href="#DejaVuSans-6e" x="419.873047"/>
      <use xlink:href="#DejaVuSans-65" x="483.251953"/>
      <use xlink:href="#DejaVuSans-73" x="544.775391"/>
      <use xlink:href="#DejaVuSans-73" x="596.875"/>
     </g>
    </g>
   </g>
  </g>
 </g>
 <defs>
  <clipPath id="p4283db0191">
   <rect x="126" y="69.12" width="781.2" height="443.52"/>
  </clipPath>
 </defs>
</svg>
