<?xml version="1.0" encoding="utf-8" standalone="no"?>
<!DOCTYPE svg PUBLIC "-//W3C//DTD SVG 1.1//EN"
  "http://www.w3.org/Graphics/SVG/1.1/DTD/svg11.dtd">
<svg xmlns:xlink="http://www.w3.org/1999/xlink" width="1008pt" height="576pt" viewBox="0 0 1008 576" xmlns="http://www.w3.org/2000/svg" version="1.1">
 <metadata>
  <rdf:RDF xmlns:dc="http://purl.org/dc/elements/1.1/" xmlns:cc="http://creativecommons.org/ns#" xmlns:rdf="http://www.w3.org/1999/02/22-rdf-syntax-ns#">
   <cc:Work>
    <dc:type rdf:resource="http://purl.org/dc/dcmitype/StillImage"/>
    <dc:date>2023-05-23T16:22:47.336737</dc:date>
    <dc:format>image/svg+xml</dc:format>
    <dc:creator>
     <cc:Agent>
      <dc:title>Matplotlib v3.6.3, https://matplotlib.org/</dc:title>
     </cc:Agent>
    </dc:creator>
   </cc:Work>
  </rdf:RDF>
 </metadata>
 <defs>
  <style type="text/css">*{stroke-linejoin: round; stroke-linecap: butt}</style>
 </defs>
 <g id="figure_1">
  <g id="patch_1">
   <path d="M 0 576 
L 1008 576 
L 1008 0 
L 0 0 
z
" style="fill: #ffffff"/>
  </g>
  <g id="axes_1">
   <g id="patch_2">
    <path d="M 126 512.64 
L 907.2 512.64 
L 907.2 69.12 
L 126 69.12 
z
" style="fill: #ffffff"/>
   </g>
   <g id="matplotlib.axis_1">
    <g id="xtick_1">
     <g id="line2d_1">
      <defs>
       <path id="m26fd933ec5" d="M 0 0 
L 0 3.5 
" style="stroke: #000000; stroke-width: 0.8"/>
      </defs>
      <g>
       <use xlink:href="#m26fd933ec5" x="161.509091" y="512.64" style="stroke: #000000; stroke-width: 0.8"/>
      </g>
     </g>
     <g id="text_1">
      <!-- 0 -->
      <g transform="translate(158.327841 527.238438) scale(0.1 -0.1)">
       <defs>
        <path id="DejaVuSans-30" d="M 2034 4250 
Q 1547 4250 1301 3770 
Q 1056 3291 1056 2328 
Q 1056 1369 1301 889 
Q 1547 409 2034 409 
Q 2525 409 2770 889 
Q 3016 1369 3016 2328 
Q 3016 3291 2770 3770 
Q 2525 4250 2034 4250 
z
M 2034 4750 
Q 2819 4750 3233 4129 
Q 3647 3509 3647 2328 
Q 3647 1150 3233 529 
Q 2819 -91 2034 -91 
Q 1250 -91 836 529 
Q 422 1150 422 2328 
Q 422 3509 836 4129 
Q 1250 4750 2034 4750 
z
" transform="scale(0.015625)"/>
       </defs>
       <use xlink:href="#DejaVuSans-30"/>
      </g>
     </g>
    </g>
    <g id="xtick_2">
     <g id="line2d_2">
      <g>
       <use xlink:href="#m26fd933ec5" x="279.951689" y="512.64" style="stroke: #000000; stroke-width: 0.8"/>
      </g>
     </g>
     <g id="text_2">
      <!-- 500 -->
      <g transform="translate(270.407939 527.238438) scale(0.1 -0.1)">
       <defs>
        <path id="DejaVuSans-35" d="M 691 4666 
L 3169 4666 
L 3169 4134 
L 1269 4134 
L 1269 2991 
Q 1406 3038 1543 3061 
Q 1681 3084 1819 3084 
Q 2600 3084 3056 2656 
Q 3513 2228 3513 1497 
Q 3513 744 3044 326 
Q 2575 -91 1722 -91 
Q 1428 -91 1123 -41 
Q 819 9 494 109 
L 494 744 
Q 775 591 1075 516 
Q 1375 441 1709 441 
Q 2250 441 2565 725 
Q 2881 1009 2881 1497 
Q 2881 1984 2565 2268 
Q 2250 2553 1709 2553 
Q 1456 2553 1204 2497 
Q 953 2441 691 2322 
L 691 4666 
z
" transform="scale(0.015625)"/>
       </defs>
       <use xlink:href="#DejaVuSans-35"/>
       <use xlink:href="#DejaVuSans-30" x="63.623047"/>
       <use xlink:href="#DejaVuSans-30" x="127.246094"/>
      </g>
     </g>
    </g>
    <g id="xtick_3">
     <g id="line2d_3">
      <g>
       <use xlink:href="#m26fd933ec5" x="398.394287" y="512.64" style="stroke: #000000; stroke-width: 0.8"/>
      </g>
     </g>
     <g id="text_3">
      <!-- 1000 -->
      <g transform="translate(385.669287 527.238438) scale(0.1 -0.1)">
       <defs>
        <path id="DejaVuSans-31" d="M 794 531 
L 1825 531 
L 1825 4091 
L 703 3866 
L 703 4441 
L 1819 4666 
L 2450 4666 
L 2450 531 
L 3481 531 
L 3481 0 
L 794 0 
L 794 531 
z
" transform="scale(0.015625)"/>
       </defs>
       <use xlink:href="#DejaVuSans-31"/>
       <use xlink:href="#DejaVuSans-30" x="63.623047"/>
       <use xlink:href="#DejaVuSans-30" x="127.246094"/>
       <use xlink:href="#DejaVuSans-30" x="190.869141"/>
      </g>
     </g>
    </g>
    <g id="xtick_4">
     <g id="line2d_4">
      <g>
       <use xlink:href="#m26fd933ec5" x="516.836885" y="512.64" style="stroke: #000000; stroke-width: 0.8"/>
      </g>
     </g>
     <g id="text_4">
      <!-- 1500 -->
      <g transform="translate(504.111885 527.238438) scale(0.1 -0.1)">
       <use xlink:href="#DejaVuSans-31"/>
       <use xlink:href="#DejaVuSans-35" x="63.623047"/>
       <use xlink:href="#DejaVuSans-30" x="127.246094"/>
       <use xlink:href="#DejaVuSans-30" x="190.869141"/>
      </g>
     </g>
    </g>
    <g id="xtick_5">
     <g id="line2d_5">
      <g>
       <use xlink:href="#m26fd933ec5" x="635.279483" y="512.64" style="stroke: #000000; stroke-width: 0.8"/>
      </g>
     </g>
     <g id="text_5">
      <!-- 2000 -->
      <g transform="translate(622.554483 527.238438) scale(0.1 -0.1)">
       <defs>
        <path id="DejaVuSans-32" d="M 1228 531 
L 3431 531 
L 3431 0 
L 469 0 
L 469 531 
Q 828 903 1448 1529 
Q 2069 2156 2228 2338 
Q 2531 2678 2651 2914 
Q 2772 3150 2772 3378 
Q 2772 3750 2511 3984 
Q 2250 4219 1831 4219 
Q 1534 4219 1204 4116 
Q 875 4013 500 3803 
L 500 4441 
Q 881 4594 1212 4672 
Q 1544 4750 1819 4750 
Q 2544 4750 2975 4387 
Q 3406 4025 3406 3419 
Q 3406 3131 3298 2873 
Q 3191 2616 2906 2266 
Q 2828 2175 2409 1742 
Q 1991 1309 1228 531 
z
" transform="scale(0.015625)"/>
       </defs>
       <use xlink:href="#DejaVuSans-32"/>
       <use xlink:href="#DejaVuSans-30" x="63.623047"/>
       <use xlink:href="#DejaVuSans-30" x="127.246094"/>
       <use xlink:href="#DejaVuSans-30" x="190.869141"/>
      </g>
     </g>
    </g>
    <g id="xtick_6">
     <g id="line2d_6">
      <g>
       <use xlink:href="#m26fd933ec5" x="753.722081" y="512.64" style="stroke: #000000; stroke-width: 0.8"/>
      </g>
     </g>
     <g id="text_6">
      <!-- 2500 -->
      <g transform="translate(740.997081 527.238438) scale(0.1 -0.1)">
       <use xlink:href="#DejaVuSans-32"/>
       <use xlink:href="#DejaVuSans-35" x="63.623047"/>
       <use xlink:href="#DejaVuSans-30" x="127.246094"/>
       <use xlink:href="#DejaVuSans-30" x="190.869141"/>
      </g>
     </g>
    </g>
    <g id="xtick_7">
     <g id="line2d_7">
      <g>
       <use xlink:href="#m26fd933ec5" x="872.164679" y="512.64" style="stroke: #000000; stroke-width: 0.8"/>
      </g>
     </g>
     <g id="text_7">
      <!-- 3000 -->
      <g transform="translate(859.439679 527.238438) scale(0.1 -0.1)">
       <defs>
        <path id="DejaVuSans-33" d="M 2597 2516 
Q 3050 2419 3304 2112 
Q 3559 1806 3559 1356 
Q 3559 666 3084 287 
Q 2609 -91 1734 -91 
Q 1441 -91 1130 -33 
Q 819 25 488 141 
L 488 750 
Q 750 597 1062 519 
Q 1375 441 1716 441 
Q 2309 441 2620 675 
Q 2931 909 2931 1356 
Q 2931 1769 2642 2001 
Q 2353 2234 1838 2234 
L 1294 2234 
L 1294 2753 
L 1863 2753 
Q 2328 2753 2575 2939 
Q 2822 3125 2822 3475 
Q 2822 3834 2567 4026 
Q 2313 4219 1838 4219 
Q 1578 4219 1281 4162 
Q 984 4106 628 3988 
L 628 4550 
Q 988 4650 1302 4700 
Q 1616 4750 1894 4750 
Q 2613 4750 3031 4423 
Q 3450 4097 3450 3541 
Q 3450 3153 3228 2886 
Q 3006 2619 2597 2516 
z
" transform="scale(0.015625)"/>
       </defs>
       <use xlink:href="#DejaVuSans-33"/>
       <use xlink:href="#DejaVuSans-30" x="63.623047"/>
       <use xlink:href="#DejaVuSans-30" x="127.246094"/>
       <use xlink:href="#DejaVuSans-30" x="190.869141"/>
      </g>
     </g>
    </g>
    <g id="text_8">
     <!-- Generation -->
     <g transform="translate(466.392656 546.995312) scale(0.18 -0.18)">
      <defs>
       <path id="DejaVuSans-47" d="M 3809 666 
L 3809 1919 
L 2778 1919 
L 2778 2438 
L 4434 2438 
L 4434 434 
Q 4069 175 3628 42 
Q 3188 -91 2688 -91 
Q 1594 -91 976 548 
Q 359 1188 359 2328 
Q 359 3472 976 4111 
Q 1594 4750 2688 4750 
Q 3144 4750 3555 4637 
Q 3966 4525 4313 4306 
L 4313 3634 
Q 3963 3931 3569 4081 
Q 3175 4231 2741 4231 
Q 1884 4231 1454 3753 
Q 1025 3275 1025 2328 
Q 1025 1384 1454 906 
Q 1884 428 2741 428 
Q 3075 428 3337 486 
Q 3600 544 3809 666 
z
" transform="scale(0.015625)"/>
       <path id="DejaVuSans-65" d="M 3597 1894 
L 3597 1613 
L 953 1613 
Q 991 1019 1311 708 
Q 1631 397 2203 397 
Q 2534 397 2845 478 
Q 3156 559 3463 722 
L 3463 178 
Q 3153 47 2828 -22 
Q 2503 -91 2169 -91 
Q 1331 -91 842 396 
Q 353 884 353 1716 
Q 353 2575 817 3079 
Q 1281 3584 2069 3584 
Q 2775 3584 3186 3129 
Q 3597 2675 3597 1894 
z
M 3022 2063 
Q 3016 2534 2758 2815 
Q 2500 3097 2075 3097 
Q 1594 3097 1305 2825 
Q 1016 2553 972 2059 
L 3022 2063 
z
" transform="scale(0.015625)"/>
       <path id="DejaVuSans-6e" d="M 3513 2113 
L 3513 0 
L 2938 0 
L 2938 2094 
Q 2938 2591 2744 2837 
Q 2550 3084 2163 3084 
Q 1697 3084 1428 2787 
Q 1159 2491 1159 1978 
L 1159 0 
L 581 0 
L 581 3500 
L 1159 3500 
L 1159 2956 
Q 1366 3272 1645 3428 
Q 1925 3584 2291 3584 
Q 2894 3584 3203 3211 
Q 3513 2838 3513 2113 
z
" transform="scale(0.015625)"/>
       <path id="DejaVuSans-72" d="M 2631 2963 
Q 2534 3019 2420 3045 
Q 2306 3072 2169 3072 
Q 1681 3072 1420 2755 
Q 1159 2438 1159 1844 
L 1159 0 
L 581 0 
L 581 3500 
L 1159 3500 
L 1159 2956 
Q 1341 3275 1631 3429 
Q 1922 3584 2338 3584 
Q 2397 3584 2469 3576 
Q 2541 3569 2628 3553 
L 2631 2963 
z
" transform="scale(0.015625)"/>
       <path id="DejaVuSans-61" d="M 2194 1759 
Q 1497 1759 1228 1600 
Q 959 1441 959 1056 
Q 959 750 1161 570 
Q 1363 391 1709 391 
Q 2188 391 2477 730 
Q 2766 1069 2766 1631 
L 2766 1759 
L 2194 1759 
z
M 3341 1997 
L 3341 0 
L 2766 0 
L 2766 531 
Q 2569 213 2275 61 
Q 1981 -91 1556 -91 
Q 1019 -91 701 211 
Q 384 513 384 1019 
Q 384 1609 779 1909 
Q 1175 2209 1959 2209 
L 2766 2209 
L 2766 2266 
Q 2766 2663 2505 2880 
Q 2244 3097 1772 3097 
Q 1472 3097 1187 3025 
Q 903 2953 641 2809 
L 641 3341 
Q 956 3463 1253 3523 
Q 1550 3584 1831 3584 
Q 2591 3584 2966 3190 
Q 3341 2797 3341 1997 
z
" transform="scale(0.015625)"/>
       <path id="DejaVuSans-74" d="M 1172 4494 
L 1172 3500 
L 2356 3500 
L 2356 3053 
L 1172 3053 
L 1172 1153 
Q 1172 725 1289 603 
Q 1406 481 1766 481 
L 2356 481 
L 2356 0 
L 1766 0 
Q 1100 0 847 248 
Q 594 497 594 1153 
L 594 3053 
L 172 3053 
L 172 3500 
L 594 3500 
L 594 4494 
L 1172 4494 
z
" transform="scale(0.015625)"/>
       <path id="DejaVuSans-69" d="M 603 3500 
L 1178 3500 
L 1178 0 
L 603 0 
L 603 3500 
z
M 603 4863 
L 1178 4863 
L 1178 4134 
L 603 4134 
L 603 4863 
z
" transform="scale(0.015625)"/>
       <path id="DejaVuSans-6f" d="M 1959 3097 
Q 1497 3097 1228 2736 
Q 959 2375 959 1747 
Q 959 1119 1226 758 
Q 1494 397 1959 397 
Q 2419 397 2687 759 
Q 2956 1122 2956 1747 
Q 2956 2369 2687 2733 
Q 2419 3097 1959 3097 
z
M 1959 3584 
Q 2709 3584 3137 3096 
Q 3566 2609 3566 1747 
Q 3566 888 3137 398 
Q 2709 -91 1959 -91 
Q 1206 -91 779 398 
Q 353 888 353 1747 
Q 353 2609 779 3096 
Q 1206 3584 1959 3584 
z
" transform="scale(0.015625)"/>
      </defs>
      <use xlink:href="#DejaVuSans-47"/>
      <use xlink:href="#DejaVuSans-65" x="77.490234"/>
      <use xlink:href="#DejaVuSans-6e" x="139.013672"/>
      <use xlink:href="#DejaVuSans-65" x="202.392578"/>
      <use xlink:href="#DejaVuSans-72" x="263.916016"/>
      <use xlink:href="#DejaVuSans-61" x="305.029297"/>
      <use xlink:href="#DejaVuSans-74" x="366.308594"/>
      <use xlink:href="#DejaVuSans-69" x="405.517578"/>
      <use xlink:href="#DejaVuSans-6f" x="433.300781"/>
      <use xlink:href="#DejaVuSans-6e" x="494.482422"/>
     </g>
    </g>
   </g>
   <g id="matplotlib.axis_2">
    <g id="ytick_1">
     <g id="line2d_8">
      <defs>
       <path id="ma7b5204df3" d="M 0 0 
L -3.5 0 
" style="stroke: #000000; stroke-width: 0.8"/>
      </defs>
      <g>
       <use xlink:href="#ma7b5204df3" x="126" y="445.044706" style="stroke: #000000; stroke-width: 0.8"/>
      </g>
     </g>
     <g id="text_9">
      <!-- 20 -->
      <g transform="translate(106.275 448.843925) scale(0.1 -0.1)">
       <use xlink:href="#DejaVuSans-32"/>
       <use xlink:href="#DejaVuSans-30" x="63.623047"/>
      </g>
     </g>
    </g>
    <g id="ytick_2">
     <g id="line2d_9">
      <g>
       <use xlink:href="#ma7b5204df3" x="126" y="365.985882" style="stroke: #000000; stroke-width: 0.8"/>
      </g>
     </g>
     <g id="text_10">
      <!-- 40 -->
      <g transform="translate(106.275 369.785101) scale(0.1 -0.1)">
       <defs>
        <path id="DejaVuSans-34" d="M 2419 4116 
L 825 1625 
L 2419 1625 
L 2419 4116 
z
M 2253 4666 
L 3047 4666 
L 3047 1625 
L 3713 1625 
L 3713 1100 
L 3047 1100 
L 3047 0 
L 2419 0 
L 2419 1100 
L 313 1100 
L 313 1709 
L 2253 4666 
z
" transform="scale(0.015625)"/>
       </defs>
       <use xlink:href="#DejaVuSans-34"/>
       <use xlink:href="#DejaVuSans-30" x="63.623047"/>
      </g>
     </g>
    </g>
    <g id="ytick_3">
     <g id="line2d_10">
      <g>
       <use xlink:href="#ma7b5204df3" x="126" y="286.927059" style="stroke: #000000; stroke-width: 0.8"/>
      </g>
     </g>
     <g id="text_11">
      <!-- 60 -->
      <g transform="translate(106.275 290.726278) scale(0.1 -0.1)">
       <defs>
        <path id="DejaVuSans-36" d="M 2113 2584 
Q 1688 2584 1439 2293 
Q 1191 2003 1191 1497 
Q 1191 994 1439 701 
Q 1688 409 2113 409 
Q 2538 409 2786 701 
Q 3034 994 3034 1497 
Q 3034 2003 2786 2293 
Q 2538 2584 2113 2584 
z
M 3366 4563 
L 3366 3988 
Q 3128 4100 2886 4159 
Q 2644 4219 2406 4219 
Q 1781 4219 1451 3797 
Q 1122 3375 1075 2522 
Q 1259 2794 1537 2939 
Q 1816 3084 2150 3084 
Q 2853 3084 3261 2657 
Q 3669 2231 3669 1497 
Q 3669 778 3244 343 
Q 2819 -91 2113 -91 
Q 1303 -91 875 529 
Q 447 1150 447 2328 
Q 447 3434 972 4092 
Q 1497 4750 2381 4750 
Q 2619 4750 2861 4703 
Q 3103 4656 3366 4563 
z
" transform="scale(0.015625)"/>
       </defs>
       <use xlink:href="#DejaVuSans-36"/>
       <use xlink:href="#DejaVuSans-30" x="63.623047"/>
      </g>
     </g>
    </g>
    <g id="ytick_4">
     <g id="line2d_11">
      <g>
       <use xlink:href="#ma7b5204df3" x="126" y="207.868235" style="stroke: #000000; stroke-width: 0.8"/>
      </g>
     </g>
     <g id="text_12">
      <!-- 80 -->
      <g transform="translate(106.275 211.667454) scale(0.1 -0.1)">
       <defs>
        <path id="DejaVuSans-38" d="M 2034 2216 
Q 1584 2216 1326 1975 
Q 1069 1734 1069 1313 
Q 1069 891 1326 650 
Q 1584 409 2034 409 
Q 2484 409 2743 651 
Q 3003 894 3003 1313 
Q 3003 1734 2745 1975 
Q 2488 2216 2034 2216 
z
M 1403 2484 
Q 997 2584 770 2862 
Q 544 3141 544 3541 
Q 544 4100 942 4425 
Q 1341 4750 2034 4750 
Q 2731 4750 3128 4425 
Q 3525 4100 3525 3541 
Q 3525 3141 3298 2862 
Q 3072 2584 2669 2484 
Q 3125 2378 3379 2068 
Q 3634 1759 3634 1313 
Q 3634 634 3220 271 
Q 2806 -91 2034 -91 
Q 1263 -91 848 271 
Q 434 634 434 1313 
Q 434 1759 690 2068 
Q 947 2378 1403 2484 
z
M 1172 3481 
Q 1172 3119 1398 2916 
Q 1625 2713 2034 2713 
Q 2441 2713 2670 2916 
Q 2900 3119 2900 3481 
Q 2900 3844 2670 4047 
Q 2441 4250 2034 4250 
Q 1625 4250 1398 4047 
Q 1172 3844 1172 3481 
z
" transform="scale(0.015625)"/>
       </defs>
       <use xlink:href="#DejaVuSans-38"/>
       <use xlink:href="#DejaVuSans-30" x="63.623047"/>
      </g>
     </g>
    </g>
    <g id="ytick_5">
     <g id="line2d_12">
      <g>
       <use xlink:href="#ma7b5204df3" x="126" y="128.809412" style="stroke: #000000; stroke-width: 0.8"/>
      </g>
     </g>
     <g id="text_13">
      <!-- 100 -->
      <g transform="translate(99.9125 132.608631) scale(0.1 -0.1)">
       <use xlink:href="#DejaVuSans-31"/>
       <use xlink:href="#DejaVuSans-30" x="63.623047"/>
       <use xlink:href="#DejaVuSans-30" x="127.246094"/>
      </g>
     </g>
    </g>
    <g id="text_14">
     <!-- Fitness -->
     <g transform="translate(92.585 318.5875) rotate(-90) scale(0.16 -0.16)">
      <defs>
       <path id="DejaVuSans-46" d="M 628 4666 
L 3309 4666 
L 3309 4134 
L 1259 4134 
L 1259 2759 
L 3109 2759 
L 3109 2228 
L 1259 2228 
L 1259 0 
L 628 0 
L 628 4666 
z
" transform="scale(0.015625)"/>
       <path id="DejaVuSans-73" d="M 2834 3397 
L 2834 2853 
Q 2591 2978 2328 3040 
Q 2066 3103 1784 3103 
Q 1356 3103 1142 2972 
Q 928 2841 928 2578 
Q 928 2378 1081 2264 
Q 1234 2150 1697 2047 
L 1894 2003 
Q 2506 1872 2764 1633 
Q 3022 1394 3022 966 
Q 3022 478 2636 193 
Q 2250 -91 1575 -91 
Q 1294 -91 989 -36 
Q 684 19 347 128 
L 347 722 
Q 666 556 975 473 
Q 1284 391 1588 391 
Q 1994 391 2212 530 
Q 2431 669 2431 922 
Q 2431 1156 2273 1281 
Q 2116 1406 1581 1522 
L 1381 1569 
Q 847 1681 609 1914 
Q 372 2147 372 2553 
Q 372 3047 722 3315 
Q 1072 3584 1716 3584 
Q 2034 3584 2315 3537 
Q 2597 3491 2834 3397 
z
" transform="scale(0.015625)"/>
      </defs>
      <use xlink:href="#DejaVuSans-46"/>
      <use xlink:href="#DejaVuSans-69" x="50.269531"/>
      <use xlink:href="#DejaVuSans-74" x="78.052734"/>
      <use xlink:href="#DejaVuSans-6e" x="117.261719"/>
      <use xlink:href="#DejaVuSans-65" x="180.640625"/>
      <use xlink:href="#DejaVuSans-73" x="242.164062"/>
      <use xlink:href="#DejaVuSans-73" x="294.263672"/>
     </g>
    </g>
   </g>
   <g id="line2d_13">
    <path d="M 320.222172 476.668235 
L 320.459058 448.997647 
L 320.695943 441.091765 
L 320.932828 441.091765 
L 321.169713 385.750588 
L 321.643484 385.750588 
L 321.880369 342.268235 
L 324.249221 342.268235 
L 324.486106 314.597647 
L 326.144302 314.597647 
L 326.381187 255.303529 
L 331.118891 255.303529 
L 331.355777 235.538824 
L 331.829547 235.538824 
L 332.066432 199.962353 
L 334.909055 199.962353 
L 335.14594 184.150588 
L 350.780363 184.150588 
L 351.017248 164.385882 
L 360.729541 164.385882 
L 360.966426 152.527059 
L 364.045934 152.527059 
L 364.282819 148.574118 
L 375.416423 148.574118 
L 375.653308 144.621176 
L 376.600849 144.621176 
L 376.837734 136.715294 
L 404.316417 136.715294 
L 404.553302 132.762353 
L 420.661496 132.762353 
L 420.898381 105.091765 
L 602.352441 105.091765 
L 602.589326 97.185882 
L 871.690909 97.185882 
L 871.690909 97.185882 
" clip-path="url(#p2857c5af09)" style="fill: none; stroke: #08306b; stroke-width: 1.5; stroke-linecap: square"/>
   </g>
   <g id="line2d_14">
    <path d="M 318.800861 472.715294 
L 319.037746 460.856471 
L 319.274632 456.903529 
L 320.222172 456.903529 
L 320.459058 452.950588 
L 320.932828 452.950588 
L 321.169713 381.797647 
L 321.643484 381.797647 
L 322.117254 326.456471 
L 322.354139 326.456471 
L 322.591024 302.738824 
L 324.012335 302.738824 
L 324.722991 259.256471 
L 325.196761 259.256471 
L 325.433647 247.397647 
L 327.091843 247.397647 
L 327.328728 239.491765 
L 327.565613 239.491765 
L 327.802499 231.585882 
L 335.382825 231.585882 
L 335.61971 223.68 
L 335.856595 223.68 
L 336.093481 219.727059 
L 345.095118 219.727059 
L 345.332003 215.774118 
L 351.964789 215.774118 
L 352.201674 207.868235 
L 368.072982 207.868235 
L 368.309867 203.915294 
L 387.734453 203.915294 
L 387.971338 199.962353 
L 418.766414 199.962353 
L 419.003299 196.009412 
L 425.399199 196.009412 
L 425.636085 188.103529 
L 501.202462 188.103529 
L 501.439347 168.338824 
L 722.927006 168.338824 
L 723.163891 164.385882 
L 737.850773 164.385882 
L 738.087658 156.48 
L 739.98274 156.48 
L 740.219625 152.527059 
L 753.248311 152.527059 
L 753.485196 148.574118 
L 823.840099 148.574118 
L 824.076985 144.621176 
L 871.690909 144.621176 
L 871.690909 144.621176 
" clip-path="url(#p2857c5af09)" style="fill: none; stroke: #084488; stroke-width: 1.5; stroke-linecap: square"/>
   </g>
   <g id="line2d_15">
    <path d="M 230.679568 480.621176 
L 230.916453 464.809412 
L 231.153339 464.809412 
L 231.390224 346.221176 
L 232.100879 346.221176 
L 232.337765 314.597647 
L 232.57465 314.597647 
L 232.811535 279.021176 
L 233.759076 279.021176 
L 233.995961 271.115294 
L 236.838583 271.115294 
L 237.075468 251.350588 
L 237.549239 251.350588 
L 237.786124 235.538824 
L 238.259894 235.538824 
L 238.49678 219.727059 
L 240.391861 219.727059 
L 240.628746 215.774118 
L 241.576287 215.774118 
L 241.813172 188.103529 
L 243.708254 188.103529 
L 243.945139 176.244706 
L 249.867269 176.244706 
L 250.104154 140.668235 
L 306.956601 140.668235 
L 307.193487 132.762353 
L 359.071345 132.762353 
L 359.30823 124.856471 
L 384.418061 124.856471 
L 384.654946 120.903529 
L 527.733604 120.903529 
L 527.970489 112.997647 
L 674.602426 112.997647 
L 674.839311 109.044706 
L 698.527831 109.044706 
L 698.764716 105.091765 
L 780.963879 105.091765 
L 781.200764 97.185882 
L 871.690909 97.185882 
L 871.690909 97.185882 
" clip-path="url(#p2857c5af09)" style="fill: none; stroke: #0e58a2; stroke-width: 1.5; stroke-linecap: square"/>
   </g>
   <g id="line2d_16">
    <path d="M 279.951689 290.88 
L 280.188574 290.88 
L 280.425459 275.068235 
L 290.374638 275.068235 
L 290.611523 251.350588 
L 291.322178 251.350588 
L 291.559064 243.444706 
L 320.459058 243.444706 
L 320.695943 239.491765 
L 320.932828 239.491765 
L 321.169713 231.585882 
L 332.066432 231.585882 
L 332.303317 219.727059 
L 374.942653 219.727059 
L 375.179538 199.962353 
L 381.812323 199.962353 
L 382.049209 196.009412 
L 382.759864 196.009412 
L 382.996749 188.103529 
L 386.076257 188.103529 
L 386.313142 176.244706 
L 403.368876 176.244706 
L 403.605761 168.338824 
L 423.977888 168.338824 
L 424.214773 148.574118 
L 426.109855 148.574118 
L 426.34674 132.762353 
L 428.478707 132.762353 
L 428.715592 124.856471 
L 429.900018 124.856471 
L 430.136903 120.903529 
L 437.243459 120.903529 
L 437.480344 116.950588 
L 467.090994 116.950588 
L 467.327879 109.044706 
L 500.965577 109.044706 
L 501.202462 105.091765 
L 567.056547 105.091765 
L 567.293432 101.138824 
L 871.690909 101.138824 
L 871.690909 101.138824 
" clip-path="url(#p2857c5af09)" style="fill: none; stroke: #1d6cb1; stroke-width: 1.5; stroke-linecap: square"/>
   </g>
   <g id="line2d_17">
    <path d="M 440.322967 405.515294 
L 440.559852 405.515294 
L 440.796737 377.844706 
L 442.928704 377.844706 
L 443.165589 365.985882 
L 444.11313 365.985882 
L 444.350015 362.032941 
L 445.297556 362.032941 
L 445.534441 354.127059 
L 445.771326 322.503529 
L 446.718867 322.503529 
L 446.955752 318.550588 
L 447.666408 318.550588 
L 447.903293 290.88 
L 448.377063 290.88 
L 448.613949 286.927059 
L 449.087719 286.927059 
L 449.324604 279.021176 
L 449.798375 279.021176 
L 450.03526 259.256471 
L 450.272145 219.727059 
L 483.199187 219.727059 
L 483.436073 215.774118 
L 492.91148 215.774118 
L 493.148366 211.821176 
L 512.336066 211.821176 
L 512.572952 207.868235 
L 515.889344 207.868235 
L 516.12623 203.915294 
L 524.890982 203.915294 
L 525.127867 199.962353 
L 553.317205 199.962353 
L 553.554091 196.009412 
L 561.608187 196.009412 
L 561.845072 188.103529 
L 571.557366 188.103529 
L 571.794251 184.150588 
L 579.374577 184.150588 
L 579.611462 180.197647 
L 591.455722 180.197647 
L 591.692607 176.244706 
L 608.274571 176.244706 
L 608.511456 172.291765 
L 648.308169 172.291765 
L 648.545054 164.385882 
L 659.915544 164.385882 
L 660.152429 160.432941 
L 871.690909 160.432941 
L 871.690909 160.432941 
" clip-path="url(#p2857c5af09)" style="fill: none; stroke: #3181bd; stroke-width: 1.5; stroke-linecap: square"/>
   </g>
   <g id="line2d_18">
    <path d="M 437.243459 239.491765 
L 437.480344 199.962353 
L 437.71723 199.962353 
L 437.954115 196.009412 
L 440.322967 196.009412 
L 440.559852 188.103529 
L 448.613949 188.103529 
L 448.850834 184.150588 
L 455.483619 184.150588 
L 455.720505 176.244706 
L 469.696731 176.244706 
L 469.933616 168.338824 
L 482.962302 168.338824 
L 483.199187 152.527059 
L 511.625411 152.527059 
L 511.862296 148.574118 
L 588.376214 148.574118 
L 588.6131 136.715294 
L 606.379489 136.715294 
L 606.616375 132.762353 
L 871.690909 132.762353 
L 871.690909 132.762353 
" clip-path="url(#p2857c5af09)" style="fill: none; stroke: #4695c8; stroke-width: 1.5; stroke-linecap: square"/>
   </g>
   <g id="line2d_19">
    <path d="M 309.799224 484.574118 
L 310.036109 460.856471 
L 310.272994 460.856471 
L 310.509879 445.044706 
L 310.746765 445.044706 
L 310.98365 385.750588 
L 311.45742 385.750588 
L 311.694305 302.738824 
L 311.93119 302.738824 
L 312.168076 263.209412 
L 312.404961 247.397647 
L 317.85332 247.397647 
L 318.090206 199.962353 
L 329.69758 199.962353 
L 329.934465 172.291765 
L 331.118891 172.291765 
L 331.355777 164.385882 
L 338.225447 164.385882 
L 338.462332 160.432941 
L 353.85987 160.432941 
L 354.096755 148.574118 
L 381.812323 148.574118 
L 382.049209 140.668235 
L 467.80165 140.668235 
L 468.038535 132.762353 
L 494.332792 132.762353 
L 494.569677 124.856471 
L 644.281121 124.856471 
L 644.518006 120.903529 
L 716.057335 120.903529 
L 716.29422 109.044706 
L 871.690909 109.044706 
L 871.690909 109.044706 
" clip-path="url(#p2857c5af09)" style="fill: none; stroke: #60a7d2; stroke-width: 1.5; stroke-linecap: square"/>
   </g>
   <g id="line2d_20">
    <path d="M 193.488592 369.938824 
L 193.725478 350.174118 
L 196.331215 350.174118 
L 196.5681 334.362353 
L 200.595148 334.362353 
L 200.832033 243.444706 
L 212.202523 243.444706 
L 212.439408 211.821176 
L 212.676293 211.821176 
L 212.913178 188.103529 
L 213.150064 188.103529 
L 213.386949 172.291765 
L 224.283668 172.291765 
L 224.520553 168.338824 
L 224.757438 168.338824 
L 224.994323 148.574118 
L 240.391861 148.574118 
L 240.628746 140.668235 
L 264.791036 140.668235 
L 265.027922 136.715294 
L 267.633659 136.715294 
L 267.870544 124.856471 
L 288.479556 124.856471 
L 288.716441 120.903529 
L 290.848408 120.903529 
L 291.085293 109.044706 
L 366.1779 109.044706 
L 366.414786 105.091765 
L 368.309867 105.091765 
L 368.546752 97.185882 
L 395.077894 97.185882 
L 395.31478 93.232941 
L 605.905719 93.232941 
L 606.142604 89.28 
L 871.690909 89.28 
L 871.690909 89.28 
" clip-path="url(#p2857c5af09)" style="fill: none; stroke: #7db8da; stroke-width: 1.5; stroke-linecap: square"/>
   </g>
   <g id="line2d_21">
    <path d="M 456.43116 377.844706 
L 456.668045 377.844706 
L 456.904931 354.127059 
L 457.141816 354.127059 
L 457.378701 314.597647 
L 457.852471 314.597647 
L 458.089357 282.974118 
L 458.326242 282.974118 
L 458.563127 275.068235 
L 458.800012 275.068235 
L 459.036897 247.397647 
L 462.116405 247.397647 
L 462.35329 231.585882 
L 465.195912 231.585882 
L 465.432798 207.868235 
L 477.750828 207.868235 
L 477.987713 172.291765 
L 524.180326 172.291765 
L 524.417211 140.668235 
L 585.533592 140.668235 
L 585.770477 132.762353 
L 716.29422 132.762353 
L 716.531106 124.856471 
L 723.637661 124.856471 
L 723.874547 109.044706 
L 871.690909 109.044706 
L 871.690909 109.044706 
" clip-path="url(#p2857c5af09)" style="fill: none; stroke: #9dcae1; stroke-width: 1.5; stroke-linecap: square"/>
   </g>
   <g id="line2d_22">
    <path d="M 290.611523 354.127059 
L 290.848408 279.021176 
L 291.085293 267.162353 
L 292.74349 267.162353 
L 292.980375 239.491765 
L 296.059882 239.491765 
L 296.296768 215.774118 
L 296.533653 215.774118 
L 296.770538 180.197647 
L 297.718079 180.197647 
L 297.954964 152.527059 
L 299.376275 152.527059 
L 299.61316 148.574118 
L 300.323816 148.574118 
L 300.560701 140.668235 
L 303.403323 140.668235 
L 303.640209 132.762353 
L 306.956601 132.762353 
L 307.193487 120.903529 
L 319.748402 120.903529 
L 319.985287 112.997647 
L 337.041021 112.997647 
L 337.277906 101.138824 
L 700.896683 101.138824 
L 701.133568 97.185882 
L 871.690909 97.185882 
L 871.690909 97.185882 
" clip-path="url(#p2857c5af09)" style="fill: none; stroke: #b7d4ea; stroke-width: 1.5; stroke-linecap: square"/>
   </g>
   <g id="line2d_23">
    <path d="M 161.509091 488.527059 
L 161.745976 476.668235 
L 161.982861 476.668235 
L 162.219746 468.762353 
L 163.167287 468.762353 
L 163.404172 464.809412 
L 164.825484 464.809412 
L 165.299254 338.315294 
L 166.00991 338.315294 
L 166.246795 330.409412 
L 166.48368 326.456471 
L 166.720565 298.785882 
L 168.615647 298.785882 
L 168.852532 294.832941 
L 175.011547 294.832941 
L 175.248432 290.88 
L 180.696792 290.88 
L 180.933677 286.927059 
L 184.960725 286.927059 
L 185.197611 275.068235 
L 187.092692 275.068235 
L 187.329577 251.350588 
L 189.224659 251.350588 
L 189.461544 247.397647 
L 205.569737 247.397647 
L 205.806623 239.491765 
L 211.254982 239.491765 
L 211.491867 231.585882 
L 211.728753 231.585882 
L 211.965638 219.727059 
L 214.571375 219.727059 
L 214.80826 211.821176 
L 220.019734 211.821176 
L 220.25662 199.962353 
L 226.889405 199.962353 
L 227.12629 184.150588 
L 279.951689 184.150588 
L 280.188574 180.197647 
L 379.917242 180.197647 
L 380.154127 176.244706 
L 427.768051 176.244706 
L 428.004937 172.291765 
L 438.66477 172.291765 
L 438.901656 168.338824 
L 468.038535 168.338824 
L 468.27542 160.432941 
L 475.618861 160.432941 
L 475.855746 156.48 
L 478.461483 156.48 
L 478.698369 144.621176 
L 871.690909 144.621176 
L 871.690909 144.621176 
" clip-path="url(#p2857c5af09)" style="fill: none; stroke: #7f2704; stroke-width: 1.5; stroke-linecap: square"/>
   </g>
   <g id="line2d_24">
    <path d="M 161.509091 492.48 
L 161.745976 492.48 
L 161.982861 468.762353 
L 162.219746 468.762353 
L 162.456632 460.856471 
L 162.693517 460.856471 
L 162.930402 448.997647 
L 163.877943 448.997647 
L 164.114828 425.28 
L 167.904991 425.28 
L 168.141876 421.327059 
L 168.378762 358.08 
L 169.326302 358.08 
L 169.563188 346.221176 
L 192.067281 346.221176 
L 192.304166 334.362353 
L 201.305804 334.362353 
L 201.542689 290.88 
L 220.25662 290.88 
L 220.493505 267.162353 
L 240.391861 267.162353 
L 240.628746 263.209412 
L 266.923003 263.209412 
L 267.159888 251.350588 
L 267.396774 227.632941 
L 277.582837 227.632941 
L 277.819722 196.009412 
L 360.018885 196.009412 
L 360.255771 192.056471 
L 542.420486 192.056471 
L 542.657372 188.103529 
L 635.753254 188.103529 
L 635.990139 180.197647 
L 871.690909 180.197647 
L 871.690909 180.197647 
" clip-path="url(#p2857c5af09)" style="fill: none; stroke: #963003; stroke-width: 1.5; stroke-linecap: square"/>
   </g>
   <g id="line2d_25">
    <path d="M 161.509091 484.574118 
L 161.745976 484.574118 
L 162.219746 468.762353 
L 162.456632 468.762353 
L 162.693517 464.809412 
L 163.404172 464.809412 
L 163.641058 452.950588 
L 164.825484 452.950588 
L 165.062369 433.185882 
L 166.246795 433.185882 
L 166.48368 389.703529 
L 168.852532 389.703529 
L 169.089417 377.844706 
L 169.800073 377.844706 
L 170.036958 306.691765 
L 170.273843 306.691765 
L 170.510728 279.021176 
L 170.747614 279.021176 
L 170.984499 275.068235 
L 172.168925 275.068235 
L 172.40581 247.397647 
L 172.87958 247.397647 
L 173.116466 239.491765 
L 173.353351 239.491765 
L 173.590236 235.538824 
L 175.485317 235.538824 
L 175.722203 231.585882 
L 176.195973 231.585882 
L 176.432858 196.009412 
L 236.838583 196.009412 
L 237.075468 184.150588 
L 240.628746 184.150588 
L 240.865632 176.244706 
L 241.102517 176.244706 
L 241.339402 172.291765 
L 242.997598 172.291765 
L 243.234484 168.338824 
L 247.498417 168.338824 
L 247.735302 140.668235 
L 324.722991 140.668235 
L 324.959876 128.809412 
L 681.472097 128.809412 
L 681.708982 120.903529 
L 871.690909 120.903529 
L 871.690909 120.903529 
" clip-path="url(#p2857c5af09)" style="fill: none; stroke: #b13a03; stroke-width: 1.5; stroke-linecap: square"/>
   </g>
   <g id="line2d_26">
    <path d="M 161.509091 488.527059 
L 162.219746 488.527059 
L 162.456632 484.574118 
L 162.693517 468.762353 
L 163.167287 468.762353 
L 163.641058 460.856471 
L 164.351713 460.856471 
L 164.588598 429.232941 
L 166.48368 429.232941 
L 166.95745 389.703529 
L 167.194336 389.703529 
L 167.431221 354.127059 
L 167.668106 354.127059 
L 167.904991 326.456471 
L 170.273843 326.456471 
L 170.510728 290.88 
L 170.747614 290.88 
L 170.984499 286.927059 
L 172.40581 286.927059 
L 172.642695 282.974118 
L 175.485317 282.974118 
L 175.722203 275.068235 
L 177.380399 275.068235 
L 177.617284 255.303529 
L 179.038595 255.303529 
L 179.275481 231.585882 
L 185.197611 231.585882 
L 185.434496 223.68 
L 188.514003 223.68 
L 188.750888 211.821176 
L 193.725478 211.821176 
L 193.962363 203.915294 
L 194.909904 203.915294 
L 195.146789 184.150588 
L 200.358263 184.150588 
L 200.595148 152.527059 
L 204.385311 152.527059 
L 204.622197 148.574118 
L 208.649245 148.574118 
L 208.88613 144.621176 
L 217.177112 144.621176 
L 217.413997 140.668235 
L 223.809898 140.668235 
L 224.046783 136.715294 
L 296.533653 136.715294 
L 296.770538 128.809412 
L 327.328728 128.809412 
L 327.565613 124.856471 
L 374.231997 124.856471 
L 374.468882 116.950588 
L 540.999175 116.950588 
L 541.23606 112.997647 
L 567.767202 112.997647 
L 568.004088 109.044706 
L 871.690909 109.044706 
L 871.690909 109.044706 
" clip-path="url(#p2857c5af09)" style="fill: none; stroke: #d14501; stroke-width: 1.5; stroke-linecap: square"/>
   </g>
   <g id="line2d_27">
    <path d="M 161.509091 492.48 
L 161.982861 492.48 
L 162.219746 488.527059 
L 162.456632 488.527059 
L 162.693517 476.668235 
L 164.114828 476.668235 
L 164.351713 472.715294 
L 166.246795 472.715294 
L 166.48368 464.809412 
L 166.720565 433.185882 
L 169.563188 433.185882 
L 169.800073 354.127059 
L 170.510728 354.127059 
L 170.747614 350.174118 
L 172.168925 350.174118 
L 172.642695 326.456471 
L 202.49023 326.456471 
L 202.727115 318.550588 
L 202.964 318.550588 
L 203.200885 243.444706 
L 205.332852 243.444706 
L 205.569737 231.585882 
L 209.123015 231.585882 
L 209.359901 211.821176 
L 218.598423 211.821176 
L 218.835308 203.915294 
L 229.968913 203.915294 
L 230.205798 192.056471 
L 261.237759 192.056471 
L 261.474644 188.103529 
L 275.924641 188.103529 
L 276.161526 180.197647 
L 289.663982 180.197647 
L 289.900867 148.574118 
L 307.667257 148.574118 
L 307.904142 144.621176 
L 377.074619 144.621176 
L 377.311505 132.762353 
L 772.436012 132.762353 
L 772.672897 124.856471 
L 807.495021 124.856471 
L 807.731906 120.903529 
L 810.574528 120.903529 
L 810.811414 112.997647 
L 871.690909 112.997647 
L 871.690909 112.997647 
" clip-path="url(#p2857c5af09)" style="fill: none; stroke: #e4580a; stroke-width: 1.5; stroke-linecap: square"/>
   </g>
   <g id="line2d_28">
    <path d="M 161.509091 484.574118 
L 161.745976 476.668235 
L 161.982861 472.715294 
L 162.930402 472.715294 
L 163.167287 468.762353 
L 164.825484 468.762353 
L 165.062369 464.809412 
L 165.299254 448.997647 
L 168.141876 448.997647 
L 168.378762 441.091765 
L 168.852532 441.091765 
L 169.089417 358.08 
L 170.273843 358.08 
L 170.510728 302.738824 
L 192.777937 302.738824 
L 193.014822 298.785882 
L 206.517278 298.785882 
L 206.754163 294.832941 
L 223.573012 294.832941 
L 223.809898 282.974118 
L 238.97055 282.974118 
L 239.207435 271.115294 
L 244.41891 271.115294 
L 244.655795 267.162353 
L 250.104154 267.162353 
L 250.341039 239.491765 
L 251.525465 239.491765 
L 251.762351 215.774118 
L 258.632021 215.774118 
L 258.868907 199.962353 
L 274.9771 199.962353 
L 275.213985 196.009412 
L 300.086931 196.009412 
L 300.323816 188.103529 
L 474.434435 188.103529 
L 474.67132 184.150588 
L 871.690909 184.150588 
L 871.690909 184.150588 
" clip-path="url(#p2857c5af09)" style="fill: none; stroke: #f26d17; stroke-width: 1.5; stroke-linecap: square"/>
   </g>
   <g id="line2d_29">
    <path d="M 161.509091 492.48 
L 161.745976 472.715294 
L 162.456632 472.715294 
L 162.693517 468.762353 
L 162.930402 468.762353 
L 163.167287 448.997647 
L 164.114828 448.997647 
L 164.351713 429.232941 
L 166.246795 429.232941 
L 166.48368 417.374118 
L 167.431221 417.374118 
L 167.668106 413.421176 
L 168.378762 413.421176 
L 168.615647 393.656471 
L 177.380399 393.656471 
L 177.617284 389.703529 
L 188.277118 389.703529 
L 188.514003 369.938824 
L 204.385311 369.938824 
L 204.622197 362.032941 
L 234.943502 362.032941 
L 235.180387 346.221176 
L 238.023009 346.221176 
L 238.259894 338.315294 
L 244.655795 338.315294 
L 244.89268 318.550588 
L 245.129565 318.550588 
L 245.36645 298.785882 
L 248.209073 298.785882 
L 248.445958 294.832941 
L 249.156613 294.832941 
L 249.393499 290.88 
L 250.577925 290.88 
L 250.81481 286.927059 
L 251.051695 263.209412 
L 253.183662 263.209412 
L 253.657432 227.632941 
L 261.474644 227.632941 
L 261.711529 215.774118 
L 272.845133 215.774118 
L 273.082018 207.868235 
L 277.109067 207.868235 
L 277.345952 203.915294 
L 281.373 203.915294 
L 281.609885 199.962353 
L 291.085293 199.962353 
L 291.322178 196.009412 
L 293.454145 196.009412 
L 293.69103 192.056471 
L 309.088568 192.056471 
L 309.325453 188.103529 
L 328.750039 188.103529 
L 328.986925 180.197647 
L 330.171351 180.197647 
L 330.408236 164.385882 
L 334.909055 164.385882 
L 335.14594 160.432941 
L 344.147577 160.432941 
L 344.384462 156.48 
L 352.675444 156.48 
L 352.912329 152.527059 
L 482.251647 152.527059 
L 482.488532 148.574118 
L 503.808199 148.574118 
L 504.045085 144.621176 
L 527.022949 144.621176 
L 527.259834 140.668235 
L 871.690909 140.668235 
L 871.690909 140.668235 
" clip-path="url(#p2857c5af09)" style="fill: none; stroke: #fa8331; stroke-width: 1.5; stroke-linecap: square"/>
   </g>
   <g id="line2d_30">
    <path d="M 161.509091 488.527059 
L 161.745976 472.715294 
L 162.693517 472.715294 
L 162.930402 456.903529 
L 163.641058 456.903529 
L 163.877943 452.950588 
L 167.668106 452.950588 
L 167.904991 417.374118 
L 171.458269 417.374118 
L 171.695154 413.421176 
L 174.300892 413.421176 
L 174.537777 330.409412 
L 176.906629 330.409412 
L 177.143514 322.503529 
L 180.696792 322.503529 
L 180.933677 318.550588 
L 186.145151 318.550588 
L 186.382037 306.691765 
L 191.593511 306.691765 
L 191.830396 302.738824 
L 193.014822 302.738824 
L 193.251707 298.785882 
L 194.673018 298.785882 
L 194.909904 294.832941 
L 195.383674 294.832941 
L 195.620559 275.068235 
L 201.542689 275.068235 
L 201.779574 271.115294 
L 204.385311 271.115294 
L 204.622197 243.444706 
L 205.806623 243.444706 
L 206.043508 235.538824 
L 206.280393 231.585882 
L 207.227934 231.585882 
L 207.464819 199.962353 
L 207.938589 199.962353 
L 208.175475 184.150588 
L 212.676293 184.150588 
L 212.913178 156.48 
L 220.967275 156.48 
L 221.20416 152.527059 
L 265.975462 152.527059 
L 266.212348 140.668235 
L 401.947565 140.668235 
L 402.18445 136.715294 
L 439.612311 136.715294 
L 439.849196 132.762353 
L 500.254921 132.762353 
L 500.491807 124.856471 
L 541.709831 124.856471 
L 541.946716 120.903529 
L 545.263109 120.903529 
L 545.499994 116.950588 
L 547.395076 116.950588 
L 547.631961 112.997647 
L 871.690909 112.997647 
L 871.690909 112.997647 
" clip-path="url(#p2857c5af09)" style="fill: none; stroke: #fd994d; stroke-width: 1.5; stroke-linecap: square"/>
   </g>
   <g id="line2d_31">
    <path d="M 161.509091 480.621176 
L 161.982861 480.621176 
L 162.219746 472.715294 
L 162.456632 472.715294 
L 162.693517 464.809412 
L 162.930402 417.374118 
L 163.877943 417.374118 
L 164.114828 397.609412 
L 168.378762 397.609412 
L 168.615647 377.844706 
L 170.036958 377.844706 
L 170.273843 306.691765 
L 171.221384 306.691765 
L 171.695154 298.785882 
L 173.590236 298.785882 
L 173.827121 294.832941 
L 174.774662 294.832941 
L 175.011547 279.021176 
L 189.935314 279.021176 
L 190.1722 275.068235 
L 206.991049 275.068235 
L 207.227934 267.162353 
L 222.862357 267.162353 
L 223.099242 263.209412 
L 230.916453 263.209412 
L 231.153339 259.256471 
L 287.29513 259.256471 
L 287.532015 251.350588 
L 503.334429 251.350588 
L 503.571314 247.397647 
L 533.418849 247.397647 
L 533.655734 239.491765 
L 607.800801 239.491765 
L 608.037686 196.009412 
L 633.384402 196.009412 
L 633.621287 192.056471 
L 642.85981 192.056471 
L 643.096695 168.338824 
L 727.66471 168.338824 
L 727.901595 156.48 
L 807.968791 156.48 
L 808.205677 144.621176 
L 871.690909 144.621176 
L 871.690909 144.621176 
" clip-path="url(#p2857c5af09)" style="fill: none; stroke: #fdae6a; stroke-width: 1.5; stroke-linecap: square"/>
   </g>
   <g id="line2d_32">
    <path d="M 161.509091 488.527059 
L 161.745976 468.762353 
L 163.404172 468.762353 
L 163.641058 460.856471 
L 164.351713 460.856471 
L 164.588598 456.903529 
L 165.536139 456.903529 
L 166.00991 448.997647 
L 167.431221 448.997647 
L 167.904991 433.185882 
L 168.378762 433.185882 
L 168.615647 417.374118 
L 170.273843 417.374118 
L 170.510728 409.468235 
L 171.221384 409.468235 
L 171.458269 393.656471 
L 171.93204 393.656471 
L 172.168925 381.797647 
L 173.827121 381.797647 
L 174.064006 373.891765 
L 174.300892 373.891765 
L 174.537777 362.032941 
L 176.669743 362.032941 
L 176.906629 350.174118 
L 178.564825 350.174118 
L 178.80171 322.503529 
L 179.986136 322.503529 
L 180.223021 279.021176 
L 183.065644 279.021176 
L 183.302529 267.162353 
L 198.226296 267.162353 
L 198.463182 263.209412 
L 199.410722 263.209412 
L 199.647607 259.256471 
L 203.674656 259.256471 
L 203.911541 247.397647 
L 212.913178 247.397647 
L 213.150064 243.444706 
L 218.598423 243.444706 
L 218.835308 231.585882 
L 313.115616 231.585882 
L 313.352502 223.68 
L 481.304106 223.68 
L 481.540991 219.727059 
L 489.358202 219.727059 
L 489.595088 211.821176 
L 496.464758 211.821176 
L 496.701644 207.868235 
L 512.809837 207.868235 
L 513.046722 203.915294 
L 545.026224 203.915294 
L 545.263109 199.962353 
L 638.832761 199.962353 
L 639.069646 192.056471 
L 871.690909 192.056471 
L 871.690909 192.056471 
" clip-path="url(#p2857c5af09)" style="fill: none; stroke: #fdc38d; stroke-width: 1.5; stroke-linecap: square"/>
   </g>
   <g id="line2d_33">
    <path d="M 126 85.327059 
L 907.2 85.327059 
" clip-path="url(#p2857c5af09)" style="fill: none; stroke-dasharray: 5.55,2.4; stroke-dashoffset: 0; stroke: #800080; stroke-width: 1.5"/>
   </g>
   <g id="patch_3">
    <path d="M 126 512.64 
L 126 69.12 
" style="fill: none; stroke: #000000; stroke-width: 0.8; stroke-linejoin: miter; stroke-linecap: square"/>
   </g>
   <g id="patch_4">
    <path d="M 907.2 512.64 
L 907.2 69.12 
" style="fill: none; stroke: #000000; stroke-width: 0.8; stroke-linejoin: miter; stroke-linecap: square"/>
   </g>
   <g id="patch_5">
    <path d="M 126 512.64 
L 907.2 512.64 
" style="fill: none; stroke: #000000; stroke-width: 0.8; stroke-linejoin: miter; stroke-linecap: square"/>
   </g>
   <g id="patch_6">
    <path d="M 126 69.12 
L 907.2 69.12 
" style="fill: none; stroke: #000000; stroke-width: 0.8; stroke-linejoin: miter; stroke-linecap: square"/>
   </g>
   <g id="text_15">
    <!-- 25% Randomly Distributed All Runs -->
    <g transform="translate(374.66625 63.12) scale(0.16 -0.16)">
     <defs>
      <path id="DejaVuSans-25" d="M 4653 2053 
Q 4381 2053 4226 1822 
Q 4072 1591 4072 1178 
Q 4072 772 4226 539 
Q 4381 306 4653 306 
Q 4919 306 5073 539 
Q 5228 772 5228 1178 
Q 5228 1588 5073 1820 
Q 4919 2053 4653 2053 
z
M 4653 2450 
Q 5147 2450 5437 2106 
Q 5728 1763 5728 1178 
Q 5728 594 5436 251 
Q 5144 -91 4653 -91 
Q 4153 -91 3862 251 
Q 3572 594 3572 1178 
Q 3572 1766 3864 2108 
Q 4156 2450 4653 2450 
z
M 1428 4353 
Q 1159 4353 1004 4120 
Q 850 3888 850 3481 
Q 850 3069 1003 2837 
Q 1156 2606 1428 2606 
Q 1700 2606 1854 2837 
Q 2009 3069 2009 3481 
Q 2009 3884 1853 4118 
Q 1697 4353 1428 4353 
z
M 4250 4750 
L 4750 4750 
L 1831 -91 
L 1331 -91 
L 4250 4750 
z
M 1428 4750 
Q 1922 4750 2215 4408 
Q 2509 4066 2509 3481 
Q 2509 2891 2217 2550 
Q 1925 2209 1428 2209 
Q 931 2209 642 2551 
Q 353 2894 353 3481 
Q 353 4063 643 4406 
Q 934 4750 1428 4750 
z
" transform="scale(0.015625)"/>
      <path id="DejaVuSans-20" transform="scale(0.015625)"/>
      <path id="DejaVuSans-52" d="M 2841 2188 
Q 3044 2119 3236 1894 
Q 3428 1669 3622 1275 
L 4263 0 
L 3584 0 
L 2988 1197 
Q 2756 1666 2539 1819 
Q 2322 1972 1947 1972 
L 1259 1972 
L 1259 0 
L 628 0 
L 628 4666 
L 2053 4666 
Q 2853 4666 3247 4331 
Q 3641 3997 3641 3322 
Q 3641 2881 3436 2590 
Q 3231 2300 2841 2188 
z
M 1259 4147 
L 1259 2491 
L 2053 2491 
Q 2509 2491 2742 2702 
Q 2975 2913 2975 3322 
Q 2975 3731 2742 3939 
Q 2509 4147 2053 4147 
L 1259 4147 
z
" transform="scale(0.015625)"/>
      <path id="DejaVuSans-64" d="M 2906 2969 
L 2906 4863 
L 3481 4863 
L 3481 0 
L 2906 0 
L 2906 525 
Q 2725 213 2448 61 
Q 2172 -91 1784 -91 
Q 1150 -91 751 415 
Q 353 922 353 1747 
Q 353 2572 751 3078 
Q 1150 3584 1784 3584 
Q 2172 3584 2448 3432 
Q 2725 3281 2906 2969 
z
M 947 1747 
Q 947 1113 1208 752 
Q 1469 391 1925 391 
Q 2381 391 2643 752 
Q 2906 1113 2906 1747 
Q 2906 2381 2643 2742 
Q 2381 3103 1925 3103 
Q 1469 3103 1208 2742 
Q 947 2381 947 1747 
z
" transform="scale(0.015625)"/>
      <path id="DejaVuSans-6d" d="M 3328 2828 
Q 3544 3216 3844 3400 
Q 4144 3584 4550 3584 
Q 5097 3584 5394 3201 
Q 5691 2819 5691 2113 
L 5691 0 
L 5113 0 
L 5113 2094 
Q 5113 2597 4934 2840 
Q 4756 3084 4391 3084 
Q 3944 3084 3684 2787 
Q 3425 2491 3425 1978 
L 3425 0 
L 2847 0 
L 2847 2094 
Q 2847 2600 2669 2842 
Q 2491 3084 2119 3084 
Q 1678 3084 1418 2786 
Q 1159 2488 1159 1978 
L 1159 0 
L 581 0 
L 581 3500 
L 1159 3500 
L 1159 2956 
Q 1356 3278 1631 3431 
Q 1906 3584 2284 3584 
Q 2666 3584 2933 3390 
Q 3200 3197 3328 2828 
z
" transform="scale(0.015625)"/>
      <path id="DejaVuSans-6c" d="M 603 4863 
L 1178 4863 
L 1178 0 
L 603 0 
L 603 4863 
z
" transform="scale(0.015625)"/>
      <path id="DejaVuSans-79" d="M 2059 -325 
Q 1816 -950 1584 -1140 
Q 1353 -1331 966 -1331 
L 506 -1331 
L 506 -850 
L 844 -850 
Q 1081 -850 1212 -737 
Q 1344 -625 1503 -206 
L 1606 56 
L 191 3500 
L 800 3500 
L 1894 763 
L 2988 3500 
L 3597 3500 
L 2059 -325 
z
" transform="scale(0.015625)"/>
      <path id="DejaVuSans-44" d="M 1259 4147 
L 1259 519 
L 2022 519 
Q 2988 519 3436 956 
Q 3884 1394 3884 2338 
Q 3884 3275 3436 3711 
Q 2988 4147 2022 4147 
L 1259 4147 
z
M 628 4666 
L 1925 4666 
Q 3281 4666 3915 4102 
Q 4550 3538 4550 2338 
Q 4550 1131 3912 565 
Q 3275 0 1925 0 
L 628 0 
L 628 4666 
z
" transform="scale(0.015625)"/>
      <path id="DejaVuSans-62" d="M 3116 1747 
Q 3116 2381 2855 2742 
Q 2594 3103 2138 3103 
Q 1681 3103 1420 2742 
Q 1159 2381 1159 1747 
Q 1159 1113 1420 752 
Q 1681 391 2138 391 
Q 2594 391 2855 752 
Q 3116 1113 3116 1747 
z
M 1159 2969 
Q 1341 3281 1617 3432 
Q 1894 3584 2278 3584 
Q 2916 3584 3314 3078 
Q 3713 2572 3713 1747 
Q 3713 922 3314 415 
Q 2916 -91 2278 -91 
Q 1894 -91 1617 61 
Q 1341 213 1159 525 
L 1159 0 
L 581 0 
L 581 4863 
L 1159 4863 
L 1159 2969 
z
" transform="scale(0.015625)"/>
      <path id="DejaVuSans-75" d="M 544 1381 
L 544 3500 
L 1119 3500 
L 1119 1403 
Q 1119 906 1312 657 
Q 1506 409 1894 409 
Q 2359 409 2629 706 
Q 2900 1003 2900 1516 
L 2900 3500 
L 3475 3500 
L 3475 0 
L 2900 0 
L 2900 538 
Q 2691 219 2414 64 
Q 2138 -91 1772 -91 
Q 1169 -91 856 284 
Q 544 659 544 1381 
z
M 1991 3584 
L 1991 3584 
z
" transform="scale(0.015625)"/>
      <path id="DejaVuSans-41" d="M 2188 4044 
L 1331 1722 
L 3047 1722 
L 2188 4044 
z
M 1831 4666 
L 2547 4666 
L 4325 0 
L 3669 0 
L 3244 1197 
L 1141 1197 
L 716 0 
L 50 0 
L 1831 4666 
z
" transform="scale(0.015625)"/>
     </defs>
     <use xlink:href="#DejaVuSans-32"/>
     <use xlink:href="#DejaVuSans-35" x="63.623047"/>
     <use xlink:href="#DejaVuSans-25" x="127.246094"/>
     <use xlink:href="#DejaVuSans-20" x="222.265625"/>
     <use xlink:href="#DejaVuSans-52" x="254.052734"/>
     <use xlink:href="#DejaVuSans-61" x="321.285156"/>
     <use xlink:href="#DejaVuSans-6e" x="382.564453"/>
     <use xlink:href="#DejaVuSans-64" x="445.943359"/>
     <use xlink:href="#DejaVuSans-6f" x="509.419922"/>
     <use xlink:href="#DejaVuSans-6d" x="570.601562"/>
     <use xlink:href="#DejaVuSans-6c" x="668.013672"/>
     <use xlink:href="#DejaVuSans-79" x="695.796875"/>
     <use xlink:href="#DejaVuSans-20" x="754.976562"/>
     <use xlink:href="#DejaVuSans-44" x="786.763672"/>
     <use xlink:href="#DejaVuSans-69" x="863.765625"/>
     <use xlink:href="#DejaVuSans-73" x="891.548828"/>
     <use xlink:href="#DejaVuSans-74" x="943.648438"/>
     <use xlink:href="#DejaVuSans-72" x="982.857422"/>
     <use xlink:href="#DejaVuSans-69" x="1023.970703"/>
     <use xlink:href="#DejaVuSans-62" x="1051.753906"/>
     <use xlink:href="#DejaVuSans-75" x="1115.230469"/>
     <use xlink:href="#DejaVuSans-74" x="1178.609375"/>
     <use xlink:href="#DejaVuSans-65" x="1217.818359"/>
     <use xlink:href="#DejaVuSans-64" x="1279.341797"/>
     <use xlink:href="#DejaVuSans-20" x="1342.818359"/>
     <use xlink:href="#DejaVuSans-41" x="1374.605469"/>
     <use xlink:href="#DejaVuSans-6c" x="1443.013672"/>
     <use xlink:href="#DejaVuSans-6c" x="1470.796875"/>
     <use xlink:href="#DejaVuSans-20" x="1498.580078"/>
     <use xlink:href="#DejaVuSans-52" x="1530.367188"/>
     <use xlink:href="#DejaVuSans-75" x="1595.349609"/>
     <use xlink:href="#DejaVuSans-6e" x="1658.728516"/>
     <use xlink:href="#DejaVuSans-73" x="1722.107422"/>
    </g>
   </g>
   <g id="legend_1">
    <g id="patch_7">
     <path d="M 792.414062 507.64 
L 900.2 507.64 
Q 902.2 507.64 902.2 505.64 
L 902.2 198.399375 
Q 902.2 196.399375 900.2 196.399375 
L 792.414062 196.399375 
Q 790.414062 196.399375 790.414062 198.399375 
L 790.414062 505.64 
Q 790.414062 507.64 792.414062 507.64 
z
" style="fill: #ffffff; opacity: 0.8; stroke: #cccccc; stroke-linejoin: miter"/>
    </g>
    <g id="line2d_34">
     <path d="M 794.414062 204.497813 
L 804.414062 204.497813 
L 814.414062 204.497813 
" style="fill: none; stroke: #08306b; stroke-width: 1.5; stroke-linecap: square"/>
    </g>
    <g id="text_16">
     <!-- Incremental 1 -->
     <g transform="translate(822.414062 207.997813) scale(0.1 -0.1)">
      <defs>
       <path id="DejaVuSans-49" d="M 628 4666 
L 1259 4666 
L 1259 0 
L 628 0 
L 628 4666 
z
" transform="scale(0.015625)"/>
       <path id="DejaVuSans-63" d="M 3122 3366 
L 3122 2828 
Q 2878 2963 2633 3030 
Q 2388 3097 2138 3097 
Q 1578 3097 1268 2742 
Q 959 2388 959 1747 
Q 959 1106 1268 751 
Q 1578 397 2138 397 
Q 2388 397 2633 464 
Q 2878 531 3122 666 
L 3122 134 
Q 2881 22 2623 -34 
Q 2366 -91 2075 -91 
Q 1284 -91 818 406 
Q 353 903 353 1747 
Q 353 2603 823 3093 
Q 1294 3584 2113 3584 
Q 2378 3584 2631 3529 
Q 2884 3475 3122 3366 
z
" transform="scale(0.015625)"/>
      </defs>
      <use xlink:href="#DejaVuSans-49"/>
      <use xlink:href="#DejaVuSans-6e" x="29.492188"/>
      <use xlink:href="#DejaVuSans-63" x="92.871094"/>
      <use xlink:href="#DejaVuSans-72" x="147.851562"/>
      <use xlink:href="#DejaVuSans-65" x="186.714844"/>
      <use xlink:href="#DejaVuSans-6d" x="248.238281"/>
      <use xlink:href="#DejaVuSans-65" x="345.650391"/>
      <use xlink:href="#DejaVuSans-6e" x="407.173828"/>
      <use xlink:href="#DejaVuSans-74" x="470.552734"/>
      <use xlink:href="#DejaVuSans-61" x="509.761719"/>
      <use xlink:href="#DejaVuSans-6c" x="571.041016"/>
      <use xlink:href="#DejaVuSans-20" x="598.824219"/>
      <use xlink:href="#DejaVuSans-31" x="630.611328"/>
     </g>
    </g>
    <g id="line2d_35">
     <path d="M 794.414062 219.175938 
L 804.414062 219.175938 
L 814.414062 219.175938 
" style="fill: none; stroke: #084488; stroke-width: 1.5; stroke-linecap: square"/>
    </g>
    <g id="text_17">
     <!-- Incremental 2 -->
     <g transform="translate(822.414062 222.675938) scale(0.1 -0.1)">
      <use xlink:href="#DejaVuSans-49"/>
      <use xlink:href="#DejaVuSans-6e" x="29.492188"/>
      <use xlink:href="#DejaVuSans-63" x="92.871094"/>
      <use xlink:href="#DejaVuSans-72" x="147.851562"/>
      <use xlink:href="#DejaVuSans-65" x="186.714844"/>
      <use xlink:href="#DejaVuSans-6d" x="248.238281"/>
      <use xlink:href="#DejaVuSans-65" x="345.650391"/>
      <use xlink:href="#DejaVuSans-6e" x="407.173828"/>
      <use xlink:href="#DejaVuSans-74" x="470.552734"/>
      <use xlink:href="#DejaVuSans-61" x="509.761719"/>
      <use xlink:href="#DejaVuSans-6c" x="571.041016"/>
      <use xlink:href="#DejaVuSans-20" x="598.824219"/>
      <use xlink:href="#DejaVuSans-32" x="630.611328"/>
     </g>
    </g>
    <g id="line2d_36">
     <path d="M 794.414062 233.854062 
L 804.414062 233.854062 
L 814.414062 233.854062 
" style="fill: none; stroke: #0e58a2; stroke-width: 1.5; stroke-linecap: square"/>
    </g>
    <g id="text_18">
     <!-- Incremental 3 -->
     <g transform="translate(822.414062 237.354062) scale(0.1 -0.1)">
      <use xlink:href="#DejaVuSans-49"/>
      <use xlink:href="#DejaVuSans-6e" x="29.492188"/>
      <use xlink:href="#DejaVuSans-63" x="92.871094"/>
      <use xlink:href="#DejaVuSans-72" x="147.851562"/>
      <use xlink:href="#DejaVuSans-65" x="186.714844"/>
      <use xlink:href="#DejaVuSans-6d" x="248.238281"/>
      <use xlink:href="#DejaVuSans-65" x="345.650391"/>
      <use xlink:href="#DejaVuSans-6e" x="407.173828"/>
      <use xlink:href="#DejaVuSans-74" x="470.552734"/>
      <use xlink:href="#DejaVuSans-61" x="509.761719"/>
      <use xlink:href="#DejaVuSans-6c" x="571.041016"/>
      <use xlink:href="#DejaVuSans-20" x="598.824219"/>
      <use xlink:href="#DejaVuSans-33" x="630.611328"/>
     </g>
    </g>
    <g id="line2d_37">
     <path d="M 794.414062 248.532188 
L 804.414062 248.532188 
L 814.414062 248.532188 
" style="fill: none; stroke: #1d6cb1; stroke-width: 1.5; stroke-linecap: square"/>
    </g>
    <g id="text_19">
     <!-- Incremental 4 -->
     <g transform="translate(822.414062 252.032188) scale(0.1 -0.1)">
      <use xlink:href="#DejaVuSans-49"/>
      <use xlink:href="#DejaVuSans-6e" x="29.492188"/>
      <use xlink:href="#DejaVuSans-63" x="92.871094"/>
      <use xlink:href="#DejaVuSans-72" x="147.851562"/>
      <use xlink:href="#DejaVuSans-65" x="186.714844"/>
      <use xlink:href="#DejaVuSans-6d" x="248.238281"/>
      <use xlink:href="#DejaVuSans-65" x="345.650391"/>
      <use xlink:href="#DejaVuSans-6e" x="407.173828"/>
      <use xlink:href="#DejaVuSans-74" x="470.552734"/>
      <use xlink:href="#DejaVuSans-61" x="509.761719"/>
      <use xlink:href="#DejaVuSans-6c" x="571.041016"/>
      <use xlink:href="#DejaVuSans-20" x="598.824219"/>
      <use xlink:href="#DejaVuSans-34" x="630.611328"/>
     </g>
    </g>
    <g id="line2d_38">
     <path d="M 794.414062 263.210313 
L 804.414062 263.210313 
L 814.414062 263.210313 
" style="fill: none; stroke: #3181bd; stroke-width: 1.5; stroke-linecap: square"/>
    </g>
    <g id="text_20">
     <!-- Incremental 5 -->
     <g transform="translate(822.414062 266.710313) scale(0.1 -0.1)">
      <use xlink:href="#DejaVuSans-49"/>
      <use xlink:href="#DejaVuSans-6e" x="29.492188"/>
      <use xlink:href="#DejaVuSans-63" x="92.871094"/>
      <use xlink:href="#DejaVuSans-72" x="147.851562"/>
      <use xlink:href="#DejaVuSans-65" x="186.714844"/>
      <use xlink:href="#DejaVuSans-6d" x="248.238281"/>
      <use xlink:href="#DejaVuSans-65" x="345.650391"/>
      <use xlink:href="#DejaVuSans-6e" x="407.173828"/>
      <use xlink:href="#DejaVuSans-74" x="470.552734"/>
      <use xlink:href="#DejaVuSans-61" x="509.761719"/>
      <use xlink:href="#DejaVuSans-6c" x="571.041016"/>
      <use xlink:href="#DejaVuSans-20" x="598.824219"/>
      <use xlink:href="#DejaVuSans-35" x="630.611328"/>
     </g>
    </g>
    <g id="line2d_39">
     <path d="M 794.414062 277.888438 
L 804.414062 277.888438 
L 814.414062 277.888438 
" style="fill: none; stroke: #4695c8; stroke-width: 1.5; stroke-linecap: square"/>
    </g>
    <g id="text_21">
     <!-- Incremental 6 -->
     <g transform="translate(822.414062 281.388438) scale(0.1 -0.1)">
      <use xlink:href="#DejaVuSans-49"/>
      <use xlink:href="#DejaVuSans-6e" x="29.492188"/>
      <use xlink:href="#DejaVuSans-63" x="92.871094"/>
      <use xlink:href="#DejaVuSans-72" x="147.851562"/>
      <use xlink:href="#DejaVuSans-65" x="186.714844"/>
      <use xlink:href="#DejaVuSans-6d" x="248.238281"/>
      <use xlink:href="#DejaVuSans-65" x="345.650391"/>
      <use xlink:href="#DejaVuSans-6e" x="407.173828"/>
      <use xlink:href="#DejaVuSans-74" x="470.552734"/>
      <use xlink:href="#DejaVuSans-61" x="509.761719"/>
      <use xlink:href="#DejaVuSans-6c" x="571.041016"/>
      <use xlink:href="#DejaVuSans-20" x="598.824219"/>
      <use xlink:href="#DejaVuSans-36" x="630.611328"/>
     </g>
    </g>
    <g id="line2d_40">
     <path d="M 794.414062 292.566563 
L 804.414062 292.566563 
L 814.414062 292.566563 
" style="fill: none; stroke: #60a7d2; stroke-width: 1.5; stroke-linecap: square"/>
    </g>
    <g id="text_22">
     <!-- Incremental 7 -->
     <g transform="translate(822.414062 296.066563) scale(0.1 -0.1)">
      <defs>
       <path id="DejaVuSans-37" d="M 525 4666 
L 3525 4666 
L 3525 4397 
L 1831 0 
L 1172 0 
L 2766 4134 
L 525 4134 
L 525 4666 
z
" transform="scale(0.015625)"/>
      </defs>
      <use xlink:href="#DejaVuSans-49"/>
      <use xlink:href="#DejaVuSans-6e" x="29.492188"/>
      <use xlink:href="#DejaVuSans-63" x="92.871094"/>
      <use xlink:href="#DejaVuSans-72" x="147.851562"/>
      <use xlink:href="#DejaVuSans-65" x="186.714844"/>
      <use xlink:href="#DejaVuSans-6d" x="248.238281"/>
      <use xlink:href="#DejaVuSans-65" x="345.650391"/>
      <use xlink:href="#DejaVuSans-6e" x="407.173828"/>
      <use xlink:href="#DejaVuSans-74" x="470.552734"/>
      <use xlink:href="#DejaVuSans-61" x="509.761719"/>
      <use xlink:href="#DejaVuSans-6c" x="571.041016"/>
      <use xlink:href="#DejaVuSans-20" x="598.824219"/>
      <use xlink:href="#DejaVuSans-37" x="630.611328"/>
     </g>
    </g>
    <g id="line2d_41">
     <path d="M 794.414062 307.244687 
L 804.414062 307.244687 
L 814.414062 307.244687 
" style="fill: none; stroke: #7db8da; stroke-width: 1.5; stroke-linecap: square"/>
    </g>
    <g id="text_23">
     <!-- Incremental 8 -->
     <g transform="translate(822.414062 310.744687) scale(0.1 -0.1)">
      <use xlink:href="#DejaVuSans-49"/>
      <use xlink:href="#DejaVuSans-6e" x="29.492188"/>
      <use xlink:href="#DejaVuSans-63" x="92.871094"/>
      <use xlink:href="#DejaVuSans-72" x="147.851562"/>
      <use xlink:href="#DejaVuSans-65" x="186.714844"/>
      <use xlink:href="#DejaVuSans-6d" x="248.238281"/>
      <use xlink:href="#DejaVuSans-65" x="345.650391"/>
      <use xlink:href="#DejaVuSans-6e" x="407.173828"/>
      <use xlink:href="#DejaVuSans-74" x="470.552734"/>
      <use xlink:href="#DejaVuSans-61" x="509.761719"/>
      <use xlink:href="#DejaVuSans-6c" x="571.041016"/>
      <use xlink:href="#DejaVuSans-20" x="598.824219"/>
      <use xlink:href="#DejaVuSans-38" x="630.611328"/>
     </g>
    </g>
    <g id="line2d_42">
     <path d="M 794.414062 321.922813 
L 804.414062 321.922813 
L 814.414062 321.922813 
" style="fill: none; stroke: #9dcae1; stroke-width: 1.5; stroke-linecap: square"/>
    </g>
    <g id="text_24">
     <!-- Incremental 9 -->
     <g transform="translate(822.414062 325.422813) scale(0.1 -0.1)">
      <defs>
       <path id="DejaVuSans-39" d="M 703 97 
L 703 672 
Q 941 559 1184 500 
Q 1428 441 1663 441 
Q 2288 441 2617 861 
Q 2947 1281 2994 2138 
Q 2813 1869 2534 1725 
Q 2256 1581 1919 1581 
Q 1219 1581 811 2004 
Q 403 2428 403 3163 
Q 403 3881 828 4315 
Q 1253 4750 1959 4750 
Q 2769 4750 3195 4129 
Q 3622 3509 3622 2328 
Q 3622 1225 3098 567 
Q 2575 -91 1691 -91 
Q 1453 -91 1209 -44 
Q 966 3 703 97 
z
M 1959 2075 
Q 2384 2075 2632 2365 
Q 2881 2656 2881 3163 
Q 2881 3666 2632 3958 
Q 2384 4250 1959 4250 
Q 1534 4250 1286 3958 
Q 1038 3666 1038 3163 
Q 1038 2656 1286 2365 
Q 1534 2075 1959 2075 
z
" transform="scale(0.015625)"/>
      </defs>
      <use xlink:href="#DejaVuSans-49"/>
      <use xlink:href="#DejaVuSans-6e" x="29.492188"/>
      <use xlink:href="#DejaVuSans-63" x="92.871094"/>
      <use xlink:href="#DejaVuSans-72" x="147.851562"/>
      <use xlink:href="#DejaVuSans-65" x="186.714844"/>
      <use xlink:href="#DejaVuSans-6d" x="248.238281"/>
      <use xlink:href="#DejaVuSans-65" x="345.650391"/>
      <use xlink:href="#DejaVuSans-6e" x="407.173828"/>
      <use xlink:href="#DejaVuSans-74" x="470.552734"/>
      <use xlink:href="#DejaVuSans-61" x="509.761719"/>
      <use xlink:href="#DejaVuSans-6c" x="571.041016"/>
      <use xlink:href="#DejaVuSans-20" x="598.824219"/>
      <use xlink:href="#DejaVuSans-39" x="630.611328"/>
     </g>
    </g>
    <g id="line2d_43">
     <path d="M 794.414062 336.600937 
L 804.414062 336.600937 
L 814.414062 336.600937 
" style="fill: none; stroke: #b7d4ea; stroke-width: 1.5; stroke-linecap: square"/>
    </g>
    <g id="text_25">
     <!-- Incremental 10 -->
     <g transform="translate(822.414062 340.100937) scale(0.1 -0.1)">
      <use xlink:href="#DejaVuSans-49"/>
      <use xlink:href="#DejaVuSans-6e" x="29.492188"/>
      <use xlink:href="#DejaVuSans-63" x="92.871094"/>
      <use xlink:href="#DejaVuSans-72" x="147.851562"/>
      <use xlink:href="#DejaVuSans-65" x="186.714844"/>
      <use xlink:href="#DejaVuSans-6d" x="248.238281"/>
      <use xlink:href="#DejaVuSans-65" x="345.650391"/>
      <use xlink:href="#DejaVuSans-6e" x="407.173828"/>
      <use xlink:href="#DejaVuSans-74" x="470.552734"/>
      <use xlink:href="#DejaVuSans-61" x="509.761719"/>
      <use xlink:href="#DejaVuSans-6c" x="571.041016"/>
      <use xlink:href="#DejaVuSans-20" x="598.824219"/>
      <use xlink:href="#DejaVuSans-31" x="630.611328"/>
      <use xlink:href="#DejaVuSans-30" x="694.234375"/>
     </g>
    </g>
    <g id="line2d_44">
     <path d="M 794.414062 351.279063 
L 804.414062 351.279063 
L 814.414062 351.279063 
" style="fill: none; stroke: #7f2704; stroke-width: 1.5; stroke-linecap: square"/>
    </g>
    <g id="text_26">
     <!-- Direct 1 -->
     <g transform="translate(822.414062 354.779063) scale(0.1 -0.1)">
      <use xlink:href="#DejaVuSans-44"/>
      <use xlink:href="#DejaVuSans-69" x="77.001953"/>
      <use xlink:href="#DejaVuSans-72" x="104.785156"/>
      <use xlink:href="#DejaVuSans-65" x="143.648438"/>
      <use xlink:href="#DejaVuSans-63" x="205.171875"/>
      <use xlink:href="#DejaVuSans-74" x="260.152344"/>
      <use xlink:href="#DejaVuSans-20" x="299.361328"/>
      <use xlink:href="#DejaVuSans-31" x="331.148438"/>
     </g>
    </g>
    <g id="line2d_45">
     <path d="M 794.414062 365.957187 
L 804.414062 365.957187 
L 814.414062 365.957187 
" style="fill: none; stroke: #963003; stroke-width: 1.5; stroke-linecap: square"/>
    </g>
    <g id="text_27">
     <!-- Direct 2 -->
     <g transform="translate(822.414062 369.457187) scale(0.1 -0.1)">
      <use xlink:href="#DejaVuSans-44"/>
      <use xlink:href="#DejaVuSans-69" x="77.001953"/>
      <use xlink:href="#DejaVuSans-72" x="104.785156"/>
      <use xlink:href="#DejaVuSans-65" x="143.648438"/>
      <use xlink:href="#DejaVuSans-63" x="205.171875"/>
      <use xlink:href="#DejaVuSans-74" x="260.152344"/>
      <use xlink:href="#DejaVuSans-20" x="299.361328"/>
      <use xlink:href="#DejaVuSans-32" x="331.148438"/>
     </g>
    </g>
    <g id="line2d_46">
     <path d="M 794.414062 380.635312 
L 804.414062 380.635312 
L 814.414062 380.635312 
" style="fill: none; stroke: #b13a03; stroke-width: 1.5; stroke-linecap: square"/>
    </g>
    <g id="text_28">
     <!-- Direct 3 -->
     <g transform="translate(822.414062 384.135312) scale(0.1 -0.1)">
      <use xlink:href="#DejaVuSans-44"/>
      <use xlink:href="#DejaVuSans-69" x="77.001953"/>
      <use xlink:href="#DejaVuSans-72" x="104.785156"/>
      <use xlink:href="#DejaVuSans-65" x="143.648438"/>
      <use xlink:href="#DejaVuSans-63" x="205.171875"/>
      <use xlink:href="#DejaVuSans-74" x="260.152344"/>
      <use xlink:href="#DejaVuSans-20" x="299.361328"/>
      <use xlink:href="#DejaVuSans-33" x="331.148438"/>
     </g>
    </g>
    <g id="line2d_47">
     <path d="M 794.414062 395.313437 
L 804.414062 395.313437 
L 814.414062 395.313437 
" style="fill: none; stroke: #d14501; stroke-width: 1.5; stroke-linecap: square"/>
    </g>
    <g id="text_29">
     <!-- Direct 4 -->
     <g transform="translate(822.414062 398.813437) scale(0.1 -0.1)">
      <use xlink:href="#DejaVuSans-44"/>
      <use xlink:href="#DejaVuSans-69" x="77.001953"/>
      <use xlink:href="#DejaVuSans-72" x="104.785156"/>
      <use xlink:href="#DejaVuSans-65" x="143.648438"/>
      <use xlink:href="#DejaVuSans-63" x="205.171875"/>
      <use xlink:href="#DejaVuSans-74" x="260.152344"/>
      <use xlink:href="#DejaVuSans-20" x="299.361328"/>
      <use xlink:href="#DejaVuSans-34" x="331.148438"/>
     </g>
    </g>
    <g id="line2d_48">
     <path d="M 794.414062 409.991562 
L 804.414062 409.991562 
L 814.414062 409.991562 
" style="fill: none; stroke: #e4580a; stroke-width: 1.5; stroke-linecap: square"/>
    </g>
    <g id="text_30">
     <!-- Direct 5 -->
     <g transform="translate(822.414062 413.491562) scale(0.1 -0.1)">
      <use xlink:href="#DejaVuSans-44"/>
      <use xlink:href="#DejaVuSans-69" x="77.001953"/>
      <use xlink:href="#DejaVuSans-72" x="104.785156"/>
      <use xlink:href="#DejaVuSans-65" x="143.648438"/>
      <use xlink:href="#DejaVuSans-63" x="205.171875"/>
      <use xlink:href="#DejaVuSans-74" x="260.152344"/>
      <use xlink:href="#DejaVuSans-20" x="299.361328"/>
      <use xlink:href="#DejaVuSans-35" x="331.148438"/>
     </g>
    </g>
    <g id="line2d_49">
     <path d="M 794.414062 424.669687 
L 804.414062 424.669687 
L 814.414062 424.669687 
" style="fill: none; stroke: #f26d17; stroke-width: 1.5; stroke-linecap: square"/>
    </g>
    <g id="text_31">
     <!-- Direct 6 -->
     <g transform="translate(822.414062 428.169687) scale(0.1 -0.1)">
      <use xlink:href="#DejaVuSans-44"/>
      <use xlink:href="#DejaVuSans-69" x="77.001953"/>
      <use xlink:href="#DejaVuSans-72" x="104.785156"/>
      <use xlink:href="#DejaVuSans-65" x="143.648438"/>
      <use xlink:href="#DejaVuSans-63" x="205.171875"/>
      <use xlink:href="#DejaVuSans-74" x="260.152344"/>
      <use xlink:href="#DejaVuSans-20" x="299.361328"/>
      <use xlink:href="#DejaVuSans-36" x="331.148438"/>
     </g>
    </g>
    <g id="line2d_50">
     <path d="M 794.414062 439.347812 
L 804.414062 439.347812 
L 814.414062 439.347812 
" style="fill: none; stroke: #fa8331; stroke-width: 1.5; stroke-linecap: square"/>
    </g>
    <g id="text_32">
     <!-- Direct 7 -->
     <g transform="translate(822.414062 442.847812) scale(0.1 -0.1)">
      <use xlink:href="#DejaVuSans-44"/>
      <use xlink:href="#DejaVuSans-69" x="77.001953"/>
      <use xlink:href="#DejaVuSans-72" x="104.785156"/>
      <use xlink:href="#DejaVuSans-65" x="143.648438"/>
      <use xlink:href="#DejaVuSans-63" x="205.171875"/>
      <use xlink:href="#DejaVuSans-74" x="260.152344"/>
      <use xlink:href="#DejaVuSans-20" x="299.361328"/>
      <use xlink:href="#DejaVuSans-37" x="331.148438"/>
     </g>
    </g>
    <g id="line2d_51">
     <path d="M 794.414062 454.025937 
L 804.414062 454.025937 
L 814.414062 454.025937 
" style="fill: none; stroke: #fd994d; stroke-width: 1.5; stroke-linecap: square"/>
    </g>
    <g id="text_33">
     <!-- Direct 8 -->
     <g transform="translate(822.414062 457.525937) scale(0.1 -0.1)">
      <use xlink:href="#DejaVuSans-44"/>
      <use xlink:href="#DejaVuSans-69" x="77.001953"/>
      <use xlink:href="#DejaVuSans-72" x="104.785156"/>
      <use xlink:href="#DejaVuSans-65" x="143.648438"/>
      <use xlink:href="#DejaVuSans-63" x="205.171875"/>
      <use xlink:href="#DejaVuSans-74" x="260.152344"/>
      <use xlink:href="#DejaVuSans-20" x="299.361328"/>
      <use xlink:href="#DejaVuSans-38" x="331.148438"/>
     </g>
    </g>
    <g id="line2d_52">
     <path d="M 794.414062 468.704062 
L 804.414062 468.704062 
L 814.414062 468.704062 
" style="fill: none; stroke: #fdae6a; stroke-width: 1.5; stroke-linecap: square"/>
    </g>
    <g id="text_34">
     <!-- Direct 9 -->
     <g transform="translate(822.414062 472.204062) scale(0.1 -0.1)">
      <use xlink:href="#DejaVuSans-44"/>
      <use xlink:href="#DejaVuSans-69" x="77.001953"/>
      <use xlink:href="#DejaVuSans-72" x="104.785156"/>
      <use xlink:href="#DejaVuSans-65" x="143.648438"/>
      <use xlink:href="#DejaVuSans-63" x="205.171875"/>
      <use xlink:href="#DejaVuSans-74" x="260.152344"/>
      <use xlink:href="#DejaVuSans-20" x="299.361328"/>
      <use xlink:href="#DejaVuSans-39" x="331.148438"/>
     </g>
    </g>
    <g id="line2d_53">
     <path d="M 794.414062 483.382187 
L 804.414062 483.382187 
L 814.414062 483.382187 
" style="fill: none; stroke: #fdc38d; stroke-width: 1.5; stroke-linecap: square"/>
    </g>
    <g id="text_35">
     <!-- Direct 10 -->
     <g transform="translate(822.414062 486.882187) scale(0.1 -0.1)">
      <use xlink:href="#DejaVuSans-44"/>
      <use xlink:href="#DejaVuSans-69" x="77.001953"/>
      <use xlink:href="#DejaVuSans-72" x="104.785156"/>
      <use xlink:href="#DejaVuSans-65" x="143.648438"/>
      <use xlink:href="#DejaVuSans-63" x="205.171875"/>
      <use xlink:href="#DejaVuSans-74" x="260.152344"/>
      <use xlink:href="#DejaVuSans-20" x="299.361328"/>
      <use xlink:href="#DejaVuSans-31" x="331.148438"/>
      <use xlink:href="#DejaVuSans-30" x="394.771484"/>
     </g>
    </g>
    <g id="line2d_54">
     <path d="M 794.414062 498.060313 
L 804.414062 498.060313 
L 814.414062 498.060313 
" style="fill: none; stroke-dasharray: 5.55,2.4; stroke-dashoffset: 0; stroke: #800080; stroke-width: 1.5"/>
    </g>
    <g id="text_36">
     <!-- 100% fitness -->
     <g transform="translate(822.414062 501.560313) scale(0.1 -0.1)">
      <defs>
       <path id="DejaVuSans-66" d="M 2375 4863 
L 2375 4384 
L 1825 4384 
Q 1516 4384 1395 4259 
Q 1275 4134 1275 3809 
L 1275 3500 
L 2222 3500 
L 2222 3053 
L 1275 3053 
L 1275 0 
L 697 0 
L 697 3053 
L 147 3053 
L 147 3500 
L 697 3500 
L 697 3744 
Q 697 4328 969 4595 
Q 1241 4863 1831 4863 
L 2375 4863 
z
" transform="scale(0.015625)"/>
      </defs>
      <use xlink:href="#DejaVuSans-31"/>
      <use xlink:href="#DejaVuSans-30" x="63.623047"/>
      <use xlink:href="#DejaVuSans-30" x="127.246094"/>
      <use xlink:href="#DejaVuSans-25" x="190.869141"/>
      <use xlink:href="#DejaVuSans-20" x="285.888672"/>
      <use xlink:href="#DejaVuSans-66" x="317.675781"/>
      <use xlink:href="#DejaVuSans-69" x="352.880859"/>
      <use xlink:href="#DejaVuSans-74" x="380.664062"/>
      <use xlink:href="#DejaVuSans-6e" x="419.873047"/>
      <use xlink:href="#DejaVuSans-65" x="483.251953"/>
      <use xlink:href="#DejaVuSans-73" x="544.775391"/>
      <use xlink:href="#DejaVuSans-73" x="596.875"/>
     </g>
    </g>
   </g>
  </g>
 </g>
 <defs>
  <clipPath id="p2857c5af09">
   <rect x="126" y="69.12" width="781.2" height="443.52"/>
  </clipPath>
 </defs>
</svg>
