<?xml version="1.0" encoding="utf-8" standalone="no"?>
<!DOCTYPE svg PUBLIC "-//W3C//DTD SVG 1.1//EN"
  "http://www.w3.org/Graphics/SVG/1.1/DTD/svg11.dtd">
<svg xmlns:xlink="http://www.w3.org/1999/xlink" width="1008pt" height="576pt" viewBox="0 0 1008 576" xmlns="http://www.w3.org/2000/svg" version="1.1">
 <metadata>
  <rdf:RDF xmlns:dc="http://purl.org/dc/elements/1.1/" xmlns:cc="http://creativecommons.org/ns#" xmlns:rdf="http://www.w3.org/1999/02/22-rdf-syntax-ns#">
   <cc:Work>
    <dc:type rdf:resource="http://purl.org/dc/dcmitype/StillImage"/>
    <dc:date>2023-05-24T11:01:35.608414</dc:date>
    <dc:format>image/svg+xml</dc:format>
    <dc:creator>
     <cc:Agent>
      <dc:title>Matplotlib v3.6.3, https://matplotlib.org/</dc:title>
     </cc:Agent>
    </dc:creator>
   </cc:Work>
  </rdf:RDF>
 </metadata>
 <defs>
  <style type="text/css">*{stroke-linejoin: round; stroke-linecap: butt}</style>
 </defs>
 <g id="figure_1">
  <g id="patch_1">
   <path d="M 0 576 
L 1008 576 
L 1008 0 
L 0 0 
z
" style="fill: #ffffff"/>
  </g>
  <g id="axes_1">
   <g id="patch_2">
    <path d="M 126 512.64 
L 907.2 512.64 
L 907.2 69.12 
L 126 69.12 
z
" style="fill: #ffffff"/>
   </g>
   <g id="matplotlib.axis_1">
    <g id="xtick_1">
     <g id="line2d_1">
      <defs>
       <path id="mbfb4030470" d="M 0 0 
L 0 3.5 
" style="stroke: #000000; stroke-width: 0.8"/>
      </defs>
      <g>
       <use xlink:href="#mbfb4030470" x="161.509091" y="512.64" style="stroke: #000000; stroke-width: 0.8"/>
      </g>
     </g>
     <g id="text_1">
      <!-- 0 -->
      <g transform="translate(158.327841 527.238438) scale(0.1 -0.1)">
       <defs>
        <path id="DejaVuSans-30" d="M 2034 4250 
Q 1547 4250 1301 3770 
Q 1056 3291 1056 2328 
Q 1056 1369 1301 889 
Q 1547 409 2034 409 
Q 2525 409 2770 889 
Q 3016 1369 3016 2328 
Q 3016 3291 2770 3770 
Q 2525 4250 2034 4250 
z
M 2034 4750 
Q 2819 4750 3233 4129 
Q 3647 3509 3647 2328 
Q 3647 1150 3233 529 
Q 2819 -91 2034 -91 
Q 1250 -91 836 529 
Q 422 1150 422 2328 
Q 422 3509 836 4129 
Q 1250 4750 2034 4750 
z
" transform="scale(0.015625)"/>
       </defs>
       <use xlink:href="#DejaVuSans-30"/>
      </g>
     </g>
    </g>
    <g id="xtick_2">
     <g id="line2d_2">
      <g>
       <use xlink:href="#mbfb4030470" x="256.073914" y="512.64" style="stroke: #000000; stroke-width: 0.8"/>
      </g>
     </g>
     <g id="text_2">
      <!-- 100 -->
      <g transform="translate(246.530164 527.238438) scale(0.1 -0.1)">
       <defs>
        <path id="DejaVuSans-31" d="M 794 531 
L 1825 531 
L 1825 4091 
L 703 3866 
L 703 4441 
L 1819 4666 
L 2450 4666 
L 2450 531 
L 3481 531 
L 3481 0 
L 794 0 
L 794 531 
z
" transform="scale(0.015625)"/>
       </defs>
       <use xlink:href="#DejaVuSans-31"/>
       <use xlink:href="#DejaVuSans-30" x="63.623047"/>
       <use xlink:href="#DejaVuSans-30" x="127.246094"/>
      </g>
     </g>
    </g>
    <g id="xtick_3">
     <g id="line2d_3">
      <g>
       <use xlink:href="#mbfb4030470" x="350.638736" y="512.64" style="stroke: #000000; stroke-width: 0.8"/>
      </g>
     </g>
     <g id="text_3">
      <!-- 200 -->
      <g transform="translate(341.094986 527.238438) scale(0.1 -0.1)">
       <defs>
        <path id="DejaVuSans-32" d="M 1228 531 
L 3431 531 
L 3431 0 
L 469 0 
L 469 531 
Q 828 903 1448 1529 
Q 2069 2156 2228 2338 
Q 2531 2678 2651 2914 
Q 2772 3150 2772 3378 
Q 2772 3750 2511 3984 
Q 2250 4219 1831 4219 
Q 1534 4219 1204 4116 
Q 875 4013 500 3803 
L 500 4441 
Q 881 4594 1212 4672 
Q 1544 4750 1819 4750 
Q 2544 4750 2975 4387 
Q 3406 4025 3406 3419 
Q 3406 3131 3298 2873 
Q 3191 2616 2906 2266 
Q 2828 2175 2409 1742 
Q 1991 1309 1228 531 
z
" transform="scale(0.015625)"/>
       </defs>
       <use xlink:href="#DejaVuSans-32"/>
       <use xlink:href="#DejaVuSans-30" x="63.623047"/>
       <use xlink:href="#DejaVuSans-30" x="127.246094"/>
      </g>
     </g>
    </g>
    <g id="xtick_4">
     <g id="line2d_4">
      <g>
       <use xlink:href="#mbfb4030470" x="445.203559" y="512.64" style="stroke: #000000; stroke-width: 0.8"/>
      </g>
     </g>
     <g id="text_4">
      <!-- 300 -->
      <g transform="translate(435.659809 527.238438) scale(0.1 -0.1)">
       <defs>
        <path id="DejaVuSans-33" d="M 2597 2516 
Q 3050 2419 3304 2112 
Q 3559 1806 3559 1356 
Q 3559 666 3084 287 
Q 2609 -91 1734 -91 
Q 1441 -91 1130 -33 
Q 819 25 488 141 
L 488 750 
Q 750 597 1062 519 
Q 1375 441 1716 441 
Q 2309 441 2620 675 
Q 2931 909 2931 1356 
Q 2931 1769 2642 2001 
Q 2353 2234 1838 2234 
L 1294 2234 
L 1294 2753 
L 1863 2753 
Q 2328 2753 2575 2939 
Q 2822 3125 2822 3475 
Q 2822 3834 2567 4026 
Q 2313 4219 1838 4219 
Q 1578 4219 1281 4162 
Q 984 4106 628 3988 
L 628 4550 
Q 988 4650 1302 4700 
Q 1616 4750 1894 4750 
Q 2613 4750 3031 4423 
Q 3450 4097 3450 3541 
Q 3450 3153 3228 2886 
Q 3006 2619 2597 2516 
z
" transform="scale(0.015625)"/>
       </defs>
       <use xlink:href="#DejaVuSans-33"/>
       <use xlink:href="#DejaVuSans-30" x="63.623047"/>
       <use xlink:href="#DejaVuSans-30" x="127.246094"/>
      </g>
     </g>
    </g>
    <g id="xtick_5">
     <g id="line2d_5">
      <g>
       <use xlink:href="#mbfb4030470" x="539.768382" y="512.64" style="stroke: #000000; stroke-width: 0.8"/>
      </g>
     </g>
     <g id="text_5">
      <!-- 400 -->
      <g transform="translate(530.224632 527.238438) scale(0.1 -0.1)">
       <defs>
        <path id="DejaVuSans-34" d="M 2419 4116 
L 825 1625 
L 2419 1625 
L 2419 4116 
z
M 2253 4666 
L 3047 4666 
L 3047 1625 
L 3713 1625 
L 3713 1100 
L 3047 1100 
L 3047 0 
L 2419 0 
L 2419 1100 
L 313 1100 
L 313 1709 
L 2253 4666 
z
" transform="scale(0.015625)"/>
       </defs>
       <use xlink:href="#DejaVuSans-34"/>
       <use xlink:href="#DejaVuSans-30" x="63.623047"/>
       <use xlink:href="#DejaVuSans-30" x="127.246094"/>
      </g>
     </g>
    </g>
    <g id="xtick_6">
     <g id="line2d_6">
      <g>
       <use xlink:href="#mbfb4030470" x="634.333204" y="512.64" style="stroke: #000000; stroke-width: 0.8"/>
      </g>
     </g>
     <g id="text_6">
      <!-- 500 -->
      <g transform="translate(624.789454 527.238438) scale(0.1 -0.1)">
       <defs>
        <path id="DejaVuSans-35" d="M 691 4666 
L 3169 4666 
L 3169 4134 
L 1269 4134 
L 1269 2991 
Q 1406 3038 1543 3061 
Q 1681 3084 1819 3084 
Q 2600 3084 3056 2656 
Q 3513 2228 3513 1497 
Q 3513 744 3044 326 
Q 2575 -91 1722 -91 
Q 1428 -91 1123 -41 
Q 819 9 494 109 
L 494 744 
Q 775 591 1075 516 
Q 1375 441 1709 441 
Q 2250 441 2565 725 
Q 2881 1009 2881 1497 
Q 2881 1984 2565 2268 
Q 2250 2553 1709 2553 
Q 1456 2553 1204 2497 
Q 953 2441 691 2322 
L 691 4666 
z
" transform="scale(0.015625)"/>
       </defs>
       <use xlink:href="#DejaVuSans-35"/>
       <use xlink:href="#DejaVuSans-30" x="63.623047"/>
       <use xlink:href="#DejaVuSans-30" x="127.246094"/>
      </g>
     </g>
    </g>
    <g id="xtick_7">
     <g id="line2d_7">
      <g>
       <use xlink:href="#mbfb4030470" x="728.898027" y="512.64" style="stroke: #000000; stroke-width: 0.8"/>
      </g>
     </g>
     <g id="text_7">
      <!-- 600 -->
      <g transform="translate(719.354277 527.238438) scale(0.1 -0.1)">
       <defs>
        <path id="DejaVuSans-36" d="M 2113 2584 
Q 1688 2584 1439 2293 
Q 1191 2003 1191 1497 
Q 1191 994 1439 701 
Q 1688 409 2113 409 
Q 2538 409 2786 701 
Q 3034 994 3034 1497 
Q 3034 2003 2786 2293 
Q 2538 2584 2113 2584 
z
M 3366 4563 
L 3366 3988 
Q 3128 4100 2886 4159 
Q 2644 4219 2406 4219 
Q 1781 4219 1451 3797 
Q 1122 3375 1075 2522 
Q 1259 2794 1537 2939 
Q 1816 3084 2150 3084 
Q 2853 3084 3261 2657 
Q 3669 2231 3669 1497 
Q 3669 778 3244 343 
Q 2819 -91 2113 -91 
Q 1303 -91 875 529 
Q 447 1150 447 2328 
Q 447 3434 972 4092 
Q 1497 4750 2381 4750 
Q 2619 4750 2861 4703 
Q 3103 4656 3366 4563 
z
" transform="scale(0.015625)"/>
       </defs>
       <use xlink:href="#DejaVuSans-36"/>
       <use xlink:href="#DejaVuSans-30" x="63.623047"/>
       <use xlink:href="#DejaVuSans-30" x="127.246094"/>
      </g>
     </g>
    </g>
    <g id="xtick_8">
     <g id="line2d_8">
      <g>
       <use xlink:href="#mbfb4030470" x="823.46285" y="512.64" style="stroke: #000000; stroke-width: 0.8"/>
      </g>
     </g>
     <g id="text_8">
      <!-- 700 -->
      <g transform="translate(813.9191 527.238438) scale(0.1 -0.1)">
       <defs>
        <path id="DejaVuSans-37" d="M 525 4666 
L 3525 4666 
L 3525 4397 
L 1831 0 
L 1172 0 
L 2766 4134 
L 525 4134 
L 525 4666 
z
" transform="scale(0.015625)"/>
       </defs>
       <use xlink:href="#DejaVuSans-37"/>
       <use xlink:href="#DejaVuSans-30" x="63.623047"/>
       <use xlink:href="#DejaVuSans-30" x="127.246094"/>
      </g>
     </g>
    </g>
    <g id="text_9">
     <!-- Generation -->
     <g transform="translate(466.392656 546.995312) scale(0.18 -0.18)">
      <defs>
       <path id="DejaVuSans-47" d="M 3809 666 
L 3809 1919 
L 2778 1919 
L 2778 2438 
L 4434 2438 
L 4434 434 
Q 4069 175 3628 42 
Q 3188 -91 2688 -91 
Q 1594 -91 976 548 
Q 359 1188 359 2328 
Q 359 3472 976 4111 
Q 1594 4750 2688 4750 
Q 3144 4750 3555 4637 
Q 3966 4525 4313 4306 
L 4313 3634 
Q 3963 3931 3569 4081 
Q 3175 4231 2741 4231 
Q 1884 4231 1454 3753 
Q 1025 3275 1025 2328 
Q 1025 1384 1454 906 
Q 1884 428 2741 428 
Q 3075 428 3337 486 
Q 3600 544 3809 666 
z
" transform="scale(0.015625)"/>
       <path id="DejaVuSans-65" d="M 3597 1894 
L 3597 1613 
L 953 1613 
Q 991 1019 1311 708 
Q 1631 397 2203 397 
Q 2534 397 2845 478 
Q 3156 559 3463 722 
L 3463 178 
Q 3153 47 2828 -22 
Q 2503 -91 2169 -91 
Q 1331 -91 842 396 
Q 353 884 353 1716 
Q 353 2575 817 3079 
Q 1281 3584 2069 3584 
Q 2775 3584 3186 3129 
Q 3597 2675 3597 1894 
z
M 3022 2063 
Q 3016 2534 2758 2815 
Q 2500 3097 2075 3097 
Q 1594 3097 1305 2825 
Q 1016 2553 972 2059 
L 3022 2063 
z
" transform="scale(0.015625)"/>
       <path id="DejaVuSans-6e" d="M 3513 2113 
L 3513 0 
L 2938 0 
L 2938 2094 
Q 2938 2591 2744 2837 
Q 2550 3084 2163 3084 
Q 1697 3084 1428 2787 
Q 1159 2491 1159 1978 
L 1159 0 
L 581 0 
L 581 3500 
L 1159 3500 
L 1159 2956 
Q 1366 3272 1645 3428 
Q 1925 3584 2291 3584 
Q 2894 3584 3203 3211 
Q 3513 2838 3513 2113 
z
" transform="scale(0.015625)"/>
       <path id="DejaVuSans-72" d="M 2631 2963 
Q 2534 3019 2420 3045 
Q 2306 3072 2169 3072 
Q 1681 3072 1420 2755 
Q 1159 2438 1159 1844 
L 1159 0 
L 581 0 
L 581 3500 
L 1159 3500 
L 1159 2956 
Q 1341 3275 1631 3429 
Q 1922 3584 2338 3584 
Q 2397 3584 2469 3576 
Q 2541 3569 2628 3553 
L 2631 2963 
z
" transform="scale(0.015625)"/>
       <path id="DejaVuSans-61" d="M 2194 1759 
Q 1497 1759 1228 1600 
Q 959 1441 959 1056 
Q 959 750 1161 570 
Q 1363 391 1709 391 
Q 2188 391 2477 730 
Q 2766 1069 2766 1631 
L 2766 1759 
L 2194 1759 
z
M 3341 1997 
L 3341 0 
L 2766 0 
L 2766 531 
Q 2569 213 2275 61 
Q 1981 -91 1556 -91 
Q 1019 -91 701 211 
Q 384 513 384 1019 
Q 384 1609 779 1909 
Q 1175 2209 1959 2209 
L 2766 2209 
L 2766 2266 
Q 2766 2663 2505 2880 
Q 2244 3097 1772 3097 
Q 1472 3097 1187 3025 
Q 903 2953 641 2809 
L 641 3341 
Q 956 3463 1253 3523 
Q 1550 3584 1831 3584 
Q 2591 3584 2966 3190 
Q 3341 2797 3341 1997 
z
" transform="scale(0.015625)"/>
       <path id="DejaVuSans-74" d="M 1172 4494 
L 1172 3500 
L 2356 3500 
L 2356 3053 
L 1172 3053 
L 1172 1153 
Q 1172 725 1289 603 
Q 1406 481 1766 481 
L 2356 481 
L 2356 0 
L 1766 0 
Q 1100 0 847 248 
Q 594 497 594 1153 
L 594 3053 
L 172 3053 
L 172 3500 
L 594 3500 
L 594 4494 
L 1172 4494 
z
" transform="scale(0.015625)"/>
       <path id="DejaVuSans-69" d="M 603 3500 
L 1178 3500 
L 1178 0 
L 603 0 
L 603 3500 
z
M 603 4863 
L 1178 4863 
L 1178 4134 
L 603 4134 
L 603 4863 
z
" transform="scale(0.015625)"/>
       <path id="DejaVuSans-6f" d="M 1959 3097 
Q 1497 3097 1228 2736 
Q 959 2375 959 1747 
Q 959 1119 1226 758 
Q 1494 397 1959 397 
Q 2419 397 2687 759 
Q 2956 1122 2956 1747 
Q 2956 2369 2687 2733 
Q 2419 3097 1959 3097 
z
M 1959 3584 
Q 2709 3584 3137 3096 
Q 3566 2609 3566 1747 
Q 3566 888 3137 398 
Q 2709 -91 1959 -91 
Q 1206 -91 779 398 
Q 353 888 353 1747 
Q 353 2609 779 3096 
Q 1206 3584 1959 3584 
z
" transform="scale(0.015625)"/>
      </defs>
      <use xlink:href="#DejaVuSans-47"/>
      <use xlink:href="#DejaVuSans-65" x="77.490234"/>
      <use xlink:href="#DejaVuSans-6e" x="139.013672"/>
      <use xlink:href="#DejaVuSans-65" x="202.392578"/>
      <use xlink:href="#DejaVuSans-72" x="263.916016"/>
      <use xlink:href="#DejaVuSans-61" x="305.029297"/>
      <use xlink:href="#DejaVuSans-74" x="366.308594"/>
      <use xlink:href="#DejaVuSans-69" x="405.517578"/>
      <use xlink:href="#DejaVuSans-6f" x="433.300781"/>
      <use xlink:href="#DejaVuSans-6e" x="494.482422"/>
     </g>
    </g>
   </g>
   <g id="matplotlib.axis_2">
    <g id="ytick_1">
     <g id="line2d_9">
      <defs>
       <path id="m0cd3ea8b5e" d="M 0 0 
L -3.5 0 
" style="stroke: #000000; stroke-width: 0.8"/>
      </defs>
      <g>
       <use xlink:href="#m0cd3ea8b5e" x="126" y="434.88" style="stroke: #000000; stroke-width: 0.8"/>
      </g>
     </g>
     <g id="text_10">
      <!-- 50 -->
      <g transform="translate(106.275 438.679219) scale(0.1 -0.1)">
       <use xlink:href="#DejaVuSans-35"/>
       <use xlink:href="#DejaVuSans-30" x="63.623047"/>
      </g>
     </g>
    </g>
    <g id="ytick_2">
     <g id="line2d_10">
      <g>
       <use xlink:href="#m0cd3ea8b5e" x="126" y="338.88" style="stroke: #000000; stroke-width: 0.8"/>
      </g>
     </g>
     <g id="text_11">
      <!-- 100 -->
      <g transform="translate(99.9125 342.679219) scale(0.1 -0.1)">
       <use xlink:href="#DejaVuSans-31"/>
       <use xlink:href="#DejaVuSans-30" x="63.623047"/>
       <use xlink:href="#DejaVuSans-30" x="127.246094"/>
      </g>
     </g>
    </g>
    <g id="ytick_3">
     <g id="line2d_11">
      <g>
       <use xlink:href="#m0cd3ea8b5e" x="126" y="242.88" style="stroke: #000000; stroke-width: 0.8"/>
      </g>
     </g>
     <g id="text_12">
      <!-- 150 -->
      <g transform="translate(99.9125 246.679219) scale(0.1 -0.1)">
       <use xlink:href="#DejaVuSans-31"/>
       <use xlink:href="#DejaVuSans-35" x="63.623047"/>
       <use xlink:href="#DejaVuSans-30" x="127.246094"/>
      </g>
     </g>
    </g>
    <g id="ytick_4">
     <g id="line2d_12">
      <g>
       <use xlink:href="#m0cd3ea8b5e" x="126" y="146.88" style="stroke: #000000; stroke-width: 0.8"/>
      </g>
     </g>
     <g id="text_13">
      <!-- 200 -->
      <g transform="translate(99.9125 150.679219) scale(0.1 -0.1)">
       <use xlink:href="#DejaVuSans-32"/>
       <use xlink:href="#DejaVuSans-30" x="63.623047"/>
       <use xlink:href="#DejaVuSans-30" x="127.246094"/>
      </g>
     </g>
    </g>
    <g id="text_14">
     <!-- Fitness -->
     <g transform="translate(92.585 318.5875) rotate(-90) scale(0.16 -0.16)">
      <defs>
       <path id="DejaVuSans-46" d="M 628 4666 
L 3309 4666 
L 3309 4134 
L 1259 4134 
L 1259 2759 
L 3109 2759 
L 3109 2228 
L 1259 2228 
L 1259 0 
L 628 0 
L 628 4666 
z
" transform="scale(0.015625)"/>
       <path id="DejaVuSans-73" d="M 2834 3397 
L 2834 2853 
Q 2591 2978 2328 3040 
Q 2066 3103 1784 3103 
Q 1356 3103 1142 2972 
Q 928 2841 928 2578 
Q 928 2378 1081 2264 
Q 1234 2150 1697 2047 
L 1894 2003 
Q 2506 1872 2764 1633 
Q 3022 1394 3022 966 
Q 3022 478 2636 193 
Q 2250 -91 1575 -91 
Q 1294 -91 989 -36 
Q 684 19 347 128 
L 347 722 
Q 666 556 975 473 
Q 1284 391 1588 391 
Q 1994 391 2212 530 
Q 2431 669 2431 922 
Q 2431 1156 2273 1281 
Q 2116 1406 1581 1522 
L 1381 1569 
Q 847 1681 609 1914 
Q 372 2147 372 2553 
Q 372 3047 722 3315 
Q 1072 3584 1716 3584 
Q 2034 3584 2315 3537 
Q 2597 3491 2834 3397 
z
" transform="scale(0.015625)"/>
      </defs>
      <use xlink:href="#DejaVuSans-46"/>
      <use xlink:href="#DejaVuSans-69" x="50.269531"/>
      <use xlink:href="#DejaVuSans-74" x="78.052734"/>
      <use xlink:href="#DejaVuSans-6e" x="117.261719"/>
      <use xlink:href="#DejaVuSans-65" x="180.640625"/>
      <use xlink:href="#DejaVuSans-73" x="242.164062"/>
      <use xlink:href="#DejaVuSans-73" x="294.263672"/>
     </g>
    </g>
   </g>
   <g id="line2d_13">
    <path d="M 360.095218 411.84 
L 361.040867 104.64 
L 361.986515 89.28 
" clip-path="url(#p00d2e3ba90)" style="fill: none; stroke: #08306b; stroke-width: 1.5; stroke-linecap: square"/>
   </g>
   <g id="line2d_14">
    <path d="M 597.452923 463.68 
L 598.398572 457.92 
L 599.34422 434.88 
L 600.289868 434.88 
L 601.235516 434.88 
L 602.181165 434.88 
L 603.126813 434.88 
L 604.072461 434.88 
L 605.018109 434.88 
L 605.963757 434.88 
L 606.909406 434.88 
L 607.855054 398.4 
L 608.800702 398.4 
L 609.74635 398.4 
L 610.691999 381.12 
L 611.637647 381.12 
L 612.583295 381.12 
L 613.528943 381.12 
L 614.474591 381.12 
L 615.42024 381.12 
L 616.365888 381.12 
L 617.311536 381.12 
L 618.257184 381.12 
L 619.202833 358.08 
L 620.148481 358.08 
L 621.094129 358.08 
L 622.039777 358.08 
L 622.985425 358.08 
L 623.931074 358.08 
L 624.876722 331.2 
L 625.82237 331.2 
L 626.768018 331.2 
L 627.713667 331.2 
L 628.659315 331.2 
L 629.604963 331.2 
L 630.550611 331.2 
L 631.49626 331.2 
L 632.441908 331.2 
L 633.387556 331.2 
L 634.333204 331.2 
L 635.278852 331.2 
L 636.224501 315.84 
L 637.170149 315.84 
L 638.115797 315.84 
L 639.061445 212.16 
L 640.007094 127.68 
L 640.952742 127.68 
L 641.89839 127.68 
L 642.844038 127.68 
L 643.789686 127.68 
L 644.735335 127.68 
L 645.680983 127.68 
L 646.626631 127.68 
L 647.572279 127.68 
L 648.517928 127.68 
L 649.463576 127.68 
L 650.409224 127.68 
L 651.354872 127.68 
L 652.300521 127.68 
L 653.246169 127.68 
L 654.191817 127.68 
L 655.137465 127.68 
L 656.083113 127.68 
L 657.028762 127.68 
L 657.97441 127.68 
L 658.920058 127.68 
L 659.865706 127.68 
L 660.811355 127.68 
L 661.757003 127.68 
L 662.702651 127.68 
L 663.648299 127.68 
L 664.593947 127.68 
L 665.539596 127.68 
L 666.485244 127.68 
L 667.430892 127.68 
L 668.37654 127.68 
L 669.322189 125.76 
L 670.267837 125.76 
L 671.213485 125.76 
L 672.159133 125.76 
L 673.104782 125.76 
L 674.05043 125.76 
L 674.996078 125.76 
L 675.941726 89.28 
" clip-path="url(#p00d2e3ba90)" style="fill: none; stroke: #084488; stroke-width: 1.5; stroke-linecap: square"/>
   </g>
   <g id="line2d_15">
    <path d="M 274.04123 146.88 
L 274.986878 108.48 
L 275.932526 89.28 
" clip-path="url(#p00d2e3ba90)" style="fill: none; stroke: #0e58a2; stroke-width: 1.5; stroke-linecap: square"/>
   </g>
   <g id="line2d_16">
    <path d="M 322.269289 383.04 
L 323.214938 383.04 
L 324.160586 383.04 
L 325.106234 346.56 
L 326.051882 344.64 
L 326.997531 344.64 
L 327.943179 344.64 
L 328.888827 344.64 
L 329.834475 344.64 
L 330.780123 344.64 
L 331.725772 217.92 
L 332.67142 217.92 
L 333.617068 217.92 
L 334.562716 217.92 
L 335.508365 217.92 
L 336.454013 217.92 
L 337.399661 217.92 
L 338.345309 217.92 
L 339.290958 217.92 
L 340.236606 217.92 
L 341.182254 212.16 
L 342.127902 212.16 
L 343.07355 212.16 
L 344.019199 212.16 
L 344.964847 212.16 
L 345.910495 212.16 
L 346.856143 212.16 
L 347.801792 212.16 
L 348.74744 212.16 
L 349.693088 212.16 
L 350.638736 212.16 
L 351.584384 212.16 
L 352.530033 206.4 
L 353.475681 206.4 
L 354.421329 206.4 
L 355.366977 206.4 
L 356.312626 206.4 
L 357.258274 206.4 
L 358.203922 206.4 
L 359.14957 204.48 
L 360.095218 204.48 
L 361.040867 204.48 
L 361.986515 194.88 
L 362.932163 194.88 
L 363.877811 194.88 
L 364.82346 194.88 
L 365.769108 194.88 
L 366.714756 194.88 
L 367.660404 194.88 
L 368.606053 192.96 
L 369.551701 192.96 
L 370.497349 146.88 
L 371.442997 146.88 
L 372.388645 146.88 
L 373.334294 139.2 
L 374.279942 139.2 
L 375.22559 139.2 
L 376.171238 139.2 
L 377.116887 139.2 
L 378.062535 139.2 
L 379.008183 139.2 
L 379.953831 89.28 
" clip-path="url(#p00d2e3ba90)" style="fill: none; stroke: #1d6cb1; stroke-width: 1.5; stroke-linecap: square"/>
   </g>
   <g id="line2d_17">
    <path d="M 432.910132 454.08 
L 433.85578 371.52 
L 434.801428 371.52 
L 435.747077 371.52 
L 436.692725 369.6 
L 437.638373 369.6 
L 438.584021 369.6 
L 439.52967 369.6 
L 440.475318 110.4 
L 441.420966 110.4 
L 442.366614 106.56 
L 443.312262 89.28 
" clip-path="url(#p00d2e3ba90)" style="fill: none; stroke: #3181bd; stroke-width: 1.5; stroke-linecap: square"/>
   </g>
   <g id="line2d_18">
    <path d="M 870.745261 492.48 
L 871.690909 89.28 
" clip-path="url(#p00d2e3ba90)" style="fill: none; stroke: #4695c8; stroke-width: 1.5; stroke-linecap: square"/>
   </g>
   <g id="line2d_19">
    <path d="M 653.246169 473.28 
L 654.191817 456 
L 655.137465 450.24 
L 656.083113 371.52 
L 657.028762 371.52 
L 657.97441 344.64 
L 658.920058 344.64 
L 659.865706 344.64 
L 660.811355 344.64 
L 661.757003 344.64 
L 662.702651 344.64 
L 663.648299 344.64 
L 664.593947 254.4 
L 665.539596 254.4 
L 666.485244 254.4 
L 667.430892 254.4 
L 668.37654 225.6 
L 669.322189 225.6 
L 670.267837 217.92 
L 671.213485 217.92 
L 672.159133 214.08 
L 673.104782 214.08 
L 674.05043 152.64 
L 674.996078 152.64 
L 675.941726 127.68 
L 676.887374 127.68 
L 677.833023 127.68 
L 678.778671 127.68 
L 679.724319 127.68 
L 680.669967 127.68 
L 681.615616 112.32 
L 682.561264 112.32 
L 683.506912 112.32 
L 684.45256 112.32 
L 685.398208 108.48 
L 686.343857 108.48 
L 687.289505 108.48 
L 688.235153 108.48 
L 689.180801 108.48 
L 690.12645 108.48 
L 691.072098 108.48 
L 692.017746 108.48 
L 692.963394 108.48 
L 693.909042 108.48 
L 694.854691 89.28 
" clip-path="url(#p00d2e3ba90)" style="fill: none; stroke: #60a7d2; stroke-width: 1.5; stroke-linecap: square"/>
   </g>
   <g id="line2d_20">
    <path d="M 192.715482 411.84 
L 193.661131 411.84 
L 194.606779 404.16 
L 195.552427 404.16 
L 196.498075 404.16 
L 197.443724 400.32 
L 198.389372 363.84 
L 199.33502 363.84 
L 200.280668 363.84 
L 201.226316 108.48 
L 202.171965 108.48 
L 203.117613 108.48 
L 204.063261 108.48 
L 205.008909 108.48 
L 205.954558 108.48 
L 206.900206 108.48 
L 207.845854 108.48 
L 208.791502 108.48 
L 209.73715 108.48 
L 210.682799 108.48 
L 211.628447 108.48 
L 212.574095 108.48 
L 213.519743 108.48 
L 214.465392 108.48 
L 215.41104 108.48 
L 216.356688 108.48 
L 217.302336 108.48 
L 218.247985 108.48 
L 219.193633 108.48 
L 220.139281 108.48 
L 221.084929 108.48 
L 222.030577 108.48 
L 222.976226 108.48 
L 223.921874 108.48 
L 224.867522 108.48 
L 225.81317 108.48 
L 226.758819 108.48 
L 227.704467 108.48 
L 228.650115 108.48 
L 229.595763 108.48 
L 230.541411 108.48 
L 231.48706 108.48 
L 232.432708 108.48 
L 233.378356 108.48 
L 234.324004 108.48 
L 235.269653 108.48 
L 236.215301 108.48 
L 237.160949 108.48 
L 238.106597 108.48 
L 239.052245 108.48 
L 239.997894 108.48 
L 240.943542 108.48 
L 241.88919 108.48 
L 242.834838 108.48 
L 243.780487 108.48 
L 244.726135 108.48 
L 245.671783 108.48 
L 246.617431 108.48 
L 247.56308 108.48 
L 248.508728 108.48 
L 249.454376 108.48 
L 250.400024 108.48 
L 251.345672 108.48 
L 252.291321 108.48 
L 253.236969 108.48 
L 254.182617 108.48 
L 255.128265 108.48 
L 256.073914 108.48 
L 257.019562 108.48 
L 257.96521 108.48 
L 258.910858 89.28 
" clip-path="url(#p00d2e3ba90)" style="fill: none; stroke: #7db8da; stroke-width: 1.5; stroke-linecap: square"/>
   </g>
   <g id="line2d_21">
    <path d="M 512.344583 100.8 
L 513.290231 96.96 
L 514.235879 93.12 
L 515.181528 93.12 
L 516.127176 89.28 
" clip-path="url(#p00d2e3ba90)" style="fill: none; stroke: #9dcae1; stroke-width: 1.5; stroke-linecap: square"/>
   </g>
   <g id="line2d_22">
    <path d="M 646.626631 129.6 
L 647.572279 89.28 
" clip-path="url(#p00d2e3ba90)" style="fill: none; stroke: #b7d4ea; stroke-width: 1.5; stroke-linecap: square"/>
   </g>
   <g id="line2d_23">
    <path d="M 161.509091 473.28 
L 184.204648 473.28 
L 185.150297 459.84 
L 186.095945 459.84 
L 187.041593 456 
L 188.932889 456 
L 189.878538 452.16 
L 191.769834 452.16 
L 192.715482 411.84 
L 193.661131 379.2 
L 208.791502 379.2 
L 209.73715 296.64 
L 217.302336 296.64 
L 218.247985 231.36 
L 219.193633 206.4 
L 272.149933 206.4 
L 273.095582 202.56 
L 278.769471 202.56 
L 279.715119 200.64 
L 296.736787 200.64 
L 297.682436 198.72 
L 300.51938 198.72 
L 301.465028 108.48 
L 315.649752 108.48 
L 316.5954 89.28 
L 316.5954 89.28 
" clip-path="url(#p00d2e3ba90)" style="fill: none; stroke: #7f2704; stroke-width: 1.5; stroke-linecap: square"/>
   </g>
   <g id="line2d_24">
    <path d="M 161.509091 452.16 
L 167.18298 452.16 
L 168.128628 434.88 
L 169.074277 434.88 
L 170.019925 421.44 
L 185.150297 421.44 
L 186.095945 409.92 
L 205.008909 409.92 
L 205.954558 396.48 
L 206.900206 388.8 
L 207.845854 383.04 
L 208.791502 356.16 
L 225.81317 356.16 
L 226.758819 354.24 
L 233.378356 354.24 
L 234.324004 162.24 
L 238.106597 162.24 
L 239.052245 158.4 
L 327.943179 158.4 
L 328.888827 127.68 
L 350.638736 127.68 
L 351.584384 89.28 
L 351.584384 89.28 
" clip-path="url(#p00d2e3ba90)" style="fill: none; stroke: #963003; stroke-width: 1.5; stroke-linecap: square"/>
   </g>
   <g id="line2d_25">
    <path d="M 161.509091 473.28 
L 162.454739 454.08 
L 165.291684 454.08 
L 166.237332 438.72 
L 184.204648 438.72 
L 185.150297 434.88 
L 190.824186 434.88 
L 191.769834 425.28 
L 209.73715 425.28 
L 210.682799 383.04 
L 223.921874 383.04 
L 224.867522 377.28 
L 237.160949 377.28 
L 238.106597 365.76 
L 257.96521 365.76 
L 258.910858 358.08 
L 291.062898 358.08 
L 292.008546 350.4 
L 298.628084 350.4 
L 299.573732 198.72 
L 303.356325 198.72 
L 304.301973 146.88 
L 305.247621 146.88 
L 306.19327 127.68 
L 307.138918 127.68 
L 308.084566 89.28 
L 308.084566 89.28 
" clip-path="url(#p00d2e3ba90)" style="fill: none; stroke: #b13a03; stroke-width: 1.5; stroke-linecap: square"/>
   </g>
   <g id="line2d_26">
    <path d="M 161.509091 473.28 
L 168.128628 473.28 
L 170.019925 457.92 
L 171.911221 457.92 
L 172.85687 444.48 
L 173.802518 440.64 
L 185.150297 440.64 
L 186.095945 429.12 
L 187.041593 429.12 
L 187.987241 411.84 
L 218.247985 411.84 
L 219.193633 402.24 
L 233.378356 402.24 
L 234.324004 356.16 
L 235.269653 356.16 
L 236.215301 354.24 
L 310.921511 354.24 
L 311.867159 352.32 
L 354.421329 352.32 
L 355.366977 348.48 
L 408.323278 348.48 
L 409.268926 342.72 
L 460.333931 342.72 
L 461.279579 338.88 
L 503.833749 338.88 
L 504.779397 141.12 
L 588.942089 141.12 
L 589.887738 123.84 
L 590.833386 123.84 
L 591.779034 120 
L 598.398572 120 
L 599.34422 110.4 
L 605.018109 110.4 
L 605.963757 89.28 
L 605.963757 89.28 
" clip-path="url(#p00d2e3ba90)" style="fill: none; stroke: #d14501; stroke-width: 1.5; stroke-linecap: square"/>
   </g>
   <g id="line2d_27">
    <path d="M 161.509091 473.28 
L 162.454739 473.28 
L 163.400387 473.28 
L 164.346036 473.28 
L 165.291684 434.88 
L 166.237332 434.88 
L 167.18298 434.88 
L 168.128628 434.88 
L 169.074277 434.88 
L 170.019925 434.88 
L 170.965573 434.88 
L 171.911221 434.88 
L 172.85687 434.88 
L 173.802518 434.88 
L 174.748166 434.88 
L 175.693814 434.88 
L 176.639463 434.88 
L 177.585111 434.88 
L 178.530759 434.88 
L 179.476407 427.2 
L 180.422055 427.2 
L 181.367704 381.12 
L 182.313352 381.12 
L 183.259 381.12 
L 184.204648 381.12 
L 185.150297 381.12 
L 186.095945 381.12 
L 187.041593 381.12 
L 187.987241 381.12 
L 188.932889 381.12 
L 189.878538 381.12 
L 190.824186 381.12 
L 191.769834 381.12 
L 192.715482 333.12 
L 193.661131 333.12 
L 194.606779 333.12 
L 195.552427 333.12 
L 196.498075 333.12 
L 197.443724 333.12 
L 198.389372 173.76 
L 199.33502 173.76 
L 200.280668 173.76 
L 201.226316 173.76 
L 202.171965 173.76 
L 203.117613 173.76 
L 204.063261 173.76 
L 205.008909 173.76 
L 205.954558 173.76 
L 206.900206 173.76 
L 207.845854 173.76 
L 208.791502 173.76 
L 209.73715 173.76 
L 210.682799 173.76 
L 211.628447 173.76 
L 212.574095 173.76 
L 213.519743 173.76 
L 214.465392 173.76 
L 215.41104 173.76 
L 216.356688 173.76 
L 217.302336 173.76 
L 218.247985 173.76 
L 219.193633 173.76 
L 220.139281 144.96 
L 221.084929 144.96 
L 222.030577 144.96 
L 222.976226 144.96 
L 223.921874 144.96 
L 224.867522 144.96 
L 225.81317 144.96 
L 226.758819 144.96 
L 227.704467 110.4 
L 228.650115 110.4 
L 229.595763 110.4 
L 230.541411 110.4 
L 231.48706 110.4 
L 232.432708 104.64 
L 233.378356 104.64 
L 234.324004 102.72 
L 235.269653 102.72 
L 236.215301 89.28 
" clip-path="url(#p00d2e3ba90)" style="fill: none; stroke: #e4580a; stroke-width: 1.5; stroke-linecap: square"/>
   </g>
   <g id="line2d_28">
    <path d="M 161.509091 473.28 
L 162.454739 473.28 
L 163.400387 471.36 
L 164.346036 438.72 
L 167.18298 438.72 
L 168.128628 434.88 
L 187.041593 434.88 
L 187.987241 411.84 
L 191.769834 411.84 
L 192.715482 409.92 
L 193.661131 404.16 
L 196.498075 404.16 
L 197.443724 400.32 
L 236.215301 400.32 
L 237.160949 396.48 
L 239.997894 396.48 
L 240.943542 371.52 
L 249.454376 371.52 
L 250.400024 340.8 
L 253.236969 340.8 
L 254.182617 338.88 
L 256.073914 338.88 
L 257.019562 198.72 
L 306.19327 198.72 
L 307.138918 168 
L 315.649752 168 
L 316.5954 108.48 
L 322.269289 108.48 
L 323.214938 89.28 
L 323.214938 89.28 
" clip-path="url(#p00d2e3ba90)" style="fill: none; stroke: #f26d17; stroke-width: 1.5; stroke-linecap: square"/>
   </g>
   <g id="line2d_29">
    <path d="M 161.509091 473.28 
L 162.454739 473.28 
L 163.400387 473.28 
L 164.346036 473.28 
L 165.291684 438.72 
L 166.237332 438.72 
L 167.18298 438.72 
L 168.128628 438.72 
L 169.074277 438.72 
L 170.019925 438.72 
L 170.965573 438.72 
L 171.911221 438.72 
L 172.85687 438.72 
L 173.802518 438.72 
L 174.748166 438.72 
L 175.693814 423.36 
L 176.639463 423.36 
L 177.585111 423.36 
L 178.530759 423.36 
L 179.476407 423.36 
L 180.422055 423.36 
L 181.367704 392.64 
L 182.313352 392.64 
L 183.259 392.64 
L 184.204648 392.64 
L 185.150297 392.64 
L 186.095945 392.64 
L 187.041593 392.64 
L 187.987241 392.64 
L 188.932889 392.64 
L 189.878538 392.64 
L 190.824186 392.64 
L 191.769834 392.64 
L 192.715482 392.64 
L 193.661131 392.64 
L 194.606779 392.64 
L 195.552427 392.64 
L 196.498075 392.64 
L 197.443724 392.64 
L 198.389372 392.64 
L 199.33502 392.64 
L 200.280668 392.64 
L 201.226316 392.64 
L 202.171965 392.64 
L 203.117613 392.64 
L 204.063261 392.64 
L 205.008909 392.64 
L 205.954558 392.64 
L 206.900206 392.64 
L 207.845854 392.64 
L 208.791502 392.64 
L 209.73715 392.64 
L 210.682799 392.64 
L 211.628447 392.64 
L 212.574095 392.64 
L 213.519743 392.64 
L 214.465392 392.64 
L 215.41104 392.64 
L 216.356688 392.64 
L 217.302336 392.64 
L 218.247985 390.72 
L 219.193633 390.72 
L 220.139281 390.72 
L 221.084929 390.72 
L 222.030577 377.28 
L 222.976226 377.28 
L 223.921874 377.28 
L 224.867522 377.28 
L 225.81317 377.28 
L 226.758819 377.28 
L 227.704467 377.28 
L 228.650115 377.28 
L 229.595763 377.28 
L 230.541411 377.28 
L 231.48706 377.28 
L 232.432708 377.28 
L 233.378356 367.68 
L 234.324004 367.68 
L 235.269653 367.68 
L 236.215301 367.68 
L 237.160949 367.68 
L 238.106597 367.68 
L 239.052245 367.68 
L 239.997894 164.16 
L 240.943542 164.16 
L 241.88919 164.16 
L 242.834838 164.16 
L 243.780487 164.16 
L 244.726135 164.16 
L 245.671783 164.16 
L 246.617431 164.16 
L 247.56308 164.16 
L 248.508728 164.16 
L 249.454376 164.16 
L 250.400024 164.16 
L 251.345672 164.16 
L 252.291321 164.16 
L 253.236969 164.16 
L 254.182617 164.16 
L 255.128265 164.16 
L 256.073914 164.16 
L 257.019562 144.96 
L 257.96521 144.96 
L 258.910858 144.96 
L 259.856506 144.96 
L 260.802155 127.68 
L 261.747803 127.68 
L 262.693451 127.68 
L 263.639099 108.48 
L 264.584748 108.48 
L 265.530396 89.28 
" clip-path="url(#p00d2e3ba90)" style="fill: none; stroke: #fa8331; stroke-width: 1.5; stroke-linecap: square"/>
   </g>
   <g id="line2d_30">
    <path d="M 161.509091 473.28 
L 162.454739 473.28 
L 163.400387 473.28 
L 164.346036 473.28 
L 165.291684 454.08 
L 166.237332 454.08 
L 167.18298 454.08 
L 168.128628 454.08 
L 169.074277 454.08 
L 170.019925 454.08 
L 170.965573 454.08 
L 171.911221 454.08 
L 172.85687 454.08 
L 173.802518 454.08 
L 174.748166 454.08 
L 175.693814 454.08 
L 176.639463 454.08 
L 177.585111 454.08 
L 178.530759 454.08 
L 179.476407 454.08 
L 180.422055 454.08 
L 181.367704 454.08 
L 182.313352 454.08 
L 183.259 454.08 
L 184.204648 454.08 
L 185.150297 454.08 
L 186.095945 454.08 
L 187.041593 454.08 
L 187.987241 454.08 
L 188.932889 454.08 
L 189.878538 454.08 
L 190.824186 454.08 
L 191.769834 454.08 
L 192.715482 454.08 
L 193.661131 454.08 
L 194.606779 454.08 
L 195.552427 454.08 
L 196.498075 454.08 
L 197.443724 438.72 
L 198.389372 417.6 
L 199.33502 417.6 
L 200.280668 417.6 
L 201.226316 411.84 
L 202.171965 411.84 
L 203.117613 411.84 
L 204.063261 411.84 
L 205.008909 371.52 
L 205.954558 204.48 
L 206.900206 204.48 
L 207.845854 110.4 
L 208.791502 110.4 
L 209.73715 110.4 
L 210.682799 110.4 
L 211.628447 89.28 
" clip-path="url(#p00d2e3ba90)" style="fill: none; stroke: #fd994d; stroke-width: 1.5; stroke-linecap: square"/>
   </g>
   <g id="line2d_31">
    <path d="M 161.509091 473.28 
L 162.454739 473.28 
L 163.400387 467.52 
L 164.346036 467.52 
L 165.291684 434.88 
L 166.237332 434.88 
L 167.18298 434.88 
L 168.128628 434.88 
L 169.074277 434.88 
L 170.019925 434.88 
L 170.965573 434.88 
L 171.911221 434.88 
L 172.85687 434.88 
L 173.802518 434.88 
L 174.748166 434.88 
L 175.693814 434.88 
L 176.639463 434.88 
L 177.585111 396.48 
L 178.530759 396.48 
L 179.476407 396.48 
L 180.422055 396.48 
L 181.367704 396.48 
L 182.313352 396.48 
L 183.259 396.48 
L 184.204648 396.48 
L 185.150297 396.48 
L 186.095945 396.48 
L 187.041593 396.48 
L 187.987241 396.48 
L 188.932889 388.8 
L 189.878538 388.8 
L 190.824186 388.8 
L 191.769834 388.8 
L 192.715482 388.8 
L 193.661131 388.8 
L 194.606779 388.8 
L 195.552427 388.8 
L 196.498075 388.8 
L 197.443724 388.8 
L 198.389372 388.8 
L 199.33502 388.8 
L 200.280668 388.8 
L 201.226316 388.8 
L 202.171965 373.44 
L 203.117613 373.44 
L 204.063261 373.44 
L 205.008909 373.44 
L 205.954558 373.44 
L 206.900206 373.44 
L 207.845854 373.44 
L 208.791502 373.44 
L 209.73715 373.44 
L 210.682799 373.44 
L 211.628447 373.44 
L 212.574095 365.76 
L 213.519743 365.76 
L 214.465392 365.76 
L 215.41104 365.76 
L 216.356688 365.76 
L 217.302336 365.76 
L 218.247985 365.76 
L 219.193633 365.76 
L 220.139281 365.76 
L 221.084929 365.76 
L 222.030577 365.76 
L 222.976226 365.76 
L 223.921874 365.76 
L 224.867522 365.76 
L 225.81317 365.76 
L 226.758819 365.76 
L 227.704467 365.76 
L 228.650115 365.76 
L 229.595763 365.76 
L 230.541411 365.76 
L 231.48706 365.76 
L 232.432708 365.76 
L 233.378356 365.76 
L 234.324004 365.76 
L 235.269653 365.76 
L 236.215301 361.92 
L 237.160949 361.92 
L 238.106597 361.92 
L 239.052245 361.92 
L 239.997894 361.92 
L 240.943542 361.92 
L 241.88919 361.92 
L 242.834838 361.92 
L 243.780487 350.4 
L 244.726135 350.4 
L 245.671783 350.4 
L 246.617431 350.4 
L 247.56308 350.4 
L 248.508728 350.4 
L 249.454376 350.4 
L 250.400024 350.4 
L 251.345672 350.4 
L 252.291321 350.4 
L 253.236969 350.4 
L 254.182617 350.4 
L 255.128265 350.4 
L 256.073914 350.4 
L 257.019562 350.4 
L 257.96521 350.4 
L 258.910858 350.4 
L 259.856506 350.4 
L 260.802155 350.4 
L 261.747803 350.4 
L 262.693451 350.4 
L 263.639099 350.4 
L 264.584748 350.4 
L 265.530396 350.4 
L 266.476044 350.4 
L 267.421692 350.4 
L 268.367341 350.4 
L 269.312989 350.4 
L 270.258637 350.4 
L 271.204285 350.4 
L 272.149933 350.4 
L 273.095582 350.4 
L 274.04123 350.4 
L 274.986878 350.4 
L 275.932526 350.4 
L 276.878175 350.4 
L 277.823823 120 
L 278.769471 120 
L 279.715119 120 
L 280.660767 89.28 
" clip-path="url(#p00d2e3ba90)" style="fill: none; stroke: #fdae6a; stroke-width: 1.5; stroke-linecap: square"/>
   </g>
   <g id="line2d_32">
    <path d="M 161.509091 473.28 
L 162.454739 411.84 
L 163.400387 411.84 
L 164.346036 411.84 
L 165.291684 411.84 
L 166.237332 411.84 
L 167.18298 411.84 
L 168.128628 411.84 
L 169.074277 242.88 
L 170.019925 242.88 
L 170.965573 242.88 
L 171.911221 242.88 
L 172.85687 242.88 
L 173.802518 242.88 
L 174.748166 242.88 
L 175.693814 242.88 
L 176.639463 242.88 
L 177.585111 219.84 
L 178.530759 219.84 
L 179.476407 219.84 
L 180.422055 168 
L 181.367704 168 
L 182.313352 168 
L 183.259 168 
L 184.204648 168 
L 185.150297 168 
L 186.095945 168 
L 187.041593 89.28 
" clip-path="url(#p00d2e3ba90)" style="fill: none; stroke: #fdc38d; stroke-width: 1.5; stroke-linecap: square"/>
   </g>
   <g id="line2d_33">
    <path d="M 126 89.28 
L 907.2 89.28 
" clip-path="url(#p00d2e3ba90)" style="fill: none; stroke-dasharray: 5.55,2.4; stroke-dashoffset: 0; stroke: #800080; stroke-width: 1.5"/>
   </g>
   <g id="patch_3">
    <path d="M 126 512.64 
L 126 69.12 
" style="fill: none; stroke: #000000; stroke-width: 0.8; stroke-linejoin: miter; stroke-linecap: square"/>
   </g>
   <g id="patch_4">
    <path d="M 907.2 512.64 
L 907.2 69.12 
" style="fill: none; stroke: #000000; stroke-width: 0.8; stroke-linejoin: miter; stroke-linecap: square"/>
   </g>
   <g id="patch_5">
    <path d="M 126 512.64 
L 907.2 512.64 
" style="fill: none; stroke: #000000; stroke-width: 0.8; stroke-linejoin: miter; stroke-linecap: square"/>
   </g>
   <g id="patch_6">
    <path d="M 126 69.12 
L 907.2 69.12 
" style="fill: none; stroke: #000000; stroke-width: 0.8; stroke-linejoin: miter; stroke-linecap: square"/>
   </g>
   <g id="text_15">
    <!-- 50% Environment All Runs -->
    <g transform="translate(410.69 63.12) scale(0.16 -0.16)">
     <defs>
      <path id="DejaVuSans-25" d="M 4653 2053 
Q 4381 2053 4226 1822 
Q 4072 1591 4072 1178 
Q 4072 772 4226 539 
Q 4381 306 4653 306 
Q 4919 306 5073 539 
Q 5228 772 5228 1178 
Q 5228 1588 5073 1820 
Q 4919 2053 4653 2053 
z
M 4653 2450 
Q 5147 2450 5437 2106 
Q 5728 1763 5728 1178 
Q 5728 594 5436 251 
Q 5144 -91 4653 -91 
Q 4153 -91 3862 251 
Q 3572 594 3572 1178 
Q 3572 1766 3864 2108 
Q 4156 2450 4653 2450 
z
M 1428 4353 
Q 1159 4353 1004 4120 
Q 850 3888 850 3481 
Q 850 3069 1003 2837 
Q 1156 2606 1428 2606 
Q 1700 2606 1854 2837 
Q 2009 3069 2009 3481 
Q 2009 3884 1853 4118 
Q 1697 4353 1428 4353 
z
M 4250 4750 
L 4750 4750 
L 1831 -91 
L 1331 -91 
L 4250 4750 
z
M 1428 4750 
Q 1922 4750 2215 4408 
Q 2509 4066 2509 3481 
Q 2509 2891 2217 2550 
Q 1925 2209 1428 2209 
Q 931 2209 642 2551 
Q 353 2894 353 3481 
Q 353 4063 643 4406 
Q 934 4750 1428 4750 
z
" transform="scale(0.015625)"/>
      <path id="DejaVuSans-20" transform="scale(0.015625)"/>
      <path id="DejaVuSans-45" d="M 628 4666 
L 3578 4666 
L 3578 4134 
L 1259 4134 
L 1259 2753 
L 3481 2753 
L 3481 2222 
L 1259 2222 
L 1259 531 
L 3634 531 
L 3634 0 
L 628 0 
L 628 4666 
z
" transform="scale(0.015625)"/>
      <path id="DejaVuSans-76" d="M 191 3500 
L 800 3500 
L 1894 563 
L 2988 3500 
L 3597 3500 
L 2284 0 
L 1503 0 
L 191 3500 
z
" transform="scale(0.015625)"/>
      <path id="DejaVuSans-6d" d="M 3328 2828 
Q 3544 3216 3844 3400 
Q 4144 3584 4550 3584 
Q 5097 3584 5394 3201 
Q 5691 2819 5691 2113 
L 5691 0 
L 5113 0 
L 5113 2094 
Q 5113 2597 4934 2840 
Q 4756 3084 4391 3084 
Q 3944 3084 3684 2787 
Q 3425 2491 3425 1978 
L 3425 0 
L 2847 0 
L 2847 2094 
Q 2847 2600 2669 2842 
Q 2491 3084 2119 3084 
Q 1678 3084 1418 2786 
Q 1159 2488 1159 1978 
L 1159 0 
L 581 0 
L 581 3500 
L 1159 3500 
L 1159 2956 
Q 1356 3278 1631 3431 
Q 1906 3584 2284 3584 
Q 2666 3584 2933 3390 
Q 3200 3197 3328 2828 
z
" transform="scale(0.015625)"/>
      <path id="DejaVuSans-41" d="M 2188 4044 
L 1331 1722 
L 3047 1722 
L 2188 4044 
z
M 1831 4666 
L 2547 4666 
L 4325 0 
L 3669 0 
L 3244 1197 
L 1141 1197 
L 716 0 
L 50 0 
L 1831 4666 
z
" transform="scale(0.015625)"/>
      <path id="DejaVuSans-6c" d="M 603 4863 
L 1178 4863 
L 1178 0 
L 603 0 
L 603 4863 
z
" transform="scale(0.015625)"/>
      <path id="DejaVuSans-52" d="M 2841 2188 
Q 3044 2119 3236 1894 
Q 3428 1669 3622 1275 
L 4263 0 
L 3584 0 
L 2988 1197 
Q 2756 1666 2539 1819 
Q 2322 1972 1947 1972 
L 1259 1972 
L 1259 0 
L 628 0 
L 628 4666 
L 2053 4666 
Q 2853 4666 3247 4331 
Q 3641 3997 3641 3322 
Q 3641 2881 3436 2590 
Q 3231 2300 2841 2188 
z
M 1259 4147 
L 1259 2491 
L 2053 2491 
Q 2509 2491 2742 2702 
Q 2975 2913 2975 3322 
Q 2975 3731 2742 3939 
Q 2509 4147 2053 4147 
L 1259 4147 
z
" transform="scale(0.015625)"/>
      <path id="DejaVuSans-75" d="M 544 1381 
L 544 3500 
L 1119 3500 
L 1119 1403 
Q 1119 906 1312 657 
Q 1506 409 1894 409 
Q 2359 409 2629 706 
Q 2900 1003 2900 1516 
L 2900 3500 
L 3475 3500 
L 3475 0 
L 2900 0 
L 2900 538 
Q 2691 219 2414 64 
Q 2138 -91 1772 -91 
Q 1169 -91 856 284 
Q 544 659 544 1381 
z
M 1991 3584 
L 1991 3584 
z
" transform="scale(0.015625)"/>
     </defs>
     <use xlink:href="#DejaVuSans-35"/>
     <use xlink:href="#DejaVuSans-30" x="63.623047"/>
     <use xlink:href="#DejaVuSans-25" x="127.246094"/>
     <use xlink:href="#DejaVuSans-20" x="222.265625"/>
     <use xlink:href="#DejaVuSans-45" x="254.052734"/>
     <use xlink:href="#DejaVuSans-6e" x="317.236328"/>
     <use xlink:href="#DejaVuSans-76" x="380.615234"/>
     <use xlink:href="#DejaVuSans-69" x="439.794922"/>
     <use xlink:href="#DejaVuSans-72" x="467.578125"/>
     <use xlink:href="#DejaVuSans-6f" x="506.441406"/>
     <use xlink:href="#DejaVuSans-6e" x="567.623047"/>
     <use xlink:href="#DejaVuSans-6d" x="631.001953"/>
     <use xlink:href="#DejaVuSans-65" x="728.414062"/>
     <use xlink:href="#DejaVuSans-6e" x="789.9375"/>
     <use xlink:href="#DejaVuSans-74" x="853.316406"/>
     <use xlink:href="#DejaVuSans-20" x="892.525391"/>
     <use xlink:href="#DejaVuSans-41" x="924.3125"/>
     <use xlink:href="#DejaVuSans-6c" x="992.720703"/>
     <use xlink:href="#DejaVuSans-6c" x="1020.503906"/>
     <use xlink:href="#DejaVuSans-20" x="1048.287109"/>
     <use xlink:href="#DejaVuSans-52" x="1080.074219"/>
     <use xlink:href="#DejaVuSans-75" x="1145.056641"/>
     <use xlink:href="#DejaVuSans-6e" x="1208.435547"/>
     <use xlink:href="#DejaVuSans-73" x="1271.814453"/>
    </g>
   </g>
   <g id="legend_1">
    <g id="patch_7">
     <path d="M 792.414062 507.64 
L 900.2 507.64 
Q 902.2 507.64 902.2 505.64 
L 902.2 198.399375 
Q 902.2 196.399375 900.2 196.399375 
L 792.414062 196.399375 
Q 790.414062 196.399375 790.414062 198.399375 
L 790.414062 505.64 
Q 790.414062 507.64 792.414062 507.64 
z
" style="fill: #ffffff; opacity: 0.8; stroke: #cccccc; stroke-linejoin: miter"/>
    </g>
    <g id="line2d_34">
     <path d="M 794.414062 204.497813 
L 804.414062 204.497813 
L 814.414062 204.497813 
" style="fill: none; stroke: #08306b; stroke-width: 1.5; stroke-linecap: square"/>
    </g>
    <g id="text_16">
     <!-- Incremental 1 -->
     <g transform="translate(822.414062 207.997813) scale(0.1 -0.1)">
      <defs>
       <path id="DejaVuSans-49" d="M 628 4666 
L 1259 4666 
L 1259 0 
L 628 0 
L 628 4666 
z
" transform="scale(0.015625)"/>
       <path id="DejaVuSans-63" d="M 3122 3366 
L 3122 2828 
Q 2878 2963 2633 3030 
Q 2388 3097 2138 3097 
Q 1578 3097 1268 2742 
Q 959 2388 959 1747 
Q 959 1106 1268 751 
Q 1578 397 2138 397 
Q 2388 397 2633 464 
Q 2878 531 3122 666 
L 3122 134 
Q 2881 22 2623 -34 
Q 2366 -91 2075 -91 
Q 1284 -91 818 406 
Q 353 903 353 1747 
Q 353 2603 823 3093 
Q 1294 3584 2113 3584 
Q 2378 3584 2631 3529 
Q 2884 3475 3122 3366 
z
" transform="scale(0.015625)"/>
      </defs>
      <use xlink:href="#DejaVuSans-49"/>
      <use xlink:href="#DejaVuSans-6e" x="29.492188"/>
      <use xlink:href="#DejaVuSans-63" x="92.871094"/>
      <use xlink:href="#DejaVuSans-72" x="147.851562"/>
      <use xlink:href="#DejaVuSans-65" x="186.714844"/>
      <use xlink:href="#DejaVuSans-6d" x="248.238281"/>
      <use xlink:href="#DejaVuSans-65" x="345.650391"/>
      <use xlink:href="#DejaVuSans-6e" x="407.173828"/>
      <use xlink:href="#DejaVuSans-74" x="470.552734"/>
      <use xlink:href="#DejaVuSans-61" x="509.761719"/>
      <use xlink:href="#DejaVuSans-6c" x="571.041016"/>
      <use xlink:href="#DejaVuSans-20" x="598.824219"/>
      <use xlink:href="#DejaVuSans-31" x="630.611328"/>
     </g>
    </g>
    <g id="line2d_35">
     <path d="M 794.414062 219.175938 
L 804.414062 219.175938 
L 814.414062 219.175938 
" style="fill: none; stroke: #084488; stroke-width: 1.5; stroke-linecap: square"/>
    </g>
    <g id="text_17">
     <!-- Incremental 2 -->
     <g transform="translate(822.414062 222.675938) scale(0.1 -0.1)">
      <use xlink:href="#DejaVuSans-49"/>
      <use xlink:href="#DejaVuSans-6e" x="29.492188"/>
      <use xlink:href="#DejaVuSans-63" x="92.871094"/>
      <use xlink:href="#DejaVuSans-72" x="147.851562"/>
      <use xlink:href="#DejaVuSans-65" x="186.714844"/>
      <use xlink:href="#DejaVuSans-6d" x="248.238281"/>
      <use xlink:href="#DejaVuSans-65" x="345.650391"/>
      <use xlink:href="#DejaVuSans-6e" x="407.173828"/>
      <use xlink:href="#DejaVuSans-74" x="470.552734"/>
      <use xlink:href="#DejaVuSans-61" x="509.761719"/>
      <use xlink:href="#DejaVuSans-6c" x="571.041016"/>
      <use xlink:href="#DejaVuSans-20" x="598.824219"/>
      <use xlink:href="#DejaVuSans-32" x="630.611328"/>
     </g>
    </g>
    <g id="line2d_36">
     <path d="M 794.414062 233.854062 
L 804.414062 233.854062 
L 814.414062 233.854062 
" style="fill: none; stroke: #0e58a2; stroke-width: 1.5; stroke-linecap: square"/>
    </g>
    <g id="text_18">
     <!-- Incremental 3 -->
     <g transform="translate(822.414062 237.354062) scale(0.1 -0.1)">
      <use xlink:href="#DejaVuSans-49"/>
      <use xlink:href="#DejaVuSans-6e" x="29.492188"/>
      <use xlink:href="#DejaVuSans-63" x="92.871094"/>
      <use xlink:href="#DejaVuSans-72" x="147.851562"/>
      <use xlink:href="#DejaVuSans-65" x="186.714844"/>
      <use xlink:href="#DejaVuSans-6d" x="248.238281"/>
      <use xlink:href="#DejaVuSans-65" x="345.650391"/>
      <use xlink:href="#DejaVuSans-6e" x="407.173828"/>
      <use xlink:href="#DejaVuSans-74" x="470.552734"/>
      <use xlink:href="#DejaVuSans-61" x="509.761719"/>
      <use xlink:href="#DejaVuSans-6c" x="571.041016"/>
      <use xlink:href="#DejaVuSans-20" x="598.824219"/>
      <use xlink:href="#DejaVuSans-33" x="630.611328"/>
     </g>
    </g>
    <g id="line2d_37">
     <path d="M 794.414062 248.532188 
L 804.414062 248.532188 
L 814.414062 248.532188 
" style="fill: none; stroke: #1d6cb1; stroke-width: 1.5; stroke-linecap: square"/>
    </g>
    <g id="text_19">
     <!-- Incremental 4 -->
     <g transform="translate(822.414062 252.032188) scale(0.1 -0.1)">
      <use xlink:href="#DejaVuSans-49"/>
      <use xlink:href="#DejaVuSans-6e" x="29.492188"/>
      <use xlink:href="#DejaVuSans-63" x="92.871094"/>
      <use xlink:href="#DejaVuSans-72" x="147.851562"/>
      <use xlink:href="#DejaVuSans-65" x="186.714844"/>
      <use xlink:href="#DejaVuSans-6d" x="248.238281"/>
      <use xlink:href="#DejaVuSans-65" x="345.650391"/>
      <use xlink:href="#DejaVuSans-6e" x="407.173828"/>
      <use xlink:href="#DejaVuSans-74" x="470.552734"/>
      <use xlink:href="#DejaVuSans-61" x="509.761719"/>
      <use xlink:href="#DejaVuSans-6c" x="571.041016"/>
      <use xlink:href="#DejaVuSans-20" x="598.824219"/>
      <use xlink:href="#DejaVuSans-34" x="630.611328"/>
     </g>
    </g>
    <g id="line2d_38">
     <path d="M 794.414062 263.210313 
L 804.414062 263.210313 
L 814.414062 263.210313 
" style="fill: none; stroke: #3181bd; stroke-width: 1.5; stroke-linecap: square"/>
    </g>
    <g id="text_20">
     <!-- Incremental 5 -->
     <g transform="translate(822.414062 266.710313) scale(0.1 -0.1)">
      <use xlink:href="#DejaVuSans-49"/>
      <use xlink:href="#DejaVuSans-6e" x="29.492188"/>
      <use xlink:href="#DejaVuSans-63" x="92.871094"/>
      <use xlink:href="#DejaVuSans-72" x="147.851562"/>
      <use xlink:href="#DejaVuSans-65" x="186.714844"/>
      <use xlink:href="#DejaVuSans-6d" x="248.238281"/>
      <use xlink:href="#DejaVuSans-65" x="345.650391"/>
      <use xlink:href="#DejaVuSans-6e" x="407.173828"/>
      <use xlink:href="#DejaVuSans-74" x="470.552734"/>
      <use xlink:href="#DejaVuSans-61" x="509.761719"/>
      <use xlink:href="#DejaVuSans-6c" x="571.041016"/>
      <use xlink:href="#DejaVuSans-20" x="598.824219"/>
      <use xlink:href="#DejaVuSans-35" x="630.611328"/>
     </g>
    </g>
    <g id="line2d_39">
     <path d="M 794.414062 277.888438 
L 804.414062 277.888438 
L 814.414062 277.888438 
" style="fill: none; stroke: #4695c8; stroke-width: 1.5; stroke-linecap: square"/>
    </g>
    <g id="text_21">
     <!-- Incremental 6 -->
     <g transform="translate(822.414062 281.388438) scale(0.1 -0.1)">
      <use xlink:href="#DejaVuSans-49"/>
      <use xlink:href="#DejaVuSans-6e" x="29.492188"/>
      <use xlink:href="#DejaVuSans-63" x="92.871094"/>
      <use xlink:href="#DejaVuSans-72" x="147.851562"/>
      <use xlink:href="#DejaVuSans-65" x="186.714844"/>
      <use xlink:href="#DejaVuSans-6d" x="248.238281"/>
      <use xlink:href="#DejaVuSans-65" x="345.650391"/>
      <use xlink:href="#DejaVuSans-6e" x="407.173828"/>
      <use xlink:href="#DejaVuSans-74" x="470.552734"/>
      <use xlink:href="#DejaVuSans-61" x="509.761719"/>
      <use xlink:href="#DejaVuSans-6c" x="571.041016"/>
      <use xlink:href="#DejaVuSans-20" x="598.824219"/>
      <use xlink:href="#DejaVuSans-36" x="630.611328"/>
     </g>
    </g>
    <g id="line2d_40">
     <path d="M 794.414062 292.566563 
L 804.414062 292.566563 
L 814.414062 292.566563 
" style="fill: none; stroke: #60a7d2; stroke-width: 1.5; stroke-linecap: square"/>
    </g>
    <g id="text_22">
     <!-- Incremental 7 -->
     <g transform="translate(822.414062 296.066563) scale(0.1 -0.1)">
      <use xlink:href="#DejaVuSans-49"/>
      <use xlink:href="#DejaVuSans-6e" x="29.492188"/>
      <use xlink:href="#DejaVuSans-63" x="92.871094"/>
      <use xlink:href="#DejaVuSans-72" x="147.851562"/>
      <use xlink:href="#DejaVuSans-65" x="186.714844"/>
      <use xlink:href="#DejaVuSans-6d" x="248.238281"/>
      <use xlink:href="#DejaVuSans-65" x="345.650391"/>
      <use xlink:href="#DejaVuSans-6e" x="407.173828"/>
      <use xlink:href="#DejaVuSans-74" x="470.552734"/>
      <use xlink:href="#DejaVuSans-61" x="509.761719"/>
      <use xlink:href="#DejaVuSans-6c" x="571.041016"/>
      <use xlink:href="#DejaVuSans-20" x="598.824219"/>
      <use xlink:href="#DejaVuSans-37" x="630.611328"/>
     </g>
    </g>
    <g id="line2d_41">
     <path d="M 794.414062 307.244687 
L 804.414062 307.244687 
L 814.414062 307.244687 
" style="fill: none; stroke: #7db8da; stroke-width: 1.5; stroke-linecap: square"/>
    </g>
    <g id="text_23">
     <!-- Incremental 8 -->
     <g transform="translate(822.414062 310.744687) scale(0.1 -0.1)">
      <defs>
       <path id="DejaVuSans-38" d="M 2034 2216 
Q 1584 2216 1326 1975 
Q 1069 1734 1069 1313 
Q 1069 891 1326 650 
Q 1584 409 2034 409 
Q 2484 409 2743 651 
Q 3003 894 3003 1313 
Q 3003 1734 2745 1975 
Q 2488 2216 2034 2216 
z
M 1403 2484 
Q 997 2584 770 2862 
Q 544 3141 544 3541 
Q 544 4100 942 4425 
Q 1341 4750 2034 4750 
Q 2731 4750 3128 4425 
Q 3525 4100 3525 3541 
Q 3525 3141 3298 2862 
Q 3072 2584 2669 2484 
Q 3125 2378 3379 2068 
Q 3634 1759 3634 1313 
Q 3634 634 3220 271 
Q 2806 -91 2034 -91 
Q 1263 -91 848 271 
Q 434 634 434 1313 
Q 434 1759 690 2068 
Q 947 2378 1403 2484 
z
M 1172 3481 
Q 1172 3119 1398 2916 
Q 1625 2713 2034 2713 
Q 2441 2713 2670 2916 
Q 2900 3119 2900 3481 
Q 2900 3844 2670 4047 
Q 2441 4250 2034 4250 
Q 1625 4250 1398 4047 
Q 1172 3844 1172 3481 
z
" transform="scale(0.015625)"/>
      </defs>
      <use xlink:href="#DejaVuSans-49"/>
      <use xlink:href="#DejaVuSans-6e" x="29.492188"/>
      <use xlink:href="#DejaVuSans-63" x="92.871094"/>
      <use xlink:href="#DejaVuSans-72" x="147.851562"/>
      <use xlink:href="#DejaVuSans-65" x="186.714844"/>
      <use xlink:href="#DejaVuSans-6d" x="248.238281"/>
      <use xlink:href="#DejaVuSans-65" x="345.650391"/>
      <use xlink:href="#DejaVuSans-6e" x="407.173828"/>
      <use xlink:href="#DejaVuSans-74" x="470.552734"/>
      <use xlink:href="#DejaVuSans-61" x="509.761719"/>
      <use xlink:href="#DejaVuSans-6c" x="571.041016"/>
      <use xlink:href="#DejaVuSans-20" x="598.824219"/>
      <use xlink:href="#DejaVuSans-38" x="630.611328"/>
     </g>
    </g>
    <g id="line2d_42">
     <path d="M 794.414062 321.922813 
L 804.414062 321.922813 
L 814.414062 321.922813 
" style="fill: none; stroke: #9dcae1; stroke-width: 1.5; stroke-linecap: square"/>
    </g>
    <g id="text_24">
     <!-- Incremental 9 -->
     <g transform="translate(822.414062 325.422813) scale(0.1 -0.1)">
      <defs>
       <path id="DejaVuSans-39" d="M 703 97 
L 703 672 
Q 941 559 1184 500 
Q 1428 441 1663 441 
Q 2288 441 2617 861 
Q 2947 1281 2994 2138 
Q 2813 1869 2534 1725 
Q 2256 1581 1919 1581 
Q 1219 1581 811 2004 
Q 403 2428 403 3163 
Q 403 3881 828 4315 
Q 1253 4750 1959 4750 
Q 2769 4750 3195 4129 
Q 3622 3509 3622 2328 
Q 3622 1225 3098 567 
Q 2575 -91 1691 -91 
Q 1453 -91 1209 -44 
Q 966 3 703 97 
z
M 1959 2075 
Q 2384 2075 2632 2365 
Q 2881 2656 2881 3163 
Q 2881 3666 2632 3958 
Q 2384 4250 1959 4250 
Q 1534 4250 1286 3958 
Q 1038 3666 1038 3163 
Q 1038 2656 1286 2365 
Q 1534 2075 1959 2075 
z
" transform="scale(0.015625)"/>
      </defs>
      <use xlink:href="#DejaVuSans-49"/>
      <use xlink:href="#DejaVuSans-6e" x="29.492188"/>
      <use xlink:href="#DejaVuSans-63" x="92.871094"/>
      <use xlink:href="#DejaVuSans-72" x="147.851562"/>
      <use xlink:href="#DejaVuSans-65" x="186.714844"/>
      <use xlink:href="#DejaVuSans-6d" x="248.238281"/>
      <use xlink:href="#DejaVuSans-65" x="345.650391"/>
      <use xlink:href="#DejaVuSans-6e" x="407.173828"/>
      <use xlink:href="#DejaVuSans-74" x="470.552734"/>
      <use xlink:href="#DejaVuSans-61" x="509.761719"/>
      <use xlink:href="#DejaVuSans-6c" x="571.041016"/>
      <use xlink:href="#DejaVuSans-20" x="598.824219"/>
      <use xlink:href="#DejaVuSans-39" x="630.611328"/>
     </g>
    </g>
    <g id="line2d_43">
     <path d="M 794.414062 336.600937 
L 804.414062 336.600937 
L 814.414062 336.600937 
" style="fill: none; stroke: #b7d4ea; stroke-width: 1.5; stroke-linecap: square"/>
    </g>
    <g id="text_25">
     <!-- Incremental 10 -->
     <g transform="translate(822.414062 340.100937) scale(0.1 -0.1)">
      <use xlink:href="#DejaVuSans-49"/>
      <use xlink:href="#DejaVuSans-6e" x="29.492188"/>
      <use xlink:href="#DejaVuSans-63" x="92.871094"/>
      <use xlink:href="#DejaVuSans-72" x="147.851562"/>
      <use xlink:href="#DejaVuSans-65" x="186.714844"/>
      <use xlink:href="#DejaVuSans-6d" x="248.238281"/>
      <use xlink:href="#DejaVuSans-65" x="345.650391"/>
      <use xlink:href="#DejaVuSans-6e" x="407.173828"/>
      <use xlink:href="#DejaVuSans-74" x="470.552734"/>
      <use xlink:href="#DejaVuSans-61" x="509.761719"/>
      <use xlink:href="#DejaVuSans-6c" x="571.041016"/>
      <use xlink:href="#DejaVuSans-20" x="598.824219"/>
      <use xlink:href="#DejaVuSans-31" x="630.611328"/>
      <use xlink:href="#DejaVuSans-30" x="694.234375"/>
     </g>
    </g>
    <g id="line2d_44">
     <path d="M 794.414062 351.279063 
L 804.414062 351.279063 
L 814.414062 351.279063 
" style="fill: none; stroke: #7f2704; stroke-width: 1.5; stroke-linecap: square"/>
    </g>
    <g id="text_26">
     <!-- Direct 1 -->
     <g transform="translate(822.414062 354.779063) scale(0.1 -0.1)">
      <defs>
       <path id="DejaVuSans-44" d="M 1259 4147 
L 1259 519 
L 2022 519 
Q 2988 519 3436 956 
Q 3884 1394 3884 2338 
Q 3884 3275 3436 3711 
Q 2988 4147 2022 4147 
L 1259 4147 
z
M 628 4666 
L 1925 4666 
Q 3281 4666 3915 4102 
Q 4550 3538 4550 2338 
Q 4550 1131 3912 565 
Q 3275 0 1925 0 
L 628 0 
L 628 4666 
z
" transform="scale(0.015625)"/>
      </defs>
      <use xlink:href="#DejaVuSans-44"/>
      <use xlink:href="#DejaVuSans-69" x="77.001953"/>
      <use xlink:href="#DejaVuSans-72" x="104.785156"/>
      <use xlink:href="#DejaVuSans-65" x="143.648438"/>
      <use xlink:href="#DejaVuSans-63" x="205.171875"/>
      <use xlink:href="#DejaVuSans-74" x="260.152344"/>
      <use xlink:href="#DejaVuSans-20" x="299.361328"/>
      <use xlink:href="#DejaVuSans-31" x="331.148438"/>
     </g>
    </g>
    <g id="line2d_45">
     <path d="M 794.414062 365.957187 
L 804.414062 365.957187 
L 814.414062 365.957187 
" style="fill: none; stroke: #963003; stroke-width: 1.5; stroke-linecap: square"/>
    </g>
    <g id="text_27">
     <!-- Direct 2 -->
     <g transform="translate(822.414062 369.457187) scale(0.1 -0.1)">
      <use xlink:href="#DejaVuSans-44"/>
      <use xlink:href="#DejaVuSans-69" x="77.001953"/>
      <use xlink:href="#DejaVuSans-72" x="104.785156"/>
      <use xlink:href="#DejaVuSans-65" x="143.648438"/>
      <use xlink:href="#DejaVuSans-63" x="205.171875"/>
      <use xlink:href="#DejaVuSans-74" x="260.152344"/>
      <use xlink:href="#DejaVuSans-20" x="299.361328"/>
      <use xlink:href="#DejaVuSans-32" x="331.148438"/>
     </g>
    </g>
    <g id="line2d_46">
     <path d="M 794.414062 380.635312 
L 804.414062 380.635312 
L 814.414062 380.635312 
" style="fill: none; stroke: #b13a03; stroke-width: 1.5; stroke-linecap: square"/>
    </g>
    <g id="text_28">
     <!-- Direct 3 -->
     <g transform="translate(822.414062 384.135312) scale(0.1 -0.1)">
      <use xlink:href="#DejaVuSans-44"/>
      <use xlink:href="#DejaVuSans-69" x="77.001953"/>
      <use xlink:href="#DejaVuSans-72" x="104.785156"/>
      <use xlink:href="#DejaVuSans-65" x="143.648438"/>
      <use xlink:href="#DejaVuSans-63" x="205.171875"/>
      <use xlink:href="#DejaVuSans-74" x="260.152344"/>
      <use xlink:href="#DejaVuSans-20" x="299.361328"/>
      <use xlink:href="#DejaVuSans-33" x="331.148438"/>
     </g>
    </g>
    <g id="line2d_47">
     <path d="M 794.414062 395.313437 
L 804.414062 395.313437 
L 814.414062 395.313437 
" style="fill: none; stroke: #d14501; stroke-width: 1.5; stroke-linecap: square"/>
    </g>
    <g id="text_29">
     <!-- Direct 4 -->
     <g transform="translate(822.414062 398.813437) scale(0.1 -0.1)">
      <use xlink:href="#DejaVuSans-44"/>
      <use xlink:href="#DejaVuSans-69" x="77.001953"/>
      <use xlink:href="#DejaVuSans-72" x="104.785156"/>
      <use xlink:href="#DejaVuSans-65" x="143.648438"/>
      <use xlink:href="#DejaVuSans-63" x="205.171875"/>
      <use xlink:href="#DejaVuSans-74" x="260.152344"/>
      <use xlink:href="#DejaVuSans-20" x="299.361328"/>
      <use xlink:href="#DejaVuSans-34" x="331.148438"/>
     </g>
    </g>
    <g id="line2d_48">
     <path d="M 794.414062 409.991562 
L 804.414062 409.991562 
L 814.414062 409.991562 
" style="fill: none; stroke: #e4580a; stroke-width: 1.5; stroke-linecap: square"/>
    </g>
    <g id="text_30">
     <!-- Direct 5 -->
     <g transform="translate(822.414062 413.491562) scale(0.1 -0.1)">
      <use xlink:href="#DejaVuSans-44"/>
      <use xlink:href="#DejaVuSans-69" x="77.001953"/>
      <use xlink:href="#DejaVuSans-72" x="104.785156"/>
      <use xlink:href="#DejaVuSans-65" x="143.648438"/>
      <use xlink:href="#DejaVuSans-63" x="205.171875"/>
      <use xlink:href="#DejaVuSans-74" x="260.152344"/>
      <use xlink:href="#DejaVuSans-20" x="299.361328"/>
      <use xlink:href="#DejaVuSans-35" x="331.148438"/>
     </g>
    </g>
    <g id="line2d_49">
     <path d="M 794.414062 424.669687 
L 804.414062 424.669687 
L 814.414062 424.669687 
" style="fill: none; stroke: #f26d17; stroke-width: 1.5; stroke-linecap: square"/>
    </g>
    <g id="text_31">
     <!-- Direct 6 -->
     <g transform="translate(822.414062 428.169687) scale(0.1 -0.1)">
      <use xlink:href="#DejaVuSans-44"/>
      <use xlink:href="#DejaVuSans-69" x="77.001953"/>
      <use xlink:href="#DejaVuSans-72" x="104.785156"/>
      <use xlink:href="#DejaVuSans-65" x="143.648438"/>
      <use xlink:href="#DejaVuSans-63" x="205.171875"/>
      <use xlink:href="#DejaVuSans-74" x="260.152344"/>
      <use xlink:href="#DejaVuSans-20" x="299.361328"/>
      <use xlink:href="#DejaVuSans-36" x="331.148438"/>
     </g>
    </g>
    <g id="line2d_50">
     <path d="M 794.414062 439.347812 
L 804.414062 439.347812 
L 814.414062 439.347812 
" style="fill: none; stroke: #fa8331; stroke-width: 1.5; stroke-linecap: square"/>
    </g>
    <g id="text_32">
     <!-- Direct 7 -->
     <g transform="translate(822.414062 442.847812) scale(0.1 -0.1)">
      <use xlink:href="#DejaVuSans-44"/>
      <use xlink:href="#DejaVuSans-69" x="77.001953"/>
      <use xlink:href="#DejaVuSans-72" x="104.785156"/>
      <use xlink:href="#DejaVuSans-65" x="143.648438"/>
      <use xlink:href="#DejaVuSans-63" x="205.171875"/>
      <use xlink:href="#DejaVuSans-74" x="260.152344"/>
      <use xlink:href="#DejaVuSans-20" x="299.361328"/>
      <use xlink:href="#DejaVuSans-37" x="331.148438"/>
     </g>
    </g>
    <g id="line2d_51">
     <path d="M 794.414062 454.025937 
L 804.414062 454.025937 
L 814.414062 454.025937 
" style="fill: none; stroke: #fd994d; stroke-width: 1.5; stroke-linecap: square"/>
    </g>
    <g id="text_33">
     <!-- Direct 8 -->
     <g transform="translate(822.414062 457.525937) scale(0.1 -0.1)">
      <use xlink:href="#DejaVuSans-44"/>
      <use xlink:href="#DejaVuSans-69" x="77.001953"/>
      <use xlink:href="#DejaVuSans-72" x="104.785156"/>
      <use xlink:href="#DejaVuSans-65" x="143.648438"/>
      <use xlink:href="#DejaVuSans-63" x="205.171875"/>
      <use xlink:href="#DejaVuSans-74" x="260.152344"/>
      <use xlink:href="#DejaVuSans-20" x="299.361328"/>
      <use xlink:href="#DejaVuSans-38" x="331.148438"/>
     </g>
    </g>
    <g id="line2d_52">
     <path d="M 794.414062 468.704062 
L 804.414062 468.704062 
L 814.414062 468.704062 
" style="fill: none; stroke: #fdae6a; stroke-width: 1.5; stroke-linecap: square"/>
    </g>
    <g id="text_34">
     <!-- Direct 9 -->
     <g transform="translate(822.414062 472.204062) scale(0.1 -0.1)">
      <use xlink:href="#DejaVuSans-44"/>
      <use xlink:href="#DejaVuSans-69" x="77.001953"/>
      <use xlink:href="#DejaVuSans-72" x="104.785156"/>
      <use xlink:href="#DejaVuSans-65" x="143.648438"/>
      <use xlink:href="#DejaVuSans-63" x="205.171875"/>
      <use xlink:href="#DejaVuSans-74" x="260.152344"/>
      <use xlink:href="#DejaVuSans-20" x="299.361328"/>
      <use xlink:href="#DejaVuSans-39" x="331.148438"/>
     </g>
    </g>
    <g id="line2d_53">
     <path d="M 794.414062 483.382187 
L 804.414062 483.382187 
L 814.414062 483.382187 
" style="fill: none; stroke: #fdc38d; stroke-width: 1.5; stroke-linecap: square"/>
    </g>
    <g id="text_35">
     <!-- Direct 10 -->
     <g transform="translate(822.414062 486.882187) scale(0.1 -0.1)">
      <use xlink:href="#DejaVuSans-44"/>
      <use xlink:href="#DejaVuSans-69" x="77.001953"/>
      <use xlink:href="#DejaVuSans-72" x="104.785156"/>
      <use xlink:href="#DejaVuSans-65" x="143.648438"/>
      <use xlink:href="#DejaVuSans-63" x="205.171875"/>
      <use xlink:href="#DejaVuSans-74" x="260.152344"/>
      <use xlink:href="#DejaVuSans-20" x="299.361328"/>
      <use xlink:href="#DejaVuSans-31" x="331.148438"/>
      <use xlink:href="#DejaVuSans-30" x="394.771484"/>
     </g>
    </g>
    <g id="line2d_54">
     <path d="M 794.414062 498.060313 
L 804.414062 498.060313 
L 814.414062 498.060313 
" style="fill: none; stroke-dasharray: 5.55,2.4; stroke-dashoffset: 0; stroke: #800080; stroke-width: 1.5"/>
    </g>
    <g id="text_36">
     <!-- 100% fitness -->
     <g transform="translate(822.414062 501.560313) scale(0.1 -0.1)">
      <defs>
       <path id="DejaVuSans-66" d="M 2375 4863 
L 2375 4384 
L 1825 4384 
Q 1516 4384 1395 4259 
Q 1275 4134 1275 3809 
L 1275 3500 
L 2222 3500 
L 2222 3053 
L 1275 3053 
L 1275 0 
L 697 0 
L 697 3053 
L 147 3053 
L 147 3500 
L 697 3500 
L 697 3744 
Q 697 4328 969 4595 
Q 1241 4863 1831 4863 
L 2375 4863 
z
" transform="scale(0.015625)"/>
      </defs>
      <use xlink:href="#DejaVuSans-31"/>
      <use xlink:href="#DejaVuSans-30" x="63.623047"/>
      <use xlink:href="#DejaVuSans-30" x="127.246094"/>
      <use xlink:href="#DejaVuSans-25" x="190.869141"/>
      <use xlink:href="#DejaVuSans-20" x="285.888672"/>
      <use xlink:href="#DejaVuSans-66" x="317.675781"/>
      <use xlink:href="#DejaVuSans-69" x="352.880859"/>
      <use xlink:href="#DejaVuSans-74" x="380.664062"/>
      <use xlink:href="#DejaVuSans-6e" x="419.873047"/>
      <use xlink:href="#DejaVuSans-65" x="483.251953"/>
      <use xlink:href="#DejaVuSans-73" x="544.775391"/>
      <use xlink:href="#DejaVuSans-73" x="596.875"/>
     </g>
    </g>
   </g>
  </g>
 </g>
 <defs>
  <clipPath id="p00d2e3ba90">
   <rect x="126" y="69.12" width="781.2" height="443.52"/>
  </clipPath>
 </defs>
</svg>
