<?xml version="1.0" encoding="utf-8" standalone="no"?>
<!DOCTYPE svg PUBLIC "-//W3C//DTD SVG 1.1//EN"
  "http://www.w3.org/Graphics/SVG/1.1/DTD/svg11.dtd">
<svg xmlns:xlink="http://www.w3.org/1999/xlink" width="1008pt" height="576pt" viewBox="0 0 1008 576" xmlns="http://www.w3.org/2000/svg" version="1.1">
 <metadata>
  <rdf:RDF xmlns:dc="http://purl.org/dc/elements/1.1/" xmlns:cc="http://creativecommons.org/ns#" xmlns:rdf="http://www.w3.org/1999/02/22-rdf-syntax-ns#">
   <cc:Work>
    <dc:type rdf:resource="http://purl.org/dc/dcmitype/StillImage"/>
    <dc:date>2023-05-24T10:58:26.567737</dc:date>
    <dc:format>image/svg+xml</dc:format>
    <dc:creator>
     <cc:Agent>
      <dc:title>Matplotlib v3.6.3, https://matplotlib.org/</dc:title>
     </cc:Agent>
    </dc:creator>
   </cc:Work>
  </rdf:RDF>
 </metadata>
 <defs>
  <style type="text/css">*{stroke-linejoin: round; stroke-linecap: butt}</style>
 </defs>
 <g id="figure_1">
  <g id="patch_1">
   <path d="M 0 576 
L 1008 576 
L 1008 0 
L 0 0 
z
" style="fill: #ffffff"/>
  </g>
  <g id="axes_1">
   <g id="patch_2">
    <path d="M 56.3725 527.10125 
L 997.2 527.10125 
L 997.2 28.9575 
L 56.3725 28.9575 
z
" style="fill: #ffffff"/>
   </g>
   <g id="PolyCollection_1">
    <defs>
     <path id="ma3d2ab3520" d="M 99.137386 -108.632928 
L 99.137386 -95.779955 
L 100.957169 -90.844434 
L 102.776951 -91.923624 
L 104.596734 -94.077604 
L 106.416516 -107.78517 
L 108.236298 -109.313601 
L 110.056081 -109.313601 
L 111.875863 -111.141778 
L 113.695646 -83.215653 
L 115.515428 -85.806198 
L 117.33521 -85.806198 
L 119.154993 -85.806198 
L 120.974775 -87.736803 
L 122.794558 -88.239899 
L 124.61434 -88.239899 
L 126.434122 -89.98349 
L 128.253905 -89.98349 
L 130.073687 -89.058792 
L 131.89347 -89.058792 
L 133.713252 -90.002167 
L 135.533034 -79.759051 
L 137.352817 -87.312826 
L 139.172599 -87.312826 
L 140.992382 -87.312826 
L 142.812164 -87.312826 
L 144.631946 -90.281608 
L 146.451729 -93.313478 
L 148.271511 -78.488274 
L 150.091294 -83.827526 
L 151.911076 -84.637625 
L 153.730858 -85.282381 
L 155.550641 -85.282381 
L 157.370423 -86.670588 
L 159.190206 -96.690472 
L 161.009988 -101.434597 
L 162.82977 -101.434597 
L 164.649553 -101.434597 
L 166.469335 -101.434597 
L 168.289118 -104.679076 
L 170.1089 -107.227298 
L 171.928682 -107.227298 
L 173.748465 -107.227298 
L 175.568247 -108.129974 
L 177.388029 -110.081685 
L 179.207812 -110.081685 
L 181.027594 -110.081685 
L 182.847377 -115.716229 
L 184.667159 -126.990955 
L 186.486941 -128.195723 
L 188.306724 -125.313668 
L 190.126506 -129.136118 
L 191.946289 -139.158781 
L 193.766071 -146.870742 
L 195.585853 -145.40756 
L 197.405636 -146.611995 
L 199.225418 -146.611995 
L 201.045201 -146.611995 
L 202.864983 -146.611995 
L 204.684765 -146.611995 
L 206.504548 -146.611995 
L 208.32433 -151.702585 
L 210.144113 -154.568295 
L 211.963895 -154.438455 
L 213.783677 -154.438455 
L 215.60346 -156.828024 
L 217.423242 -156.828024 
L 219.243025 -156.828024 
L 221.062807 -157.841621 
L 222.882589 -157.841621 
L 224.702372 -158.141727 
L 226.522154 -157.310599 
L 228.341937 -157.310599 
L 230.161719 -157.310599 
L 231.981501 -157.310599 
L 233.801284 -157.310599 
L 235.621066 -157.103465 
L 237.440849 -158.748215 
L 239.260631 -184.979449 
L 241.080413 -184.979449 
L 242.900196 -185.674241 
L 244.719978 -186.498292 
L 246.539761 -188.738081 
L 248.359543 -188.836978 
L 250.179325 -213.114599 
L 251.999108 -218.839493 
L 253.81889 -218.839493 
L 255.638673 -218.839493 
L 257.458455 -221.25356 
L 259.278237 -221.25356 
L 261.09802 -221.25356 
L 262.917802 -221.25356 
L 264.737585 -221.25356 
L 266.557367 -221.25356 
L 268.377149 -221.25356 
L 270.196932 -227.821169 
L 272.016714 -227.821169 
L 273.836497 -227.821169 
L 275.656279 -227.821169 
L 277.476061 -228.210198 
L 279.295844 -228.210198 
L 281.115626 -228.210198 
L 282.935409 -249.750784 
L 284.755191 -249.750784 
L 286.574973 -251.639644 
L 288.394756 -251.639644 
L 290.214538 -252.207036 
L 292.034321 -252.207036 
L 293.854103 -252.207036 
L 295.673885 -252.555973 
L 297.493668 -252.555973 
L 299.31345 -252.620137 
L 301.133233 -252.620137 
L 302.953015 -252.620137 
L 304.772797 -252.620137 
L 306.59258 -252.620137 
L 308.412362 -252.620137 
L 310.232145 -252.620137 
L 312.051927 -252.620137 
L 313.871709 -253.011962 
L 315.691492 -253.011962 
L 317.511274 -253.011962 
L 319.331057 -253.011962 
L 321.150839 -253.011962 
L 322.970621 -286.018001 
L 324.790404 -286.018001 
L 326.610186 -286.255012 
L 328.429969 -287.092665 
L 330.249751 -287.092665 
L 332.069533 -287.092665 
L 333.889316 -287.092665 
L 335.709098 -287.092665 
L 337.528881 -287.092665 
L 339.348663 -287.092665 
L 341.168445 -287.092665 
L 342.988228 -287.092665 
L 344.80801 -287.092665 
L 346.627793 -287.092665 
L 348.447575 -287.092665 
L 350.267357 -289.24047 
L 352.08714 -289.24047 
L 353.906922 -289.24047 
L 355.726705 -289.24047 
L 357.546487 -289.24047 
L 359.366269 -289.24047 
L 361.186052 -289.481239 
L 363.005834 -289.481239 
L 364.825617 -322.88856 
L 366.645399 -322.88856 
L 368.465181 -331.862008 
L 370.284964 -331.862008 
L 372.104746 -331.862008 
L 373.924529 -338.73387 
L 375.744311 -338.73387 
L 377.564093 -340.506357 
L 379.383876 -345.258892 
L 381.203658 -347.670552 
L 383.023441 -347.670552 
L 384.843223 -347.670552 
L 386.663005 -347.670552 
L 388.482788 -348.399612 
L 390.30257 -348.399612 
L 392.122353 -348.399612 
L 393.942135 -348.399612 
L 395.761917 -348.399612 
L 397.5817 -356.003501 
L 399.401482 -356.003501 
L 401.221265 -356.003501 
L 403.041047 -356.003501 
L 404.860829 -356.003501 
L 406.680612 -356.003501 
L 408.500394 -356.003501 
L 410.320176 -357.245417 
L 412.139959 -357.245417 
L 413.959741 -357.245417 
L 415.779524 -357.245417 
L 417.599306 -357.245417 
L 419.419088 -357.245417 
L 421.238871 -361.073347 
L 423.058653 -361.073347 
L 424.878436 -361.073347 
L 426.698218 -361.073347 
L 428.518 -361.073347 
L 430.337783 -361.073347 
L 432.157565 -361.073347 
L 433.977348 -361.073347 
L 435.79713 -361.073347 
L 437.616912 -361.073347 
L 439.436695 -361.073347 
L 441.256477 -361.073347 
L 443.07626 -361.073347 
L 444.896042 -361.073347 
L 446.715824 -361.073347 
L 448.535607 -361.073347 
L 450.355389 -361.073347 
L 452.175172 -361.073347 
L 453.994954 -361.073347 
L 455.814736 -361.073347 
L 457.634519 -361.073347 
L 459.454301 -361.073347 
L 461.274084 -361.073347 
L 463.093866 -361.073347 
L 464.913648 -364.321675 
L 466.733431 -364.321675 
L 468.553213 -364.321675 
L 470.372996 -364.321675 
L 472.192778 -365.859624 
L 474.01256 -365.859624 
L 475.832343 -365.859624 
L 477.652125 -365.859624 
L 479.471908 -365.859624 
L 481.29169 -365.859624 
L 483.111472 -365.859624 
L 484.931255 -365.859624 
L 486.751037 -365.859624 
L 488.57082 -365.859624 
L 490.390602 -365.859624 
L 492.210384 -365.859624 
L 494.030167 -365.859624 
L 495.849949 -365.859624 
L 497.669732 -365.859624 
L 499.489514 -365.859624 
L 501.309296 -365.859624 
L 503.129079 -365.859624 
L 504.948861 -365.859624 
L 506.768644 -365.859624 
L 508.588426 -365.859624 
L 510.408208 -365.859624 
L 512.227991 -365.859624 
L 514.047773 -365.859624 
L 515.867556 -365.859624 
L 517.687338 -365.859624 
L 519.50712 -365.859624 
L 521.326903 -365.859624 
L 523.146685 -365.859624 
L 524.966468 -365.859624 
L 526.78625 -365.859624 
L 528.606032 -365.859624 
L 530.425815 -365.859624 
L 532.245597 -365.859624 
L 534.06538 -365.859624 
L 535.885162 -365.859624 
L 537.704944 -365.859624 
L 539.524727 -365.859624 
L 541.344509 -365.859624 
L 543.164292 -365.859624 
L 544.984074 -365.859624 
L 546.803856 -365.859624 
L 548.623639 -365.859624 
L 550.443421 -365.859624 
L 552.263204 -365.859624 
L 554.082986 -365.859624 
L 555.902768 -365.859624 
L 557.722551 -365.859624 
L 559.542333 -365.859624 
L 561.362116 -365.859624 
L 563.181898 -365.859624 
L 565.00168 -365.859624 
L 566.821463 -365.859624 
L 568.641245 -365.859624 
L 570.461028 -365.859624 
L 572.28081 -365.859624 
L 574.100592 -365.859624 
L 575.920375 -368.166548 
L 577.740157 -368.166548 
L 579.55994 -368.166548 
L 581.379722 -368.166548 
L 583.199504 -368.166548 
L 585.019287 -368.166548 
L 586.839069 -368.166548 
L 588.658852 -368.166548 
L 590.478634 -368.166548 
L 592.298416 -368.166548 
L 594.118199 -368.166548 
L 595.937981 -368.166548 
L 597.757764 -368.166548 
L 599.577546 -368.166548 
L 601.397328 -368.166548 
L 603.217111 -368.166548 
L 605.036893 -368.166548 
L 606.856676 -368.166548 
L 608.676458 -368.166548 
L 610.49624 -368.166548 
L 612.316023 -368.166548 
L 614.135805 -368.166548 
L 615.955588 -368.166548 
L 617.77537 -368.166548 
L 619.595152 -368.166548 
L 621.414935 -368.166548 
L 623.234717 -368.166548 
L 625.0545 -368.166548 
L 626.874282 -368.166548 
L 628.694064 -368.166548 
L 630.513847 -368.166548 
L 632.333629 -368.166548 
L 634.153412 -368.166548 
L 635.973194 -368.166548 
L 637.792976 -368.166548 
L 639.612759 -368.166548 
L 641.432541 -368.166548 
L 643.252324 -368.166548 
L 645.072106 -368.166548 
L 646.891888 -368.166548 
L 648.711671 -368.166548 
L 650.531453 -368.166548 
L 652.351235 -368.166548 
L 654.171018 -368.166548 
L 655.9908 -368.166548 
L 657.810583 -368.166548 
L 659.630365 -368.166548 
L 661.450147 -368.166548 
L 663.26993 -368.166548 
L 665.089712 -368.166548 
L 666.909495 -368.166548 
L 668.729277 -368.166548 
L 670.549059 -368.166548 
L 672.368842 -368.166548 
L 674.188624 -368.166548 
L 676.008407 -369.704497 
L 677.828189 -369.704497 
L 679.647971 -369.704497 
L 681.467754 -369.704497 
L 683.287536 -369.704497 
L 685.107319 -369.704497 
L 686.927101 -369.704497 
L 688.746883 -369.704497 
L 690.566666 -369.704497 
L 692.386448 -369.704497 
L 694.206231 -369.704497 
L 696.026013 -369.704497 
L 697.845795 -369.704497 
L 699.665578 -369.704497 
L 701.48536 -369.704497 
L 703.305143 -369.704497 
L 705.124925 -369.704497 
L 706.944707 -369.704497 
L 708.76449 -369.704497 
L 710.584272 -369.704497 
L 712.404055 -369.704497 
L 714.223837 -369.704497 
L 716.043619 -369.704497 
L 717.863402 -369.704497 
L 719.683184 -369.704497 
L 721.502967 -369.704497 
L 723.322749 -369.704497 
L 725.142531 -369.704497 
L 726.962314 -369.704497 
L 728.782096 -369.704497 
L 730.601879 -369.704497 
L 732.421661 -369.704497 
L 734.241443 -369.704497 
L 736.061226 -369.704497 
L 737.881008 -369.704497 
L 739.700791 -369.704497 
L 741.520573 -369.704497 
L 743.340355 -369.704497 
L 745.160138 -369.704497 
L 746.97992 -369.704497 
L 748.799703 -369.704497 
L 750.619485 -369.704497 
L 752.439267 -369.704497 
L 754.25905 -369.704497 
L 756.078832 -369.704497 
L 757.898615 -369.704497 
L 759.718397 -448.90887 
L 761.538179 -448.90887 
L 763.357962 -448.90887 
L 765.177744 -448.90887 
L 766.997527 -448.90887 
L 768.817309 -448.90887 
L 770.637091 -448.90887 
L 772.456874 -448.90887 
L 774.276656 -448.90887 
L 776.096439 -448.90887 
L 777.916221 -448.90887 
L 779.736003 -448.90887 
L 781.555786 -448.90887 
L 783.375568 -448.90887 
L 785.195351 -448.90887 
L 787.015133 -448.90887 
L 788.834915 -448.90887 
L 790.654698 -448.90887 
L 792.47448 -448.90887 
L 794.294263 -448.90887 
L 796.114045 -448.90887 
L 797.933827 -448.90887 
L 799.75361 -448.90887 
L 801.573392 -448.90887 
L 803.393175 -448.90887 
L 805.212957 -448.90887 
L 807.032739 -448.90887 
L 808.852522 -448.90887 
L 810.672304 -448.90887 
L 812.492087 -448.90887 
L 814.311869 -448.90887 
L 816.131651 -448.90887 
L 817.951434 -448.90887 
L 819.771216 -448.90887 
L 821.590999 -448.90887 
L 823.410781 -448.90887 
L 825.230563 -448.90887 
L 827.050346 -448.90887 
L 828.870128 -448.90887 
L 830.689911 -448.90887 
L 832.509693 -448.90887 
L 834.329475 -448.90887 
L 836.149258 -448.90887 
L 837.96904 -448.90887 
L 839.788823 -448.90887 
L 841.608605 -448.90887 
L 843.428387 -448.90887 
L 845.24817 -448.90887 
L 847.067952 -448.90887 
L 848.887735 -448.90887 
L 850.707517 -448.90887 
L 852.527299 -448.90887 
L 854.347082 -448.90887 
L 856.166864 -448.90887 
L 857.986647 -448.90887 
L 859.806429 -448.90887 
L 861.626211 -448.90887 
L 863.445994 -448.90887 
L 865.265776 -448.90887 
L 867.085559 -448.90887 
L 868.905341 -448.90887 
L 870.725123 -448.90887 
L 872.544906 -448.90887 
L 874.364688 -448.90887 
L 876.184471 -448.90887 
L 878.004253 -448.90887 
L 879.824035 -448.90887 
L 881.643818 -448.90887 
L 883.4636 -448.90887 
L 885.283382 -448.90887 
L 887.103165 -448.90887 
L 888.922947 -448.90887 
L 890.74273 -448.90887 
L 892.562512 -448.90887 
L 894.382294 -448.90887 
L 896.202077 -448.90887 
L 898.021859 -448.90887 
L 899.841642 -448.90887 
L 901.661424 -448.90887 
L 903.481206 -448.90887 
L 905.300989 -448.90887 
L 907.120771 -448.90887 
L 908.940554 -448.90887 
L 910.760336 -448.90887 
L 912.580118 -448.90887 
L 914.399901 -448.90887 
L 916.219683 -448.90887 
L 918.039466 -448.90887 
L 919.859248 -448.90887 
L 921.67903 -448.90887 
L 923.498813 -455.82964 
L 925.318595 -455.82964 
L 927.138378 -457.367589 
L 928.95816 -457.367589 
L 930.777942 -457.367589 
L 932.597725 -457.367589 
L 934.417507 -457.367589 
L 936.23729 -457.367589 
L 938.057072 -457.367589 
L 939.876854 -457.367589 
L 941.696637 -461.212462 
L 943.516419 -461.212462 
L 945.336202 -461.212462 
L 947.155984 -461.212462 
L 948.975766 -461.212462 
L 950.795549 -461.212462 
L 952.615331 -461.212462 
L 954.435114 -469.671181 
L 954.435114 -469.671181 
L 954.435114 -469.671181 
L 952.615331 -474.065434 
L 950.795549 -474.065434 
L 948.975766 -474.065434 
L 947.155984 -474.065434 
L 945.336202 -474.065434 
L 943.516419 -474.065434 
L 941.696637 -474.065434 
L 939.876854 -476.062822 
L 938.057072 -476.062822 
L 936.23729 -476.062822 
L 934.417507 -476.062822 
L 932.597725 -476.062822 
L 930.777942 -476.062822 
L 928.95816 -476.062822 
L 927.138378 -476.062822 
L 925.318595 -476.861777 
L 923.498813 -476.861777 
L 921.67903 -480.457074 
L 919.859248 -480.457074 
L 918.039466 -480.457074 
L 916.219683 -480.457074 
L 914.399901 -480.457074 
L 912.580118 -480.457074 
L 910.760336 -480.457074 
L 908.940554 -480.457074 
L 907.120771 -480.457074 
L 905.300989 -480.457074 
L 903.481206 -480.457074 
L 901.661424 -480.457074 
L 899.841642 -480.457074 
L 898.021859 -480.457074 
L 896.202077 -480.457074 
L 894.382294 -480.457074 
L 892.562512 -480.457074 
L 890.74273 -480.457074 
L 888.922947 -480.457074 
L 887.103165 -480.457074 
L 885.283382 -480.457074 
L 883.4636 -480.457074 
L 881.643818 -480.457074 
L 879.824035 -480.457074 
L 878.004253 -480.457074 
L 876.184471 -480.457074 
L 874.364688 -480.457074 
L 872.544906 -480.457074 
L 870.725123 -480.457074 
L 868.905341 -480.457074 
L 867.085559 -480.457074 
L 865.265776 -480.457074 
L 863.445994 -480.457074 
L 861.626211 -480.457074 
L 859.806429 -480.457074 
L 857.986647 -480.457074 
L 856.166864 -480.457074 
L 854.347082 -480.457074 
L 852.527299 -480.457074 
L 850.707517 -480.457074 
L 848.887735 -480.457074 
L 847.067952 -480.457074 
L 845.24817 -480.457074 
L 843.428387 -480.457074 
L 841.608605 -480.457074 
L 839.788823 -480.457074 
L 837.96904 -480.457074 
L 836.149258 -480.457074 
L 834.329475 -480.457074 
L 832.509693 -480.457074 
L 830.689911 -480.457074 
L 828.870128 -480.457074 
L 827.050346 -480.457074 
L 825.230563 -480.457074 
L 823.410781 -480.457074 
L 821.590999 -480.457074 
L 819.771216 -480.457074 
L 817.951434 -480.457074 
L 816.131651 -480.457074 
L 814.311869 -480.457074 
L 812.492087 -480.457074 
L 810.672304 -480.457074 
L 808.852522 -480.457074 
L 807.032739 -480.457074 
L 805.212957 -480.457074 
L 803.393175 -480.457074 
L 801.573392 -480.457074 
L 799.75361 -480.457074 
L 797.933827 -480.457074 
L 796.114045 -480.457074 
L 794.294263 -480.457074 
L 792.47448 -480.457074 
L 790.654698 -480.457074 
L 788.834915 -480.457074 
L 787.015133 -480.457074 
L 785.195351 -480.457074 
L 783.375568 -480.457074 
L 781.555786 -480.457074 
L 779.736003 -480.457074 
L 777.916221 -480.457074 
L 776.096439 -480.457074 
L 774.276656 -480.457074 
L 772.456874 -480.457074 
L 770.637091 -480.457074 
L 768.817309 -480.457074 
L 766.997527 -480.457074 
L 765.177744 -480.457074 
L 763.357962 -480.457074 
L 761.538179 -480.457074 
L 759.718397 -480.457074 
L 757.898615 -521.60326 
L 756.078832 -521.60326 
L 754.25905 -521.60326 
L 752.439267 -521.60326 
L 750.619485 -521.60326 
L 748.799703 -521.60326 
L 746.97992 -521.60326 
L 745.160138 -521.60326 
L 743.340355 -521.60326 
L 741.520573 -521.60326 
L 739.700791 -521.60326 
L 737.881008 -521.60326 
L 736.061226 -521.60326 
L 734.241443 -521.60326 
L 732.421661 -521.60326 
L 730.601879 -521.60326 
L 728.782096 -521.60326 
L 726.962314 -521.60326 
L 725.142531 -521.60326 
L 723.322749 -521.60326 
L 721.502967 -521.60326 
L 719.683184 -521.60326 
L 717.863402 -521.60326 
L 716.043619 -521.60326 
L 714.223837 -521.60326 
L 712.404055 -521.60326 
L 710.584272 -521.60326 
L 708.76449 -521.60326 
L 706.944707 -521.60326 
L 705.124925 -521.60326 
L 703.305143 -521.60326 
L 701.48536 -521.60326 
L 699.665578 -521.60326 
L 697.845795 -521.60326 
L 696.026013 -521.60326 
L 694.206231 -521.60326 
L 692.386448 -521.60326 
L 690.566666 -521.60326 
L 688.746883 -521.60326 
L 686.927101 -521.60326 
L 685.107319 -521.60326 
L 683.287536 -521.60326 
L 681.467754 -521.60326 
L 679.647971 -521.60326 
L 677.828189 -521.60326 
L 676.008407 -521.60326 
L 674.188624 -522.402215 
L 672.368842 -522.402215 
L 670.549059 -522.402215 
L 668.729277 -522.402215 
L 666.909495 -522.402215 
L 665.089712 -522.402215 
L 663.26993 -522.402215 
L 661.450147 -522.402215 
L 659.630365 -522.402215 
L 657.810583 -522.402215 
L 655.9908 -522.402215 
L 654.171018 -522.402215 
L 652.351235 -522.402215 
L 650.531453 -522.402215 
L 648.711671 -522.402215 
L 646.891888 -522.402215 
L 645.072106 -522.402215 
L 643.252324 -522.402215 
L 641.432541 -522.402215 
L 639.612759 -522.402215 
L 637.792976 -522.402215 
L 635.973194 -522.402215 
L 634.153412 -522.402215 
L 632.333629 -522.402215 
L 630.513847 -522.402215 
L 628.694064 -522.402215 
L 626.874282 -522.402215 
L 625.0545 -522.402215 
L 623.234717 -522.402215 
L 621.414935 -522.402215 
L 619.595152 -522.402215 
L 617.77537 -522.402215 
L 615.955588 -522.402215 
L 614.135805 -522.402215 
L 612.316023 -522.402215 
L 610.49624 -522.402215 
L 608.676458 -522.402215 
L 606.856676 -522.402215 
L 605.036893 -522.402215 
L 603.217111 -522.402215 
L 601.397328 -522.402215 
L 599.577546 -522.402215 
L 597.757764 -522.402215 
L 595.937981 -522.402215 
L 594.118199 -522.402215 
L 592.298416 -522.402215 
L 590.478634 -522.402215 
L 588.658852 -522.402215 
L 586.839069 -522.402215 
L 585.019287 -522.402215 
L 583.199504 -522.402215 
L 581.379722 -522.402215 
L 579.55994 -522.402215 
L 577.740157 -522.402215 
L 575.920375 -522.402215 
L 574.100592 -523.600647 
L 572.28081 -523.600647 
L 570.461028 -523.600647 
L 568.641245 -523.600647 
L 566.821463 -523.600647 
L 565.00168 -523.600647 
L 563.181898 -523.600647 
L 561.362116 -523.600647 
L 559.542333 -523.600647 
L 557.722551 -523.600647 
L 555.902768 -523.600647 
L 554.082986 -523.600647 
L 552.263204 -523.600647 
L 550.443421 -523.600647 
L 548.623639 -523.600647 
L 546.803856 -523.600647 
L 544.984074 -523.600647 
L 543.164292 -523.600647 
L 541.344509 -523.600647 
L 539.524727 -523.600647 
L 537.704944 -523.600647 
L 535.885162 -523.600647 
L 534.06538 -523.600647 
L 532.245597 -523.600647 
L 530.425815 -523.600647 
L 528.606032 -523.600647 
L 526.78625 -523.600647 
L 524.966468 -523.600647 
L 523.146685 -523.600647 
L 521.326903 -523.600647 
L 519.50712 -523.600647 
L 517.687338 -523.600647 
L 515.867556 -523.600647 
L 514.047773 -523.600647 
L 512.227991 -523.600647 
L 510.408208 -523.600647 
L 508.588426 -523.600647 
L 506.768644 -523.600647 
L 504.948861 -523.600647 
L 503.129079 -523.600647 
L 501.309296 -523.600647 
L 499.489514 -523.600647 
L 497.669732 -523.600647 
L 495.849949 -523.600647 
L 494.030167 -523.600647 
L 492.210384 -523.600647 
L 490.390602 -523.600647 
L 488.57082 -523.600647 
L 486.751037 -523.600647 
L 484.931255 -523.600647 
L 483.111472 -523.600647 
L 481.29169 -523.600647 
L 479.471908 -523.600647 
L 477.652125 -523.600647 
L 475.832343 -523.600647 
L 474.01256 -523.600647 
L 472.192778 -523.600647 
L 470.372996 -524.399602 
L 468.553213 -524.399602 
L 466.733431 -524.399602 
L 464.913648 -524.399602 
L 463.093866 -520.257991 
L 461.274084 -520.257991 
L 459.454301 -520.257991 
L 457.634519 -520.257991 
L 455.814736 -520.257991 
L 453.994954 -520.257991 
L 452.175172 -520.257991 
L 450.355389 -520.257991 
L 448.535607 -520.257991 
L 446.715824 -520.257991 
L 444.896042 -520.257991 
L 443.07626 -520.257991 
L 441.256477 -520.257991 
L 439.436695 -520.257991 
L 437.616912 -520.257991 
L 435.79713 -520.257991 
L 433.977348 -520.257991 
L 432.157565 -520.257991 
L 430.337783 -520.257991 
L 428.518 -520.257991 
L 426.698218 -520.257991 
L 424.878436 -520.257991 
L 423.058653 -520.257991 
L 421.238871 -520.257991 
L 419.419088 -518.173969 
L 417.599306 -518.173969 
L 415.779524 -518.173969 
L 413.959741 -518.173969 
L 412.139959 -518.173969 
L 410.320176 -518.173969 
L 408.500394 -515.720915 
L 406.680612 -515.720915 
L 404.860829 -515.720915 
L 403.041047 -515.720915 
L 401.221265 -515.720915 
L 399.401482 -515.720915 
L 397.5817 -515.720915 
L 395.761917 -508.175428 
L 393.942135 -508.175428 
L 392.122353 -508.175428 
L 390.30257 -508.175428 
L 388.482788 -508.175428 
L 386.663005 -508.534992 
L 384.843223 -508.534992 
L 383.023441 -508.534992 
L 381.203658 -508.534992 
L 379.383876 -503.556712 
L 377.564093 -502.397295 
L 375.744311 -500.474813 
L 373.924529 -500.474813 
L 372.104746 -497.370257 
L 370.284964 -497.370257 
L 368.465181 -497.370257 
L 366.645399 -488.977347 
L 364.825617 -488.977347 
L 363.005834 -493.194407 
L 361.186052 -493.194407 
L 359.366269 -493.065679 
L 357.546487 -493.065679 
L 355.726705 -493.065679 
L 353.906922 -493.065679 
L 352.08714 -493.065679 
L 350.267357 -493.065679 
L 348.447575 -493.735496 
L 346.627793 -493.735496 
L 344.80801 -493.735496 
L 342.988228 -493.735496 
L 341.168445 -493.735496 
L 339.348663 -493.735496 
L 337.528881 -493.735496 
L 335.709098 -493.735496 
L 333.889316 -493.735496 
L 332.069533 -493.735496 
L 330.249751 -493.735496 
L 328.429969 -493.735496 
L 326.610186 -488.661198 
L 324.790404 -488.528712 
L 322.970621 -488.528712 
L 321.150839 -477.195114 
L 319.331057 -477.195114 
L 317.511274 -477.195114 
L 315.691492 -477.195114 
L 313.871709 -477.195114 
L 312.051927 -476.847945 
L 310.232145 -476.847945 
L 308.412362 -476.847945 
L 306.59258 -476.847945 
L 304.772797 -476.847945 
L 302.953015 -476.847945 
L 301.133233 -476.847945 
L 299.31345 -476.847945 
L 297.493668 -473.21714 
L 295.673885 -473.21714 
L 293.854103 -469.871107 
L 292.034321 -469.871107 
L 290.214538 -469.871107 
L 288.394756 -467.113025 
L 286.574973 -467.113025 
L 284.755191 -467.523898 
L 282.935409 -467.523898 
L 281.115626 -458.396235 
L 279.295844 -458.396235 
L 277.476061 -458.396235 
L 275.656279 -458.415767 
L 273.836497 -458.415767 
L 272.016714 -458.415767 
L 270.196932 -458.415767 
L 268.377149 -459.071424 
L 266.557367 -459.071424 
L 264.737585 -459.071424 
L 262.917802 -459.071424 
L 261.09802 -459.071424 
L 259.278237 -459.071424 
L 257.458455 -459.071424 
L 255.638673 -459.26851 
L 253.81889 -459.26851 
L 251.999108 -459.26851 
L 250.179325 -460.189943 
L 248.359543 -445.300885 
L 246.539761 -444.660788 
L 244.719978 -444.683595 
L 242.900196 -444.768652 
L 241.080413 -441.768474 
L 239.260631 -441.768474 
L 237.440849 -421.812587 
L 235.621066 -421.609852 
L 233.801284 -420.294227 
L 231.981501 -420.294227 
L 230.161719 -420.294227 
L 228.341937 -420.294227 
L 226.522154 -420.294227 
L 224.702372 -412.812153 
L 222.882589 -412.742762 
L 221.062807 -412.742762 
L 219.243025 -412.647869 
L 217.423242 -412.647869 
L 215.60346 -412.647869 
L 213.783677 -412.450959 
L 211.963895 -412.450959 
L 210.144113 -406.778664 
L 208.32433 -402.993429 
L 206.504548 -395.151625 
L 204.684765 -395.151625 
L 202.864983 -395.151625 
L 201.045201 -395.151625 
L 199.225418 -395.151625 
L 197.405636 -395.151625 
L 195.585853 -394.878072 
L 193.766071 -389.350423 
L 191.946289 -388.933451 
L 190.126506 -383.067744 
L 188.306724 -381.717236 
L 186.486941 -359.621339 
L 184.667159 -359.348118 
L 182.847377 -335.890129 
L 181.027594 -333.765237 
L 179.207812 -333.765237 
L 177.388029 -333.765237 
L 175.568247 -332.760972 
L 173.748465 -332.555157 
L 171.928682 -332.555157 
L 170.1089 -332.555157 
L 168.289118 -300.370664 
L 166.469335 -299.920172 
L 164.649553 -299.920172 
L 162.82977 -299.920172 
L 161.009988 -299.920172 
L 159.190206 -297.274358 
L 157.370423 -289.927884 
L 155.550641 -289.468606 
L 153.730858 -289.468606 
L 151.911076 -289.374368 
L 150.091294 -288.70648 
L 148.271511 -286.286296 
L 146.451729 -255.572721 
L 144.631946 -254.170628 
L 142.812164 -253.813937 
L 140.992382 -253.813937 
L 139.172599 -253.813937 
L 137.352817 -253.813937 
L 135.533034 -246.587833 
L 133.713252 -226.368299 
L 131.89347 -225.833686 
L 130.073687 -225.833686 
L 128.253905 -213.085085 
L 126.434122 -213.085085 
L 124.61434 -211.8727 
L 122.794558 -211.8727 
L 120.974775 -211.636802 
L 119.154993 -210.980929 
L 117.33521 -210.980929 
L 115.515428 -210.980929 
L 113.695646 -209.507006 
L 111.875863 -147.58716 
L 110.056081 -145.350871 
L 108.236298 -145.350871 
L 106.416516 -143.923326 
L 104.596734 -133.613588 
L 102.776951 -129.48612 
L 100.957169 -129.087322 
L 99.137386 -108.632928 
z
" style="stroke: #cc4f1b; stroke-opacity: 0.5"/>
    </defs>
    <g clip-path="url(#p404f1d6d8a)">
     <use xlink:href="#ma3d2ab3520" x="0" y="576" style="fill: #ff9848; fill-opacity: 0.5; stroke: #cc4f1b; stroke-opacity: 0.5"/>
    </g>
   </g>
   <g id="PolyCollection_2">
    <defs>
     <path id="meddd321dfc" d="M 737.881008 -372.305274 
L 737.881008 -71.541648 
L 739.700791 -144.809309 
L 741.520573 -152.534311 
L 743.340355 -175.119022 
L 745.160138 -175.790968 
L 746.97992 -181.439145 
L 748.799703 -188.774727 
L 750.619485 -188.774727 
L 752.439267 -217.922515 
L 754.25905 -251.040548 
L 756.078832 -274.591637 
L 757.898615 -286.852436 
L 759.718397 -307.859327 
L 761.538179 -307.859327 
L 763.357962 -313.780699 
L 765.177744 -313.780699 
L 766.997527 -319.373096 
L 768.817309 -319.373096 
L 770.637091 -320.740961 
L 772.456874 -320.740961 
L 774.276656 -322.398933 
L 776.096439 -322.398933 
L 777.916221 -331.144084 
L 779.736003 -339.635898 
L 781.555786 -342.180862 
L 783.375568 -342.180862 
L 785.195351 -342.180862 
L 787.015133 -342.180862 
L 788.834915 -342.180862 
L 790.654698 -352.030737 
L 792.47448 -353.288377 
L 794.294263 -353.288377 
L 796.114045 -354.455798 
L 797.933827 -354.455798 
L 799.75361 -354.728321 
L 801.573392 -354.728321 
L 803.393175 -354.728321 
L 805.212957 -354.728321 
L 807.032739 -354.728321 
L 808.852522 -355.110362 
L 810.672304 -355.110362 
L 812.492087 -360.738102 
L 814.311869 -362.663369 
L 816.131651 -362.663369 
L 817.951434 -399.931942 
L 819.771216 -421.366446 
L 821.590999 -421.366446 
L 823.410781 -421.366446 
L 825.230563 -421.366446 
L 827.050346 -422.091363 
L 828.870128 -422.091363 
L 830.689911 -438.726407 
L 832.509693 -438.726407 
L 834.329475 -438.726407 
L 836.149258 -441.240454 
L 837.96904 -441.240454 
L 839.788823 -441.240454 
L 841.608605 -441.240454 
L 843.428387 -441.240454 
L 845.24817 -441.240454 
L 847.067952 -441.240454 
L 848.887735 -451.659154 
L 850.707517 -451.659154 
L 852.527299 -451.659154 
L 854.347082 -451.659154 
L 856.166864 -451.659154 
L 857.986647 -451.659154 
L 859.806429 -451.659154 
L 861.626211 -451.659154 
L 863.445994 -451.659154 
L 865.265776 -454.291691 
L 867.085559 -454.291691 
L 868.905341 -454.291691 
L 870.725123 -454.291691 
L 872.544906 -454.291691 
L 874.364688 -454.291691 
L 876.184471 -455.060666 
L 878.004253 -455.060666 
L 879.824035 -455.060666 
L 881.643818 -455.060666 
L 883.4636 -455.060666 
L 885.283382 -455.060666 
L 887.103165 -455.060666 
L 888.922947 -469.671181 
L 888.922947 -469.671181 
L 888.922947 -469.671181 
L 887.103165 -477.261254 
L 885.283382 -477.261254 
L 883.4636 -477.261254 
L 881.643818 -477.261254 
L 879.824035 -477.261254 
L 878.004253 -477.261254 
L 876.184471 -477.261254 
L 874.364688 -477.660732 
L 872.544906 -477.660732 
L 870.725123 -477.660732 
L 868.905341 -477.660732 
L 867.085559 -477.660732 
L 865.265776 -477.660732 
L 863.445994 -476.598299 
L 861.626211 -476.598299 
L 859.806429 -476.598299 
L 857.986647 -476.598299 
L 856.166864 -476.598299 
L 854.347082 -476.598299 
L 852.527299 -476.598299 
L 850.707517 -476.598299 
L 848.887735 -476.598299 
L 847.067952 -477.410078 
L 845.24817 -477.410078 
L 843.428387 -477.410078 
L 841.608605 -477.410078 
L 839.788823 -477.410078 
L 837.96904 -477.410078 
L 836.149258 -477.410078 
L 834.329475 -478.446138 
L 832.509693 -478.446138 
L 830.689911 -478.446138 
L 828.870128 -486.213254 
L 827.050346 -486.213254 
L 825.230563 -486.568674 
L 823.410781 -486.568674 
L 821.590999 -486.568674 
L 819.771216 -486.568674 
L 817.951434 -491.745311 
L 816.131651 -505.366078 
L 814.311869 -505.366078 
L 812.492087 -505.44386 
L 810.672304 -508.115624 
L 808.852522 -508.115624 
L 807.032739 -508.128168 
L 805.212957 -508.128168 
L 803.393175 -508.128168 
L 801.573392 -508.128168 
L 799.75361 -508.128168 
L 797.933827 -507.661697 
L 796.114045 -507.661697 
L 794.294263 -507.720628 
L 792.47448 -507.720628 
L 790.654698 -506.022292 
L 788.834915 -510.699209 
L 787.015133 -510.699209 
L 785.195351 -510.699209 
L 783.375568 -510.699209 
L 781.555786 -510.699209 
L 779.736003 -508.440712 
L 777.916221 -512.498562 
L 776.096439 -509.41981 
L 774.276656 -509.41981 
L 772.456874 -509.230297 
L 770.637091 -509.230297 
L 768.817309 -509.120175 
L 766.997527 -509.120175 
L 765.177744 -509.170117 
L 763.357962 -509.170117 
L 761.538179 -511.766016 
L 759.718397 -511.766016 
L 757.898615 -515.40655 
L 756.078832 -517.321433 
L 754.25905 -515.746728 
L 752.439267 -499.721664 
L 750.619485 -478.987361 
L 748.799703 -478.987361 
L 746.97992 -479.302499 
L 745.160138 -479.038725 
L 743.340355 -478.232683 
L 741.520573 -478.647576 
L 739.700791 -471.962197 
L 737.881008 -372.305274 
z
" style="stroke: #1b2acc; stroke-opacity: 0.5"/>
    </defs>
    <g clip-path="url(#p404f1d6d8a)">
     <use xlink:href="#meddd321dfc" x="0" y="576" style="fill: #089fff; fill-opacity: 0.5; stroke: #1b2acc; stroke-opacity: 0.5"/>
    </g>
   </g>
   <g id="matplotlib.axis_1">
    <g id="xtick_1">
     <g id="line2d_1">
      <defs>
       <path id="mbf55de9dd3" d="M 0 0 
L 0 3.5 
" style="stroke: #000000; stroke-width: 0.8"/>
      </defs>
      <g>
       <use xlink:href="#mbf55de9dd3" x="99.137386" y="527.10125" style="stroke: #000000; stroke-width: 0.8"/>
      </g>
     </g>
     <g id="text_1">
      <!-- 0 -->
      <g transform="translate(95.956136 541.699687) scale(0.1 -0.1)">
       <defs>
        <path id="DejaVuSans-30" d="M 2034 4250 
Q 1547 4250 1301 3770 
Q 1056 3291 1056 2328 
Q 1056 1369 1301 889 
Q 1547 409 2034 409 
Q 2525 409 2770 889 
Q 3016 1369 3016 2328 
Q 3016 3291 2770 3770 
Q 2525 4250 2034 4250 
z
M 2034 4750 
Q 2819 4750 3233 4129 
Q 3647 3509 3647 2328 
Q 3647 1150 3233 529 
Q 2819 -91 2034 -91 
Q 1250 -91 836 529 
Q 422 1150 422 2328 
Q 422 3509 836 4129 
Q 1250 4750 2034 4750 
z
" transform="scale(0.015625)"/>
       </defs>
       <use xlink:href="#DejaVuSans-30"/>
      </g>
     </g>
    </g>
    <g id="xtick_2">
     <g id="line2d_2">
      <g>
       <use xlink:href="#mbf55de9dd3" x="281.115626" y="527.10125" style="stroke: #000000; stroke-width: 0.8"/>
      </g>
     </g>
     <g id="text_2">
      <!-- 100 -->
      <g transform="translate(271.571876 541.699687) scale(0.1 -0.1)">
       <defs>
        <path id="DejaVuSans-31" d="M 794 531 
L 1825 531 
L 1825 4091 
L 703 3866 
L 703 4441 
L 1819 4666 
L 2450 4666 
L 2450 531 
L 3481 531 
L 3481 0 
L 794 0 
L 794 531 
z
" transform="scale(0.015625)"/>
       </defs>
       <use xlink:href="#DejaVuSans-31"/>
       <use xlink:href="#DejaVuSans-30" x="63.623047"/>
       <use xlink:href="#DejaVuSans-30" x="127.246094"/>
      </g>
     </g>
    </g>
    <g id="xtick_3">
     <g id="line2d_3">
      <g>
       <use xlink:href="#mbf55de9dd3" x="463.093866" y="527.10125" style="stroke: #000000; stroke-width: 0.8"/>
      </g>
     </g>
     <g id="text_3">
      <!-- 200 -->
      <g transform="translate(453.550116 541.699687) scale(0.1 -0.1)">
       <defs>
        <path id="DejaVuSans-32" d="M 1228 531 
L 3431 531 
L 3431 0 
L 469 0 
L 469 531 
Q 828 903 1448 1529 
Q 2069 2156 2228 2338 
Q 2531 2678 2651 2914 
Q 2772 3150 2772 3378 
Q 2772 3750 2511 3984 
Q 2250 4219 1831 4219 
Q 1534 4219 1204 4116 
Q 875 4013 500 3803 
L 500 4441 
Q 881 4594 1212 4672 
Q 1544 4750 1819 4750 
Q 2544 4750 2975 4387 
Q 3406 4025 3406 3419 
Q 3406 3131 3298 2873 
Q 3191 2616 2906 2266 
Q 2828 2175 2409 1742 
Q 1991 1309 1228 531 
z
" transform="scale(0.015625)"/>
       </defs>
       <use xlink:href="#DejaVuSans-32"/>
       <use xlink:href="#DejaVuSans-30" x="63.623047"/>
       <use xlink:href="#DejaVuSans-30" x="127.246094"/>
      </g>
     </g>
    </g>
    <g id="xtick_4">
     <g id="line2d_4">
      <g>
       <use xlink:href="#mbf55de9dd3" x="645.072106" y="527.10125" style="stroke: #000000; stroke-width: 0.8"/>
      </g>
     </g>
     <g id="text_4">
      <!-- 300 -->
      <g transform="translate(635.528356 541.699687) scale(0.1 -0.1)">
       <defs>
        <path id="DejaVuSans-33" d="M 2597 2516 
Q 3050 2419 3304 2112 
Q 3559 1806 3559 1356 
Q 3559 666 3084 287 
Q 2609 -91 1734 -91 
Q 1441 -91 1130 -33 
Q 819 25 488 141 
L 488 750 
Q 750 597 1062 519 
Q 1375 441 1716 441 
Q 2309 441 2620 675 
Q 2931 909 2931 1356 
Q 2931 1769 2642 2001 
Q 2353 2234 1838 2234 
L 1294 2234 
L 1294 2753 
L 1863 2753 
Q 2328 2753 2575 2939 
Q 2822 3125 2822 3475 
Q 2822 3834 2567 4026 
Q 2313 4219 1838 4219 
Q 1578 4219 1281 4162 
Q 984 4106 628 3988 
L 628 4550 
Q 988 4650 1302 4700 
Q 1616 4750 1894 4750 
Q 2613 4750 3031 4423 
Q 3450 4097 3450 3541 
Q 3450 3153 3228 2886 
Q 3006 2619 2597 2516 
z
" transform="scale(0.015625)"/>
       </defs>
       <use xlink:href="#DejaVuSans-33"/>
       <use xlink:href="#DejaVuSans-30" x="63.623047"/>
       <use xlink:href="#DejaVuSans-30" x="127.246094"/>
      </g>
     </g>
    </g>
    <g id="xtick_5">
     <g id="line2d_5">
      <g>
       <use xlink:href="#mbf55de9dd3" x="827.050346" y="527.10125" style="stroke: #000000; stroke-width: 0.8"/>
      </g>
     </g>
     <g id="text_5">
      <!-- 400 -->
      <g transform="translate(817.506596 541.699687) scale(0.1 -0.1)">
       <defs>
        <path id="DejaVuSans-34" d="M 2419 4116 
L 825 1625 
L 2419 1625 
L 2419 4116 
z
M 2253 4666 
L 3047 4666 
L 3047 1625 
L 3713 1625 
L 3713 1100 
L 3047 1100 
L 3047 0 
L 2419 0 
L 2419 1100 
L 313 1100 
L 313 1709 
L 2253 4666 
z
" transform="scale(0.015625)"/>
       </defs>
       <use xlink:href="#DejaVuSans-34"/>
       <use xlink:href="#DejaVuSans-30" x="63.623047"/>
       <use xlink:href="#DejaVuSans-30" x="127.246094"/>
      </g>
     </g>
    </g>
    <g id="text_6">
     <!-- Generation -->
     <g transform="translate(476.578906 561.456563) scale(0.18 -0.18)">
      <defs>
       <path id="DejaVuSans-47" d="M 3809 666 
L 3809 1919 
L 2778 1919 
L 2778 2438 
L 4434 2438 
L 4434 434 
Q 4069 175 3628 42 
Q 3188 -91 2688 -91 
Q 1594 -91 976 548 
Q 359 1188 359 2328 
Q 359 3472 976 4111 
Q 1594 4750 2688 4750 
Q 3144 4750 3555 4637 
Q 3966 4525 4313 4306 
L 4313 3634 
Q 3963 3931 3569 4081 
Q 3175 4231 2741 4231 
Q 1884 4231 1454 3753 
Q 1025 3275 1025 2328 
Q 1025 1384 1454 906 
Q 1884 428 2741 428 
Q 3075 428 3337 486 
Q 3600 544 3809 666 
z
" transform="scale(0.015625)"/>
       <path id="DejaVuSans-65" d="M 3597 1894 
L 3597 1613 
L 953 1613 
Q 991 1019 1311 708 
Q 1631 397 2203 397 
Q 2534 397 2845 478 
Q 3156 559 3463 722 
L 3463 178 
Q 3153 47 2828 -22 
Q 2503 -91 2169 -91 
Q 1331 -91 842 396 
Q 353 884 353 1716 
Q 353 2575 817 3079 
Q 1281 3584 2069 3584 
Q 2775 3584 3186 3129 
Q 3597 2675 3597 1894 
z
M 3022 2063 
Q 3016 2534 2758 2815 
Q 2500 3097 2075 3097 
Q 1594 3097 1305 2825 
Q 1016 2553 972 2059 
L 3022 2063 
z
" transform="scale(0.015625)"/>
       <path id="DejaVuSans-6e" d="M 3513 2113 
L 3513 0 
L 2938 0 
L 2938 2094 
Q 2938 2591 2744 2837 
Q 2550 3084 2163 3084 
Q 1697 3084 1428 2787 
Q 1159 2491 1159 1978 
L 1159 0 
L 581 0 
L 581 3500 
L 1159 3500 
L 1159 2956 
Q 1366 3272 1645 3428 
Q 1925 3584 2291 3584 
Q 2894 3584 3203 3211 
Q 3513 2838 3513 2113 
z
" transform="scale(0.015625)"/>
       <path id="DejaVuSans-72" d="M 2631 2963 
Q 2534 3019 2420 3045 
Q 2306 3072 2169 3072 
Q 1681 3072 1420 2755 
Q 1159 2438 1159 1844 
L 1159 0 
L 581 0 
L 581 3500 
L 1159 3500 
L 1159 2956 
Q 1341 3275 1631 3429 
Q 1922 3584 2338 3584 
Q 2397 3584 2469 3576 
Q 2541 3569 2628 3553 
L 2631 2963 
z
" transform="scale(0.015625)"/>
       <path id="DejaVuSans-61" d="M 2194 1759 
Q 1497 1759 1228 1600 
Q 959 1441 959 1056 
Q 959 750 1161 570 
Q 1363 391 1709 391 
Q 2188 391 2477 730 
Q 2766 1069 2766 1631 
L 2766 1759 
L 2194 1759 
z
M 3341 1997 
L 3341 0 
L 2766 0 
L 2766 531 
Q 2569 213 2275 61 
Q 1981 -91 1556 -91 
Q 1019 -91 701 211 
Q 384 513 384 1019 
Q 384 1609 779 1909 
Q 1175 2209 1959 2209 
L 2766 2209 
L 2766 2266 
Q 2766 2663 2505 2880 
Q 2244 3097 1772 3097 
Q 1472 3097 1187 3025 
Q 903 2953 641 2809 
L 641 3341 
Q 956 3463 1253 3523 
Q 1550 3584 1831 3584 
Q 2591 3584 2966 3190 
Q 3341 2797 3341 1997 
z
" transform="scale(0.015625)"/>
       <path id="DejaVuSans-74" d="M 1172 4494 
L 1172 3500 
L 2356 3500 
L 2356 3053 
L 1172 3053 
L 1172 1153 
Q 1172 725 1289 603 
Q 1406 481 1766 481 
L 2356 481 
L 2356 0 
L 1766 0 
Q 1100 0 847 248 
Q 594 497 594 1153 
L 594 3053 
L 172 3053 
L 172 3500 
L 594 3500 
L 594 4494 
L 1172 4494 
z
" transform="scale(0.015625)"/>
       <path id="DejaVuSans-69" d="M 603 3500 
L 1178 3500 
L 1178 0 
L 603 0 
L 603 3500 
z
M 603 4863 
L 1178 4863 
L 1178 4134 
L 603 4134 
L 603 4863 
z
" transform="scale(0.015625)"/>
       <path id="DejaVuSans-6f" d="M 1959 3097 
Q 1497 3097 1228 2736 
Q 959 2375 959 1747 
Q 959 1119 1226 758 
Q 1494 397 1959 397 
Q 2419 397 2687 759 
Q 2956 1122 2956 1747 
Q 2956 2369 2687 2733 
Q 2419 3097 1959 3097 
z
M 1959 3584 
Q 2709 3584 3137 3096 
Q 3566 2609 3566 1747 
Q 3566 888 3137 398 
Q 2709 -91 1959 -91 
Q 1206 -91 779 398 
Q 353 888 353 1747 
Q 353 2609 779 3096 
Q 1206 3584 1959 3584 
z
" transform="scale(0.015625)"/>
      </defs>
      <use xlink:href="#DejaVuSans-47"/>
      <use xlink:href="#DejaVuSans-65" x="77.490234"/>
      <use xlink:href="#DejaVuSans-6e" x="139.013672"/>
      <use xlink:href="#DejaVuSans-65" x="202.392578"/>
      <use xlink:href="#DejaVuSans-72" x="263.916016"/>
      <use xlink:href="#DejaVuSans-61" x="305.029297"/>
      <use xlink:href="#DejaVuSans-74" x="366.308594"/>
      <use xlink:href="#DejaVuSans-69" x="405.517578"/>
      <use xlink:href="#DejaVuSans-6f" x="433.300781"/>
      <use xlink:href="#DejaVuSans-6e" x="494.482422"/>
     </g>
    </g>
   </g>
   <g id="matplotlib.axis_2">
    <g id="ytick_1">
     <g id="line2d_6">
      <defs>
       <path id="md22b1aaa5b" d="M 0 0 
L -3.5 0 
" style="stroke: #000000; stroke-width: 0.8"/>
      </defs>
      <g>
       <use xlink:href="#md22b1aaa5b" x="56.3725" y="438.876094" style="stroke: #000000; stroke-width: 0.8"/>
      </g>
     </g>
     <g id="text_7">
      <!-- 50 -->
      <g transform="translate(36.6475 442.675313) scale(0.1 -0.1)">
       <defs>
        <path id="DejaVuSans-35" d="M 691 4666 
L 3169 4666 
L 3169 4134 
L 1269 4134 
L 1269 2991 
Q 1406 3038 1543 3061 
Q 1681 3084 1819 3084 
Q 2600 3084 3056 2656 
Q 3513 2228 3513 1497 
Q 3513 744 3044 326 
Q 2575 -91 1722 -91 
Q 1428 -91 1123 -41 
Q 819 9 494 109 
L 494 744 
Q 775 591 1075 516 
Q 1375 441 1709 441 
Q 2250 441 2565 725 
Q 2881 1009 2881 1497 
Q 2881 1984 2565 2268 
Q 2250 2553 1709 2553 
Q 1456 2553 1204 2497 
Q 953 2441 691 2322 
L 691 4666 
z
" transform="scale(0.015625)"/>
       </defs>
       <use xlink:href="#DejaVuSans-35"/>
       <use xlink:href="#DejaVuSans-30" x="63.623047"/>
      </g>
     </g>
    </g>
    <g id="ytick_2">
     <g id="line2d_7">
      <g>
       <use xlink:href="#md22b1aaa5b" x="56.3725" y="346.501851" style="stroke: #000000; stroke-width: 0.8"/>
      </g>
     </g>
     <g id="text_8">
      <!-- 100 -->
      <g transform="translate(30.285 350.30107) scale(0.1 -0.1)">
       <use xlink:href="#DejaVuSans-31"/>
       <use xlink:href="#DejaVuSans-30" x="63.623047"/>
       <use xlink:href="#DejaVuSans-30" x="127.246094"/>
      </g>
     </g>
    </g>
    <g id="ytick_3">
     <g id="line2d_8">
      <g>
       <use xlink:href="#md22b1aaa5b" x="56.3725" y="254.127608" style="stroke: #000000; stroke-width: 0.8"/>
      </g>
     </g>
     <g id="text_9">
      <!-- 150 -->
      <g transform="translate(30.285 257.926827) scale(0.1 -0.1)">
       <use xlink:href="#DejaVuSans-31"/>
       <use xlink:href="#DejaVuSans-35" x="63.623047"/>
       <use xlink:href="#DejaVuSans-30" x="127.246094"/>
      </g>
     </g>
    </g>
    <g id="ytick_4">
     <g id="line2d_9">
      <g>
       <use xlink:href="#md22b1aaa5b" x="56.3725" y="161.753365" style="stroke: #000000; stroke-width: 0.8"/>
      </g>
     </g>
     <g id="text_10">
      <!-- 200 -->
      <g transform="translate(30.285 165.552583) scale(0.1 -0.1)">
       <use xlink:href="#DejaVuSans-32"/>
       <use xlink:href="#DejaVuSans-30" x="63.623047"/>
       <use xlink:href="#DejaVuSans-30" x="127.246094"/>
      </g>
     </g>
    </g>
    <g id="ytick_5">
     <g id="line2d_10">
      <g>
       <use xlink:href="#md22b1aaa5b" x="56.3725" y="69.379121" style="stroke: #000000; stroke-width: 0.8"/>
      </g>
     </g>
     <g id="text_11">
      <!-- 250 -->
      <g transform="translate(30.285 73.17834) scale(0.1 -0.1)">
       <use xlink:href="#DejaVuSans-32"/>
       <use xlink:href="#DejaVuSans-35" x="63.623047"/>
       <use xlink:href="#DejaVuSans-30" x="127.246094"/>
      </g>
     </g>
    </g>
    <g id="text_12">
     <!-- Fitness -->
     <g transform="translate(22.9575 305.736875) rotate(-90) scale(0.16 -0.16)">
      <defs>
       <path id="DejaVuSans-46" d="M 628 4666 
L 3309 4666 
L 3309 4134 
L 1259 4134 
L 1259 2759 
L 3109 2759 
L 3109 2228 
L 1259 2228 
L 1259 0 
L 628 0 
L 628 4666 
z
" transform="scale(0.015625)"/>
       <path id="DejaVuSans-73" d="M 2834 3397 
L 2834 2853 
Q 2591 2978 2328 3040 
Q 2066 3103 1784 3103 
Q 1356 3103 1142 2972 
Q 928 2841 928 2578 
Q 928 2378 1081 2264 
Q 1234 2150 1697 2047 
L 1894 2003 
Q 2506 1872 2764 1633 
Q 3022 1394 3022 966 
Q 3022 478 2636 193 
Q 2250 -91 1575 -91 
Q 1294 -91 989 -36 
Q 684 19 347 128 
L 347 722 
Q 666 556 975 473 
Q 1284 391 1588 391 
Q 1994 391 2212 530 
Q 2431 669 2431 922 
Q 2431 1156 2273 1281 
Q 2116 1406 1581 1522 
L 1381 1569 
Q 847 1681 609 1914 
Q 372 2147 372 2553 
Q 372 3047 722 3315 
Q 1072 3584 1716 3584 
Q 2034 3584 2315 3537 
Q 2597 3491 2834 3397 
z
" transform="scale(0.015625)"/>
      </defs>
      <use xlink:href="#DejaVuSans-46"/>
      <use xlink:href="#DejaVuSans-69" x="50.269531"/>
      <use xlink:href="#DejaVuSans-74" x="78.052734"/>
      <use xlink:href="#DejaVuSans-6e" x="117.261719"/>
      <use xlink:href="#DejaVuSans-65" x="180.640625"/>
      <use xlink:href="#DejaVuSans-73" x="242.164062"/>
      <use xlink:href="#DejaVuSans-73" x="294.263672"/>
     </g>
    </g>
   </g>
   <g id="line2d_11">
    <path d="M 99.137386 473.793558 
L 100.957169 466.034122 
L 102.776951 465.295128 
L 104.596734 462.154404 
L 106.416516 450.145752 
L 108.236298 448.667764 
L 110.056081 448.667764 
L 111.875863 446.635531 
L 113.695646 429.63867 
L 115.515428 427.606437 
L 119.154993 427.606437 
L 120.974775 426.313197 
L 122.794558 425.9437 
L 124.61434 425.9437 
L 126.434122 424.465713 
L 128.253905 424.465713 
L 130.073687 418.553761 
L 131.89347 418.553761 
L 133.713252 417.814767 
L 135.533034 412.826558 
L 137.352817 405.436618 
L 142.812164 405.436618 
L 144.631946 403.773882 
L 146.451729 401.5569 
L 148.271511 393.612715 
L 150.091294 389.732997 
L 151.911076 388.994003 
L 153.730858 388.624506 
L 155.550641 388.624506 
L 157.370423 387.700764 
L 159.190206 379.017585 
L 161.009988 375.322615 
L 166.469335 375.322615 
L 168.289118 373.47513 
L 170.1089 356.108773 
L 173.748465 356.108773 
L 175.568247 355.554527 
L 177.388029 354.076539 
L 181.027594 354.076539 
L 182.847377 350.196821 
L 184.667159 332.830463 
L 186.486941 332.091469 
L 188.306724 322.484548 
L 190.126506 319.898069 
L 191.946289 311.953884 
L 193.766071 307.889418 
L 195.585853 305.857184 
L 197.405636 305.11819 
L 206.504548 305.11819 
L 208.32433 298.651993 
L 210.144113 295.32652 
L 211.963895 292.555293 
L 213.783677 292.555293 
L 215.60346 291.262054 
L 219.243025 291.262054 
L 221.062807 290.707808 
L 222.882589 290.707808 
L 224.702372 290.52306 
L 226.522154 287.197587 
L 233.801284 287.197587 
L 235.621066 286.643342 
L 237.440849 285.719599 
L 239.260631 262.626038 
L 241.080413 262.626038 
L 242.900196 260.778553 
L 244.719978 260.409056 
L 246.539761 259.300566 
L 248.359543 258.931069 
L 250.179325 239.347729 
L 251.999108 236.945999 
L 255.638673 236.945999 
L 257.458455 235.837508 
L 268.377149 235.837508 
L 270.196932 232.881532 
L 275.656279 232.881532 
L 277.476061 232.696783 
L 281.115626 232.696783 
L 282.935409 217.362659 
L 284.755191 217.362659 
L 286.574973 216.623665 
L 288.394756 216.623665 
L 290.214538 214.960929 
L 293.854103 214.960929 
L 295.673885 213.113444 
L 297.493668 213.113444 
L 299.31345 211.265959 
L 312.051927 211.265959 
L 313.871709 210.896462 
L 321.150839 210.896462 
L 322.970621 188.726644 
L 324.790404 188.726644 
L 326.610186 188.541895 
L 328.429969 185.585919 
L 348.447575 185.585919 
L 350.267357 184.846925 
L 359.366269 184.846925 
L 361.186052 184.662177 
L 363.005834 184.662177 
L 364.825617 170.067047 
L 366.645399 170.067047 
L 368.465181 161.383868 
L 372.104746 161.383868 
L 373.924529 156.395659 
L 375.744311 156.395659 
L 377.564093 154.548174 
L 379.383876 151.592198 
L 381.203658 147.897228 
L 386.663005 147.897228 
L 388.482788 147.71248 
L 395.761917 147.71248 
L 397.5817 140.137792 
L 408.500394 140.137792 
L 410.320176 138.290307 
L 419.419088 138.290307 
L 421.238871 135.334331 
L 463.093866 135.334331 
L 464.913648 131.639361 
L 470.372996 131.639361 
L 472.192778 131.269864 
L 574.100592 131.269864 
L 575.920375 130.715619 
L 674.188624 130.715619 
L 676.008407 130.346122 
L 757.898615 130.346122 
L 759.718397 111.317028 
L 921.67903 111.317028 
L 923.498813 109.654291 
L 925.318595 109.654291 
L 927.138378 109.284794 
L 939.876854 109.284794 
L 941.696637 108.361052 
L 952.615331 108.361052 
L 954.435114 106.328819 
L 954.435114 106.328819 
" clip-path="url(#p404f1d6d8a)" style="fill: none; stroke: #cc4f1b; stroke-width: 1.5; stroke-linecap: square"/>
   </g>
   <g id="line2d_12">
    <path d="M 737.881008 354.076539 
L 739.700791 267.614247 
L 741.520573 260.409056 
L 743.340355 249.324147 
L 745.160138 248.585153 
L 746.97992 245.629178 
L 748.799703 242.118956 
L 750.619485 242.118956 
L 752.439267 217.177911 
L 754.25905 192.606362 
L 756.078832 180.043465 
L 757.898615 174.870507 
L 759.718397 166.187328 
L 761.538179 166.187328 
L 763.357962 164.524592 
L 765.177744 164.524592 
L 766.997527 161.753365 
L 768.817309 161.753365 
L 770.637091 161.014371 
L 772.456874 161.014371 
L 774.276656 160.090628 
L 776.096439 160.090628 
L 777.916221 154.178677 
L 779.736003 151.961695 
L 781.555786 149.559965 
L 783.375568 149.559965 
L 785.195351 149.559965 
L 787.015133 149.559965 
L 788.834915 149.559965 
L 790.654698 146.973486 
L 792.47448 145.495498 
L 794.294263 145.495498 
L 796.114045 144.941252 
L 797.933827 144.941252 
L 799.75361 144.571755 
L 801.573392 144.571755 
L 803.393175 144.571755 
L 805.212957 144.571755 
L 807.032739 144.571755 
L 808.852522 144.387007 
L 810.672304 144.387007 
L 812.492087 142.909019 
L 814.311869 141.985277 
L 816.131651 141.985277 
L 817.951434 130.161373 
L 819.771216 122.03244 
L 821.590999 122.03244 
L 823.410781 122.03244 
L 825.230563 122.03244 
L 827.050346 121.847692 
L 828.870128 121.847692 
L 830.689911 117.413728 
L 832.509693 117.413728 
L 834.329475 117.413728 
L 836.149258 116.674734 
L 837.96904 116.674734 
L 839.788823 116.674734 
L 841.608605 116.674734 
L 843.428387 116.674734 
L 845.24817 116.674734 
L 847.067952 116.674734 
L 848.887735 111.871273 
L 850.707517 111.871273 
L 852.527299 111.871273 
L 854.347082 111.871273 
L 856.166864 111.871273 
L 857.986647 111.871273 
L 859.806429 111.871273 
L 861.626211 111.871273 
L 863.445994 111.871273 
L 865.265776 110.023788 
L 867.085559 110.023788 
L 868.905341 110.023788 
L 870.725123 110.023788 
L 872.544906 110.023788 
L 874.364688 110.023788 
L 876.184471 109.83904 
L 878.004253 109.83904 
L 879.824035 109.83904 
L 881.643818 109.83904 
L 883.4636 109.83904 
L 885.283382 109.83904 
L 887.103165 109.83904 
L 888.922947 106.328819 
" clip-path="url(#p404f1d6d8a)" style="fill: none; stroke: #1b2acc; stroke-width: 1.5; stroke-linecap: square"/>
   </g>
   <g id="line2d_13">
    <path d="M 56.3725 106.328819 
L 997.2 106.328819 
" clip-path="url(#p404f1d6d8a)" style="fill: none; stroke-dasharray: 5.55,2.4; stroke-dashoffset: 0; stroke: #800080; stroke-width: 1.5"/>
   </g>
   <g id="patch_3">
    <path d="M 56.3725 527.10125 
L 56.3725 28.9575 
" style="fill: none; stroke: #000000; stroke-width: 0.8; stroke-linejoin: miter; stroke-linecap: square"/>
   </g>
   <g id="patch_4">
    <path d="M 997.2 527.10125 
L 997.2 28.9575 
" style="fill: none; stroke: #000000; stroke-width: 0.8; stroke-linejoin: miter; stroke-linecap: square"/>
   </g>
   <g id="patch_5">
    <path d="M 56.3725 527.10125 
L 997.2 527.10125 
" style="fill: none; stroke: #000000; stroke-width: 0.8; stroke-linejoin: miter; stroke-linecap: square"/>
   </g>
   <g id="patch_6">
    <path d="M 56.3725 28.9575 
L 997.2 28.9575 
" style="fill: none; stroke: #000000; stroke-width: 0.8; stroke-linejoin: miter; stroke-linecap: square"/>
   </g>
   <g id="text_13">
    <!-- 50% Environment -->
    <g transform="translate(455.385 22.9575) scale(0.16 -0.16)">
     <defs>
      <path id="DejaVuSans-25" d="M 4653 2053 
Q 4381 2053 4226 1822 
Q 4072 1591 4072 1178 
Q 4072 772 4226 539 
Q 4381 306 4653 306 
Q 4919 306 5073 539 
Q 5228 772 5228 1178 
Q 5228 1588 5073 1820 
Q 4919 2053 4653 2053 
z
M 4653 2450 
Q 5147 2450 5437 2106 
Q 5728 1763 5728 1178 
Q 5728 594 5436 251 
Q 5144 -91 4653 -91 
Q 4153 -91 3862 251 
Q 3572 594 3572 1178 
Q 3572 1766 3864 2108 
Q 4156 2450 4653 2450 
z
M 1428 4353 
Q 1159 4353 1004 4120 
Q 850 3888 850 3481 
Q 850 3069 1003 2837 
Q 1156 2606 1428 2606 
Q 1700 2606 1854 2837 
Q 2009 3069 2009 3481 
Q 2009 3884 1853 4118 
Q 1697 4353 1428 4353 
z
M 4250 4750 
L 4750 4750 
L 1831 -91 
L 1331 -91 
L 4250 4750 
z
M 1428 4750 
Q 1922 4750 2215 4408 
Q 2509 4066 2509 3481 
Q 2509 2891 2217 2550 
Q 1925 2209 1428 2209 
Q 931 2209 642 2551 
Q 353 2894 353 3481 
Q 353 4063 643 4406 
Q 934 4750 1428 4750 
z
" transform="scale(0.015625)"/>
      <path id="DejaVuSans-20" transform="scale(0.015625)"/>
      <path id="DejaVuSans-45" d="M 628 4666 
L 3578 4666 
L 3578 4134 
L 1259 4134 
L 1259 2753 
L 3481 2753 
L 3481 2222 
L 1259 2222 
L 1259 531 
L 3634 531 
L 3634 0 
L 628 0 
L 628 4666 
z
" transform="scale(0.015625)"/>
      <path id="DejaVuSans-76" d="M 191 3500 
L 800 3500 
L 1894 563 
L 2988 3500 
L 3597 3500 
L 2284 0 
L 1503 0 
L 191 3500 
z
" transform="scale(0.015625)"/>
      <path id="DejaVuSans-6d" d="M 3328 2828 
Q 3544 3216 3844 3400 
Q 4144 3584 4550 3584 
Q 5097 3584 5394 3201 
Q 5691 2819 5691 2113 
L 5691 0 
L 5113 0 
L 5113 2094 
Q 5113 2597 4934 2840 
Q 4756 3084 4391 3084 
Q 3944 3084 3684 2787 
Q 3425 2491 3425 1978 
L 3425 0 
L 2847 0 
L 2847 2094 
Q 2847 2600 2669 2842 
Q 2491 3084 2119 3084 
Q 1678 3084 1418 2786 
Q 1159 2488 1159 1978 
L 1159 0 
L 581 0 
L 581 3500 
L 1159 3500 
L 1159 2956 
Q 1356 3278 1631 3431 
Q 1906 3584 2284 3584 
Q 2666 3584 2933 3390 
Q 3200 3197 3328 2828 
z
" transform="scale(0.015625)"/>
     </defs>
     <use xlink:href="#DejaVuSans-35"/>
     <use xlink:href="#DejaVuSans-30" x="63.623047"/>
     <use xlink:href="#DejaVuSans-25" x="127.246094"/>
     <use xlink:href="#DejaVuSans-20" x="222.265625"/>
     <use xlink:href="#DejaVuSans-45" x="254.052734"/>
     <use xlink:href="#DejaVuSans-6e" x="317.236328"/>
     <use xlink:href="#DejaVuSans-76" x="380.615234"/>
     <use xlink:href="#DejaVuSans-69" x="439.794922"/>
     <use xlink:href="#DejaVuSans-72" x="467.578125"/>
     <use xlink:href="#DejaVuSans-6f" x="506.441406"/>
     <use xlink:href="#DejaVuSans-6e" x="567.623047"/>
     <use xlink:href="#DejaVuSans-6d" x="631.001953"/>
     <use xlink:href="#DejaVuSans-65" x="728.414062"/>
     <use xlink:href="#DejaVuSans-6e" x="789.9375"/>
     <use xlink:href="#DejaVuSans-74" x="853.316406"/>
    </g>
   </g>
   <g id="legend_1">
    <g id="patch_7">
     <path d="M 893.304688 522.10125 
L 990.2 522.10125 
Q 992.2 522.10125 992.2 520.10125 
L 992.2 477.066875 
Q 992.2 475.066875 990.2 475.066875 
L 893.304688 475.066875 
Q 891.304688 475.066875 891.304688 477.066875 
L 891.304688 520.10125 
Q 891.304688 522.10125 893.304688 522.10125 
z
" style="fill: #ffffff; opacity: 0.8; stroke: #cccccc; stroke-linejoin: miter"/>
    </g>
    <g id="line2d_14">
     <path d="M 895.304688 483.165312 
L 905.304688 483.165312 
L 915.304688 483.165312 
" style="fill: none; stroke: #cc4f1b; stroke-width: 1.5; stroke-linecap: square"/>
    </g>
    <g id="text_14">
     <!-- Direct -->
     <g transform="translate(923.304688 486.665312) scale(0.1 -0.1)">
      <defs>
       <path id="DejaVuSans-44" d="M 1259 4147 
L 1259 519 
L 2022 519 
Q 2988 519 3436 956 
Q 3884 1394 3884 2338 
Q 3884 3275 3436 3711 
Q 2988 4147 2022 4147 
L 1259 4147 
z
M 628 4666 
L 1925 4666 
Q 3281 4666 3915 4102 
Q 4550 3538 4550 2338 
Q 4550 1131 3912 565 
Q 3275 0 1925 0 
L 628 0 
L 628 4666 
z
" transform="scale(0.015625)"/>
       <path id="DejaVuSans-63" d="M 3122 3366 
L 3122 2828 
Q 2878 2963 2633 3030 
Q 2388 3097 2138 3097 
Q 1578 3097 1268 2742 
Q 959 2388 959 1747 
Q 959 1106 1268 751 
Q 1578 397 2138 397 
Q 2388 397 2633 464 
Q 2878 531 3122 666 
L 3122 134 
Q 2881 22 2623 -34 
Q 2366 -91 2075 -91 
Q 1284 -91 818 406 
Q 353 903 353 1747 
Q 353 2603 823 3093 
Q 1294 3584 2113 3584 
Q 2378 3584 2631 3529 
Q 2884 3475 3122 3366 
z
" transform="scale(0.015625)"/>
      </defs>
      <use xlink:href="#DejaVuSans-44"/>
      <use xlink:href="#DejaVuSans-69" x="77.001953"/>
      <use xlink:href="#DejaVuSans-72" x="104.785156"/>
      <use xlink:href="#DejaVuSans-65" x="143.648438"/>
      <use xlink:href="#DejaVuSans-63" x="205.171875"/>
      <use xlink:href="#DejaVuSans-74" x="260.152344"/>
     </g>
    </g>
    <g id="line2d_15">
     <path d="M 895.304688 497.843437 
L 905.304688 497.843437 
L 915.304688 497.843437 
" style="fill: none; stroke: #1b2acc; stroke-width: 1.5; stroke-linecap: square"/>
    </g>
    <g id="text_15">
     <!-- Incremental -->
     <g transform="translate(923.304688 501.343437) scale(0.1 -0.1)">
      <defs>
       <path id="DejaVuSans-49" d="M 628 4666 
L 1259 4666 
L 1259 0 
L 628 0 
L 628 4666 
z
" transform="scale(0.015625)"/>
       <path id="DejaVuSans-6c" d="M 603 4863 
L 1178 4863 
L 1178 0 
L 603 0 
L 603 4863 
z
" transform="scale(0.015625)"/>
      </defs>
      <use xlink:href="#DejaVuSans-49"/>
      <use xlink:href="#DejaVuSans-6e" x="29.492188"/>
      <use xlink:href="#DejaVuSans-63" x="92.871094"/>
      <use xlink:href="#DejaVuSans-72" x="147.851562"/>
      <use xlink:href="#DejaVuSans-65" x="186.714844"/>
      <use xlink:href="#DejaVuSans-6d" x="248.238281"/>
      <use xlink:href="#DejaVuSans-65" x="345.650391"/>
      <use xlink:href="#DejaVuSans-6e" x="407.173828"/>
      <use xlink:href="#DejaVuSans-74" x="470.552734"/>
      <use xlink:href="#DejaVuSans-61" x="509.761719"/>
      <use xlink:href="#DejaVuSans-6c" x="571.041016"/>
     </g>
    </g>
    <g id="line2d_16">
     <path d="M 895.304688 512.521562 
L 905.304688 512.521562 
L 915.304688 512.521562 
" style="fill: none; stroke-dasharray: 5.55,2.4; stroke-dashoffset: 0; stroke: #800080; stroke-width: 1.5"/>
    </g>
    <g id="text_16">
     <!-- 100% fitness -->
     <g transform="translate(923.304688 516.021562) scale(0.1 -0.1)">
      <defs>
       <path id="DejaVuSans-66" d="M 2375 4863 
L 2375 4384 
L 1825 4384 
Q 1516 4384 1395 4259 
Q 1275 4134 1275 3809 
L 1275 3500 
L 2222 3500 
L 2222 3053 
L 1275 3053 
L 1275 0 
L 697 0 
L 697 3053 
L 147 3053 
L 147 3500 
L 697 3500 
L 697 3744 
Q 697 4328 969 4595 
Q 1241 4863 1831 4863 
L 2375 4863 
z
" transform="scale(0.015625)"/>
      </defs>
      <use xlink:href="#DejaVuSans-31"/>
      <use xlink:href="#DejaVuSans-30" x="63.623047"/>
      <use xlink:href="#DejaVuSans-30" x="127.246094"/>
      <use xlink:href="#DejaVuSans-25" x="190.869141"/>
      <use xlink:href="#DejaVuSans-20" x="285.888672"/>
      <use xlink:href="#DejaVuSans-66" x="317.675781"/>
      <use xlink:href="#DejaVuSans-69" x="352.880859"/>
      <use xlink:href="#DejaVuSans-74" x="380.664062"/>
      <use xlink:href="#DejaVuSans-6e" x="419.873047"/>
      <use xlink:href="#DejaVuSans-65" x="483.251953"/>
      <use xlink:href="#DejaVuSans-73" x="544.775391"/>
      <use xlink:href="#DejaVuSans-73" x="596.875"/>
     </g>
    </g>
   </g>
  </g>
 </g>
 <defs>
  <clipPath id="p404f1d6d8a">
   <rect x="56.3725" y="28.9575" width="940.8275" height="498.14375"/>
  </clipPath>
 </defs>
</svg>
