<?xml version="1.0" encoding="utf-8" standalone="no"?>
<!DOCTYPE svg PUBLIC "-//W3C//DTD SVG 1.1//EN"
  "http://www.w3.org/Graphics/SVG/1.1/DTD/svg11.dtd">
<svg xmlns:xlink="http://www.w3.org/1999/xlink" width="1008pt" height="576pt" viewBox="0 0 1008 576" xmlns="http://www.w3.org/2000/svg" version="1.1">
 <metadata>
  <rdf:RDF xmlns:dc="http://purl.org/dc/elements/1.1/" xmlns:cc="http://creativecommons.org/ns#" xmlns:rdf="http://www.w3.org/1999/02/22-rdf-syntax-ns#">
   <cc:Work>
    <dc:type rdf:resource="http://purl.org/dc/dcmitype/StillImage"/>
    <dc:date>2023-05-23T10:56:51.789335</dc:date>
    <dc:format>image/svg+xml</dc:format>
    <dc:creator>
     <cc:Agent>
      <dc:title>Matplotlib v3.6.3, https://matplotlib.org/</dc:title>
     </cc:Agent>
    </dc:creator>
   </cc:Work>
  </rdf:RDF>
 </metadata>
 <defs>
  <style type="text/css">*{stroke-linejoin: round; stroke-linecap: butt}</style>
 </defs>
 <g id="figure_1">
  <g id="patch_1">
   <path d="M 0 576 
L 1008 576 
L 1008 0 
L 0 0 
z
" style="fill: #ffffff"/>
  </g>
  <g id="axes_1">
   <g id="patch_2">
    <path d="M 58.389688 527.10125 
L 997.2 527.10125 
L 997.2 28.9575 
L 58.389688 28.9575 
z
" style="fill: #ffffff"/>
   </g>
   <g id="PolyCollection_1">
    <defs>
     <path id="mc57e927742" d="M 101.062884 -145.11538 
L 101.062884 -145.11538 
L 101.942743 -144.821662 
L 102.822603 -144.866736 
L 103.702463 -144.957269 
L 104.582322 -145.342968 
L 105.462182 -145.83341 
L 106.342042 -145.762953 
L 107.221902 -145.762953 
L 108.101761 -145.871621 
L 108.981621 -146.135948 
L 109.861481 -146.341693 
L 110.74134 -146.781033 
L 111.6212 -146.298818 
L 112.50106 -147.781195 
L 113.380919 -148.015626 
L 114.260779 -148.015626 
L 115.140639 -148.015626 
L 116.020499 -148.145507 
L 116.900358 -148.145507 
L 117.780218 -148.145507 
L 118.660078 -148.145507 
L 119.539937 -148.171858 
L 120.419797 -148.171858 
L 121.299657 -148.324544 
L 122.179517 -148.153611 
L 123.059376 -148.425285 
L 123.939236 -148.855597 
L 124.819096 -148.855597 
L 125.698955 -148.855597 
L 126.578815 -148.579923 
L 127.458675 -103.59169 
L 128.338535 -103.59169 
L 129.218394 -104.337472 
L 130.098254 -95.583371 
L 130.978114 -91.711818 
L 131.857973 -91.711818 
L 132.737833 -92.123693 
L 133.617693 -92.123693 
L 134.497553 -92.950172 
L 135.377412 -92.950172 
L 136.257272 -92.950172 
L 137.137132 -93.361108 
L 138.016991 -93.361108 
L 138.896851 -93.767432 
L 139.776711 -93.976457 
L 140.656571 -94.176499 
L 141.53643 -94.176499 
L 142.41629 -94.176499 
L 143.29615 -94.590165 
L 144.176009 -105.87702 
L 145.055869 -105.87702 
L 145.935729 -106.548777 
L 146.815589 -106.548777 
L 147.695448 -106.548777 
L 148.575308 -106.548777 
L 149.455168 -106.779945 
L 150.335027 -106.779945 
L 151.214887 -107.237921 
L 152.094747 -107.237921 
L 152.974607 -107.237921 
L 153.854466 -108.151674 
L 154.734326 -108.151674 
L 155.614186 -108.151674 
L 156.494045 -108.151674 
L 157.373905 -108.602325 
L 158.253765 -113.89083 
L 159.133625 -113.89083 
L 160.013484 -115.220665 
L 160.893344 -115.220665 
L 161.773204 -115.220665 
L 162.653063 -115.220665 
L 163.532923 -115.220665 
L 164.412783 -128.07675 
L 165.292642 -128.07675 
L 166.172502 -128.07675 
L 167.052362 -128.483827 
L 167.932222 -144.539078 
L 168.812081 -144.539078 
L 169.691941 -144.539078 
L 170.571801 -144.539078 
L 171.45166 -144.101945 
L 172.33152 -144.101945 
L 173.21138 -144.101945 
L 174.09124 -144.101945 
L 174.971099 -144.101945 
L 175.850959 -144.101945 
L 176.730819 -143.04836 
L 177.610678 -142.981735 
L 178.490538 -142.981735 
L 179.370398 -142.981735 
L 180.250258 -142.981735 
L 181.130117 -142.981735 
L 182.009977 -142.981735 
L 182.889837 -142.981735 
L 183.769696 -143.810558 
L 184.649556 -144.837223 
L 185.529416 -145.705416 
L 186.409276 -145.705416 
L 187.289135 -145.705416 
L 188.168995 -145.705416 
L 189.048855 -145.705416 
L 189.928714 -145.705416 
L 190.808574 -145.705416 
L 191.688434 -146.079163 
L 192.568294 -146.079163 
L 193.448153 -146.079163 
L 194.328013 -146.079163 
L 195.207873 -146.079163 
L 196.087732 -146.35591 
L 196.967592 -146.670163 
L 197.847452 -146.670163 
L 198.727312 -146.989471 
L 199.607171 -146.989471 
L 200.487031 -146.989471 
L 201.366891 -146.989471 
L 202.24675 -146.989471 
L 203.12661 -148.36492 
L 204.00647 -148.36492 
L 204.88633 -148.36492 
L 205.766189 -148.643125 
L 206.646049 -151.095089 
L 207.525909 -151.095089 
L 208.405768 -151.095089 
L 209.285628 -151.095089 
L 210.165488 -151.095089 
L 211.045347 -151.095089 
L 211.925207 -151.934689 
L 212.805067 -151.934689 
L 213.684927 -151.934689 
L 214.564786 -151.934689 
L 215.444646 -151.934689 
L 216.324506 -157.261641 
L 217.204365 -157.826786 
L 218.084225 -157.826786 
L 218.964085 -161.384494 
L 219.843945 -161.384494 
L 220.723804 -161.384494 
L 221.603664 -161.384494 
L 222.483524 -161.384494 
L 223.363383 -161.937652 
L 224.243243 -161.937652 
L 225.123103 -171.168874 
L 226.002963 -171.168874 
L 226.882822 -183.667439 
L 227.762682 -184.658757 
L 228.642542 -190.118241 
L 229.522401 -213.364183 
L 230.402261 -213.364183 
L 231.282121 -213.364183 
L 232.161981 -213.364183 
L 233.04184 -213.364183 
L 233.9217 -213.364183 
L 234.80156 -213.364183 
L 235.681419 -213.364183 
L 236.561279 -213.364183 
L 237.441139 -213.364183 
L 238.320999 -213.364183 
L 239.200858 -213.364183 
L 240.080718 -213.364183 
L 240.960578 -213.364183 
L 241.840437 -215.777183 
L 242.720297 -215.777183 
L 243.600157 -215.843183 
L 244.480017 -215.843183 
L 245.359876 -216.829042 
L 246.239736 -216.829042 
L 247.119596 -216.829042 
L 247.999455 -216.829042 
L 248.879315 -216.829042 
L 249.759175 -216.829042 
L 250.639035 -216.829042 
L 251.518894 -216.829042 
L 252.398754 -216.829042 
L 253.278614 -216.829042 
L 254.158473 -216.829042 
L 255.038333 -242.329216 
L 255.918193 -242.329216 
L 256.798053 -243.126406 
L 257.677912 -246.293205 
L 258.557772 -246.293205 
L 259.437632 -246.293205 
L 260.317491 -246.293205 
L 261.197351 -246.293205 
L 262.077211 -251.354473 
L 262.95707 -251.354473 
L 263.83693 -251.460907 
L 264.71679 -251.460907 
L 265.59665 -252.278172 
L 266.476509 -252.278172 
L 267.356369 -255.190719 
L 268.236229 -255.190719 
L 269.116088 -255.190719 
L 269.995948 -258.031842 
L 270.875808 -302.403845 
L 271.755668 -302.403845 
L 272.635527 -304.335644 
L 273.515387 -304.335644 
L 274.395247 -304.335644 
L 275.275106 -304.335644 
L 276.154966 -304.335644 
L 277.034826 -304.335644 
L 277.914686 -304.335644 
L 278.794545 -304.335644 
L 279.674405 -307.394582 
L 280.554265 -307.394582 
L 281.434124 -307.394582 
L 282.313984 -307.746747 
L 283.193844 -307.746747 
L 284.073704 -307.746747 
L 284.953563 -307.746747 
L 285.833423 -307.746747 
L 286.713283 -307.746747 
L 287.593142 -311.290542 
L 288.473002 -311.824734 
L 289.352862 -315.792834 
L 290.232722 -315.792834 
L 291.112581 -315.792834 
L 291.992441 -318.093845 
L 292.872301 -318.093845 
L 293.75216 -318.093845 
L 294.63202 -318.093845 
L 295.51188 -318.093845 
L 296.39174 -318.202154 
L 297.271599 -318.202154 
L 298.151459 -318.202154 
L 299.031319 -318.202154 
L 299.911178 -318.202154 
L 300.791038 -318.202154 
L 301.670898 -318.202154 
L 302.550758 -318.202154 
L 303.430617 -318.202154 
L 304.310477 -318.202154 
L 305.190337 -318.202154 
L 306.070196 -318.202154 
L 306.950056 -318.202154 
L 307.829916 -318.202154 
L 308.709776 -318.202154 
L 309.589635 -318.202154 
L 310.469495 -318.202154 
L 311.349355 -318.202154 
L 312.229214 -318.750195 
L 313.109074 -318.750195 
L 313.988934 -321.103869 
L 314.868793 -321.103869 
L 315.748653 -322.746477 
L 316.628513 -322.746477 
L 317.508373 -322.746477 
L 318.388232 -322.746477 
L 319.268092 -398.699938 
L 320.147952 -398.699938 
L 321.027811 -398.699938 
L 321.907671 -398.699938 
L 322.787531 -398.740021 
L 323.667391 -398.740021 
L 324.54725 -398.740021 
L 325.42711 -398.740021 
L 326.30697 -398.740021 
L 327.186829 -398.740021 
L 328.066689 -398.740021 
L 328.946549 -398.740021 
L 329.826409 -398.740021 
L 330.706268 -398.740021 
L 331.586128 -398.740021 
L 332.465988 -398.740021 
L 333.345847 -398.740021 
L 334.225707 -398.740021 
L 335.105567 -398.740021 
L 335.985427 -398.740021 
L 336.865286 -398.740021 
L 337.745146 -398.740021 
L 338.625006 -398.740021 
L 339.504865 -398.740021 
L 340.384725 -398.740021 
L 341.264585 -398.740021 
L 342.144445 -398.740021 
L 343.024304 -398.740021 
L 343.904164 -398.740021 
L 344.784024 -398.740021 
L 345.663883 -398.740021 
L 346.543743 -399.147108 
L 347.423603 -399.147108 
L 348.303463 -399.147108 
L 349.183322 -399.147108 
L 350.063182 -399.147108 
L 350.943042 -399.147108 
L 351.822901 -399.147108 
L 352.702761 -399.147108 
L 353.582621 -399.147108 
L 354.462481 -399.147108 
L 355.34234 -399.147108 
L 356.2222 -399.147108 
L 357.10206 -399.147108 
L 357.981919 -399.147108 
L 358.861779 -399.147108 
L 359.741639 -399.147108 
L 360.621499 -399.147108 
L 361.501358 -399.147108 
L 362.381218 -399.147108 
L 363.261078 -399.147108 
L 364.140937 -399.147108 
L 365.020797 -399.147108 
L 365.900657 -399.147108 
L 366.780516 -399.147108 
L 367.660376 -399.147108 
L 368.540236 -399.147108 
L 369.420096 -399.147108 
L 370.299955 -399.147108 
L 371.179815 -399.147108 
L 372.059675 -399.147108 
L 372.939534 -399.147108 
L 373.819394 -399.147108 
L 374.699254 -399.147108 
L 375.579114 -399.147108 
L 376.458973 -399.147108 
L 377.338833 -399.147108 
L 378.218693 -399.147108 
L 379.098552 -399.147108 
L 379.978412 -399.147108 
L 380.858272 -399.147108 
L 381.738132 -399.147108 
L 382.617991 -399.147108 
L 383.497851 -399.147108 
L 384.377711 -399.147108 
L 385.25757 -399.147108 
L 386.13743 -399.147108 
L 387.01729 -399.147108 
L 387.89715 -399.147108 
L 388.777009 -399.147108 
L 389.656869 -399.147108 
L 390.536729 -399.147108 
L 391.416588 -399.147108 
L 392.296448 -399.147108 
L 393.176308 -399.147108 
L 394.056168 -399.147108 
L 394.936027 -399.147108 
L 395.815887 -399.147108 
L 396.695747 -399.147108 
L 397.575606 -399.147108 
L 398.455466 -399.147108 
L 399.335326 -399.147108 
L 400.215186 -399.147108 
L 401.095045 -399.147108 
L 401.974905 -399.147108 
L 402.854765 -399.147108 
L 403.734624 -399.147108 
L 404.614484 -399.147108 
L 405.494344 -399.147108 
L 406.374204 -399.147108 
L 407.254063 -399.147108 
L 408.133923 -399.147108 
L 409.013783 -399.147108 
L 409.893642 -399.147108 
L 410.773502 -399.147108 
L 411.653362 -399.147108 
L 412.533222 -399.147108 
L 413.413081 -399.147108 
L 414.292941 -399.147108 
L 415.172801 -399.147108 
L 416.05266 -399.147108 
L 416.93252 -399.147108 
L 417.81238 -399.147108 
L 418.692239 -399.147108 
L 419.572099 -399.147108 
L 420.451959 -399.147108 
L 421.331819 -399.147108 
L 422.211678 -399.147108 
L 423.091538 -399.147108 
L 423.971398 -399.147108 
L 424.851257 -399.147108 
L 425.731117 -399.147108 
L 426.610977 -399.147108 
L 427.490837 -399.147108 
L 428.370696 -399.147108 
L 429.250556 -399.147108 
L 430.130416 -399.147108 
L 431.010275 -399.147108 
L 431.890135 -399.147108 
L 432.769995 -399.147108 
L 433.649855 -399.147108 
L 434.529714 -399.147108 
L 435.409574 -399.306353 
L 436.289434 -399.306353 
L 437.169293 -399.306353 
L 438.049153 -399.306353 
L 438.929013 -399.306353 
L 439.808873 -399.306353 
L 440.688732 -399.306353 
L 441.568592 -399.306353 
L 442.448452 -399.306353 
L 443.328311 -399.306353 
L 444.208171 -399.306353 
L 445.088031 -399.306353 
L 445.967891 -399.306353 
L 446.84775 -399.306353 
L 447.72761 -399.306353 
L 448.60747 -399.306353 
L 449.487329 -399.306353 
L 450.367189 -399.306353 
L 451.247049 -399.306353 
L 452.126909 -399.306353 
L 453.006768 -399.306353 
L 453.886628 -399.306353 
L 454.766488 -399.306353 
L 455.646347 -399.306353 
L 456.526207 -399.306353 
L 457.406067 -399.306353 
L 458.285927 -399.306353 
L 459.165786 -399.306353 
L 460.045646 -399.306353 
L 460.925506 -399.306353 
L 461.805365 -399.306353 
L 462.685225 -399.306353 
L 463.565085 -399.306353 
L 464.444944 -399.306353 
L 465.324804 -399.306353 
L 466.204664 -399.306353 
L 467.084524 -399.306353 
L 467.964383 -399.306353 
L 468.844243 -399.306353 
L 469.724103 -399.306353 
L 470.603962 -399.306353 
L 471.483822 -399.306353 
L 472.363682 -399.306353 
L 473.243542 -399.306353 
L 474.123401 -399.306353 
L 475.003261 -399.306353 
L 475.883121 -399.306353 
L 476.76298 -399.306353 
L 477.64284 -399.306353 
L 478.5227 -399.306353 
L 479.40256 -399.306353 
L 480.282419 -399.306353 
L 481.162279 -399.306353 
L 482.042139 -399.306353 
L 482.921998 -399.306353 
L 483.801858 -399.306353 
L 484.681718 -399.306353 
L 485.561578 -399.306353 
L 486.441437 -399.306353 
L 487.321297 -399.306353 
L 488.201157 -399.306353 
L 489.081016 -399.306353 
L 489.960876 -401.270191 
L 490.840736 -401.270191 
L 491.720596 -401.270191 
L 492.600455 -401.270191 
L 493.480315 -401.270191 
L 494.360175 -401.270191 
L 495.240034 -401.270191 
L 496.119894 -401.270191 
L 496.999754 -401.270191 
L 497.879614 -401.270191 
L 498.759473 -401.270191 
L 499.639333 -401.270191 
L 500.519193 -401.270191 
L 501.399052 -401.270191 
L 502.278912 -401.270191 
L 503.158772 -401.270191 
L 504.038632 -401.270191 
L 504.918491 -401.270191 
L 505.798351 -401.270191 
L 506.678211 -401.270191 
L 507.55807 -401.270191 
L 508.43793 -401.270191 
L 509.31779 -401.270191 
L 510.19765 -401.270191 
L 511.077509 -401.270191 
L 511.957369 -401.270191 
L 512.837229 -401.270191 
L 513.717088 -401.270191 
L 514.596948 -401.270191 
L 515.476808 -401.270191 
L 516.356667 -401.270191 
L 517.236527 -401.270191 
L 518.116387 -401.270191 
L 518.996247 -401.270191 
L 519.876106 -401.270191 
L 520.755966 -401.270191 
L 521.635826 -401.270191 
L 522.515685 -401.270191 
L 523.395545 -401.270191 
L 524.275405 -401.270191 
L 525.155265 -401.270191 
L 526.035124 -401.270191 
L 526.914984 -401.270191 
L 527.794844 -401.270191 
L 528.674703 -401.270191 
L 529.554563 -401.270191 
L 530.434423 -401.270191 
L 531.314283 -401.270191 
L 532.194142 -401.270191 
L 533.074002 -401.270191 
L 533.953862 -401.270191 
L 534.833721 -401.270191 
L 535.713581 -401.270191 
L 536.593441 -401.270191 
L 537.473301 -401.270191 
L 538.35316 -401.270191 
L 539.23302 -401.270191 
L 540.11288 -401.270191 
L 540.992739 -401.270191 
L 541.872599 -401.270191 
L 542.752459 -401.270191 
L 543.632319 -401.270191 
L 544.512178 -401.270191 
L 545.392038 -401.270191 
L 546.271898 -401.270191 
L 547.151757 -401.270191 
L 548.031617 -401.270191 
L 548.911477 -401.270191 
L 549.791337 -401.270191 
L 550.671196 -401.270191 
L 551.551056 -401.270191 
L 552.430916 -401.270191 
L 553.310775 -401.270191 
L 554.190635 -401.270191 
L 555.070495 -401.270191 
L 555.950355 -401.270191 
L 556.830214 -401.270191 
L 557.710074 -401.270191 
L 558.589934 -401.270191 
L 559.469793 -401.270191 
L 560.349653 -401.270191 
L 561.229513 -401.270191 
L 562.109373 -401.270191 
L 562.989232 -401.270191 
L 563.869092 -401.270191 
L 564.748952 -401.270191 
L 565.628811 -401.270191 
L 566.508671 -401.270191 
L 567.388531 -401.270191 
L 568.26839 -401.270191 
L 569.14825 -401.270191 
L 570.02811 -401.270191 
L 570.90797 -401.270191 
L 571.787829 -401.270191 
L 572.667689 -401.270191 
L 573.547549 -401.270191 
L 574.427408 -401.270191 
L 575.307268 -401.270191 
L 576.187128 -401.270191 
L 577.066988 -401.270191 
L 577.946847 -401.270191 
L 578.826707 -401.270191 
L 579.706567 -401.270191 
L 580.586426 -401.270191 
L 581.466286 -401.270191 
L 582.346146 -401.270191 
L 583.226006 -401.270191 
L 584.105865 -401.270191 
L 584.985725 -401.270191 
L 585.865585 -401.270191 
L 586.745444 -401.270191 
L 587.625304 -401.270191 
L 588.505164 -401.270191 
L 589.385024 -401.270191 
L 590.264883 -401.270191 
L 591.144743 -401.270191 
L 592.024603 -401.270191 
L 592.904462 -401.270191 
L 593.784322 -401.270191 
L 594.664182 -401.270191 
L 595.544042 -401.270191 
L 596.423901 -401.270191 
L 597.303761 -401.270191 
L 598.183621 -401.270191 
L 599.06348 -401.270191 
L 599.94334 -401.270191 
L 600.8232 -401.270191 
L 601.70306 -401.270191 
L 602.582919 -401.270191 
L 603.462779 -401.270191 
L 604.342639 -401.270191 
L 605.222498 -401.270191 
L 606.102358 -401.270191 
L 606.982218 -401.270191 
L 607.862078 -401.270191 
L 608.741937 -401.270191 
L 609.621797 -401.270191 
L 610.501657 -401.270191 
L 611.381516 -401.270191 
L 612.261376 -401.270191 
L 613.141236 -401.270191 
L 614.021096 -401.270191 
L 614.900955 -401.270191 
L 615.780815 -401.270191 
L 616.660675 -401.270191 
L 617.540534 -401.270191 
L 618.420394 -401.270191 
L 619.300254 -401.270191 
L 620.180113 -401.270191 
L 621.059973 -401.270191 
L 621.939833 -401.270191 
L 622.819693 -401.270191 
L 623.699552 -401.270191 
L 624.579412 -401.270191 
L 625.459272 -401.270191 
L 626.339131 -401.270191 
L 627.218991 -401.270191 
L 628.098851 -401.270191 
L 628.978711 -401.270191 
L 629.85857 -401.270191 
L 630.73843 -401.270191 
L 631.61829 -401.270191 
L 632.498149 -401.270191 
L 633.378009 -401.270191 
L 634.257869 -401.270191 
L 635.137729 -401.270191 
L 636.017588 -401.270191 
L 636.897448 -401.270191 
L 637.777308 -401.270191 
L 638.657167 -401.270191 
L 639.537027 -401.270191 
L 640.416887 -401.270191 
L 641.296747 -401.270191 
L 642.176606 -401.270191 
L 643.056466 -401.270191 
L 643.936326 -401.270191 
L 644.816185 -401.270191 
L 645.696045 -401.270191 
L 646.575905 -401.270191 
L 647.455765 -401.270191 
L 648.335624 -401.270191 
L 649.215484 -401.270191 
L 650.095344 -401.270191 
L 650.975203 -401.270191 
L 651.855063 -401.270191 
L 652.734923 -401.270191 
L 653.614783 -401.270191 
L 654.494642 -401.270191 
L 655.374502 -401.270191 
L 656.254362 -401.270191 
L 657.134221 -401.270191 
L 658.014081 -401.270191 
L 658.893941 -401.270191 
L 659.773801 -401.270191 
L 660.65366 -401.270191 
L 661.53352 -401.270191 
L 662.41338 -401.270191 
L 663.293239 -401.270191 
L 664.173099 -401.270191 
L 665.052959 -401.270191 
L 665.932819 -401.270191 
L 666.812678 -401.270191 
L 667.692538 -401.270191 
L 668.572398 -401.270191 
L 669.452257 -401.270191 
L 670.332117 -401.270191 
L 671.211977 -401.270191 
L 672.091836 -401.270191 
L 672.971696 -401.270191 
L 673.851556 -401.270191 
L 674.731416 -401.270191 
L 675.611275 -401.270191 
L 676.491135 -401.270191 
L 677.370995 -401.270191 
L 678.250854 -401.270191 
L 679.130714 -401.270191 
L 680.010574 -401.270191 
L 680.890434 -401.270191 
L 681.770293 -401.270191 
L 682.650153 -401.270191 
L 683.530013 -401.681439 
L 684.409872 -401.681439 
L 685.289732 -401.681439 
L 686.169592 -401.681439 
L 687.049452 -401.681439 
L 687.929311 -401.681439 
L 688.809171 -401.681439 
L 689.689031 -401.681439 
L 690.56889 -401.681439 
L 691.44875 -401.681439 
L 692.32861 -401.681439 
L 693.20847 -401.681439 
L 694.088329 -401.681439 
L 694.968189 -401.681439 
L 695.848049 -408.095001 
L 696.727908 -408.095001 
L 697.607768 -414.003624 
L 698.487628 -414.003624 
L 699.367488 -414.003624 
L 700.247347 -414.003624 
L 701.127207 -414.003624 
L 702.007067 -414.003624 
L 702.886926 -414.003624 
L 703.766786 -414.003624 
L 704.646646 -414.003624 
L 705.526506 -414.003624 
L 706.406365 -414.003624 
L 707.286225 -414.003624 
L 708.166085 -414.003624 
L 709.045944 -414.003624 
L 709.925804 -414.003624 
L 710.805664 -414.003624 
L 711.685524 -414.003624 
L 712.565383 -414.003624 
L 713.445243 -414.003624 
L 714.325103 -414.003624 
L 715.204962 -414.003624 
L 716.084822 -414.003624 
L 716.964682 -414.003624 
L 717.844542 -414.003624 
L 718.724401 -414.003624 
L 719.604261 -414.003624 
L 720.484121 -414.003624 
L 721.36398 -414.003624 
L 722.24384 -414.003624 
L 723.1237 -414.003624 
L 724.003559 -414.003624 
L 724.883419 -414.003624 
L 725.763279 -414.003624 
L 726.643139 -414.003624 
L 727.522998 -414.003624 
L 728.402858 -414.003624 
L 729.282718 -414.003624 
L 730.162577 -414.003624 
L 731.042437 -414.003624 
L 731.922297 -414.003624 
L 732.802157 -414.003624 
L 733.682016 -414.003624 
L 734.561876 -414.003624 
L 735.441736 -414.003624 
L 736.321595 -416.894332 
L 737.201455 -416.894332 
L 738.081315 -416.894332 
L 738.961175 -416.894332 
L 739.841034 -416.894332 
L 740.720894 -416.894332 
L 741.600754 -416.894332 
L 742.480613 -416.894332 
L 743.360473 -416.894332 
L 744.240333 -416.894332 
L 745.120193 -416.894332 
L 746.000052 -416.894332 
L 746.879912 -416.894332 
L 747.759772 -416.894332 
L 748.639631 -416.894332 
L 749.519491 -416.894332 
L 750.399351 -416.894332 
L 751.279211 -416.894332 
L 752.15907 -416.894332 
L 753.03893 -416.894332 
L 753.91879 -416.894332 
L 754.798649 -416.894332 
L 755.678509 -416.894332 
L 756.558369 -416.894332 
L 757.438229 -416.894332 
L 758.318088 -416.894332 
L 759.197948 -416.894332 
L 760.077808 -416.894332 
L 760.957667 -416.894332 
L 761.837527 -416.894332 
L 762.717387 -416.894332 
L 763.597247 -416.894332 
L 764.477106 -416.894332 
L 765.356966 -416.894332 
L 766.236826 -416.894332 
L 767.116685 -416.894332 
L 767.996545 -416.894332 
L 768.876405 -416.894332 
L 769.756264 -416.894332 
L 770.636124 -416.894332 
L 771.515984 -416.894332 
L 772.395844 -416.894332 
L 773.275703 -416.894332 
L 774.155563 -416.894332 
L 775.035423 -416.894332 
L 775.915282 -416.894332 
L 776.795142 -416.894332 
L 777.675002 -416.894332 
L 778.554862 -416.894332 
L 779.434721 -416.894332 
L 780.314581 -416.894332 
L 781.194441 -416.894332 
L 782.0743 -416.894332 
L 782.95416 -416.894332 
L 783.83402 -416.894332 
L 784.71388 -416.894332 
L 785.593739 -416.894332 
L 786.473599 -416.894332 
L 787.353459 -416.894332 
L 788.233318 -416.894332 
L 789.113178 -416.894332 
L 789.993038 -416.894332 
L 790.872898 -416.894332 
L 791.752757 -416.894332 
L 792.632617 -416.894332 
L 793.512477 -416.894332 
L 794.392336 -416.894332 
L 795.272196 -416.894332 
L 796.152056 -416.894332 
L 797.031916 -416.894332 
L 797.911775 -416.894332 
L 798.791635 -416.894332 
L 799.671495 -416.894332 
L 800.551354 -416.894332 
L 801.431214 -416.894332 
L 802.311074 -416.894332 
L 803.190934 -416.894332 
L 804.070793 -416.894332 
L 804.950653 -416.894332 
L 805.830513 -416.894332 
L 806.710372 -416.894332 
L 807.590232 -416.894332 
L 808.470092 -416.894332 
L 809.349952 -416.894332 
L 810.229811 -416.894332 
L 811.109671 -416.894332 
L 811.989531 -416.894332 
L 812.86939 -416.894332 
L 813.74925 -416.894332 
L 814.62911 -416.894332 
L 815.50897 -416.894332 
L 816.388829 -416.894332 
L 817.268689 -416.894332 
L 818.148549 -416.894332 
L 819.028408 -416.894332 
L 819.908268 -416.894332 
L 820.788128 -416.894332 
L 821.667987 -416.894332 
L 822.547847 -416.894332 
L 823.427707 -416.894332 
L 824.307567 -416.894332 
L 825.187426 -416.894332 
L 826.067286 -416.894332 
L 826.947146 -416.894332 
L 827.827005 -416.894332 
L 828.706865 -416.894332 
L 829.586725 -416.894332 
L 830.466585 -416.894332 
L 831.346444 -416.894332 
L 832.226304 -416.894332 
L 833.106164 -416.894332 
L 833.986023 -416.894332 
L 834.865883 -416.894332 
L 835.745743 -416.894332 
L 836.625603 -416.894332 
L 837.505462 -416.894332 
L 838.385322 -416.894332 
L 839.265182 -416.894332 
L 840.145041 -416.894332 
L 841.024901 -416.894332 
L 841.904761 -416.894332 
L 842.784621 -416.894332 
L 843.66448 -416.894332 
L 844.54434 -416.894332 
L 845.4242 -416.894332 
L 846.304059 -416.894332 
L 847.183919 -416.894332 
L 848.063779 -416.894332 
L 848.943639 -416.894332 
L 849.823498 -416.894332 
L 850.703358 -416.894332 
L 851.583218 -416.894332 
L 852.463077 -416.894332 
L 853.342937 -416.894332 
L 854.222797 -416.894332 
L 855.102657 -416.894332 
L 855.982516 -416.894332 
L 856.862376 -416.894332 
L 857.742236 -416.894332 
L 858.622095 -416.894332 
L 859.501955 -416.894332 
L 860.381815 -416.894332 
L 861.261675 -416.894332 
L 862.141534 -416.894332 
L 863.021394 -416.894332 
L 863.901254 -416.894332 
L 864.781113 -416.894332 
L 865.660973 -416.894332 
L 866.540833 -416.894332 
L 867.420693 -416.894332 
L 868.300552 -416.894332 
L 869.180412 -416.894332 
L 870.060272 -416.894332 
L 870.940131 -416.894332 
L 871.819991 -416.894332 
L 872.699851 -416.894332 
L 873.57971 -416.894332 
L 874.45957 -416.894332 
L 875.33943 -416.894332 
L 876.21929 -417.975258 
L 877.099149 -417.975258 
L 877.979009 -417.975258 
L 878.858869 -417.975258 
L 879.738728 -417.975258 
L 880.618588 -417.975258 
L 881.498448 -417.975258 
L 882.378308 -417.975258 
L 883.258167 -417.975258 
L 884.138027 -419.05275 
L 885.017887 -425.421843 
L 885.897746 -425.421843 
L 886.777606 -425.421843 
L 887.657466 -425.421843 
L 888.537326 -425.421843 
L 889.417185 -425.421843 
L 890.297045 -425.421843 
L 891.176905 -425.421843 
L 892.056764 -425.421843 
L 892.936624 -426.979044 
L 893.816484 -426.979044 
L 894.696344 -426.979044 
L 895.576203 -426.979044 
L 896.456063 -427.493917 
L 897.335923 -435.27359 
L 898.215782 -436.151045 
L 899.095642 -436.151045 
L 899.975502 -442.158062 
L 900.855362 -442.158062 
L 901.735221 -442.158062 
L 902.615081 -442.158062 
L 903.494941 -442.158062 
L 904.3748 -442.158062 
L 905.25466 -442.158062 
L 906.13452 -442.158062 
L 907.01438 -442.158062 
L 907.894239 -442.158062 
L 908.774099 -442.158062 
L 909.653959 -442.158062 
L 910.533818 -442.158062 
L 911.413678 -442.158062 
L 912.293538 -442.158062 
L 913.173398 -442.158062 
L 914.053257 -442.158062 
L 914.933117 -442.158062 
L 915.812977 -442.158062 
L 916.692836 -442.158062 
L 917.572696 -442.158062 
L 918.452556 -442.158062 
L 919.332416 -442.158062 
L 920.212275 -442.158062 
L 921.092135 -442.158062 
L 921.971995 -442.158062 
L 922.851854 -442.158062 
L 923.731714 -442.158062 
L 924.611574 -442.158062 
L 925.491433 -442.158062 
L 926.371293 -442.158062 
L 927.251153 -442.158062 
L 928.131013 -442.158062 
L 929.010872 -442.158062 
L 929.890732 -442.158062 
L 930.770592 -442.158062 
L 931.650451 -442.158062 
L 932.530311 -442.158062 
L 933.410171 -442.158062 
L 934.290031 -442.158062 
L 935.16989 -442.158062 
L 936.04975 -442.158062 
L 936.92961 -442.158062 
L 937.809469 -442.158062 
L 938.689329 -442.158062 
L 939.569189 -442.158062 
L 940.449049 -442.158062 
L 941.328908 -442.158062 
L 942.208768 -442.158062 
L 943.088628 -442.158062 
L 943.968487 -442.158062 
L 944.848347 -442.158062 
L 945.728207 -442.158062 
L 946.608067 -442.158062 
L 947.487926 -442.158062 
L 948.367786 -442.158062 
L 949.247646 -442.158062 
L 950.127505 -442.158062 
L 951.007365 -442.158062 
L 951.887225 -442.158062 
L 952.767085 -442.158062 
L 953.646944 -442.158062 
L 954.526804 -453.465908 
L 954.526804 -453.465908 
L 954.526804 -453.465908 
L 953.646944 -459.340264 
L 952.767085 -459.340264 
L 951.887225 -459.340264 
L 951.007365 -459.340264 
L 950.127505 -459.340264 
L 949.247646 -459.340264 
L 948.367786 -459.340264 
L 947.487926 -459.340264 
L 946.608067 -459.340264 
L 945.728207 -459.340264 
L 944.848347 -459.340264 
L 943.968487 -459.340264 
L 943.088628 -459.340264 
L 942.208768 -459.340264 
L 941.328908 -459.340264 
L 940.449049 -459.340264 
L 939.569189 -459.340264 
L 938.689329 -459.340264 
L 937.809469 -459.340264 
L 936.92961 -459.340264 
L 936.04975 -459.340264 
L 935.16989 -459.340264 
L 934.290031 -459.340264 
L 933.410171 -459.340264 
L 932.530311 -459.340264 
L 931.650451 -459.340264 
L 930.770592 -459.340264 
L 929.890732 -459.340264 
L 929.010872 -459.340264 
L 928.131013 -459.340264 
L 927.251153 -459.340264 
L 926.371293 -459.340264 
L 925.491433 -459.340264 
L 924.611574 -459.340264 
L 923.731714 -459.340264 
L 922.851854 -459.340264 
L 921.971995 -459.340264 
L 921.092135 -459.340264 
L 920.212275 -459.340264 
L 919.332416 -459.340264 
L 918.452556 -459.340264 
L 917.572696 -459.340264 
L 916.692836 -459.340264 
L 915.812977 -459.340264 
L 914.933117 -459.340264 
L 914.053257 -459.340264 
L 913.173398 -459.340264 
L 912.293538 -459.340264 
L 911.413678 -459.340264 
L 910.533818 -459.340264 
L 909.653959 -459.340264 
L 908.774099 -459.340264 
L 907.894239 -459.340264 
L 907.01438 -459.340264 
L 906.13452 -459.340264 
L 905.25466 -459.340264 
L 904.3748 -459.340264 
L 903.494941 -459.340264 
L 902.615081 -459.340264 
L 901.735221 -459.340264 
L 900.855362 -459.340264 
L 899.975502 -459.340264 
L 899.095642 -459.642117 
L 898.215782 -459.642117 
L 897.335923 -459.976223 
L 896.456063 -463.409104 
L 895.576203 -463.652303 
L 894.696344 -463.652303 
L 893.816484 -463.652303 
L 892.936624 -463.652303 
L 892.056764 -464.39448 
L 891.176905 -464.39448 
L 890.297045 -464.39448 
L 889.417185 -464.39448 
L 888.537326 -464.39448 
L 887.657466 -464.39448 
L 886.777606 -464.39448 
L 885.897746 -464.39448 
L 885.017887 -464.39448 
L 884.138027 -467.50348 
L 883.258167 -468.037623 
L 882.378308 -468.037623 
L 881.498448 -468.037623 
L 880.618588 -468.037623 
L 879.738728 -468.037623 
L 878.858869 -468.037623 
L 877.979009 -468.037623 
L 877.099149 -468.037623 
L 876.21929 -468.037623 
L 875.33943 -468.575199 
L 874.45957 -468.575199 
L 873.57971 -468.575199 
L 872.699851 -468.575199 
L 871.819991 -468.575199 
L 870.940131 -468.575199 
L 870.060272 -468.575199 
L 869.180412 -468.575199 
L 868.300552 -468.575199 
L 867.420693 -468.575199 
L 866.540833 -468.575199 
L 865.660973 -468.575199 
L 864.781113 -468.575199 
L 863.901254 -468.575199 
L 863.021394 -468.575199 
L 862.141534 -468.575199 
L 861.261675 -468.575199 
L 860.381815 -468.575199 
L 859.501955 -468.575199 
L 858.622095 -468.575199 
L 857.742236 -468.575199 
L 856.862376 -468.575199 
L 855.982516 -468.575199 
L 855.102657 -468.575199 
L 854.222797 -468.575199 
L 853.342937 -468.575199 
L 852.463077 -468.575199 
L 851.583218 -468.575199 
L 850.703358 -468.575199 
L 849.823498 -468.575199 
L 848.943639 -468.575199 
L 848.063779 -468.575199 
L 847.183919 -468.575199 
L 846.304059 -468.575199 
L 845.4242 -468.575199 
L 844.54434 -468.575199 
L 843.66448 -468.575199 
L 842.784621 -468.575199 
L 841.904761 -468.575199 
L 841.024901 -468.575199 
L 840.145041 -468.575199 
L 839.265182 -468.575199 
L 838.385322 -468.575199 
L 837.505462 -468.575199 
L 836.625603 -468.575199 
L 835.745743 -468.575199 
L 834.865883 -468.575199 
L 833.986023 -468.575199 
L 833.106164 -468.575199 
L 832.226304 -468.575199 
L 831.346444 -468.575199 
L 830.466585 -468.575199 
L 829.586725 -468.575199 
L 828.706865 -468.575199 
L 827.827005 -468.575199 
L 826.947146 -468.575199 
L 826.067286 -468.575199 
L 825.187426 -468.575199 
L 824.307567 -468.575199 
L 823.427707 -468.575199 
L 822.547847 -468.575199 
L 821.667987 -468.575199 
L 820.788128 -468.575199 
L 819.908268 -468.575199 
L 819.028408 -468.575199 
L 818.148549 -468.575199 
L 817.268689 -468.575199 
L 816.388829 -468.575199 
L 815.50897 -468.575199 
L 814.62911 -468.575199 
L 813.74925 -468.575199 
L 812.86939 -468.575199 
L 811.989531 -468.575199 
L 811.109671 -468.575199 
L 810.229811 -468.575199 
L 809.349952 -468.575199 
L 808.470092 -468.575199 
L 807.590232 -468.575199 
L 806.710372 -468.575199 
L 805.830513 -468.575199 
L 804.950653 -468.575199 
L 804.070793 -468.575199 
L 803.190934 -468.575199 
L 802.311074 -468.575199 
L 801.431214 -468.575199 
L 800.551354 -468.575199 
L 799.671495 -468.575199 
L 798.791635 -468.575199 
L 797.911775 -468.575199 
L 797.031916 -468.575199 
L 796.152056 -468.575199 
L 795.272196 -468.575199 
L 794.392336 -468.575199 
L 793.512477 -468.575199 
L 792.632617 -468.575199 
L 791.752757 -468.575199 
L 790.872898 -468.575199 
L 789.993038 -468.575199 
L 789.113178 -468.575199 
L 788.233318 -468.575199 
L 787.353459 -468.575199 
L 786.473599 -468.575199 
L 785.593739 -468.575199 
L 784.71388 -468.575199 
L 783.83402 -468.575199 
L 782.95416 -468.575199 
L 782.0743 -468.575199 
L 781.194441 -468.575199 
L 780.314581 -468.575199 
L 779.434721 -468.575199 
L 778.554862 -468.575199 
L 777.675002 -468.575199 
L 776.795142 -468.575199 
L 775.915282 -468.575199 
L 775.035423 -468.575199 
L 774.155563 -468.575199 
L 773.275703 -468.575199 
L 772.395844 -468.575199 
L 771.515984 -468.575199 
L 770.636124 -468.575199 
L 769.756264 -468.575199 
L 768.876405 -468.575199 
L 767.996545 -468.575199 
L 767.116685 -468.575199 
L 766.236826 -468.575199 
L 765.356966 -468.575199 
L 764.477106 -468.575199 
L 763.597247 -468.575199 
L 762.717387 -468.575199 
L 761.837527 -468.575199 
L 760.957667 -468.575199 
L 760.077808 -468.575199 
L 759.197948 -468.575199 
L 758.318088 -468.575199 
L 757.438229 -468.575199 
L 756.558369 -468.575199 
L 755.678509 -468.575199 
L 754.798649 -468.575199 
L 753.91879 -468.575199 
L 753.03893 -468.575199 
L 752.15907 -468.575199 
L 751.279211 -468.575199 
L 750.399351 -468.575199 
L 749.519491 -468.575199 
L 748.639631 -468.575199 
L 747.759772 -468.575199 
L 746.879912 -468.575199 
L 746.000052 -468.575199 
L 745.120193 -468.575199 
L 744.240333 -468.575199 
L 743.360473 -468.575199 
L 742.480613 -468.575199 
L 741.600754 -468.575199 
L 740.720894 -468.575199 
L 739.841034 -468.575199 
L 738.961175 -468.575199 
L 738.081315 -468.575199 
L 737.201455 -468.575199 
L 736.321595 -468.575199 
L 735.441736 -466.032418 
L 734.561876 -466.032418 
L 733.682016 -466.032418 
L 732.802157 -466.032418 
L 731.922297 -466.032418 
L 731.042437 -466.032418 
L 730.162577 -466.032418 
L 729.282718 -466.032418 
L 728.402858 -466.032418 
L 727.522998 -466.032418 
L 726.643139 -466.032418 
L 725.763279 -466.032418 
L 724.883419 -466.032418 
L 724.003559 -466.032418 
L 723.1237 -466.032418 
L 722.24384 -466.032418 
L 721.36398 -466.032418 
L 720.484121 -466.032418 
L 719.604261 -466.032418 
L 718.724401 -466.032418 
L 717.844542 -466.032418 
L 716.964682 -466.032418 
L 716.084822 -466.032418 
L 715.204962 -466.032418 
L 714.325103 -466.032418 
L 713.445243 -466.032418 
L 712.565383 -466.032418 
L 711.685524 -466.032418 
L 710.805664 -466.032418 
L 709.925804 -466.032418 
L 709.045944 -466.032418 
L 708.166085 -466.032418 
L 707.286225 -466.032418 
L 706.406365 -466.032418 
L 705.526506 -466.032418 
L 704.646646 -466.032418 
L 703.766786 -466.032418 
L 702.886926 -466.032418 
L 702.007067 -466.032418 
L 701.127207 -466.032418 
L 700.247347 -466.032418 
L 699.367488 -466.032418 
L 698.487628 -466.032418 
L 697.607768 -466.032418 
L 696.727908 -466.235877 
L 695.848049 -466.235877 
L 694.968189 -468.030973 
L 694.088329 -468.030973 
L 693.20847 -468.030973 
L 692.32861 -468.030973 
L 691.44875 -468.030973 
L 690.56889 -468.030973 
L 689.689031 -468.030973 
L 688.809171 -468.030973 
L 687.929311 -468.030973 
L 687.049452 -468.030973 
L 686.169592 -468.030973 
L 685.289732 -468.030973 
L 684.409872 -468.030973 
L 683.530013 -468.030973 
L 682.650153 -468.170547 
L 681.770293 -468.170547 
L 680.890434 -468.170547 
L 680.010574 -468.170547 
L 679.130714 -468.170547 
L 678.250854 -468.170547 
L 677.370995 -468.170547 
L 676.491135 -468.170547 
L 675.611275 -468.170547 
L 674.731416 -468.170547 
L 673.851556 -468.170547 
L 672.971696 -468.170547 
L 672.091836 -468.170547 
L 671.211977 -468.170547 
L 670.332117 -468.170547 
L 669.452257 -468.170547 
L 668.572398 -468.170547 
L 667.692538 -468.170547 
L 666.812678 -468.170547 
L 665.932819 -468.170547 
L 665.052959 -468.170547 
L 664.173099 -468.170547 
L 663.293239 -468.170547 
L 662.41338 -468.170547 
L 661.53352 -468.170547 
L 660.65366 -468.170547 
L 659.773801 -468.170547 
L 658.893941 -468.170547 
L 658.014081 -468.170547 
L 657.134221 -468.170547 
L 656.254362 -468.170547 
L 655.374502 -468.170547 
L 654.494642 -468.170547 
L 653.614783 -468.170547 
L 652.734923 -468.170547 
L 651.855063 -468.170547 
L 650.975203 -468.170547 
L 650.095344 -468.170547 
L 649.215484 -468.170547 
L 648.335624 -468.170547 
L 647.455765 -468.170547 
L 646.575905 -468.170547 
L 645.696045 -468.170547 
L 644.816185 -468.170547 
L 643.936326 -468.170547 
L 643.056466 -468.170547 
L 642.176606 -468.170547 
L 641.296747 -468.170547 
L 640.416887 -468.170547 
L 639.537027 -468.170547 
L 638.657167 -468.170547 
L 637.777308 -468.170547 
L 636.897448 -468.170547 
L 636.017588 -468.170547 
L 635.137729 -468.170547 
L 634.257869 -468.170547 
L 633.378009 -468.170547 
L 632.498149 -468.170547 
L 631.61829 -468.170547 
L 630.73843 -468.170547 
L 629.85857 -468.170547 
L 628.978711 -468.170547 
L 628.098851 -468.170547 
L 627.218991 -468.170547 
L 626.339131 -468.170547 
L 625.459272 -468.170547 
L 624.579412 -468.170547 
L 623.699552 -468.170547 
L 622.819693 -468.170547 
L 621.939833 -468.170547 
L 621.059973 -468.170547 
L 620.180113 -468.170547 
L 619.300254 -468.170547 
L 618.420394 -468.170547 
L 617.540534 -468.170547 
L 616.660675 -468.170547 
L 615.780815 -468.170547 
L 614.900955 -468.170547 
L 614.021096 -468.170547 
L 613.141236 -468.170547 
L 612.261376 -468.170547 
L 611.381516 -468.170547 
L 610.501657 -468.170547 
L 609.621797 -468.170547 
L 608.741937 -468.170547 
L 607.862078 -468.170547 
L 606.982218 -468.170547 
L 606.102358 -468.170547 
L 605.222498 -468.170547 
L 604.342639 -468.170547 
L 603.462779 -468.170547 
L 602.582919 -468.170547 
L 601.70306 -468.170547 
L 600.8232 -468.170547 
L 599.94334 -468.170547 
L 599.06348 -468.170547 
L 598.183621 -468.170547 
L 597.303761 -468.170547 
L 596.423901 -468.170547 
L 595.544042 -468.170547 
L 594.664182 -468.170547 
L 593.784322 -468.170547 
L 592.904462 -468.170547 
L 592.024603 -468.170547 
L 591.144743 -468.170547 
L 590.264883 -468.170547 
L 589.385024 -468.170547 
L 588.505164 -468.170547 
L 587.625304 -468.170547 
L 586.745444 -468.170547 
L 585.865585 -468.170547 
L 584.985725 -468.170547 
L 584.105865 -468.170547 
L 583.226006 -468.170547 
L 582.346146 -468.170547 
L 581.466286 -468.170547 
L 580.586426 -468.170547 
L 579.706567 -468.170547 
L 578.826707 -468.170547 
L 577.946847 -468.170547 
L 577.066988 -468.170547 
L 576.187128 -468.170547 
L 575.307268 -468.170547 
L 574.427408 -468.170547 
L 573.547549 -468.170547 
L 572.667689 -468.170547 
L 571.787829 -468.170547 
L 570.90797 -468.170547 
L 570.02811 -468.170547 
L 569.14825 -468.170547 
L 568.26839 -468.170547 
L 567.388531 -468.170547 
L 566.508671 -468.170547 
L 565.628811 -468.170547 
L 564.748952 -468.170547 
L 563.869092 -468.170547 
L 562.989232 -468.170547 
L 562.109373 -468.170547 
L 561.229513 -468.170547 
L 560.349653 -468.170547 
L 559.469793 -468.170547 
L 558.589934 -468.170547 
L 557.710074 -468.170547 
L 556.830214 -468.170547 
L 555.950355 -468.170547 
L 555.070495 -468.170547 
L 554.190635 -468.170547 
L 553.310775 -468.170547 
L 552.430916 -468.170547 
L 551.551056 -468.170547 
L 550.671196 -468.170547 
L 549.791337 -468.170547 
L 548.911477 -468.170547 
L 548.031617 -468.170547 
L 547.151757 -468.170547 
L 546.271898 -468.170547 
L 545.392038 -468.170547 
L 544.512178 -468.170547 
L 543.632319 -468.170547 
L 542.752459 -468.170547 
L 541.872599 -468.170547 
L 540.992739 -468.170547 
L 540.11288 -468.170547 
L 539.23302 -468.170547 
L 538.35316 -468.170547 
L 537.473301 -468.170547 
L 536.593441 -468.170547 
L 535.713581 -468.170547 
L 534.833721 -468.170547 
L 533.953862 -468.170547 
L 533.074002 -468.170547 
L 532.194142 -468.170547 
L 531.314283 -468.170547 
L 530.434423 -468.170547 
L 529.554563 -468.170547 
L 528.674703 -468.170547 
L 527.794844 -468.170547 
L 526.914984 -468.170547 
L 526.035124 -468.170547 
L 525.155265 -468.170547 
L 524.275405 -468.170547 
L 523.395545 -468.170547 
L 522.515685 -468.170547 
L 521.635826 -468.170547 
L 520.755966 -468.170547 
L 519.876106 -468.170547 
L 518.996247 -468.170547 
L 518.116387 -468.170547 
L 517.236527 -468.170547 
L 516.356667 -468.170547 
L 515.476808 -468.170547 
L 514.596948 -468.170547 
L 513.717088 -468.170547 
L 512.837229 -468.170547 
L 511.957369 -468.170547 
L 511.077509 -468.170547 
L 510.19765 -468.170547 
L 509.31779 -468.170547 
L 508.43793 -468.170547 
L 507.55807 -468.170547 
L 506.678211 -468.170547 
L 505.798351 -468.170547 
L 504.918491 -468.170547 
L 504.038632 -468.170547 
L 503.158772 -468.170547 
L 502.278912 -468.170547 
L 501.399052 -468.170547 
L 500.519193 -468.170547 
L 499.639333 -468.170547 
L 498.759473 -468.170547 
L 497.879614 -468.170547 
L 496.999754 -468.170547 
L 496.119894 -468.170547 
L 495.240034 -468.170547 
L 494.360175 -468.170547 
L 493.480315 -468.170547 
L 492.600455 -468.170547 
L 491.720596 -468.170547 
L 490.840736 -468.170547 
L 489.960876 -468.170547 
L 489.081016 -464.97257 
L 488.201157 -464.97257 
L 487.321297 -464.97257 
L 486.441437 -464.97257 
L 485.561578 -464.97257 
L 484.681718 -464.97257 
L 483.801858 -464.97257 
L 482.921998 -464.97257 
L 482.042139 -464.97257 
L 481.162279 -464.97257 
L 480.282419 -464.97257 
L 479.40256 -464.97257 
L 478.5227 -464.97257 
L 477.64284 -464.97257 
L 476.76298 -464.97257 
L 475.883121 -464.97257 
L 475.003261 -464.97257 
L 474.123401 -464.97257 
L 473.243542 -464.97257 
L 472.363682 -464.97257 
L 471.483822 -464.97257 
L 470.603962 -464.97257 
L 469.724103 -464.97257 
L 468.844243 -464.97257 
L 467.964383 -464.97257 
L 467.084524 -464.97257 
L 466.204664 -464.97257 
L 465.324804 -464.97257 
L 464.444944 -464.97257 
L 463.565085 -464.97257 
L 462.685225 -464.97257 
L 461.805365 -464.97257 
L 460.925506 -464.97257 
L 460.045646 -464.97257 
L 459.165786 -464.97257 
L 458.285927 -464.97257 
L 457.406067 -464.97257 
L 456.526207 -464.97257 
L 455.646347 -464.97257 
L 454.766488 -464.97257 
L 453.886628 -464.97257 
L 453.006768 -464.97257 
L 452.126909 -464.97257 
L 451.247049 -464.97257 
L 450.367189 -464.97257 
L 449.487329 -464.97257 
L 448.60747 -464.97257 
L 447.72761 -464.97257 
L 446.84775 -464.97257 
L 445.967891 -464.97257 
L 445.088031 -464.97257 
L 444.208171 -464.97257 
L 443.328311 -464.97257 
L 442.448452 -464.97257 
L 441.568592 -464.97257 
L 440.688732 -464.97257 
L 439.808873 -464.97257 
L 438.929013 -464.97257 
L 438.049153 -464.97257 
L 437.169293 -464.97257 
L 436.289434 -464.97257 
L 435.409574 -464.97257 
L 434.529714 -464.860141 
L 433.649855 -464.860141 
L 432.769995 -464.860141 
L 431.890135 -464.860141 
L 431.010275 -464.860141 
L 430.130416 -464.860141 
L 429.250556 -464.860141 
L 428.370696 -464.860141 
L 427.490837 -464.860141 
L 426.610977 -464.860141 
L 425.731117 -464.860141 
L 424.851257 -464.860141 
L 423.971398 -464.860141 
L 423.091538 -464.860141 
L 422.211678 -464.860141 
L 421.331819 -464.860141 
L 420.451959 -464.860141 
L 419.572099 -464.860141 
L 418.692239 -464.860141 
L 417.81238 -464.860141 
L 416.93252 -464.860141 
L 416.05266 -464.860141 
L 415.172801 -464.860141 
L 414.292941 -464.860141 
L 413.413081 -464.860141 
L 412.533222 -464.860141 
L 411.653362 -464.860141 
L 410.773502 -464.860141 
L 409.893642 -464.860141 
L 409.013783 -464.860141 
L 408.133923 -464.860141 
L 407.254063 -464.860141 
L 406.374204 -464.860141 
L 405.494344 -464.860141 
L 404.614484 -464.860141 
L 403.734624 -464.860141 
L 402.854765 -464.860141 
L 401.974905 -464.860141 
L 401.095045 -464.860141 
L 400.215186 -464.860141 
L 399.335326 -464.860141 
L 398.455466 -464.860141 
L 397.575606 -464.860141 
L 396.695747 -464.860141 
L 395.815887 -464.860141 
L 394.936027 -464.860141 
L 394.056168 -464.860141 
L 393.176308 -464.860141 
L 392.296448 -464.860141 
L 391.416588 -464.860141 
L 390.536729 -464.860141 
L 389.656869 -464.860141 
L 388.777009 -464.860141 
L 387.89715 -464.860141 
L 387.01729 -464.860141 
L 386.13743 -464.860141 
L 385.25757 -464.860141 
L 384.377711 -464.860141 
L 383.497851 -464.860141 
L 382.617991 -464.860141 
L 381.738132 -464.860141 
L 380.858272 -464.860141 
L 379.978412 -464.860141 
L 379.098552 -464.860141 
L 378.218693 -464.860141 
L 377.338833 -464.860141 
L 376.458973 -464.860141 
L 375.579114 -464.860141 
L 374.699254 -464.860141 
L 373.819394 -464.860141 
L 372.939534 -464.860141 
L 372.059675 -464.860141 
L 371.179815 -464.860141 
L 370.299955 -464.860141 
L 369.420096 -464.860141 
L 368.540236 -464.860141 
L 367.660376 -464.860141 
L 366.780516 -464.860141 
L 365.900657 -464.860141 
L 365.020797 -464.860141 
L 364.140937 -464.860141 
L 363.261078 -464.860141 
L 362.381218 -464.860141 
L 361.501358 -464.860141 
L 360.621499 -464.860141 
L 359.741639 -464.860141 
L 358.861779 -464.860141 
L 357.981919 -464.860141 
L 357.10206 -464.860141 
L 356.2222 -464.860141 
L 355.34234 -464.860141 
L 354.462481 -464.860141 
L 353.582621 -464.860141 
L 352.702761 -464.860141 
L 351.822901 -464.860141 
L 350.943042 -464.860141 
L 350.063182 -464.860141 
L 349.183322 -464.860141 
L 348.303463 -464.860141 
L 347.423603 -464.860141 
L 346.543743 -464.860141 
L 345.663883 -464.995553 
L 344.784024 -464.995553 
L 343.904164 -464.995553 
L 343.024304 -464.995553 
L 342.144445 -464.995553 
L 341.264585 -464.995553 
L 340.384725 -464.995553 
L 339.504865 -464.995553 
L 338.625006 -464.995553 
L 337.745146 -464.995553 
L 336.865286 -464.995553 
L 335.985427 -464.995553 
L 335.105567 -464.995553 
L 334.225707 -464.995553 
L 333.345847 -464.995553 
L 332.465988 -464.995553 
L 331.586128 -464.995553 
L 330.706268 -464.995553 
L 329.826409 -464.995553 
L 328.946549 -464.995553 
L 328.066689 -464.995553 
L 327.186829 -464.995553 
L 326.30697 -464.995553 
L 325.42711 -464.995553 
L 324.54725 -464.995553 
L 323.667391 -464.995553 
L 322.787531 -464.995553 
L 321.907671 -464.763961 
L 321.027811 -464.763961 
L 320.147952 -464.763961 
L 319.268092 -464.763961 
L 318.388232 -500.237926 
L 317.508373 -500.237926 
L 316.628513 -500.237926 
L 315.748653 -500.237926 
L 314.868793 -501.06551 
L 313.988934 -501.06551 
L 313.109074 -497.442346 
L 312.229214 -497.442346 
L 311.349355 -497.718713 
L 310.469495 -497.718713 
L 309.589635 -497.718713 
L 308.709776 -497.718713 
L 307.829916 -497.718713 
L 306.950056 -497.718713 
L 306.070196 -497.718713 
L 305.190337 -497.718713 
L 304.310477 -497.718713 
L 303.430617 -497.718713 
L 302.550758 -497.718713 
L 301.670898 -497.718713 
L 300.791038 -497.718713 
L 299.911178 -497.718713 
L 299.031319 -497.718713 
L 298.151459 -497.718713 
L 297.271599 -497.718713 
L 296.39174 -497.718713 
L 295.51188 -497.555348 
L 294.63202 -497.555348 
L 293.75216 -497.555348 
L 292.872301 -497.555348 
L 291.992441 -497.555348 
L 291.112581 -494.966217 
L 290.232722 -494.966217 
L 289.352862 -494.966217 
L 288.473002 -493.772503 
L 287.593142 -494.03502 
L 286.713283 -486.983511 
L 285.833423 -486.983511 
L 284.953563 -486.983511 
L 284.073704 -486.983511 
L 283.193844 -486.983511 
L 282.313984 -486.983511 
L 281.434124 -486.792327 
L 280.554265 -486.792327 
L 279.674405 -486.792327 
L 278.794545 -484.417776 
L 277.914686 -484.417776 
L 277.034826 -484.417776 
L 276.154966 -484.417776 
L 275.275106 -484.417776 
L 274.395247 -484.417776 
L 273.515387 -484.417776 
L 272.635527 -484.417776 
L 271.755668 -481.187759 
L 270.875808 -481.187759 
L 269.995948 -485.35194 
L 269.116088 -486.291341 
L 268.236229 -486.291341 
L 267.356369 -486.291341 
L 266.476509 -479.151933 
L 265.59665 -479.151933 
L 264.71679 -479.425849 
L 263.83693 -479.425849 
L 262.95707 -478.988935 
L 262.077211 -478.988935 
L 261.197351 -475.084945 
L 260.317491 -475.084945 
L 259.437632 -475.084945 
L 258.557772 -475.084945 
L 257.677912 -475.084945 
L 256.798053 -473.089929 
L 255.918193 -473.343769 
L 255.038333 -473.343769 
L 254.158473 -471.676496 
L 253.278614 -471.676496 
L 252.398754 -471.676496 
L 251.518894 -471.676496 
L 250.639035 -471.676496 
L 249.759175 -471.676496 
L 248.879315 -471.676496 
L 247.999455 -471.676496 
L 247.119596 -471.676496 
L 246.239736 -471.676496 
L 245.359876 -471.676496 
L 244.480017 -467.50054 
L 243.600157 -467.50054 
L 242.720297 -467.294866 
L 241.840437 -467.294866 
L 240.960578 -459.112562 
L 240.080718 -459.112562 
L 239.200858 -459.112562 
L 238.320999 -459.112562 
L 237.441139 -459.112562 
L 236.561279 -459.112562 
L 235.681419 -459.112562 
L 234.80156 -459.112562 
L 233.9217 -459.112562 
L 233.04184 -459.112562 
L 232.161981 -459.112562 
L 231.282121 -459.112562 
L 230.402261 -459.112562 
L 229.522401 -459.112562 
L 228.642542 -454.104358 
L 227.762682 -446.251793 
L 226.882822 -442.081296 
L 226.002963 -436.649346 
L 225.123103 -436.649346 
L 224.243243 -436.100287 
L 223.363383 -436.100287 
L 222.483524 -436.110096 
L 221.603664 -436.110096 
L 220.723804 -436.110096 
L 219.843945 -436.110096 
L 218.964085 -436.110096 
L 218.084225 -436.136036 
L 217.204365 -436.136036 
L 216.324506 -436.157832 
L 215.444646 -436.051294 
L 214.564786 -436.051294 
L 213.684927 -436.051294 
L 212.805067 -436.051294 
L 211.925207 -436.051294 
L 211.045347 -436.075871 
L 210.165488 -436.075871 
L 209.285628 -436.075871 
L 208.405768 -436.075871 
L 207.525909 -436.075871 
L 206.646049 -436.075871 
L 205.766189 -436.082764 
L 204.88633 -436.089295 
L 204.00647 -436.089295 
L 203.12661 -436.089295 
L 202.24675 -436.106371 
L 201.366891 -436.106371 
L 200.487031 -436.106371 
L 199.607171 -436.106371 
L 198.727312 -436.106371 
L 197.847452 -420.125212 
L 196.967592 -420.125212 
L 196.087732 -419.896116 
L 195.207873 -419.901188 
L 194.328013 -419.901188 
L 193.448153 -419.901188 
L 192.568294 -419.901188 
L 191.688434 -419.901188 
L 190.808574 -415.11312 
L 189.928714 -415.11312 
L 189.048855 -415.11312 
L 188.168995 -415.11312 
L 187.289135 -415.11312 
L 186.409276 -415.11312 
L 185.529416 -415.11312 
L 184.649556 -410.819498 
L 183.769696 -407.771045 
L 182.889837 -407.784845 
L 182.009977 -407.784845 
L 181.130117 -407.784845 
L 180.250258 -407.784845 
L 179.370398 -407.784845 
L 178.490538 -407.784845 
L 177.610678 -407.784845 
L 176.730819 -407.446546 
L 175.850959 -401.231146 
L 174.971099 -401.231146 
L 174.09124 -401.231146 
L 173.21138 -401.231146 
L 172.33152 -401.231146 
L 171.45166 -401.231146 
L 170.571801 -385.036893 
L 169.691941 -385.036893 
L 168.812081 -385.036893 
L 167.932222 -385.036893 
L 167.052362 -370.936278 
L 166.172502 -366.996563 
L 165.292642 -366.996563 
L 164.412783 -366.996563 
L 163.532923 -350.783479 
L 162.653063 -350.783479 
L 161.773204 -350.783479 
L 160.893344 -350.783479 
L 160.013484 -350.783479 
L 159.133625 -350.483268 
L 158.253765 -350.483268 
L 157.373905 -348.979911 
L 156.494045 -348.887213 
L 155.614186 -348.887213 
L 154.734326 -348.887213 
L 153.854466 -348.887213 
L 152.974607 -348.714268 
L 152.094747 -348.714268 
L 151.214887 -348.714268 
L 150.335027 -348.628895 
L 149.455168 -348.628895 
L 148.575308 -348.588389 
L 147.695448 -348.588389 
L 146.815589 -348.588389 
L 145.935729 -348.588389 
L 145.055869 -348.445122 
L 144.176009 -348.445122 
L 143.29615 -316.807411 
L 142.41629 -316.677727 
L 141.53643 -316.677727 
L 140.656571 -316.677727 
L 139.776711 -316.606095 
L 138.896851 -316.543445 
L 138.016991 -316.406421 
L 137.137132 -316.406421 
L 136.257272 -316.274007 
L 135.377412 -316.274007 
L 134.497553 -316.274007 
L 133.617693 -316.013789 
L 132.737833 -316.013789 
L 131.857973 -315.882315 
L 130.978114 -315.882315 
L 130.098254 -306.577272 
L 129.218394 -244.3033 
L 128.338535 -243.962385 
L 127.458675 -243.962385 
L 126.578815 -155.234561 
L 125.698955 -153.32884 
L 124.819096 -153.32884 
L 123.939236 -153.32884 
L 123.059376 -152.944128 
L 122.179517 -152.672454 
L 121.299657 -151.958172 
L 120.419797 -151.839184 
L 119.539937 -151.839184 
L 118.660078 -151.593859 
L 117.780218 -151.593859 
L 116.900358 -151.593859 
L 116.020499 -151.593859 
L 115.140639 -151.452066 
L 114.260779 -151.452066 
L 113.380919 -151.452066 
L 112.50106 -151.414823 
L 111.6212 -151.267153 
L 110.74134 -149.969915 
L 109.861481 -149.594231 
L 108.981621 -148.713278 
L 108.101761 -148.162582 
L 107.221902 -147.999575 
L 106.342042 -147.999575 
L 105.462182 -147.114095 
L 104.582322 -147.061188 
L 103.702463 -146.36019 
L 102.822603 -146.179048 
L 101.942743 -145.680772 
L 101.062884 -145.11538 
z
" style="stroke: #cc4f1b; stroke-opacity: 0.5"/>
    </defs>
    <g clip-path="url(#pac7e70787f)">
     <use xlink:href="#mc57e927742" x="0" y="576" style="fill: #ff9848; fill-opacity: 0.5; stroke: #cc4f1b; stroke-opacity: 0.5"/>
    </g>
   </g>
   <g id="PolyCollection_2">
    <defs>
     <path id="m7e74326124" d="M 678.250854 -426.067294 
L 678.250854 -71.541648 
L 679.130714 -74.942144 
L 680.010574 -75.785747 
L 680.890434 -174.465998 
L 681.770293 -188.737755 
L 682.650153 -188.737755 
L 683.530013 -188.737755 
L 684.409872 -188.737755 
L 685.289732 -403.98401 
L 686.169592 -403.98401 
L 687.049452 -403.98401 
L 687.929311 -403.98401 
L 688.809171 -403.98401 
L 689.689031 -403.98401 
L 690.56889 -403.98401 
L 691.44875 -403.98401 
L 692.32861 -403.98401 
L 693.20847 -403.98401 
L 694.088329 -403.98401 
L 694.968189 -403.98401 
L 695.848049 -403.98401 
L 696.727908 -403.98401 
L 697.607768 -403.98401 
L 698.487628 -403.98401 
L 699.367488 -403.98401 
L 700.247347 -403.98401 
L 701.127207 -403.98401 
L 702.007067 -403.98401 
L 702.886926 -403.98401 
L 703.766786 -403.98401 
L 704.646646 -403.98401 
L 705.526506 -403.98401 
L 706.406365 -403.98401 
L 707.286225 -403.98401 
L 708.166085 -403.98401 
L 709.045944 -403.98401 
L 709.925804 -403.98401 
L 710.805664 -403.98401 
L 711.685524 -403.98401 
L 712.565383 -403.98401 
L 713.445243 -403.98401 
L 714.325103 -403.98401 
L 715.204962 -403.98401 
L 716.084822 -403.98401 
L 716.964682 -403.98401 
L 717.844542 -403.98401 
L 718.724401 -403.98401 
L 719.604261 -403.98401 
L 720.484121 -403.98401 
L 721.36398 -403.98401 
L 722.24384 -403.98401 
L 723.1237 -403.98401 
L 724.003559 -403.98401 
L 724.883419 -403.98401 
L 725.763279 -403.98401 
L 726.643139 -403.98401 
L 727.522998 -403.98401 
L 728.402858 -403.98401 
L 729.282718 -403.98401 
L 730.162577 -403.98401 
L 731.042437 -403.98401 
L 731.922297 -403.98401 
L 732.802157 -403.98401 
L 733.682016 -403.98401 
L 734.561876 -403.98401 
L 735.441736 -403.98401 
L 736.321595 -403.98401 
L 737.201455 -403.98401 
L 738.081315 -403.98401 
L 738.961175 -403.98401 
L 739.841034 -403.98401 
L 740.720894 -403.98401 
L 741.600754 -403.98401 
L 742.480613 -403.98401 
L 743.360473 -403.98401 
L 744.240333 -403.98401 
L 745.120193 -403.98401 
L 746.000052 -403.98401 
L 746.879912 -403.98401 
L 747.759772 -403.98401 
L 748.639631 -403.98401 
L 749.519491 -403.98401 
L 750.399351 -403.98401 
L 751.279211 -403.98401 
L 752.15907 -403.98401 
L 753.03893 -403.98401 
L 753.91879 -403.98401 
L 754.798649 -403.98401 
L 755.678509 -403.98401 
L 756.558369 -403.98401 
L 757.438229 -403.98401 
L 758.318088 -403.98401 
L 759.197948 -403.98401 
L 760.077808 -403.98401 
L 760.957667 -403.98401 
L 761.837527 -403.98401 
L 762.717387 -403.98401 
L 763.597247 -403.98401 
L 764.477106 -403.98401 
L 765.356966 -403.98401 
L 766.236826 -403.98401 
L 767.116685 -403.98401 
L 767.996545 -403.98401 
L 768.876405 -403.98401 
L 769.756264 -403.98401 
L 770.636124 -403.98401 
L 771.515984 -403.98401 
L 772.395844 -403.98401 
L 773.275703 -403.98401 
L 774.155563 -405.221057 
L 775.035423 -405.221057 
L 775.915282 -405.221057 
L 776.795142 -405.221057 
L 777.675002 -405.221057 
L 778.554862 -405.221057 
L 779.434721 -405.221057 
L 780.314581 -405.221057 
L 781.194441 -405.221057 
L 782.0743 -405.221057 
L 782.95416 -405.221057 
L 783.83402 -405.221057 
L 784.71388 -405.221057 
L 785.593739 -405.221057 
L 786.473599 -405.221057 
L 787.353459 -405.221057 
L 788.233318 -405.221057 
L 789.113178 -405.221057 
L 789.993038 -405.221057 
L 790.872898 -405.221057 
L 791.752757 -405.221057 
L 792.632617 -405.221057 
L 793.512477 -405.221057 
L 794.392336 -405.221057 
L 795.272196 -405.221057 
L 796.152056 -405.221057 
L 797.031916 -405.221057 
L 797.911775 -405.221057 
L 798.791635 -405.221057 
L 799.671495 -405.221057 
L 800.551354 -405.221057 
L 801.431214 -405.221057 
L 802.311074 -405.221057 
L 803.190934 -405.221057 
L 804.070793 -405.221057 
L 804.950653 -405.221057 
L 805.830513 -405.221057 
L 806.710372 -405.221057 
L 807.590232 -405.221057 
L 808.470092 -405.221057 
L 809.349952 -405.221057 
L 810.229811 -405.221057 
L 811.109671 -405.221057 
L 811.989531 -405.221057 
L 812.86939 -405.221057 
L 813.74925 -405.221057 
L 814.62911 -405.221057 
L 815.50897 -405.221057 
L 816.388829 -405.221057 
L 817.268689 -405.221057 
L 818.148549 -405.221057 
L 819.028408 -405.221057 
L 819.908268 -405.221057 
L 820.788128 -405.221057 
L 821.667987 -405.221057 
L 822.547847 -453.465908 
L 822.547847 -453.465908 
L 822.547847 -453.465908 
L 821.667987 -466.393076 
L 820.788128 -466.393076 
L 819.908268 -466.393076 
L 819.028408 -466.393076 
L 818.148549 -466.393076 
L 817.268689 -466.393076 
L 816.388829 -466.393076 
L 815.50897 -466.393076 
L 814.62911 -466.393076 
L 813.74925 -466.393076 
L 812.86939 -466.393076 
L 811.989531 -466.393076 
L 811.109671 -466.393076 
L 810.229811 -466.393076 
L 809.349952 -466.393076 
L 808.470092 -466.393076 
L 807.590232 -466.393076 
L 806.710372 -466.393076 
L 805.830513 -466.393076 
L 804.950653 -466.393076 
L 804.070793 -466.393076 
L 803.190934 -466.393076 
L 802.311074 -466.393076 
L 801.431214 -466.393076 
L 800.551354 -466.393076 
L 799.671495 -466.393076 
L 798.791635 -466.393076 
L 797.911775 -466.393076 
L 797.031916 -466.393076 
L 796.152056 -466.393076 
L 795.272196 -466.393076 
L 794.392336 -466.393076 
L 793.512477 -466.393076 
L 792.632617 -466.393076 
L 791.752757 -466.393076 
L 790.872898 -466.393076 
L 789.993038 -466.393076 
L 789.113178 -466.393076 
L 788.233318 -466.393076 
L 787.353459 -466.393076 
L 786.473599 -466.393076 
L 785.593739 -466.393076 
L 784.71388 -466.393076 
L 783.83402 -466.393076 
L 782.95416 -466.393076 
L 782.0743 -466.393076 
L 781.194441 -466.393076 
L 780.314581 -466.393076 
L 779.434721 -466.393076 
L 778.554862 -466.393076 
L 777.675002 -466.393076 
L 776.795142 -466.393076 
L 775.915282 -466.393076 
L 775.035423 -466.393076 
L 774.155563 -466.393076 
L 773.275703 -466.724542 
L 772.395844 -466.724542 
L 771.515984 -466.724542 
L 770.636124 -466.724542 
L 769.756264 -466.724542 
L 768.876405 -466.724542 
L 767.996545 -466.724542 
L 767.116685 -466.724542 
L 766.236826 -466.724542 
L 765.356966 -466.724542 
L 764.477106 -466.724542 
L 763.597247 -466.724542 
L 762.717387 -466.724542 
L 761.837527 -466.724542 
L 760.957667 -466.724542 
L 760.077808 -466.724542 
L 759.197948 -466.724542 
L 758.318088 -466.724542 
L 757.438229 -466.724542 
L 756.558369 -466.724542 
L 755.678509 -466.724542 
L 754.798649 -466.724542 
L 753.91879 -466.724542 
L 753.03893 -466.724542 
L 752.15907 -466.724542 
L 751.279211 -466.724542 
L 750.399351 -466.724542 
L 749.519491 -466.724542 
L 748.639631 -466.724542 
L 747.759772 -466.724542 
L 746.879912 -466.724542 
L 746.000052 -466.724542 
L 745.120193 -466.724542 
L 744.240333 -466.724542 
L 743.360473 -466.724542 
L 742.480613 -466.724542 
L 741.600754 -466.724542 
L 740.720894 -466.724542 
L 739.841034 -466.724542 
L 738.961175 -466.724542 
L 738.081315 -466.724542 
L 737.201455 -466.724542 
L 736.321595 -466.724542 
L 735.441736 -466.724542 
L 734.561876 -466.724542 
L 733.682016 -466.724542 
L 732.802157 -466.724542 
L 731.922297 -466.724542 
L 731.042437 -466.724542 
L 730.162577 -466.724542 
L 729.282718 -466.724542 
L 728.402858 -466.724542 
L 727.522998 -466.724542 
L 726.643139 -466.724542 
L 725.763279 -466.724542 
L 724.883419 -466.724542 
L 724.003559 -466.724542 
L 723.1237 -466.724542 
L 722.24384 -466.724542 
L 721.36398 -466.724542 
L 720.484121 -466.724542 
L 719.604261 -466.724542 
L 718.724401 -466.724542 
L 717.844542 -466.724542 
L 716.964682 -466.724542 
L 716.084822 -466.724542 
L 715.204962 -466.724542 
L 714.325103 -466.724542 
L 713.445243 -466.724542 
L 712.565383 -466.724542 
L 711.685524 -466.724542 
L 710.805664 -466.724542 
L 709.925804 -466.724542 
L 709.045944 -466.724542 
L 708.166085 -466.724542 
L 707.286225 -466.724542 
L 706.406365 -466.724542 
L 705.526506 -466.724542 
L 704.646646 -466.724542 
L 703.766786 -466.724542 
L 702.886926 -466.724542 
L 702.007067 -466.724542 
L 701.127207 -466.724542 
L 700.247347 -466.724542 
L 699.367488 -466.724542 
L 698.487628 -466.724542 
L 697.607768 -466.724542 
L 696.727908 -466.724542 
L 695.848049 -466.724542 
L 694.968189 -466.724542 
L 694.088329 -466.724542 
L 693.20847 -466.724542 
L 692.32861 -466.724542 
L 691.44875 -466.724542 
L 690.56889 -466.724542 
L 689.689031 -466.724542 
L 688.809171 -466.724542 
L 687.929311 -466.724542 
L 687.049452 -466.724542 
L 686.169592 -466.724542 
L 685.289732 -466.724542 
L 684.409872 -524.399602 
L 683.530013 -524.399602 
L 682.650153 -524.399602 
L 681.770293 -524.399602 
L 680.890434 -468.941578 
L 680.010574 -426.351102 
L 679.130714 -426.289124 
L 678.250854 -426.067294 
z
" style="stroke: #1b2acc; stroke-opacity: 0.5"/>
    </defs>
    <g clip-path="url(#pac7e70787f)">
     <use xlink:href="#m7e74326124" x="0" y="576" style="fill: #089fff; fill-opacity: 0.5; stroke: #1b2acc; stroke-opacity: 0.5"/>
    </g>
   </g>
   <g id="matplotlib.axis_1">
    <g id="xtick_1">
     <g id="line2d_1">
      <defs>
       <path id="m5f7a91d4eb" d="M 0 0 
L 0 3.5 
" style="stroke: #000000; stroke-width: 0.8"/>
      </defs>
      <g>
       <use xlink:href="#m5f7a91d4eb" x="101.062884" y="527.10125" style="stroke: #000000; stroke-width: 0.8"/>
      </g>
     </g>
     <g id="text_1">
      <!-- 0 -->
      <g transform="translate(97.881634 541.699687) scale(0.1 -0.1)">
       <defs>
        <path id="DejaVuSans-30" d="M 2034 4250 
Q 1547 4250 1301 3770 
Q 1056 3291 1056 2328 
Q 1056 1369 1301 889 
Q 1547 409 2034 409 
Q 2525 409 2770 889 
Q 3016 1369 3016 2328 
Q 3016 3291 2770 3770 
Q 2525 4250 2034 4250 
z
M 2034 4750 
Q 2819 4750 3233 4129 
Q 3647 3509 3647 2328 
Q 3647 1150 3233 529 
Q 2819 -91 2034 -91 
Q 1250 -91 836 529 
Q 422 1150 422 2328 
Q 422 3509 836 4129 
Q 1250 4750 2034 4750 
z
" transform="scale(0.015625)"/>
       </defs>
       <use xlink:href="#DejaVuSans-30"/>
      </g>
     </g>
    </g>
    <g id="xtick_2">
     <g id="line2d_2">
      <g>
       <use xlink:href="#m5f7a91d4eb" x="277.034826" y="527.10125" style="stroke: #000000; stroke-width: 0.8"/>
      </g>
     </g>
     <g id="text_2">
      <!-- 200 -->
      <g transform="translate(267.491076 541.699687) scale(0.1 -0.1)">
       <defs>
        <path id="DejaVuSans-32" d="M 1228 531 
L 3431 531 
L 3431 0 
L 469 0 
L 469 531 
Q 828 903 1448 1529 
Q 2069 2156 2228 2338 
Q 2531 2678 2651 2914 
Q 2772 3150 2772 3378 
Q 2772 3750 2511 3984 
Q 2250 4219 1831 4219 
Q 1534 4219 1204 4116 
Q 875 4013 500 3803 
L 500 4441 
Q 881 4594 1212 4672 
Q 1544 4750 1819 4750 
Q 2544 4750 2975 4387 
Q 3406 4025 3406 3419 
Q 3406 3131 3298 2873 
Q 3191 2616 2906 2266 
Q 2828 2175 2409 1742 
Q 1991 1309 1228 531 
z
" transform="scale(0.015625)"/>
       </defs>
       <use xlink:href="#DejaVuSans-32"/>
       <use xlink:href="#DejaVuSans-30" x="63.623047"/>
       <use xlink:href="#DejaVuSans-30" x="127.246094"/>
      </g>
     </g>
    </g>
    <g id="xtick_3">
     <g id="line2d_3">
      <g>
       <use xlink:href="#m5f7a91d4eb" x="453.006768" y="527.10125" style="stroke: #000000; stroke-width: 0.8"/>
      </g>
     </g>
     <g id="text_3">
      <!-- 400 -->
      <g transform="translate(443.463018 541.699687) scale(0.1 -0.1)">
       <defs>
        <path id="DejaVuSans-34" d="M 2419 4116 
L 825 1625 
L 2419 1625 
L 2419 4116 
z
M 2253 4666 
L 3047 4666 
L 3047 1625 
L 3713 1625 
L 3713 1100 
L 3047 1100 
L 3047 0 
L 2419 0 
L 2419 1100 
L 313 1100 
L 313 1709 
L 2253 4666 
z
" transform="scale(0.015625)"/>
       </defs>
       <use xlink:href="#DejaVuSans-34"/>
       <use xlink:href="#DejaVuSans-30" x="63.623047"/>
       <use xlink:href="#DejaVuSans-30" x="127.246094"/>
      </g>
     </g>
    </g>
    <g id="xtick_4">
     <g id="line2d_4">
      <g>
       <use xlink:href="#m5f7a91d4eb" x="628.978711" y="527.10125" style="stroke: #000000; stroke-width: 0.8"/>
      </g>
     </g>
     <g id="text_4">
      <!-- 600 -->
      <g transform="translate(619.434961 541.699687) scale(0.1 -0.1)">
       <defs>
        <path id="DejaVuSans-36" d="M 2113 2584 
Q 1688 2584 1439 2293 
Q 1191 2003 1191 1497 
Q 1191 994 1439 701 
Q 1688 409 2113 409 
Q 2538 409 2786 701 
Q 3034 994 3034 1497 
Q 3034 2003 2786 2293 
Q 2538 2584 2113 2584 
z
M 3366 4563 
L 3366 3988 
Q 3128 4100 2886 4159 
Q 2644 4219 2406 4219 
Q 1781 4219 1451 3797 
Q 1122 3375 1075 2522 
Q 1259 2794 1537 2939 
Q 1816 3084 2150 3084 
Q 2853 3084 3261 2657 
Q 3669 2231 3669 1497 
Q 3669 778 3244 343 
Q 2819 -91 2113 -91 
Q 1303 -91 875 529 
Q 447 1150 447 2328 
Q 447 3434 972 4092 
Q 1497 4750 2381 4750 
Q 2619 4750 2861 4703 
Q 3103 4656 3366 4563 
z
" transform="scale(0.015625)"/>
       </defs>
       <use xlink:href="#DejaVuSans-36"/>
       <use xlink:href="#DejaVuSans-30" x="63.623047"/>
       <use xlink:href="#DejaVuSans-30" x="127.246094"/>
      </g>
     </g>
    </g>
    <g id="xtick_5">
     <g id="line2d_5">
      <g>
       <use xlink:href="#m5f7a91d4eb" x="804.950653" y="527.10125" style="stroke: #000000; stroke-width: 0.8"/>
      </g>
     </g>
     <g id="text_5">
      <!-- 800 -->
      <g transform="translate(795.406903 541.699687) scale(0.1 -0.1)">
       <defs>
        <path id="DejaVuSans-38" d="M 2034 2216 
Q 1584 2216 1326 1975 
Q 1069 1734 1069 1313 
Q 1069 891 1326 650 
Q 1584 409 2034 409 
Q 2484 409 2743 651 
Q 3003 894 3003 1313 
Q 3003 1734 2745 1975 
Q 2488 2216 2034 2216 
z
M 1403 2484 
Q 997 2584 770 2862 
Q 544 3141 544 3541 
Q 544 4100 942 4425 
Q 1341 4750 2034 4750 
Q 2731 4750 3128 4425 
Q 3525 4100 3525 3541 
Q 3525 3141 3298 2862 
Q 3072 2584 2669 2484 
Q 3125 2378 3379 2068 
Q 3634 1759 3634 1313 
Q 3634 634 3220 271 
Q 2806 -91 2034 -91 
Q 1263 -91 848 271 
Q 434 634 434 1313 
Q 434 1759 690 2068 
Q 947 2378 1403 2484 
z
M 1172 3481 
Q 1172 3119 1398 2916 
Q 1625 2713 2034 2713 
Q 2441 2713 2670 2916 
Q 2900 3119 2900 3481 
Q 2900 3844 2670 4047 
Q 2441 4250 2034 4250 
Q 1625 4250 1398 4047 
Q 1172 3844 1172 3481 
z
" transform="scale(0.015625)"/>
       </defs>
       <use xlink:href="#DejaVuSans-38"/>
       <use xlink:href="#DejaVuSans-30" x="63.623047"/>
       <use xlink:href="#DejaVuSans-30" x="127.246094"/>
      </g>
     </g>
    </g>
    <g id="xtick_6">
     <g id="line2d_6">
      <g>
       <use xlink:href="#m5f7a91d4eb" x="980.922595" y="527.10125" style="stroke: #000000; stroke-width: 0.8"/>
      </g>
     </g>
     <g id="text_6">
      <!-- 1000 -->
      <g transform="translate(968.197595 541.699687) scale(0.1 -0.1)">
       <defs>
        <path id="DejaVuSans-31" d="M 794 531 
L 1825 531 
L 1825 4091 
L 703 3866 
L 703 4441 
L 1819 4666 
L 2450 4666 
L 2450 531 
L 3481 531 
L 3481 0 
L 794 0 
L 794 531 
z
" transform="scale(0.015625)"/>
       </defs>
       <use xlink:href="#DejaVuSans-31"/>
       <use xlink:href="#DejaVuSans-30" x="63.623047"/>
       <use xlink:href="#DejaVuSans-30" x="127.246094"/>
       <use xlink:href="#DejaVuSans-30" x="190.869141"/>
      </g>
     </g>
    </g>
    <g id="text_7">
     <!-- Generation -->
     <g transform="translate(477.5875 561.456563) scale(0.18 -0.18)">
      <defs>
       <path id="DejaVuSans-47" d="M 3809 666 
L 3809 1919 
L 2778 1919 
L 2778 2438 
L 4434 2438 
L 4434 434 
Q 4069 175 3628 42 
Q 3188 -91 2688 -91 
Q 1594 -91 976 548 
Q 359 1188 359 2328 
Q 359 3472 976 4111 
Q 1594 4750 2688 4750 
Q 3144 4750 3555 4637 
Q 3966 4525 4313 4306 
L 4313 3634 
Q 3963 3931 3569 4081 
Q 3175 4231 2741 4231 
Q 1884 4231 1454 3753 
Q 1025 3275 1025 2328 
Q 1025 1384 1454 906 
Q 1884 428 2741 428 
Q 3075 428 3337 486 
Q 3600 544 3809 666 
z
" transform="scale(0.015625)"/>
       <path id="DejaVuSans-65" d="M 3597 1894 
L 3597 1613 
L 953 1613 
Q 991 1019 1311 708 
Q 1631 397 2203 397 
Q 2534 397 2845 478 
Q 3156 559 3463 722 
L 3463 178 
Q 3153 47 2828 -22 
Q 2503 -91 2169 -91 
Q 1331 -91 842 396 
Q 353 884 353 1716 
Q 353 2575 817 3079 
Q 1281 3584 2069 3584 
Q 2775 3584 3186 3129 
Q 3597 2675 3597 1894 
z
M 3022 2063 
Q 3016 2534 2758 2815 
Q 2500 3097 2075 3097 
Q 1594 3097 1305 2825 
Q 1016 2553 972 2059 
L 3022 2063 
z
" transform="scale(0.015625)"/>
       <path id="DejaVuSans-6e" d="M 3513 2113 
L 3513 0 
L 2938 0 
L 2938 2094 
Q 2938 2591 2744 2837 
Q 2550 3084 2163 3084 
Q 1697 3084 1428 2787 
Q 1159 2491 1159 1978 
L 1159 0 
L 581 0 
L 581 3500 
L 1159 3500 
L 1159 2956 
Q 1366 3272 1645 3428 
Q 1925 3584 2291 3584 
Q 2894 3584 3203 3211 
Q 3513 2838 3513 2113 
z
" transform="scale(0.015625)"/>
       <path id="DejaVuSans-72" d="M 2631 2963 
Q 2534 3019 2420 3045 
Q 2306 3072 2169 3072 
Q 1681 3072 1420 2755 
Q 1159 2438 1159 1844 
L 1159 0 
L 581 0 
L 581 3500 
L 1159 3500 
L 1159 2956 
Q 1341 3275 1631 3429 
Q 1922 3584 2338 3584 
Q 2397 3584 2469 3576 
Q 2541 3569 2628 3553 
L 2631 2963 
z
" transform="scale(0.015625)"/>
       <path id="DejaVuSans-61" d="M 2194 1759 
Q 1497 1759 1228 1600 
Q 959 1441 959 1056 
Q 959 750 1161 570 
Q 1363 391 1709 391 
Q 2188 391 2477 730 
Q 2766 1069 2766 1631 
L 2766 1759 
L 2194 1759 
z
M 3341 1997 
L 3341 0 
L 2766 0 
L 2766 531 
Q 2569 213 2275 61 
Q 1981 -91 1556 -91 
Q 1019 -91 701 211 
Q 384 513 384 1019 
Q 384 1609 779 1909 
Q 1175 2209 1959 2209 
L 2766 2209 
L 2766 2266 
Q 2766 2663 2505 2880 
Q 2244 3097 1772 3097 
Q 1472 3097 1187 3025 
Q 903 2953 641 2809 
L 641 3341 
Q 956 3463 1253 3523 
Q 1550 3584 1831 3584 
Q 2591 3584 2966 3190 
Q 3341 2797 3341 1997 
z
" transform="scale(0.015625)"/>
       <path id="DejaVuSans-74" d="M 1172 4494 
L 1172 3500 
L 2356 3500 
L 2356 3053 
L 1172 3053 
L 1172 1153 
Q 1172 725 1289 603 
Q 1406 481 1766 481 
L 2356 481 
L 2356 0 
L 1766 0 
Q 1100 0 847 248 
Q 594 497 594 1153 
L 594 3053 
L 172 3053 
L 172 3500 
L 594 3500 
L 594 4494 
L 1172 4494 
z
" transform="scale(0.015625)"/>
       <path id="DejaVuSans-69" d="M 603 3500 
L 1178 3500 
L 1178 0 
L 603 0 
L 603 3500 
z
M 603 4863 
L 1178 4863 
L 1178 4134 
L 603 4134 
L 603 4863 
z
" transform="scale(0.015625)"/>
       <path id="DejaVuSans-6f" d="M 1959 3097 
Q 1497 3097 1228 2736 
Q 959 2375 959 1747 
Q 959 1119 1226 758 
Q 1494 397 1959 397 
Q 2419 397 2687 759 
Q 2956 1122 2956 1747 
Q 2956 2369 2687 2733 
Q 2419 3097 1959 3097 
z
M 1959 3584 
Q 2709 3584 3137 3096 
Q 3566 2609 3566 1747 
Q 3566 888 3137 398 
Q 2709 -91 1959 -91 
Q 1206 -91 779 398 
Q 353 888 353 1747 
Q 353 2609 779 3096 
Q 1206 3584 1959 3584 
z
" transform="scale(0.015625)"/>
      </defs>
      <use xlink:href="#DejaVuSans-47"/>
      <use xlink:href="#DejaVuSans-65" x="77.490234"/>
      <use xlink:href="#DejaVuSans-6e" x="139.013672"/>
      <use xlink:href="#DejaVuSans-65" x="202.392578"/>
      <use xlink:href="#DejaVuSans-72" x="263.916016"/>
      <use xlink:href="#DejaVuSans-61" x="305.029297"/>
      <use xlink:href="#DejaVuSans-74" x="366.308594"/>
      <use xlink:href="#DejaVuSans-69" x="405.517578"/>
      <use xlink:href="#DejaVuSans-6f" x="433.300781"/>
      <use xlink:href="#DejaVuSans-6e" x="494.482422"/>
     </g>
    </g>
   </g>
   <g id="matplotlib.axis_2">
    <g id="ytick_1">
     <g id="line2d_7">
      <defs>
       <path id="m05d54c9ce3" d="M 0 0 
L -3.5 0 
" style="stroke: #000000; stroke-width: 0.8"/>
      </defs>
      <g>
       <use xlink:href="#m05d54c9ce3" x="58.389688" y="502.878355" style="stroke: #000000; stroke-width: 0.8"/>
      </g>
     </g>
     <g id="text_8">
      <!-- 50 -->
      <g transform="translate(30.285 506.677574) scale(0.1 -0.1)">
       <defs>
        <path id="DejaVuSans-2212" d="M 678 2272 
L 4684 2272 
L 4684 1741 
L 678 1741 
L 678 2272 
z
" transform="scale(0.015625)"/>
        <path id="DejaVuSans-35" d="M 691 4666 
L 3169 4666 
L 3169 4134 
L 1269 4134 
L 1269 2991 
Q 1406 3038 1543 3061 
Q 1681 3084 1819 3084 
Q 2600 3084 3056 2656 
Q 3513 2228 3513 1497 
Q 3513 744 3044 326 
Q 2575 -91 1722 -91 
Q 1428 -91 1123 -41 
Q 819 9 494 109 
L 494 744 
Q 775 591 1075 516 
Q 1375 441 1709 441 
Q 2250 441 2565 725 
Q 2881 1009 2881 1497 
Q 2881 1984 2565 2268 
Q 2250 2553 1709 2553 
Q 1456 2553 1204 2497 
Q 953 2441 691 2322 
L 691 4666 
z
" transform="scale(0.015625)"/>
       </defs>
       <use xlink:href="#DejaVuSans-2212"/>
       <use xlink:href="#DejaVuSans-35" x="83.789062"/>
       <use xlink:href="#DejaVuSans-30" x="147.412109"/>
      </g>
     </g>
    </g>
    <g id="ytick_2">
     <g id="line2d_8">
      <g>
       <use xlink:href="#m05d54c9ce3" x="58.389688" y="434.959737" style="stroke: #000000; stroke-width: 0.8"/>
      </g>
     </g>
     <g id="text_9">
      <!-- 0 -->
      <g transform="translate(45.027188 438.758956) scale(0.1 -0.1)">
       <use xlink:href="#DejaVuSans-30"/>
      </g>
     </g>
    </g>
    <g id="ytick_3">
     <g id="line2d_9">
      <g>
       <use xlink:href="#m05d54c9ce3" x="58.389688" y="367.041119" style="stroke: #000000; stroke-width: 0.8"/>
      </g>
     </g>
     <g id="text_10">
      <!-- 50 -->
      <g transform="translate(38.664688 370.840337) scale(0.1 -0.1)">
       <use xlink:href="#DejaVuSans-35"/>
       <use xlink:href="#DejaVuSans-30" x="63.623047"/>
      </g>
     </g>
    </g>
    <g id="ytick_4">
     <g id="line2d_10">
      <g>
       <use xlink:href="#m05d54c9ce3" x="58.389688" y="299.1225" style="stroke: #000000; stroke-width: 0.8"/>
      </g>
     </g>
     <g id="text_11">
      <!-- 100 -->
      <g transform="translate(32.302188 302.921719) scale(0.1 -0.1)">
       <use xlink:href="#DejaVuSans-31"/>
       <use xlink:href="#DejaVuSans-30" x="63.623047"/>
       <use xlink:href="#DejaVuSans-30" x="127.246094"/>
      </g>
     </g>
    </g>
    <g id="ytick_5">
     <g id="line2d_11">
      <g>
       <use xlink:href="#m05d54c9ce3" x="58.389688" y="231.203882" style="stroke: #000000; stroke-width: 0.8"/>
      </g>
     </g>
     <g id="text_12">
      <!-- 150 -->
      <g transform="translate(32.302188 235.003101) scale(0.1 -0.1)">
       <use xlink:href="#DejaVuSans-31"/>
       <use xlink:href="#DejaVuSans-35" x="63.623047"/>
       <use xlink:href="#DejaVuSans-30" x="127.246094"/>
      </g>
     </g>
    </g>
    <g id="ytick_6">
     <g id="line2d_12">
      <g>
       <use xlink:href="#m05d54c9ce3" x="58.389688" y="163.285263" style="stroke: #000000; stroke-width: 0.8"/>
      </g>
     </g>
     <g id="text_13">
      <!-- 200 -->
      <g transform="translate(32.302188 167.084482) scale(0.1 -0.1)">
       <use xlink:href="#DejaVuSans-32"/>
       <use xlink:href="#DejaVuSans-30" x="63.623047"/>
       <use xlink:href="#DejaVuSans-30" x="127.246094"/>
      </g>
     </g>
    </g>
    <g id="ytick_7">
     <g id="line2d_13">
      <g>
       <use xlink:href="#m05d54c9ce3" x="58.389688" y="95.366645" style="stroke: #000000; stroke-width: 0.8"/>
      </g>
     </g>
     <g id="text_14">
      <!-- 250 -->
      <g transform="translate(32.302188 99.165864) scale(0.1 -0.1)">
       <use xlink:href="#DejaVuSans-32"/>
       <use xlink:href="#DejaVuSans-35" x="63.623047"/>
       <use xlink:href="#DejaVuSans-30" x="127.246094"/>
      </g>
     </g>
    </g>
    <g id="text_15">
     <!-- Fitness -->
     <g transform="translate(22.9575 305.736875) rotate(-90) scale(0.16 -0.16)">
      <defs>
       <path id="DejaVuSans-46" d="M 628 4666 
L 3309 4666 
L 3309 4134 
L 1259 4134 
L 1259 2759 
L 3109 2759 
L 3109 2228 
L 1259 2228 
L 1259 0 
L 628 0 
L 628 4666 
z
" transform="scale(0.015625)"/>
       <path id="DejaVuSans-73" d="M 2834 3397 
L 2834 2853 
Q 2591 2978 2328 3040 
Q 2066 3103 1784 3103 
Q 1356 3103 1142 2972 
Q 928 2841 928 2578 
Q 928 2378 1081 2264 
Q 1234 2150 1697 2047 
L 1894 2003 
Q 2506 1872 2764 1633 
Q 3022 1394 3022 966 
Q 3022 478 2636 193 
Q 2250 -91 1575 -91 
Q 1294 -91 989 -36 
Q 684 19 347 128 
L 347 722 
Q 666 556 975 473 
Q 1284 391 1588 391 
Q 1994 391 2212 530 
Q 2431 669 2431 922 
Q 2431 1156 2273 1281 
Q 2116 1406 1581 1522 
L 1381 1569 
Q 847 1681 609 1914 
Q 372 2147 372 2553 
Q 372 3047 722 3315 
Q 1072 3584 1716 3584 
Q 2034 3584 2315 3537 
Q 2597 3491 2834 3397 
z
" transform="scale(0.015625)"/>
      </defs>
      <use xlink:href="#DejaVuSans-46"/>
      <use xlink:href="#DejaVuSans-69" x="50.269531"/>
      <use xlink:href="#DejaVuSans-74" x="78.052734"/>
      <use xlink:href="#DejaVuSans-6e" x="117.261719"/>
      <use xlink:href="#DejaVuSans-65" x="180.640625"/>
      <use xlink:href="#DejaVuSans-73" x="242.164062"/>
      <use xlink:href="#DejaVuSans-73" x="294.263672"/>
     </g>
    </g>
   </g>
   <g id="line2d_14">
    <path d="M 101.062884 430.88462 
L 101.942743 430.748783 
L 102.822603 430.477108 
L 103.702463 430.341271 
L 104.582322 429.797922 
L 105.462182 429.526248 
L 106.342042 429.118736 
L 107.221902 429.118736 
L 108.101761 428.982899 
L 108.981621 428.575387 
L 109.861481 428.032038 
L 111.6212 427.217014 
L 112.50106 426.401991 
L 113.380919 426.266154 
L 115.140639 426.266154 
L 116.020499 426.130317 
L 118.660078 426.130317 
L 119.539937 425.994479 
L 120.419797 425.994479 
L 121.299657 425.858642 
L 123.059376 425.315293 
L 123.939236 424.907781 
L 125.698955 424.907781 
L 126.578815 424.092758 
L 127.458675 402.222963 
L 128.338535 402.222963 
L 129.218394 401.679614 
L 130.098254 374.919678 
L 130.978114 372.202934 
L 131.857973 372.202934 
L 132.737833 371.931259 
L 133.617693 371.931259 
L 134.497553 371.38791 
L 136.257272 371.38791 
L 137.137132 371.116236 
L 138.016991 371.116236 
L 138.896851 370.844561 
L 140.656571 370.572887 
L 142.41629 370.572887 
L 143.29615 370.301212 
L 144.176009 348.838929 
L 145.055869 348.838929 
L 145.935729 348.431417 
L 148.575308 348.431417 
L 149.455168 348.29558 
L 150.335027 348.29558 
L 151.214887 348.023905 
L 152.974607 348.023905 
L 153.854466 347.480556 
L 156.494045 347.480556 
L 157.373905 347.208882 
L 158.253765 343.812951 
L 159.133625 343.812951 
L 160.013484 342.997928 
L 163.532923 342.997928 
L 164.412783 328.463343 
L 166.172502 328.463343 
L 167.052362 326.289948 
L 167.932222 311.212014 
L 170.571801 311.212014 
L 171.45166 303.333455 
L 175.850959 303.333455 
L 176.730819 300.752547 
L 177.610678 300.61671 
L 182.889837 300.61671 
L 183.769696 300.209198 
L 184.649556 298.17164 
L 185.529416 295.590732 
L 190.808574 295.590732 
L 191.688434 293.009825 
L 195.207873 293.009825 
L 196.087732 292.873987 
L 196.967592 292.602313 
L 197.847452 292.602313 
L 198.727312 284.452079 
L 202.24675 284.452079 
L 203.12661 283.772892 
L 204.88633 283.772892 
L 205.766189 283.637055 
L 206.646049 282.41452 
L 211.045347 282.41452 
L 211.925207 282.007008 
L 215.444646 282.007008 
L 216.324506 279.290264 
L 217.204365 279.018589 
L 218.084225 279.018589 
L 218.964085 277.252705 
L 222.483524 277.252705 
L 223.363383 276.981031 
L 224.243243 276.981031 
L 225.123103 272.09089 
L 226.002963 272.09089 
L 226.882822 263.125632 
L 227.762682 260.544725 
L 228.642542 253.8887 
L 229.522401 239.761628 
L 240.960578 239.761628 
L 241.840437 234.463975 
L 242.720297 234.463975 
L 243.600157 234.328138 
L 244.480017 234.328138 
L 245.359876 231.747231 
L 254.158473 231.747231 
L 255.038333 218.163507 
L 255.918193 218.163507 
L 256.798053 217.891833 
L 257.677912 215.310925 
L 261.197351 215.310925 
L 262.077211 210.828296 
L 262.95707 210.828296 
L 263.83693 210.556622 
L 264.71679 210.556622 
L 265.59665 210.284947 
L 266.476509 210.284947 
L 267.356369 205.25897 
L 269.116088 205.25897 
L 269.995948 204.308109 
L 270.875808 184.204198 
L 271.755668 184.204198 
L 272.635527 181.62329 
L 278.794545 181.62329 
L 279.674405 178.906546 
L 281.434124 178.906546 
L 282.313984 178.634871 
L 286.713283 178.634871 
L 287.593142 173.337219 
L 288.473002 173.201382 
L 289.352862 170.620474 
L 291.112581 170.620474 
L 291.992441 168.175404 
L 295.51188 168.175404 
L 296.39174 168.039567 
L 311.349355 168.039567 
L 312.229214 167.903729 
L 313.109074 167.903729 
L 313.988934 164.91531 
L 314.868793 164.91531 
L 315.748653 164.507799 
L 318.388232 164.507799 
L 319.268092 144.26805 
L 321.907671 144.26805 
L 322.787531 144.132213 
L 345.663883 144.132213 
L 346.543743 143.996376 
L 434.529714 143.996376 
L 435.409574 143.860539 
L 489.081016 143.860539 
L 489.960876 141.279631 
L 682.650153 141.279631 
L 683.530013 141.143794 
L 694.968189 141.143794 
L 695.848049 138.834561 
L 696.727908 138.834561 
L 697.607768 135.981979 
L 735.441736 135.981979 
L 736.321595 133.265234 
L 875.33943 133.265234 
L 876.21929 132.99356 
L 883.258167 132.99356 
L 884.138027 132.721885 
L 885.017887 131.091838 
L 892.056764 131.091838 
L 892.936624 130.684327 
L 895.576203 130.684327 
L 896.456063 130.548489 
L 897.335923 128.375094 
L 898.215782 128.103419 
L 899.095642 128.103419 
L 899.975502 125.250837 
L 953.646944 125.250837 
L 954.526804 122.534092 
L 954.526804 122.534092 
" clip-path="url(#pac7e70787f)" style="fill: none; stroke: #cc4f1b; stroke-width: 1.5; stroke-linecap: square"/>
   </g>
   <g id="line2d_15">
    <path d="M 678.250854 327.195529 
L 679.130714 325.384366 
L 680.010574 324.931575 
L 680.890434 254.296212 
L 681.770293 219.431321 
L 684.409872 219.431321 
L 685.289732 140.645724 
L 773.275703 140.645724 
L 774.155563 140.192933 
L 821.667987 140.192933 
L 822.547847 122.534092 
L 822.547847 122.534092 
" clip-path="url(#pac7e70787f)" style="fill: none; stroke: #1b2acc; stroke-width: 1.5; stroke-linecap: square"/>
   </g>
   <g id="line2d_16">
    <path d="M 58.389688 122.534092 
L 997.2 122.534092 
" clip-path="url(#pac7e70787f)" style="fill: none; stroke-dasharray: 5.55,2.4; stroke-dashoffset: 0; stroke: #800080; stroke-width: 1.5"/>
   </g>
   <g id="patch_3">
    <path d="M 58.389688 527.10125 
L 58.389688 28.9575 
" style="fill: none; stroke: #000000; stroke-width: 0.8; stroke-linejoin: miter; stroke-linecap: square"/>
   </g>
   <g id="patch_4">
    <path d="M 997.2 527.10125 
L 997.2 28.9575 
" style="fill: none; stroke: #000000; stroke-width: 0.8; stroke-linejoin: miter; stroke-linecap: square"/>
   </g>
   <g id="patch_5">
    <path d="M 58.389688 527.10125 
L 997.2 527.10125 
" style="fill: none; stroke: #000000; stroke-width: 0.8; stroke-linejoin: miter; stroke-linecap: square"/>
   </g>
   <g id="patch_6">
    <path d="M 58.389688 28.9575 
L 997.2 28.9575 
" style="fill: none; stroke: #000000; stroke-width: 0.8; stroke-linejoin: miter; stroke-linecap: square"/>
   </g>
   <g id="text_16">
    <!-- Spiral environment -->
    <g transform="translate(451.513594 22.9575) scale(0.16 -0.16)">
     <defs>
      <path id="DejaVuSans-53" d="M 3425 4513 
L 3425 3897 
Q 3066 4069 2747 4153 
Q 2428 4238 2131 4238 
Q 1616 4238 1336 4038 
Q 1056 3838 1056 3469 
Q 1056 3159 1242 3001 
Q 1428 2844 1947 2747 
L 2328 2669 
Q 3034 2534 3370 2195 
Q 3706 1856 3706 1288 
Q 3706 609 3251 259 
Q 2797 -91 1919 -91 
Q 1588 -91 1214 -16 
Q 841 59 441 206 
L 441 856 
Q 825 641 1194 531 
Q 1563 422 1919 422 
Q 2459 422 2753 634 
Q 3047 847 3047 1241 
Q 3047 1584 2836 1778 
Q 2625 1972 2144 2069 
L 1759 2144 
Q 1053 2284 737 2584 
Q 422 2884 422 3419 
Q 422 4038 858 4394 
Q 1294 4750 2059 4750 
Q 2388 4750 2728 4690 
Q 3069 4631 3425 4513 
z
" transform="scale(0.015625)"/>
      <path id="DejaVuSans-70" d="M 1159 525 
L 1159 -1331 
L 581 -1331 
L 581 3500 
L 1159 3500 
L 1159 2969 
Q 1341 3281 1617 3432 
Q 1894 3584 2278 3584 
Q 2916 3584 3314 3078 
Q 3713 2572 3713 1747 
Q 3713 922 3314 415 
Q 2916 -91 2278 -91 
Q 1894 -91 1617 61 
Q 1341 213 1159 525 
z
M 3116 1747 
Q 3116 2381 2855 2742 
Q 2594 3103 2138 3103 
Q 1681 3103 1420 2742 
Q 1159 2381 1159 1747 
Q 1159 1113 1420 752 
Q 1681 391 2138 391 
Q 2594 391 2855 752 
Q 3116 1113 3116 1747 
z
" transform="scale(0.015625)"/>
      <path id="DejaVuSans-6c" d="M 603 4863 
L 1178 4863 
L 1178 0 
L 603 0 
L 603 4863 
z
" transform="scale(0.015625)"/>
      <path id="DejaVuSans-20" transform="scale(0.015625)"/>
      <path id="DejaVuSans-76" d="M 191 3500 
L 800 3500 
L 1894 563 
L 2988 3500 
L 3597 3500 
L 2284 0 
L 1503 0 
L 191 3500 
z
" transform="scale(0.015625)"/>
      <path id="DejaVuSans-6d" d="M 3328 2828 
Q 3544 3216 3844 3400 
Q 4144 3584 4550 3584 
Q 5097 3584 5394 3201 
Q 5691 2819 5691 2113 
L 5691 0 
L 5113 0 
L 5113 2094 
Q 5113 2597 4934 2840 
Q 4756 3084 4391 3084 
Q 3944 3084 3684 2787 
Q 3425 2491 3425 1978 
L 3425 0 
L 2847 0 
L 2847 2094 
Q 2847 2600 2669 2842 
Q 2491 3084 2119 3084 
Q 1678 3084 1418 2786 
Q 1159 2488 1159 1978 
L 1159 0 
L 581 0 
L 581 3500 
L 1159 3500 
L 1159 2956 
Q 1356 3278 1631 3431 
Q 1906 3584 2284 3584 
Q 2666 3584 2933 3390 
Q 3200 3197 3328 2828 
z
" transform="scale(0.015625)"/>
     </defs>
     <use xlink:href="#DejaVuSans-53"/>
     <use xlink:href="#DejaVuSans-70" x="63.476562"/>
     <use xlink:href="#DejaVuSans-69" x="126.953125"/>
     <use xlink:href="#DejaVuSans-72" x="154.736328"/>
     <use xlink:href="#DejaVuSans-61" x="195.849609"/>
     <use xlink:href="#DejaVuSans-6c" x="257.128906"/>
     <use xlink:href="#DejaVuSans-20" x="284.912109"/>
     <use xlink:href="#DejaVuSans-65" x="316.699219"/>
     <use xlink:href="#DejaVuSans-6e" x="378.222656"/>
     <use xlink:href="#DejaVuSans-76" x="441.601562"/>
     <use xlink:href="#DejaVuSans-69" x="500.78125"/>
     <use xlink:href="#DejaVuSans-72" x="528.564453"/>
     <use xlink:href="#DejaVuSans-6f" x="567.427734"/>
     <use xlink:href="#DejaVuSans-6e" x="628.609375"/>
     <use xlink:href="#DejaVuSans-6d" x="691.988281"/>
     <use xlink:href="#DejaVuSans-65" x="789.400391"/>
     <use xlink:href="#DejaVuSans-6e" x="850.923828"/>
     <use xlink:href="#DejaVuSans-74" x="914.302734"/>
    </g>
   </g>
   <g id="legend_1">
    <g id="patch_7">
     <path d="M 893.304688 522.10125 
L 990.2 522.10125 
Q 992.2 522.10125 992.2 520.10125 
L 992.2 477.066875 
Q 992.2 475.066875 990.2 475.066875 
L 893.304688 475.066875 
Q 891.304688 475.066875 891.304688 477.066875 
L 891.304688 520.10125 
Q 891.304688 522.10125 893.304688 522.10125 
z
" style="fill: #ffffff; opacity: 0.8; stroke: #cccccc; stroke-linejoin: miter"/>
    </g>
    <g id="line2d_17">
     <path d="M 895.304688 483.165312 
L 905.304688 483.165312 
L 915.304688 483.165312 
" style="fill: none; stroke: #cc4f1b; stroke-width: 1.5; stroke-linecap: square"/>
    </g>
    <g id="text_17">
     <!-- Direct -->
     <g transform="translate(923.304688 486.665312) scale(0.1 -0.1)">
      <defs>
       <path id="DejaVuSans-44" d="M 1259 4147 
L 1259 519 
L 2022 519 
Q 2988 519 3436 956 
Q 3884 1394 3884 2338 
Q 3884 3275 3436 3711 
Q 2988 4147 2022 4147 
L 1259 4147 
z
M 628 4666 
L 1925 4666 
Q 3281 4666 3915 4102 
Q 4550 3538 4550 2338 
Q 4550 1131 3912 565 
Q 3275 0 1925 0 
L 628 0 
L 628 4666 
z
" transform="scale(0.015625)"/>
       <path id="DejaVuSans-63" d="M 3122 3366 
L 3122 2828 
Q 2878 2963 2633 3030 
Q 2388 3097 2138 3097 
Q 1578 3097 1268 2742 
Q 959 2388 959 1747 
Q 959 1106 1268 751 
Q 1578 397 2138 397 
Q 2388 397 2633 464 
Q 2878 531 3122 666 
L 3122 134 
Q 2881 22 2623 -34 
Q 2366 -91 2075 -91 
Q 1284 -91 818 406 
Q 353 903 353 1747 
Q 353 2603 823 3093 
Q 1294 3584 2113 3584 
Q 2378 3584 2631 3529 
Q 2884 3475 3122 3366 
z
" transform="scale(0.015625)"/>
      </defs>
      <use xlink:href="#DejaVuSans-44"/>
      <use xlink:href="#DejaVuSans-69" x="77.001953"/>
      <use xlink:href="#DejaVuSans-72" x="104.785156"/>
      <use xlink:href="#DejaVuSans-65" x="143.648438"/>
      <use xlink:href="#DejaVuSans-63" x="205.171875"/>
      <use xlink:href="#DejaVuSans-74" x="260.152344"/>
     </g>
    </g>
    <g id="line2d_18">
     <path d="M 895.304688 497.843437 
L 905.304688 497.843437 
L 915.304688 497.843437 
" style="fill: none; stroke: #1b2acc; stroke-width: 1.5; stroke-linecap: square"/>
    </g>
    <g id="text_18">
     <!-- Incremental -->
     <g transform="translate(923.304688 501.343437) scale(0.1 -0.1)">
      <defs>
       <path id="DejaVuSans-49" d="M 628 4666 
L 1259 4666 
L 1259 0 
L 628 0 
L 628 4666 
z
" transform="scale(0.015625)"/>
      </defs>
      <use xlink:href="#DejaVuSans-49"/>
      <use xlink:href="#DejaVuSans-6e" x="29.492188"/>
      <use xlink:href="#DejaVuSans-63" x="92.871094"/>
      <use xlink:href="#DejaVuSans-72" x="147.851562"/>
      <use xlink:href="#DejaVuSans-65" x="186.714844"/>
      <use xlink:href="#DejaVuSans-6d" x="248.238281"/>
      <use xlink:href="#DejaVuSans-65" x="345.650391"/>
      <use xlink:href="#DejaVuSans-6e" x="407.173828"/>
      <use xlink:href="#DejaVuSans-74" x="470.552734"/>
      <use xlink:href="#DejaVuSans-61" x="509.761719"/>
      <use xlink:href="#DejaVuSans-6c" x="571.041016"/>
     </g>
    </g>
    <g id="line2d_19">
     <path d="M 895.304688 512.521562 
L 905.304688 512.521562 
L 915.304688 512.521562 
" style="fill: none; stroke-dasharray: 5.55,2.4; stroke-dashoffset: 0; stroke: #800080; stroke-width: 1.5"/>
    </g>
    <g id="text_19">
     <!-- 100% fitness -->
     <g transform="translate(923.304688 516.021562) scale(0.1 -0.1)">
      <defs>
       <path id="DejaVuSans-25" d="M 4653 2053 
Q 4381 2053 4226 1822 
Q 4072 1591 4072 1178 
Q 4072 772 4226 539 
Q 4381 306 4653 306 
Q 4919 306 5073 539 
Q 5228 772 5228 1178 
Q 5228 1588 5073 1820 
Q 4919 2053 4653 2053 
z
M 4653 2450 
Q 5147 2450 5437 2106 
Q 5728 1763 5728 1178 
Q 5728 594 5436 251 
Q 5144 -91 4653 -91 
Q 4153 -91 3862 251 
Q 3572 594 3572 1178 
Q 3572 1766 3864 2108 
Q 4156 2450 4653 2450 
z
M 1428 4353 
Q 1159 4353 1004 4120 
Q 850 3888 850 3481 
Q 850 3069 1003 2837 
Q 1156 2606 1428 2606 
Q 1700 2606 1854 2837 
Q 2009 3069 2009 3481 
Q 2009 3884 1853 4118 
Q 1697 4353 1428 4353 
z
M 4250 4750 
L 4750 4750 
L 1831 -91 
L 1331 -91 
L 4250 4750 
z
M 1428 4750 
Q 1922 4750 2215 4408 
Q 2509 4066 2509 3481 
Q 2509 2891 2217 2550 
Q 1925 2209 1428 2209 
Q 931 2209 642 2551 
Q 353 2894 353 3481 
Q 353 4063 643 4406 
Q 934 4750 1428 4750 
z
" transform="scale(0.015625)"/>
       <path id="DejaVuSans-66" d="M 2375 4863 
L 2375 4384 
L 1825 4384 
Q 1516 4384 1395 4259 
Q 1275 4134 1275 3809 
L 1275 3500 
L 2222 3500 
L 2222 3053 
L 1275 3053 
L 1275 0 
L 697 0 
L 697 3053 
L 147 3053 
L 147 3500 
L 697 3500 
L 697 3744 
Q 697 4328 969 4595 
Q 1241 4863 1831 4863 
L 2375 4863 
z
" transform="scale(0.015625)"/>
      </defs>
      <use xlink:href="#DejaVuSans-31"/>
      <use xlink:href="#DejaVuSans-30" x="63.623047"/>
      <use xlink:href="#DejaVuSans-30" x="127.246094"/>
      <use xlink:href="#DejaVuSans-25" x="190.869141"/>
      <use xlink:href="#DejaVuSans-20" x="285.888672"/>
      <use xlink:href="#DejaVuSans-66" x="317.675781"/>
      <use xlink:href="#DejaVuSans-69" x="352.880859"/>
      <use xlink:href="#DejaVuSans-74" x="380.664062"/>
      <use xlink:href="#DejaVuSans-6e" x="419.873047"/>
      <use xlink:href="#DejaVuSans-65" x="483.251953"/>
      <use xlink:href="#DejaVuSans-73" x="544.775391"/>
      <use xlink:href="#DejaVuSans-73" x="596.875"/>
     </g>
    </g>
   </g>
  </g>
 </g>
 <defs>
  <clipPath id="pac7e70787f">
   <rect x="58.389688" y="28.9575" width="938.810313" height="498.14375"/>
  </clipPath>
 </defs>
</svg>
